<svg xmlns="http://www.w3.org/2000/svg" width="1228" height="690.137" viewBox="0 0 1228 690.137">
  <g id="Grupo_70261" data-name="Grupo 70261" transform="translate(-180 -531.863)">
    <g id="Grupo_70260" data-name="Grupo 70260">
      <g id="Grupo_70259" data-name="Grupo 70259">
        <path id="Rect치ngulo_7220" data-name="Rect치ngulo 7220" d="M0,0H968a63,63,0,0,1,63,63V690a0,0,0,0,1,0,0H63A63,63,0,0,1,0,627V0A0,0,0,0,1,0,0Z" transform="translate(377 532)" fill="#bf3976"/>
      </g>
      <g id="Rect치ngulo_7221" data-name="Rect치ngulo 7221" transform="translate(180 532)" fill="#12263f" stroke="#707070" stroke-width="1">
        <path d="M0,0H394a63,63,0,0,1,63,63V627a63,63,0,0,1-63,63H63A63,63,0,0,1,0,627V0A0,0,0,0,1,0,0Z" stroke="none"/>
        <path d="M1,.5H394A62.5,62.5,0,0,1,456.5,63V627A62.5,62.5,0,0,1,394,689.5H63A62.5,62.5,0,0,1,.5,627V1A.5.5,0,0,1,1,.5Z" fill="none"/>
      </g>
      <path id="Trazado_116660" data-name="Trazado 116660" d="M1735.853,0V689.921h316.182l103.225-283.607h-48.375l-65.089-178.831h48.653l40.762,111.995,40.763-111.995h48.375L2303.145,0Z" transform="translate(-1382.853 531.863)" fill="#12263f"/>
    </g>
    <path id="Trazado_116661" data-name="Trazado 116661" d="M2244.165,323.192a10.419,10.419,0,0,1,10.418,10.419H2300.3a56.137,56.137,0,0,0-56.136-56.138h-33.279a56.138,56.138,0,0,0,0,112.275h33.279a10.419,10.419,0,0,1,0,20.838h-33.279a10.42,10.42,0,0,1-10.419-10.419h-45.718a56.138,56.138,0,0,0,56.137,56.138h33.279a56.138,56.138,0,0,0,0-112.275h-33.282a10.418,10.418,0,0,1,0-20.837h33.279Z" transform="translate(-1369.769 537.997)" fill="#12263f"/>
  </g>
</svg>
