<svg xmlns="http://www.w3.org/2000/svg" width="54" height="54" viewBox="0 0 54 54">
  <g id="Grupo_70052" data-name="Grupo 70052" transform="translate(-1012 -1074)">
    <g id="translator" transform="translate(1011.45 1073)">
      <g id="Grupo_69099" data-name="Grupo 69099" transform="translate(1.992 1.9)">
        <g id="Grupo_69088" data-name="Grupo 69088" transform="translate(10.189 39.6)">
          <path id="Trazado_115280" data-name="Trazado 115280" d="M19.4,48a1.805,1.805,0,0,1,1.8,1.8V57A3.6,3.6,0,0,1,14,57V49.8A1.805,1.805,0,0,1,15.8,48h3.6Z" transform="translate(-14 -48)" fill="#cf9e76"/>
        </g>
        <g id="Grupo_69089" data-name="Grupo 69089" transform="translate(11.067 34.417)">
          <path id="Trazado_115281" data-name="Trazado 115281" d="M20.4,41.72v3.852a1.805,1.805,0,0,1-1.8,1.8H16.8a1.805,1.805,0,0,1-1.8-1.8V41.72a14.59,14.59,0,0,0,5.4,0Z" transform="translate(-15 -41.72)" fill="#ccd1d9"/>
        </g>
        <g id="Grupo_69090" data-name="Grupo 69090" transform="translate(0 7.484)">
          <circle id="Elipse_5235" data-name="Elipse 5235" cx="14.379" cy="14.379" r="14.379" transform="translate(0 0)" fill="#e6e9ed"/>
        </g>
        <g id="Grupo_69091" data-name="Grupo 69091" transform="translate(3.508 10.2)">
          <path id="Trazado_115282" data-name="Trazado 115282" d="M25.8,18.761V21.2A1.805,1.805,0,0,0,24,23v3.6a1.8,1.8,0,0,0,3.195,1.134,10.8,10.8,0,1,1-1.44-8.973Z" transform="translate(-6 -14)" fill="#339ce9"/>
        </g>
        <g id="Grupo_69092" data-name="Grupo 69092" transform="translate(21.058)">
          <path id="Trazado_115283" data-name="Trazado 115283" d="M28,20V12.8a3.468,3.468,0,0,1,.018-.432A10.779,10.779,0,0,1,38.8,2H46A10.8,10.8,0,0,1,56.8,12.8V20A1.813,1.813,0,0,0,55,21.8V19.1a2.694,2.694,0,0,0-.792-1.908,2.554,2.554,0,0,0-1.008-.63V12.8A7.2,7.2,0,0,0,46,5.6H38.8a7.2,7.2,0,0,0-7.2,7.2v3.762a2.554,2.554,0,0,0-1.008.63A2.694,2.694,0,0,0,29.8,19.1v2.7A1.813,1.813,0,0,0,28,20Z" transform="translate(-28 -2)" fill="#969faa"/>
        </g>
        <g id="Grupo_69093" data-name="Grupo 69093" transform="translate(20.544 17.308)">
          <path id="Trazado_115284" data-name="Trazado 115284" d="M29.6,23.8v3.6a1.78,1.78,0,0,1-.405,1.134A1.8,1.8,0,0,1,26,27.4V23.8A1.805,1.805,0,0,1,27.8,22a1.813,1.813,0,0,1,1.8,1.8Z" transform="translate(-26 -22)" fill="#aab2bd"/>
        </g>
        <g id="Grupo_69094" data-name="Grupo 69094" transform="translate(48.058 17.308)">
          <path id="Trazado_115285" data-name="Trazado 115285" d="M61.6,23.8v3.6a1.8,1.8,0,1,1-3.6,0V23.8A1.813,1.813,0,0,1,59.8,22,1.805,1.805,0,0,1,61.6,23.8Z" transform="translate(-58 -22)" fill="#aab2bd"/>
        </g>
        <g id="Grupo_69095" data-name="Grupo 69095" transform="translate(28.77 13.745)">
          <path id="Trazado_115286" data-name="Trazado 115286" d="M43.2,32.4a7.2,7.2,0,1,1,7.2-7.2A7.2,7.2,0,0,1,43.2,32.4Z" transform="translate(-36 -18)" fill="#bf3976"/>
        </g>
        <g id="Grupo_69096" data-name="Grupo 69096" transform="translate(42.658 13.745)">
          <path id="Trazado_115287" data-name="Trazado 115287" d="M54.7,18l.9.162a2.554,2.554,0,0,1,1.008.63A2.694,2.694,0,0,1,57.4,20.7v9a2.7,2.7,0,0,1-5.4,0v-9A2.7,2.7,0,0,1,54.7,18Z" transform="translate(-52 -18)" fill="#fcd770"/>
        </g>
        <g id="Grupo_69097" data-name="Grupo 69097" transform="translate(23.942 13.745)">
          <path id="Trazado_115288" data-name="Trazado 115288" d="M32.7,18a2.7,2.7,0,0,1,2.7,2.7v9a2.7,2.7,0,0,1-2.7,2.7A2.712,2.712,0,0,1,30,29.7v-9a2.694,2.694,0,0,1,.792-1.908,2.554,2.554,0,0,1,1.008-.63Z" transform="translate(-30 -18)" fill="#fcd770"/>
        </g>
        <g id="Grupo_69098" data-name="Grupo 69098" transform="translate(19.258 30.6)">
          <path id="Trazado_115289" data-name="Trazado 115289" d="M49.4,59.6H29.6A3.6,3.6,0,0,1,26,56V47a3.6,3.6,0,0,1,3.6-3.6h9l5.031-5.031a1.273,1.273,0,0,1,2.169.9V43.4h3.6A3.6,3.6,0,0,1,53,47v9A3.6,3.6,0,0,1,49.4,59.6Z" transform="translate(-26 -38)" fill="#e6e9ed"/>
        </g>
      </g>
      <g id="Grupo_69100" data-name="Grupo 69100" transform="translate(1 1)">
        <path id="Trazado_115290" data-name="Trazado 115290" d="M52.823,18.58V12.323A11.289,11.289,0,0,0,41.594,1h-6.91A11.267,11.267,0,0,0,23.64,10.34,14.648,14.648,0,0,0,1,22.774,14.8,14.8,0,0,0,12.228,37.15v3.044a2.6,2.6,0,0,0,.346,1.281,2.612,2.612,0,0,0-1.21,2.2v6.968a4.319,4.319,0,1,0,8.637,0V43.677a2.612,2.612,0,0,0-1.21-2.2,2.6,2.6,0,0,0,.346-1.281V37.156a14.719,14.719,0,0,0,9.024-6.591,3.313,3.313,0,0,0,.477.049,3.459,3.459,0,0,0,3.406-2.989,7.709,7.709,0,0,0,12.19,0,3.446,3.446,0,0,0,6.86-.495v-.16a2.543,2.543,0,0,0,.864.16,2.605,2.605,0,0,0,2.591-2.613V21.032a2.608,2.608,0,0,0-1.727-2.453Zm-8.588-.655a7.709,7.709,0,0,0-12.19,0,3.459,3.459,0,0,0-3.406-2.989V12.323a6.079,6.079,0,0,1,6.046-6.1h6.91a6.079,6.079,0,0,1,6.046,6.1v2.613A3.459,3.459,0,0,0,44.235,17.925Zm-19.051-5.6a9.552,9.552,0,0,1,9.5-9.581h6.91a9.552,9.552,0,0,1,9.5,9.581v6.1a3.478,3.478,0,0,0-1.727-3v-3.1a7.815,7.815,0,0,0-7.773-7.839h-6.91a7.815,7.815,0,0,0-7.773,7.839v3.1a3.478,3.478,0,0,0-1.727,3Zm-.864,7.839a.868.868,0,0,1,.864.871v3.484a.864.864,0,1,1-1.727,0V21.032A.868.868,0,0,1,24.32,20.161Zm-.864-1.582a2.608,2.608,0,0,0-1.727,2.453v3.484a2.6,2.6,0,0,0,2.419,2.6,9.58,9.58,0,1,1-.692-9.831ZM18.274,50.645a2.591,2.591,0,1,1-5.182,0V43.677a.868.868,0,0,1,.864-.871H17.41a.868.868,0,0,1,.864.871ZM17.41,40.194a.868.868,0,0,1-.864.871H14.819a.868.868,0,0,1-.864-.871V37.469a13.6,13.6,0,0,0,3.455,0Zm-1.727-4.355a13.065,13.065,0,0,1,0-26.129,12.736,12.736,0,0,1,7.773,2.624v2.293a11.153,11.153,0,0,0-7.773-3.176A11.323,11.323,0,1,0,25.429,28.4a3.483,3.483,0,0,0,1.122,1.489A12.958,12.958,0,0,1,15.683,35.839Zm14.683-8.71a1.727,1.727,0,1,1-3.455,0v-8.71a1.727,1.727,0,1,1,3.455,0Zm7.773,1.742a6.1,6.1,0,1,1,6.046-6.1A6.079,6.079,0,0,1,38.14,28.871Zm11.228-1.742a1.727,1.727,0,1,1-3.455,0v-8.71a1.727,1.727,0,1,1,3.455,0v8.71Zm3.455-2.613a.864.864,0,1,1-1.727,0V21.032a.864.864,0,1,1,1.727,0Z" transform="translate(-1 -1)"/>
        <path id="Trazado_115291" data-name="Trazado 115291" d="M49.3,42.4H46.6V39.173a2.173,2.173,0,0,0-3.709-1.536L38.127,42.4H29.5A4.505,4.505,0,0,0,25,46.9v9a4.505,4.505,0,0,0,4.5,4.5H49.3a4.505,4.505,0,0,0,4.5-4.5v-9A4.505,4.505,0,0,0,49.3,42.4ZM52,55.9a2.7,2.7,0,0,1-2.7,2.7H29.5a2.7,2.7,0,0,1-2.7-2.7v-9a2.7,2.7,0,0,1,2.7-2.7h9.373l5.291-5.291a.387.387,0,0,1,.636.264V44.2h4.5A2.7,2.7,0,0,1,52,46.9Z" transform="translate(-5.65 -6.4)"/>
        <path id="Trazado_115292" data-name="Trazado 115292" d="M33.876,47,30.061,57.492l1.691.616L32.518,56h5.776l.767,2.108,1.691-.616L36.936,47Zm-.7,7.2,1.964-5.4h.54l1.964,5.4Z" transform="translate(-5.211 -7.4)"/>
        <path id="Trazado_115293" data-name="Trazado 115293" d="M47,52h1.8v1.8H47Z" transform="translate(-7.325 -7.9)"/>
        <path id="Trazado_115294" data-name="Trazado 115294" d="M51,52h1.8v1.8H51Z" transform="translate(-8.25 -7.9)"/>
        <path id="Trazado_115295" data-name="Trazado 115295" d="M43,52h1.8v1.8H43Z" transform="translate(-6.775 -7.9)"/>
        <path id="Trazado_115296" data-name="Trazado 115296" d="M9,25h1.8v1.8H9Z" transform="translate(-1.8 -4.12)"/>
        <path id="Trazado_115297" data-name="Trazado 115297" d="M17,25h1.8v1.8H17Z" transform="translate(-3.2 -4.12)"/>
        <path id="Trazado_115298" data-name="Trazado 115298" d="M21,25h1.8v1.8H21Z" transform="translate(-3.75 -4.12)"/>
        <path id="Trazado_115299" data-name="Trazado 115299" d="M13,25h1.8v1.8H13Z" transform="translate(-2.65 -4.12)"/>
        <path id="Trazado_115300" data-name="Trazado 115300" d="M40.855,27.088a.9.9,0,0,1-.5.806l-.805.4.805,1.61.806-.4a2.689,2.689,0,0,0,1.492-2.416V26.4h1.8v1.8a.9.9,0,0,1-.9.9v1.8a2.7,2.7,0,0,0,2.7-2.7V21h-5.4Zm3.6-4.288v1.8h-1.8V22.8Z" transform="translate(-6.445 -3.706)"/>
      </g>
    </g>
    <rect id="Rectángulo_7225" data-name="Rectángulo 7225" width="54" height="54" transform="translate(1012 1074)" fill="none"/>
  </g>
</svg>
