<svg xmlns="http://www.w3.org/2000/svg" width="54" height="54" viewBox="0 0 54 54">
  <g id="Grupo_70054" data-name="Grupo 70054" transform="translate(-529 -1074)">
    <g id="concept" transform="translate(535 1075)">
      <path id="Trazado_115211" data-name="Trazado 115211" d="M39.81,10H12.07A2.07,2.07,0,0,0,10,12.07V58.859a2.07,2.07,0,0,0,2.07,2.07H47.677a2.07,2.07,0,0,0,2.07-2.07V19.938Z" transform="translate(-8.965 -8.965)" fill="#fff"/>
      <path id="Trazado_115212" data-name="Trazado 115212" d="M300.045,19.94h7.867L297.975,10v7.867A2.07,2.07,0,0,0,300.045,19.94Z" transform="translate(-267.13 -8.967)" fill="#feda9b"/>
      <g id="Grupo_69083" data-name="Grupo 69083" transform="translate(6.831 22.974)">
        <rect id="Rectángulo_7061" data-name="Rectángulo 7061" width="11.57" height="9.938" fill="#339ce9"/>
        <rect id="Rectángulo_7062" data-name="Rectángulo 7062" width="11.57" height="9.938" transform="translate(16.587 14.906)" fill="#339ce9"/>
      </g>
      <rect id="Rectángulo_7063" data-name="Rectángulo 7063" width="19.874" height="7.867" transform="translate(6.831 5.176)" fill="#bf3976"/>
      <path id="Trazado_115216" data-name="Trazado 115216" d="M85.178,164H57.022a1.035,1.035,0,1,0,0,2.07H85.178a1.035,1.035,0,1,0,0-2.07Z" transform="translate(-50.191 -147.023)"/>
      <path id="Trazado_115217" data-name="Trazado 115217" d="M228.824,259.938h-11.57a1.035,1.035,0,1,0,0,2.07h11.57a1.035,1.035,0,1,0,0-2.07Z" transform="translate(-193.837 -233.03)"/>
      <path id="Trazado_115218" data-name="Trazado 115218" d="M228.824,211.938h-11.57a1.035,1.035,0,1,0,0,2.07h11.57a1.035,1.035,0,1,0,0-2.07Z" transform="translate(-193.837 -189.999)"/>
      <path id="Trazado_115219" data-name="Trazado 115219" d="M228.824,307.938h-11.57a1.035,1.035,0,1,0,0,2.07h11.57a1.035,1.035,0,1,0,0-2.07Z" transform="translate(-193.837 -276.062)"/>
      <path id="Trazado_115220" data-name="Trazado 115220" d="M68.592,211.938H57.022a1.035,1.035,0,0,0-1.035,1.035v9.938a1.035,1.035,0,0,0,1.035,1.035h11.57a1.035,1.035,0,0,0,1.035-1.035v-9.937A1.035,1.035,0,0,0,68.592,211.938Zm-1.035,9.938h-9.5v-7.867h9.5Z" transform="translate(-50.191 -189.999)"/>
      <path id="Trazado_115221" data-name="Trazado 115221" d="M68.592,403.938H57.022a1.035,1.035,0,0,0,0,2.07h11.57a1.035,1.035,0,0,0,0-2.07Z" transform="translate(-50.191 -362.124)"/>
      <path id="Trazado_115222" data-name="Trazado 115222" d="M57.025,451.939a1.036,1.036,0,1,0,.732.3A1.047,1.047,0,0,0,57.025,451.939Z" transform="translate(-50.194 -405.156)"/>
      <path id="Trazado_115223" data-name="Trazado 115223" d="M108.945,451.938h-6.91a1.035,1.035,0,0,0,0,2.07h6.91a1.035,1.035,0,1,0,0-2.07Z" transform="translate(-90.545 -405.155)"/>
      <path id="Trazado_115224" data-name="Trazado 115224" d="M68.592,355.938H57.022a1.035,1.035,0,1,0,0,2.07h11.57a1.035,1.035,0,1,0,0-2.07Z" transform="translate(-50.191 -319.093)"/>
      <path id="Trazado_115225" data-name="Trazado 115225" d="M228.824,355.938h-11.57a1.035,1.035,0,0,0-1.035,1.035v9.938a1.035,1.035,0,0,0,1.035,1.035h11.57a1.035,1.035,0,0,0,1.035-1.035v-9.937A1.035,1.035,0,0,0,228.824,355.938Zm-1.035,9.937h-9.5v-7.867h9.5Z" transform="translate(-193.837 -319.093)"/>
      <path id="Trazado_115226" data-name="Trazado 115226" d="M31.577.3a1.035,1.035,0,0,0-.732-.3H3.105A3.109,3.109,0,0,0,0,3.105V49.895A3.109,3.109,0,0,0,3.105,53H38.712a3.109,3.109,0,0,0,3.105-3.105V10.973a1.035,1.035,0,0,0-.3-.732Zm.3,3.231,6.4,6.4H32.915A1.036,1.036,0,0,1,31.88,8.9Zm6.832,47.4H3.105A1.036,1.036,0,0,1,2.07,49.895V3.105A1.036,1.036,0,0,1,3.105,2.07h26.7V8.9a3.109,3.109,0,0,0,3.105,3.105h6.832V49.895A1.036,1.036,0,0,1,38.712,50.93Z"/>
      <path id="Trazado_115227" data-name="Trazado 115227" d="M57.022,49.938H76.9A1.035,1.035,0,0,0,77.931,48.9V41.035A1.035,1.035,0,0,0,76.9,40H57.022a1.035,1.035,0,0,0-1.035,1.035V48.9A1.035,1.035,0,0,0,57.022,49.938Zm1.035-7.867h17.8v5.8h-17.8Z" transform="translate(-50.191 -35.859)"/>
    </g>
    <rect id="Rectángulo_7223" data-name="Rectángulo 7223" width="54" height="54" transform="translate(529 1074)" fill="none"/>
  </g>
</svg>
