<svg xmlns="http://www.w3.org/2000/svg" width="54" height="54" viewBox="0 0 54 54">
  <g id="Grupo_70053" data-name="Grupo 70053" transform="translate(-772 -1074)">
    <g id="ideas" transform="translate(772 1074)">
      <path id="Trazado_115261" data-name="Trazado 115261" d="M168.522,139.755a11.707,11.707,0,1,0-19.228,8.971,6.064,6.064,0,0,1,2.142,4.652h10.758a6.073,6.073,0,0,1,2.146-4.655A11.681,11.681,0,0,0,168.522,139.755Z" transform="translate(-129.804 -114.543)" fill="#fff1a8"/>
      <path id="Trazado_115262" data-name="Trazado 115262" d="M214.184,375.569h-7.395a1.681,1.681,0,0,1-1.681-1.681v-5.678h10.757v5.678A1.681,1.681,0,0,1,214.184,375.569Z" transform="translate(-183.476 -329.374)" fill="#bf3976"/>
      <g id="Grupo_69087" data-name="Grupo 69087" transform="translate(0.942 0.942)">
        <rect id="Rectángulo_7064" data-name="Rectángulo 7064" width="14" height="13" transform="translate(38.058 0.058)" fill="#0ac4bf"/>
        <rect id="Rectángulo_7065" data-name="Rectángulo 7065" width="14" height="13" transform="translate(0.058 0.058)" fill="#339ce9"/>
        <rect id="Rectángulo_7066" data-name="Rectángulo 7066" width="14" height="13" transform="translate(0.058 39.058)" fill="#0ac4bf"/>
        <rect id="Rectángulo_7067" data-name="Rectángulo 7067" width="14" height="13" transform="translate(38.058 39.058)" fill="#339ce9"/>
      </g>
      <path id="Trazado_115263" data-name="Trazado 115263" d="M156.83,121.724a12.761,12.761,0,1,0-17.159,18.866,4.993,4.993,0,0,1,1.765,3.844v5.678a2.739,2.739,0,0,0,2.736,2.736h7.395a2.739,2.739,0,0,0,2.736-2.736v-5.678a5,5,0,0,1,1.77-3.848,12.761,12.761,0,0,0,.757-18.862Zm-4.636,28.388a.628.628,0,0,1-.627.627h-7.395a.628.628,0,0,1-.627-.627v-4.623h8.648v4.623Zm2.522-11.141a7.075,7.075,0,0,0-2.446,4.408h-3.344v-8.427a1.055,1.055,0,0,0-2.109,0v8.427H143.47a7.062,7.062,0,0,0-2.443-4.4,10.652,10.652,0,1,1,13.689,0Z" transform="translate(-120.859 -105.599)"/>
      <path id="Trazado_115264" data-name="Trazado 115264" d="M203.7,227.7a1.053,1.053,0,1,0,.746.308A1.061,1.061,0,0,0,203.7,227.7Z" transform="translate(-181.271 -203.688)"/>
      <path id="Trazado_115265" data-name="Trazado 115265" d="M247.038,227.7a1.053,1.053,0,1,0,.746.308A1.061,1.061,0,0,0,247.038,227.7Z" transform="translate(-220.039 -203.688)"/>
      <path id="Trazado_115266" data-name="Trazado 115266" d="M290.377,227.694a1.055,1.055,0,1,0,.746.309A1.061,1.061,0,0,0,290.377,227.694Z" transform="translate(-258.808 -203.679)"/>
      <path id="Trazado_115267" data-name="Trazado 115267" d="M374.98,0H361.059A1.055,1.055,0,0,0,360,1.056v13.5a1.055,1.055,0,0,0,1.055,1.055h8.014V19.2h-4.023a1.055,1.055,0,0,0,0,2.109h5.078a1.055,1.055,0,0,0,1.055-1.055V15.61h3.8a1.055,1.055,0,0,0,1.055-1.055V1.056A1.055,1.055,0,0,0,374.98,0Zm-1.055,13.5H362.113V2.11h11.812Z" transform="translate(-322.035 -0.001)"/>
      <path id="Trazado_115268" data-name="Trazado 115268" d="M399.058,87.275h5.906a1.055,1.055,0,0,0,0-2.109h-5.906a1.055,1.055,0,0,0,0,2.109Z" transform="translate(-356.026 -76.184)"/>
      <path id="Trazado_115269" data-name="Trazado 115269" d="M399.058,47.276h5.906a1.055,1.055,0,0,0,0-2.109h-5.906a1.055,1.055,0,0,0,0,2.109Z" transform="translate(-356.026 -40.403)"/>
      <path id="Trazado_115270" data-name="Trazado 115270" d="M1.055,15.609h3.8v4.641A1.055,1.055,0,0,0,5.908,21.3h5.078a1.055,1.055,0,0,0,0-2.109H6.962V15.609h8.014a1.055,1.055,0,0,0,1.055-1.055V1.055A1.055,1.055,0,0,0,14.976,0H1.055A1.055,1.055,0,0,0,0,1.055v13.5A1.055,1.055,0,0,0,1.055,15.609Zm1.055-13.5H13.921V13.5H2.109Z"/>
      <path id="Trazado_115271" data-name="Trazado 115271" d="M46.014,86.221a1.055,1.055,0,0,0-1.055-1.055H39.054a1.055,1.055,0,1,0,0,2.109H44.96A1.055,1.055,0,0,0,46.014,86.221Z" transform="translate(-33.991 -76.184)"/>
      <path id="Trazado_115272" data-name="Trazado 115272" d="M39.054,47.276H44.96a1.055,1.055,0,0,0,0-2.109H39.054a1.055,1.055,0,1,0,0,2.109Z" transform="translate(-33.991 -40.403)"/>
      <path id="Trazado_115273" data-name="Trazado 115273" d="M14.976,315.7H6.962v-3.586h3a1.055,1.055,0,0,0,0-2.109H5.908a1.055,1.055,0,0,0-1.055,1.055V315.7h-3.8A1.055,1.055,0,0,0,0,316.755v13.5a1.055,1.055,0,0,0,1.055,1.055H14.976a1.055,1.055,0,0,0,1.055-1.055v-13.5A1.055,1.055,0,0,0,14.976,315.7Zm-1.055,13.5H2.109v-11.39H13.921Z" transform="translate(0 -277.309)"/>
      <path id="Trazado_115274" data-name="Trazado 115274" d="M38,407.889a1.055,1.055,0,0,0,1.055,1.055H44.96a1.055,1.055,0,0,0,0-2.109H39.054A1.055,1.055,0,0,0,38,407.889Z" transform="translate(-33.991 -363.926)"/>
      <path id="Trazado_115275" data-name="Trazado 115275" d="M44.96,446.833H39.054a1.055,1.055,0,1,0,0,2.109H44.96a1.055,1.055,0,0,0,0-2.109Z" transform="translate(-33.991 -399.706)"/>
      <path id="Trazado_115276" data-name="Trazado 115276" d="M374.98,315.7h-3.8V311.06a1.055,1.055,0,0,0-1.055-1.055h-5.078a1.055,1.055,0,0,0,0,2.109h4.023V315.7h-8.014A1.055,1.055,0,0,0,360,316.755v13.5a1.055,1.055,0,0,0,1.055,1.055H374.98a1.055,1.055,0,0,0,1.055-1.055v-13.5A1.055,1.055,0,0,0,374.98,315.7Zm-1.055,13.5H362.113v-11.39h11.812Z" transform="translate(-322.035 -277.309)"/>
      <path id="Trazado_115277" data-name="Trazado 115277" d="M398,407.889a1.055,1.055,0,0,0,1.055,1.055h5.906a1.055,1.055,0,0,0,0-2.109h-5.906A1.055,1.055,0,0,0,398,407.889Z" transform="translate(-356.026 -363.926)"/>
      <path id="Trazado_115278" data-name="Trazado 115278" d="M404.964,446.833h-5.906a1.055,1.055,0,0,0,0,2.109h5.906a1.055,1.055,0,0,0,0-2.109Z" transform="translate(-356.026 -399.706)"/>
      <path id="Trazado_115279" data-name="Trazado 115279" d="M118,311.057a1.055,1.055,0,1,0,.309-.746A1.062,1.062,0,0,0,118,311.057Z" transform="translate(-105.552 -277.306)"/>
    </g>
    <rect id="Rectángulo_7222" data-name="Rectángulo 7222" width="54" height="54" transform="translate(772 1074)" fill="none"/>
  </g>
</svg>
