<svg xmlns="http://www.w3.org/2000/svg" width="54" height="54" viewBox="0 0 54 54">
  <g id="Grupo_70055" data-name="Grupo 70055" transform="translate(-285 -1074)">
    <g id="concept_1_" data-name="concept (1)" transform="translate(274.794 1074)">
      <g id="Grupo_69085" data-name="Grupo 69085" transform="translate(18.944 0.738)">
        <path id="Trazado_115230" data-name="Trazado 115230" d="M39.8,45.147a1.474,1.474,0,0,1,1.474-1.474h.614v-2.76A9.551,9.551,0,0,1,52.2,24.881V1.75H19.956V45.617H39.8Z" transform="translate(-19.956 -1.75)" fill="#339ce9" opacity="0.37"/>
        <path id="Trazado_115231" data-name="Trazado 115231" d="M28.433,10.458H53.52V18.5H28.433Z" transform="translate(-24.857 -6.784)" fill="#339ce9"/>
        <g id="Grupo_69084" data-name="Grupo 69084" transform="translate(2.838 15.209)">
          <path id="Trazado_115232" data-name="Trazado 115232" d="M52.509,39.277H27.421a.738.738,0,0,1,0-1.477H52.509a.738.738,0,1,1,0,1.477Z" transform="translate(-26.683 -37.8)" fill="#e8d5a5"/>
          <path id="Trazado_115233" data-name="Trazado 115233" d="M52.509,48.377H27.421a.738.738,0,0,1,0-1.477H52.509a.738.738,0,1,1,0,1.477Z" transform="translate(-26.683 -43.061)" fill="#e8d5a5"/>
          <path id="Trazado_115234" data-name="Trazado 115234" d="M45.779,57.482H27.421a.738.738,0,1,1,0-1.477H45.779a.738.738,0,0,1,0,1.477Z" transform="translate(-26.683 -48.325)" fill="#e8d5a5"/>
          <path id="Trazado_115235" data-name="Trazado 115235" d="M42.74,66.584H27.421a.738.738,0,0,1,0-1.477H42.74a.738.738,0,0,1,0,1.477Z" transform="translate(-26.683 -53.587)" fill="#e8d5a5"/>
          <path id="Trazado_115236" data-name="Trazado 115236" d="M41.9,75.686H27.421a.738.738,0,1,1,0-1.477H41.9a.738.738,0,0,1,0,1.477Z" transform="translate(-26.683 -58.849)" fill="#e8d5a5"/>
          <path id="Trazado_115237" data-name="Trazado 115237" d="M42.537,84.788H27.421a.738.738,0,1,1,0-1.477H42.537a.738.738,0,0,1,0,1.477Z" transform="translate(-26.683 -64.111)" fill="#e8d5a5"/>
          <path id="Trazado_115238" data-name="Trazado 115238" d="M50.984,93.891H37.037a.738.738,0,0,1,0-1.477H50.984a.738.738,0,0,1,0,1.477Z" transform="translate(-32.242 -69.374)" fill="#e8d5a5"/>
        </g>
        <path id="Trazado_115239" data-name="Trazado 115239" d="M81.865,63.293a9.551,9.551,0,1,0-15.233,7.678v2.76H78V70.97a9.537,9.537,0,0,0,3.869-7.677Z" transform="translate(-44.703 -31.808)" fill="#ecf0f1"/>
        <path id="Trazado_115240" data-name="Trazado 115240" d="M68.46,101.123H81.052a1.474,1.474,0,0,1,1.474,1.474v1.66H66.986V102.6a1.474,1.474,0,0,1,1.474-1.474Z" transform="translate(-47.145 -59.2)" fill="#464f5d"/>
        <path id="Trazado_115241" data-name="Trazado 115241" d="M66.986,108.554h15.54v1.66a1.474,1.474,0,0,1-1.474,1.474H68.46a1.474,1.474,0,0,1-1.474-1.474Z" transform="translate(-47.145 -63.496)" fill="#596475"/>
        <path id="Trazado_115242" data-name="Trazado 115242" d="M71.936,115.984H83.3v1.873a2.457,2.457,0,0,1-2.457,2.457h-6.45a2.457,2.457,0,0,1-2.457-2.457Z" transform="translate(-50.007 -67.792)" fill="#339ce9"/>
        <path id="Trazado_115243" data-name="Trazado 115243" d="M82.644,79.191c1.282,0,2.012-1.442,2.012-1.442L82.644,75.29l-2.011,2.459S81.363,79.191,82.644,79.191Z" transform="translate(-55.034 -44.265)" fill="#fdd7ad"/>
        <path id="Trazado_115244" data-name="Trazado 115244" d="M82.644,82.56c-1.282,0-2.011-1.442-2.011-1.442v8.44h4.023v-8.44s-.728,1.442-2.012,1.442Z" transform="translate(-55.034 -47.635)" fill="#fec400"/>
        <path id="Trazado_115245" data-name="Trazado 115245" d="M83.654,84.135V91.3h1.477V84.135A1.692,1.692,0,0,1,83.654,84.135Z" transform="translate(-56.781 -49.379)" fill="#ff8c00"/>
        <path id="Trazado_115246" data-name="Trazado 115246" d="M84.388,64.915a.738.738,0,0,1-.738-.738v-2.2a.738.738,0,1,1,1.477,0v2.2A.739.739,0,0,1,84.388,64.915Z" transform="translate(-56.779 -36.141)" fill="#fec400"/>
        <path id="Trazado_115247" data-name="Trazado 115247" d="M89.4,67.874a.738.738,0,0,1-.522-1.26l1.557-1.557A.738.738,0,1,1,91.481,66.1l-1.557,1.557a.737.737,0,0,1-.522.216Z" transform="translate(-59.678 -38.224)" fill="#fec400"/>
        <path id="Trazado_115248" data-name="Trazado 115248" d="M93.679,75.017h-2.2a.738.738,0,1,1,0-1.477h2.2a.738.738,0,1,1,0,1.477Z" transform="translate(-60.877 -43.254)" fill="#fec400"/>
        <path id="Trazado_115249" data-name="Trazado 115249" d="M74.29,75.017h-2.2a.738.738,0,1,1,0-1.477h2.2a.738.738,0,1,1,0,1.477Z" transform="translate(-49.668 -43.254)" fill="#fec400"/>
        <path id="Trazado_115250" data-name="Trazado 115250" d="M77.249,67.874a.737.737,0,0,1-.522-.216L75.171,66.1a.738.738,0,1,1,1.044-1.044l1.557,1.557a.738.738,0,0,1-.522,1.26Z" transform="translate(-51.752 -38.224)" fill="#fec400"/>
      </g>
      <g id="Grupo_69086" data-name="Grupo 69086" transform="translate(18.206)">
        <path id="Trazado_115251" data-name="Trazado 115251" d="M27.421,18.226H52.509a.738.738,0,0,0,.738-.738V9.446a.738.738,0,0,0-.738-.738H36.6a.738.738,0,0,0,0,1.477H51.77V16.75H28.16V10.185h3.318a.738.738,0,0,0,0-1.477H27.421a.738.738,0,0,0-.738.738v8.042a.738.738,0,0,0,.738.738Z" transform="translate(-23.107 -5.034)"/>
        <path id="Trazado_115252" data-name="Trazado 115252" d="M27.421,39.277H52.509a.738.738,0,1,0,0-1.477H27.421a.738.738,0,0,0,0,1.477Z" transform="translate(-23.107 -21.853)"/>
        <path id="Trazado_115253" data-name="Trazado 115253" d="M27.421,48.377H52.509a.738.738,0,1,0,0-1.477H27.421a.738.738,0,0,0,0,1.477Z" transform="translate(-23.107 -27.114)"/>
        <path id="Trazado_115254" data-name="Trazado 115254" d="M84.348,106.8H82.494a.738.738,0,0,0,0,1.477h1.854a.738.738,0,1,0,0-1.477Z" transform="translate(-54.946 -61.744)"/>
        <path id="Trazado_115255" data-name="Trazado 115255" d="M52.975,41.934V40.264a10.285,10.285,0,0,0-1.055-16.815V.738A.738.738,0,0,0,51.184,0H18.944a.738.738,0,0,0-.738.738V44.606a.738.738,0,0,0,.738.738h19.1v2.113a2.209,2.209,0,0,0,2.088,2.2V50.8a3.2,3.2,0,0,0,3.2,3.2h6.45a3.2,3.2,0,0,0,3.2-3.2V49.658a2.209,2.209,0,0,0,2.088-2.2V44.137a2.209,2.209,0,0,0-2.088-2.2Zm2.393-9.712A8.741,8.741,0,0,1,51.8,39.308a.738.738,0,0,0-.3.593v2.022H49.3v-7.7a.871.871,0,0,0-.167-.467L47.126,31.3a.763.763,0,0,0-1.143,0l-2.011,2.459a.875.875,0,0,0-.169.467v7.7H41.61V39.9a.739.739,0,0,0-.3-.593,8.813,8.813,0,1,1,14.055-7.085Zm-10.086,9.7V36.049a3.057,3.057,0,0,0,.535.236v5.638Zm2.353-7.639a1.266,1.266,0,0,1-2.175-.017l1.093-1.338,1.1,1.338Zm-.342,2a3.071,3.071,0,0,0,.535-.236v5.874h-.535ZM19.683,1.477H50.446V22.7a10.26,10.26,0,0,0-9.54.928l-.027,0H22.521a.738.738,0,0,0,0,1.477H39.137a10.359,10.359,0,0,0-1.7,2.362H22.521a.738.738,0,0,0,0,1.477H36.8a10.231,10.231,0,0,0-.5,2.362H22.521a.738.738,0,1,0,0,1.477H36.282a10.258,10.258,0,0,0,.414,2.363H22.521a.738.738,0,1,0,0,1.477H37.262a10.369,10.369,0,0,0,1.547,2.362H26.577a.738.738,0,0,0,0,1.477H40.135v1.476a2.2,2.2,0,0,0-2.061,1.932H19.683ZM51.5,50.8a1.721,1.721,0,0,1-1.719,1.719H43.33A1.721,1.721,0,0,1,41.612,50.8V49.669H51.5Zm1.353-2.611H40.259a.737.737,0,0,1-.736-.736v-.924h2.094a.738.738,0,1,0,0-1.477H39.523v-.922a.737.737,0,0,1,.736-.736H52.851a.737.737,0,0,1,.736.736v.922H51.745a.738.738,0,1,0,0,1.477h1.841v.922A.737.737,0,0,1,52.851,48.192Z" transform="translate(-18.206)"/>
        <path id="Trazado_115256" data-name="Trazado 115256" d="M83.654,61.975v2.2a.738.738,0,0,0,1.477,0v-2.2a.738.738,0,1,0-1.477,0Z" transform="translate(-56.043 -35.403)"/>
        <path id="Trazado_115257" data-name="Trazado 115257" d="M89.4,67.874a.737.737,0,0,0,.522-.216L91.481,66.1a.738.738,0,1,0-1.044-1.044L88.88,66.613a.738.738,0,0,0,.522,1.26Z" transform="translate(-58.939 -37.486)"/>
        <path id="Trazado_115258" data-name="Trazado 115258" d="M90.739,74.278a.738.738,0,0,0,.738.738h2.2a.738.738,0,1,0,0-1.477h-2.2a.738.738,0,0,0-.738.738Z" transform="translate(-60.139 -42.515)"/>
        <path id="Trazado_115259" data-name="Trazado 115259" d="M74.29,73.54h-2.2a.738.738,0,1,0,0,1.477h2.2a.738.738,0,1,0,0-1.477Z" transform="translate(-48.93 -42.515)"/>
        <path id="Trazado_115260" data-name="Trazado 115260" d="M76.215,65.057A.738.738,0,0,0,75.171,66.1l1.557,1.557a.738.738,0,0,0,1.044-1.044Z" transform="translate(-51.014 -37.486)"/>
      </g>
    </g>
    <rect id="Rectángulo_7224" data-name="Rectángulo 7224" width="54" height="54" transform="translate(285 1074)" fill="none"/>
  </g>
</svg>
