<svg xmlns="http://www.w3.org/2000/svg" xmlns:xlink="http://www.w3.org/1999/xlink" width="101.808" height="101.808" viewBox="0 0 101.808 101.808">
  <defs>
    <clipPath id="clip-path">
      <circle id="Elipse_5139" data-name="Elipse 5139" cx="39.066" cy="39.066" r="39.066" transform="translate(-609.221 1147.134) rotate(-67.871)" fill="none"/>
    </clipPath>
  </defs>
  <g id="Grupo_70253" data-name="Grupo 70253" transform="translate(-1012 -1584.001)">
    <circle id="Elipse_5137" data-name="Elipse 5137" cx="44.052" cy="44.052" r="44.052" transform="matrix(0.099, -0.995, 0.995, 0.099, 1014.725, 1674.402)" fill="#0ac4bf"/>
    <path id="Trazado_108087" data-name="Trazado 108087" d="M-510.686,1129.1a47.741,47.741,0,0,1-51.045,44.19,47.741,47.741,0,0,1-44.189-51.045,47.74,47.74,0,0,1,51.045-44.189,47.52,47.52,0,0,1,26.037,10.048" transform="translate(1621.221 509.244)" fill="none" stroke="#0ac4bf" stroke-linecap="round" stroke-linejoin="round" stroke-width="0.914"/>
    <circle id="Elipse_5138" data-name="Elipse 5138" cx="39.066" cy="39.066" r="39.066" transform="translate(1012 1656.378) rotate(-67.871)" fill="#fff"/>
    <g id="Grupo_60985" data-name="Grupo 60985" transform="translate(1621.221 509.244)">
      <g id="Grupo_60984" data-name="Grupo 60984" clip-path="url(#clip-path)">
        <g id="Grupo_60998" data-name="Grupo 60998" transform="translate(-5754.669 978.235)">
          <path id="Trazado_108255" data-name="Trazado 108255" d="M5159.422,166.62a1.138,1.138,0,0,0,.262-.049c.57-.252,1.135-.515,1.705-.766.262-.115.537-.2.8-.317.9-.393,1.8-.8,2.7-1.186q1.253-.539,2.518-1.051c.659-.269,1.327-.517,1.985-.786.9-.369,1.8-.758,2.7-1.123.751-.3,1.514-.582,2.269-.879.487-.191.965-.4,1.453-.591.344-.133.692-.257,1.045-.358a1.4,1.4,0,0,0,.8-.579,26.73,26.73,0,0,1,3.524-4.1c.356-.34.732-.658,1.083-1a.793.793,0,0,0,.237-.409c.109-.787.188-1.579.285-2.368.038-.308.1-.614.15-.921a2.42,2.42,0,0,0,.033-.341c0-.22-.01-.44,0-.66.014-.342-.088-.486-.418-.552a1.765,1.765,0,0,1-1.159-.639,5.551,5.551,0,0,1-.545-1.188,8.02,8.02,0,0,1-.216-.8c-.06-.221-.125-.44-.19-.66q-.1-.353-.209-.705a1.905,1.905,0,0,1-.067-.185,14.622,14.622,0,0,1-.534-4.074,18.209,18.209,0,0,0-.052-2.187,8.712,8.712,0,0,1,.114-2.253,1.622,1.622,0,0,1,.963-1.168,1,1,0,0,1,.5-.011,1.876,1.876,0,0,1,.294.12c.308.095.453-.017.449-.336-.008-.556-.012-1.112-.029-1.667a.872.872,0,0,0-.1-.268,1.241,1.241,0,0,1-.134-.336c-.039-.545-.035-1.094-.09-1.637a3.894,3.894,0,0,1,.921-2.777.81.81,0,0,0,.136-.231c.161-.524.3-1.057.475-1.574a5.583,5.583,0,0,1,.425-.909,7.312,7.312,0,0,1,1.208-1.727c.187-.182.176-.334,0-.535-.249-.276-.237-.265.014-.55.292-.332.541-.7.845-1.023.716-.756,1.455-1.491,2.181-2.236.3-.3.3-.307.1-.687-.086-.169-.022-.292.14-.316a1.152,1.152,0,0,0,.731-.539,7.57,7.57,0,0,1,2.409-1.951,8.887,8.887,0,0,1,1.121-.437c.184-.069.368-.138.556-.193a.982.982,0,0,1,.379-.057.611.611,0,0,0,.561-.18,1.326,1.326,0,0,1,.833-.376c.315-.041.625-.124.94-.171a8.169,8.169,0,0,1,3.267.149,15.1,15.1,0,0,1,1.685.439,10.031,10.031,0,0,1,2.086,1.029.728.728,0,0,0,.479.1.76.76,0,0,1,.683.176.483.483,0,0,0,.325.132,2.466,2.466,0,0,1,1.623.538,10.185,10.185,0,0,1,2.937,2.725.653.653,0,0,0,.294.208,1.347,1.347,0,0,1,.743.678,7.534,7.534,0,0,1,.752,2.114,1.589,1.589,0,0,0,1.147,1.145,10.7,10.7,0,0,1,1.03.441c.2.094.383.221.576.329.214.12.236.23.076.4-.292.315-.28.376.051.65a3.274,3.274,0,0,1,1.027,1.558,2.88,2.88,0,0,0,.137.341c.2.437.438.863.61,1.312a3.435,3.435,0,0,1,.094,1.6c0,.04-.034.08-.031.118a.659.659,0,0,1-.49.743c-.192.068-.209.287-.132.471a5.223,5.223,0,0,1,.283,2.152,3.583,3.583,0,0,1-.117,1.216.389.389,0,0,0,.014.217,3.593,3.593,0,0,1-.088,2.107,2.964,2.964,0,0,1-.1.379,2.772,2.772,0,0,1-.357.624,2.328,2.328,0,0,0-.611.935.673.673,0,0,1-.121.212.37.37,0,0,0,.265.626,1.288,1.288,0,0,1,1.253,1.483,5.84,5.84,0,0,1-.544,2.1c-.235.6-.44,1.214-.628,1.832a9.854,9.854,0,0,1-.947,2.208c-.543.905-1.124,1.788-1.7,2.671-.292.445-.648.851-.918,1.308a6.724,6.724,0,0,0-.457,1.1c-.2.552-.374,1.117-.589,1.663a8.246,8.246,0,0,1-.559,1.173,14.917,14.917,0,0,1-1.741,2.729c-.235.251-.146.482.179.58.885.267,1.764.554,2.645.833.031.01.06.027.091.036.551.148,1.105.286,1.653.447s1.075.344,1.614.511c.72.222,1.443.433,2.163.655.321.1.637.212.955.318.98.325,1.958.656,2.94.972.927.3,1.861.572,2.787.875.49.16.965.365,1.45.54.2.072.409.114.611.178.171.053.338.115.5.179.084.032.16.084.245.114.8.283,1.609.554,2.408.849.45.166.885.373,1.329.555a2.789,2.789,0,0,1,1.065.923,14.693,14.693,0,0,1,2.1,3.683,12.019,12.019,0,0,1,.681,2.2c.18.866.381,1.727.554,2.595.074.369.095.748.146,1.121a4.538,4.538,0,0,0,.124.676c.03.1.149.172.228.256v2.757a.4.4,0,0,1-.295-.38c-.1-.64-.194-1.279-.3-1.918-.034-.2-.109-.4-.14-.6-.14-.914-.251-1.832-.408-2.742-.116-.668-.269-1.33-.439-1.986a13.956,13.956,0,0,0-.493-1.519c-.191-.494-.424-.973-.654-1.452s-.466-.936-.708-1.4a.187.187,0,0,0-.151-.088c-.042.009-.092.094-.093.145a2.008,2.008,0,0,0,.044.339,13.6,13.6,0,0,1,.283,1.743c.051,1.434.052,2.87.043,4.305-.006.91-.049,1.82-.109,2.728-.062.924-.157,1.846-.257,2.766s-.254,1.836-.327,2.758a14.829,14.829,0,0,1-.267,1.895c-.115.543-.145,1.1-.212,1.656h-.542a2.128,2.128,0,0,1-.021-.415c.076-.552.177-1.1.251-1.651.133-.991.256-1.984.378-2.977.034-.276.039-.556.07-.833.068-.586.169-1.169.213-1.757.063-.858.1-1.719.126-2.58.05-1.45.144-2.9.115-4.35a26.022,26.022,0,0,0-.559-4.707.932.932,0,0,0-.386-.594,4.719,4.719,0,0,0-1.249-.557c-.765-.291-1.522-.605-2.292-.884-.724-.263-1.458-.494-2.189-.737-.521-.173-1.043-.341-1.564-.513-.147-.049-.292-.1-.439-.154-.513-.172-1.023-.35-1.539-.511s-1.028-.3-1.542-.452l-.023-.009q-1.042-.357-2.082-.714c-.2-.069-.405-.131-.608-.2q-.856-.268-1.712-.535c-.507-.158-1.016-.313-1.524-.47-.625-.193-1.247-.405-1.879-.576a11.522,11.522,0,0,1-2.331-.758c-.078-.04-.194-.006-.293-.006a.881.881,0,0,0,.081.3c.191.265.408.512.6.773.423.562.83,1.135,1.26,1.69.874,1.128,1.761,2.246,2.638,3.371.569.73,1.126,1.47,1.7,2.2.618.786,1.248,1.564,1.871,2.346q1.18,1.48,2.358,2.961a.327.327,0,0,1,.006.448q-1.132,1.452-2.264,2.9a.314.314,0,0,0,.109.528c.155.091.31.183.458.285.6.415,1.188.85,1.8,1.249.864.565,1.745,1.1,2.618,1.655a.673.673,0,0,1,.335.665q-.027.356-.058.711c-.089,1-.182,1.992-.268,2.988-.053.621-.1,1.242-.145,1.863h-.591c.038-.431.075-.862.114-1.292s.085-.847.116-1.272c.069-.957.125-1.914.2-2.87a.449.449,0,0,0-.18-.449c-.206-.149-.4-.313-.616-.45-.579-.373-1.167-.731-1.747-1.1-.93-.6-1.854-1.207-2.785-1.8-.255-.163-.305-.338-.12-.588.122-.165.253-.323.378-.485.62-.8,1.237-1.612,1.859-2.414a.467.467,0,0,0,0-.629c-.1-.137-.221-.264-.324-.4-.52-.7-1.022-1.406-1.557-2.091-1.21-1.551-2.441-3.086-3.653-4.636-.8-1.026-1.584-2.069-2.382-3.1-.842-1.088-1.693-2.17-2.541-3.255-.171-.219-.393-.225-.505.024a8.6,8.6,0,0,0-.37,1.06,4.284,4.284,0,0,0-.135.672,1.269,1.269,0,0,0-.02.574,3.557,3.557,0,0,1,.173,1.355c-.01.475-.014.95-.022,1.425-.013.794.022,1.593-.053,2.381-.163,1.675-.294,3.35-.3,5.032,0,1.007.093,2.018.038,3.022-.053.955.073,1.894.1,2.84.019.588.154,1.172.175,1.761a47.425,47.425,0,0,0,.4,5.468,8.408,8.408,0,0,1,.013,1.226h-.492c-.008-.2-.011-.409-.026-.612-.083-1.1-.171-2.19-.252-3.285-.046-.63-.081-1.26-.121-1.891-.076-1.185-.161-2.37-.225-3.557a.832.832,0,0,0-.266-.631c-.69-.618-1.375-1.241-2.062-1.862-.188-.171-.37-.349-.564-.513s-.33-.138-.452.083c-.083.151-.153.309-.24.457-.42.713-.821,1.439-1.276,2.129a1.524,1.524,0,0,0-.2,1.263c.252,1.219.428,2.453.641,3.68.1.581.237,1.157.321,1.741.144,1,.261,2,.389,3h-8.667a1.3,1.3,0,0,1,.024-.317c.389-1.216.775-2.433,1.182-3.643.245-.73.513-1.453.791-2.171.3-.771.613-1.536.933-2.3.116-.277.116-.41-.094-.619-.331-.329-.667-.654-1-.979q-1.032-1-2.064-2a.394.394,0,0,0-.605-.011q-1.033.851-2.074,1.693a.62.62,0,0,0-.237.7c.178.518.365,1.033.541,1.552.188.559.375,1.118.547,1.682.208.681.4,1.367.6,2.052.175.614.345,1.229.517,1.844.068.244.138.488.2.735.139.595.271,1.191.4,1.787h-.541c-.067-.42-.105-.846-.208-1.257-.16-.635-.371-1.257-.549-1.888-.291-1.032-.561-2.07-.865-3.1-.239-.809-.519-1.607-.778-2.41-.128-.4-.243-.8-.381-1.192q-.453-1.286-.925-2.564-.265-.714-.564-1.414c-.183-.428-.379-.85-.584-1.268s-.418-.813-.633-1.217c-.169-.317-.356-.626-.515-.948-.395-.8-.781-1.6-1.166-2.41a20.342,20.342,0,0,1-.91-1.95,17.729,17.729,0,0,1-.923-2.53c-.158-.815-.435-1.607-.631-2.416-.069-.291-.03-.607-.084-.9a10.975,10.975,0,0,1,.064-3.211,1.752,1.752,0,0,1,.137-.367,3.019,3.019,0,0,0,.139-.443.232.232,0,0,0-.076-.2.247.247,0,0,0-.21.068c-.424.422-.854.839-1.256,1.283-.572.631-1.133,1.273-1.676,1.929a10.512,10.512,0,0,0-1.066,1.435,16.443,16.443,0,0,0-.755,1.721c-.026.06-.05.121-.07.183-.192.58-.4,1.155-.565,1.744a10.942,10.942,0,0,0-.235,1.281c-.086.566-.155,1.134-.232,1.7-.048.357-.094.715-.146,1.072s-.133.727-.169,1.093c-.144,1.485-.259,2.973-.418,4.457-.077.716-.269,1.421-.334,2.138a12.68,12.68,0,0,1-.335,2.234.577.577,0,0,0,.3.688q.441.217.888.422,1.172.538,2.346,1.071c.567.257,1.134.517,1.708.759a.43.43,0,0,1,.183.719c-.454.569-.907,1.14-1.344,1.722-.511.682-1,1.381-1.506,2.066-.327.441-.68.864-1,1.309a4.19,4.19,0,0,0-.306.6h-.689a2.7,2.7,0,0,1,.219-.427c.267-.353.561-.685.826-1.038.33-.439.639-.893.963-1.336.693-.945,1.393-1.884,2.084-2.829.165-.225.089-.424-.173-.517a4.743,4.743,0,0,1-.459-.173c-.629-.3-1.252-.61-1.881-.909-.784-.372-1.573-.735-2.357-1.107-.36-.17-.4-.26-.351-.656.157-1.218.32-2.434.468-3.653q.3-2.453.575-4.908c.08-.717.069-1.448.2-2.155a30.691,30.691,0,0,1,.686-3.771c.185-.593.335-1.2.511-1.793.059-.2.16-.4.219-.6a.427.427,0,0,0-.012-.315c-.035-.051-.2-.046-.29-.017-.154.049-.292.144-.443.205-.216.087-.437.164-.657.24-.13.045-.266.074-.394.124-.192.075-.378.165-.571.241-.129.051-.266.083-.395.134-.487.193-.972.391-1.459.585-.705.28-1.412.556-2.117.836q-.422.167-.84.345c-.564.239-1.125.487-1.692.721-.384.159-.78.292-1.163.455-.406.172-.8.373-1.2.549q-1.159.506-2.327,1c-.44.187-.886.362-1.327.548-.391.165-.79.318-1.166.514a3.032,3.032,0,0,1-1.275.405Zm52.775-33.543a6.471,6.471,0,0,0-.251-2.071.823.823,0,0,1-.029-.194,7.76,7.76,0,0,0-.55-2.264,7.461,7.461,0,0,0-.694-1.518,5.206,5.206,0,0,0-1.849-1.661c-.552-.337-1.114-.657-1.675-.978-.391-.224-.78-.456-1.187-.646a1.8,1.8,0,0,0-1.466-.2,1.342,1.342,0,0,1-.364.046c-.89.077-1.781.147-2.67.23a2.439,2.439,0,0,1-1.092-.093c-.8-.292-1.613-.551-2.405-.863a16.181,16.181,0,0,1-3.176-1.714.631.631,0,0,0-.408-.12c-.814.133-1.625.291-2.436.441a.222.222,0,0,0-.046.018c-.4.174-.785.369-1.191.516a3.133,3.133,0,0,0-1.286,1,10.1,10.1,0,0,0-.921,1.414,8.067,8.067,0,0,0-.416.862c-.32.718-.638,1.437-.948,2.16-.213.5-.388,1.008-.625,1.492s-.54.937-.793,1.415a8.876,8.876,0,0,0-.728,2.992c-.1.7-.044,1.427-.116,2.136a21.148,21.148,0,0,1-.377,2.573,15.834,15.834,0,0,1-.708,2.01.574.574,0,0,1-.243.264.666.666,0,0,0-.35.632c0,.45.015.9.018,1.349.005.894-.019,1.789.014,2.682.055,1.442.146,2.883.222,4.324a9.37,9.37,0,0,0,.253,2.314c.169.547.265,1.116.422,1.666a12.056,12.056,0,0,0,.551,1.673,17.569,17.569,0,0,0,1.316,2.582,12.943,12.943,0,0,0,1.709,2.087c.563.549,1.135,1.09,1.689,1.648.514.517,1,1.059,1.515,1.579a7,7,0,0,0,3.139,1.844,8.5,8.5,0,0,0,3.61.149,7.846,7.846,0,0,0,4.209-2.15c.6-.556,1.23-1.084,1.84-1.632.488-.438.992-.862,1.439-1.339a11.993,11.993,0,0,0,1.062-1.353c.544-.779,1.083-1.564,1.582-2.372a13.141,13.141,0,0,0,1.349-2.946,17.508,17.508,0,0,0,.534-2.144c.156-.859.231-1.733.357-2.6.081-.551.2-1.1.284-1.646.1-.648.173-1.3.263-1.948q.238-1.726.48-3.452c0-.032,0-.065.007-.1.034-.655.066-1.311.105-1.966a3.22,3.22,0,0,1,.077-.534c.194-.813.406-1.621.591-2.436.085-.375.1-.766.188-1.139A6.673,6.673,0,0,0,5212.2,133.076Zm-29.565,6.144-.036,0a4.112,4.112,0,0,0,.092.578c.065.214.214.233.366.069a2.138,2.138,0,0,0,.711-1.311,1.86,1.86,0,0,1,.111-.351,7.957,7.957,0,0,0,.217-.854c.061-.4.08-.8.121-1.2.086-.847.177-1.694.263-2.542a5.933,5.933,0,0,1,.263-1.816,1.3,1.3,0,0,0,.071-.311,4.757,4.757,0,0,1,.618-1.6,22.9,22.9,0,0,0,1.054-2.083,29.657,29.657,0,0,1,2.075-4.425,4.857,4.857,0,0,1,2.343-2.02,14.858,14.858,0,0,1,3.524-.875.609.609,0,0,1,.372.076c.427.26.828.567,1.265.808.651.359,1.316.7,1.994,1.005.521.237,1.076.4,1.6.625a3.426,3.426,0,0,0,1.682.272c.6-.053,1.21-.094,1.815-.15a7.627,7.627,0,0,0,1.776-.236.621.621,0,0,1,.423.055,26.351,26.351,0,0,1,4.726,2.765,4.559,4.559,0,0,1,1.427,1.873c.2.483.373.979.526,1.48a10.936,10.936,0,0,1,.6,2.929c.011.449.061.9.036,1.348a24.716,24.716,0,0,1-.222,2.545c-.139.87-.424,1.715-.579,2.583-.172.967-.27,1.947-.4,2.922-.035.26-.085.519-.1.78,0,.094.083.191.128.287.1-.053.251-.082.291-.165a1.348,1.348,0,0,0,.076-.451,3.464,3.464,0,0,1,.036-.512.589.589,0,0,1,.205-.319,2.286,2.286,0,0,0,.838-1.389c.115-.447.264-.885.4-1.327a.544.544,0,0,1,.048-.085c.131-.245.251-.5.4-.733a2.418,2.418,0,0,1,.3-.341c.074-.082.2-.152.218-.242a4.338,4.338,0,0,0,.092-1.019,6.29,6.29,0,0,0-.237-1.146.731.731,0,0,1,.017-.66,1.382,1.382,0,0,0,.171-1.062c-.107-.729-.21-1.459-.3-2.19-.044-.352.05-.457.388-.467.237-.007.347-.117.344-.349,0-.328,0-.657-.016-.984a1.436,1.436,0,0,0-.12-.394c-.056-.152-.121-.3-.185-.451a3.939,3.939,0,0,0-.23-.512,3.482,3.482,0,0,0-1.083-1.12c-.115-.076-.229-.17-.021-.287.243-.136.24-.241.068-.46a3.628,3.628,0,0,0-.948-.689,1.333,1.333,0,0,1-.229-.26c.093-.056.188-.11.279-.169s.152-.107.227-.161c-.061-.08-.1-.2-.185-.234a3.945,3.945,0,0,0-.911-.355,1.536,1.536,0,0,1-.973-.655,2.767,2.767,0,0,1-.487-.917,2.952,2.952,0,0,0-.257-.858.916.916,0,0,1-.109-.35.868.868,0,0,0-.7-.767c-.1-.027-.233-.091-.253-.165a2.594,2.594,0,0,0-.5-.791,7.7,7.7,0,0,0-1.677-1.718,18.827,18.827,0,0,0-1.583-1.022.437.437,0,0,0-.351-.006.588.588,0,0,1-.683-.1.463.463,0,0,0-.457-.075.7.7,0,0,1-.457-.059c-.249-.134-.457-.346-.708-.477a16.593,16.593,0,0,0-1.717-.832,15.93,15.93,0,0,0-3.28-.737,3.162,3.162,0,0,0-1.721.144,4.863,4.863,0,0,1-.531.08.836.836,0,0,0-.412.2.814.814,0,0,1-.615.3,2.466,2.466,0,0,0-.776.1c-.506.211-1.06.238-1.56.5a3.612,3.612,0,0,0-1.917,1.527,1.571,1.571,0,0,1-.476.452,2.229,2.229,0,0,1-.418.259.309.309,0,0,0-.168.424.414.414,0,0,1-.035.333c-.236.256-.506.481-.758.723-.378.363-.758.724-1.125,1.1s-.729.776-1.1,1.157a.276.276,0,0,0-.048.372c.045.086.092.241.051.29a.965.965,0,0,0-.221.681.353.353,0,0,1-.1.191c-.2.231-.414.445-.594.688a10.6,10.6,0,0,0-.812,1.2,13.175,13.175,0,0,0-.543,1.283.629.629,0,0,1-.1.194.472.472,0,0,0-.046.647.339.339,0,0,1-.09.48,1.482,1.482,0,0,0-.292.262,3.244,3.244,0,0,0-.906,2.257c.006.047-.024.1-.015.146a1.54,1.54,0,0,0,.125.474.75.75,0,0,1,.1.559,1.552,1.552,0,0,0,.017.474c.027.2.091.4.105.6.019.268,0,.538,0,.807,0,.458,0,.916,0,1.374a.393.393,0,0,1-.018.121,1.205,1.205,0,0,0,.282,1.183.594.594,0,0,1,.131.355,2.171,2.171,0,0,1-.152,1.084.59.59,0,0,0-.017.311C5182.535,138.225,5182.584,138.723,5182.632,139.22Zm.612,12.934-.093,0a3.121,3.121,0,0,0-.1.431c-.033.375-.038.753-.075,1.128-.049.488-.135.973-.173,1.462a9.588,9.588,0,0,0,.009,1.033,1.328,1.328,0,0,0,.066.259c.047.2.1.391.136.59a12.113,12.113,0,0,0,.2,1.233,17.5,17.5,0,0,0,.585,1.661,7.967,7.967,0,0,0,.557,1.171,9.945,9.945,0,0,0,1.966,2.442q1.041.9,2.13,1.741c.578.444,1.187.848,1.789,1.258.521.355,1.045.708,1.584,1.035q1.356.821,2.733,1.6a14.886,14.886,0,0,0,1.348.652,1.088,1.088,0,0,0,.432.033c.154,0,.309-.037.462-.031a1.348,1.348,0,0,0,1.128-.435c.229-.256.475-.5.724-.736a51.706,51.706,0,0,0,4.622-5c.465-.578.887-1.193,1.3-1.813a3.368,3.368,0,0,0,.31-.8,1.025,1.025,0,0,0,.011-.3c-.1.028-.233.026-.307.089-.5.432-1,.866-1.486,1.322a13.117,13.117,0,0,1-2.84,2.25,7.031,7.031,0,0,1-2.125.819,9.937,9.937,0,0,1-2.812.171,7.565,7.565,0,0,1-2.267-.534,9.773,9.773,0,0,1-3.389-2.636c-.464-.549-.976-1.059-1.485-1.569-.434-.435-.931-.811-1.333-1.271a13.869,13.869,0,0,1-2.157-3.244,14.269,14.269,0,0,1-1.345-3.76A1.329,1.329,0,0,0,5183.244,152.155Zm-.764,4.935-.115,0a1.371,1.371,0,0,0-.088.313c-.015.262-.012.524-.011.786a12.361,12.361,0,0,0,.426,2.617c.134.6.31,1.188.5,1.772.175.544.386,1.077.591,1.611.174.451.351.9.548,1.341.171.381.372.749.561,1.122.543,1.074,1.09,2.146,1.629,3.221.36.716.74,1.425,1.056,2.16.4.933.748,1.89,1.118,2.836.086.222.165.447.258.665.106.25.222.277.432.114.045-.035.084-.077.129-.113q1.2-.964,2.4-1.926c.935-.748,1.883-1.479,2.8-2.244a2.115,2.115,0,0,1,1.161-.532.794.794,0,0,0,.347-.1.316.316,0,0,0,.1-.249c0-.043-.128-.092-.205-.114a3.307,3.307,0,0,1-.636-.162c-.6-.309-1.184-.636-1.759-.984-1.2-.728-2.383-1.472-3.572-2.214-.4-.252-.811-.5-1.191-.783-.7-.52-1.364-1.078-2.059-1.6A11.905,11.905,0,0,1,5184,161.39a13.129,13.129,0,0,1-.958-1.982c-.18-.62-.287-1.261-.429-1.892C5182.575,157.371,5182.523,157.232,5182.479,157.09Zm22.622,5.543c-.01-.023-.03-.147-.086-.167a.356.356,0,0,0-.266.054.79.79,0,0,0-.192.217c-.313.428-.615.866-.939,1.286-.21.272-.459.514-.68.779a58.362,58.362,0,0,1-4.1,4.347c-.4.395-.841.754-1.248,1.145-.078.075-.083.225-.123.341a2.238,2.238,0,0,0,.315-.01,1.639,1.639,0,0,0,.28-.091.8.8,0,0,1,.878.207c1.174,1.072,2.357,2.136,3.537,3.2.626.566,1.248,1.138,1.882,1.7a1,1,0,0,0,.345.119,1.326,1.326,0,0,0,.084-.361c-.021-.376-.1-.75-.1-1.125q.01-1.71.067-3.419.06-1.832.163-3.663c.041-.737.143-1.47.172-2.207C5205.125,164.223,5205.1,163.461,5205.1,162.633Zm-24.75-25.6a.88.88,0,0,1,.443-.806c.335-.107.51.137.7.344a.977.977,0,0,0,.139.139.41.41,0,0,0,.195.093.353.353,0,0,0,.241-.069c.036-.035.009-.148-.008-.221-.035-.142-.1-.279-.122-.423a1.15,1.15,0,0,0-.935-.883.659.659,0,0,0-.4.138,1.526,1.526,0,0,0-.5,1.549,10.736,10.736,0,0,1,.089,1.341c-.014,1.114-.073,2.227-.081,3.341a6.834,6.834,0,0,0,.146,1.193c.055.319.168.629.22.949a1.09,1.09,0,0,0,.3.626.5.5,0,0,1,.153.361,1.887,1.887,0,0,0,.2,1.281,1.1,1.1,0,0,1,.042.166c.147.415.3.829.441,1.245a1.065,1.065,0,0,0,.646.6.316.316,0,0,0,.486-.236,1.36,1.36,0,0,0-.019-.411,4.34,4.34,0,0,1-.067-.435c0-.637,0-1.275.007-1.913,0-.2.018-.4,0-.59a1.044,1.044,0,0,0-.6-.994.464.464,0,0,1-.244-.312,1.447,1.447,0,0,1,.356-1.387.941.941,0,0,0,.271-1.01c-.051-.206-.083-.417-.124-.626a1.007,1.007,0,0,0-.064-.285.307.307,0,0,0-.2-.148c-.055-.006-.145.071-.179.134a1.669,1.669,0,0,0-.187.454c-.093.494-.249.971-.368,1.455a5.212,5.212,0,0,0-.121,2.026.642.642,0,0,1-.038.314,1.121,1.121,0,0,1-.179.244.836.836,0,0,1-.116-.264,3.367,3.367,0,0,0-.215-1.3.209.209,0,0,1-.013-.072c-.039-.687-.084-1.373-.113-2.06-.025-.63-.03-1.26-.045-1.89,0-.041-.011-.081-.014-.122C5180.44,138.061,5180.4,137.552,5180.351,137.029Zm33.33,5.994a.6.6,0,0,1-.275.568.334.334,0,0,0-.131.224,2.138,2.138,0,0,1-.293.836,8.38,8.38,0,0,0-.472,1.268c-.13.344-.269.686-.422,1.02-.224.487-.46.969-.7,1.449-.027.053-.108.079-.165.118a.986.986,0,0,1-.073-.211.437.437,0,0,1,.039-.166c.172-.564.354-1.126.512-1.694a1.661,1.661,0,0,0,0-.474c-.008-.173-.025-.346-.027-.519,0-.088.039-.176.04-.264.005-.243,0-.486,0-.73,0-.144-.017-.3-.175-.3-.1,0-.214.105-.287.192a.707.707,0,0,0-.091.278c-.084.342-.17.684-.244,1.028a1,1,0,0,0-.025.389,2.735,2.735,0,0,1-.1,1.215c-.114.435-.226.871-.323,1.31a.362.362,0,0,0,.057.267c.024.033.151-.011.231-.016.064,0,.129,0,.193,0a.715.715,0,0,1-.071.19,3.074,3.074,0,0,0-.217.255c-.1.178-.175.368-.255.556a1.157,1.157,0,0,0-.1.3.211.211,0,0,0,.073.181c.049.022.138-.016.194-.051s.067-.09.1-.137l.978-1.378a2.857,2.857,0,0,0,.168-.241c.207-.369.416-.737.61-1.113a9.451,9.451,0,0,0,.5-1.039,5.717,5.717,0,0,0,.471-1.544.934.934,0,0,1,.059-.161c.077-.265.149-.532.227-.8.025-.084.036-.194.1-.241a.69.69,0,0,0,.211-.577c.013-.226-.009-.425-.251-.531-.036-.016-.052-.08-.073-.124-.229-.476-.481-.543-.911-.234a1.01,1.01,0,0,0-.185.194,7.061,7.061,0,0,1-.521.652.653.653,0,0,0-.159.828,2.214,2.214,0,0,1,.131,1.319,1.82,1.82,0,0,0,.036.338,2.718,2.718,0,0,0,.369-.158.358.358,0,0,0,.114-.184c.255-.7.5-1.412.763-2.115a1.517,1.517,0,0,1,.227-.322Zm-32.831-2.738-.093.008a5.437,5.437,0,0,0,.1.55c.017.06.11.1.168.149a.9.9,0,0,0,.118-.169c.027-.067.021-.148.046-.215a4.885,4.885,0,0,1,.49-1.193,1.69,1.69,0,0,0,.046-1.807,2.086,2.086,0,0,0-.369-.605.467.467,0,0,0-.392-.153.507.507,0,0,0-.256.365,6.354,6.354,0,0,0,.033.871Q5180.8,139.186,5180.85,140.285Zm33.6,1.289-.035-.006c-.017-.171-.03-.342-.051-.513-.045-.373-.341-.485-.636-.557a.657.657,0,0,0-.748.239c-.221.318-.428.647-.63.977-.028.046.008.131.015.2.058-.009.13,0,.171-.03.171-.132.335-.275.5-.418a.408.408,0,0,1,.521-.043.844.844,0,0,1,.482.77c0,.074.063.15.1.226.071-.057.185-.1.2-.173A6.655,6.655,0,0,0,5214.445,141.575Zm-31.721,1.084-.035-.005a1.135,1.135,0,0,0-.007-.316c-.024-.08-.11-.141-.168-.211-.063.057-.176.109-.181.17a7.465,7.465,0,0,0-.014.843.176.176,0,0,0,.127.12.217.217,0,0,0,.168-.105A4.689,4.689,0,0,0,5182.725,142.659Z" transform="translate(0 0)" fill="#004745"/>
          <path id="Trazado_108256" data-name="Trazado 108256" d="M5159.422,406.115a3.031,3.031,0,0,0,1.275-.405c.376-.2.774-.349,1.166-.514.441-.186.886-.362,1.327-.548q1.166-.494,2.327-1c.405-.176.8-.377,1.2-.549.383-.163.779-.3,1.163-.455.567-.234,1.128-.482,1.692-.721q.418-.177.84-.345c.705-.28,1.412-.556,2.117-.836.487-.193.972-.392,1.459-.585.129-.051.266-.083.395-.134.192-.076.378-.166.571-.241.128-.05.264-.079.394-.124.22-.077.441-.153.657-.24.15-.061.289-.156.443-.205.091-.029.255-.034.29.017a.427.427,0,0,1,.012.315c-.059.2-.16.4-.219.6-.176.6-.326,1.2-.511,1.792a30.691,30.691,0,0,0-.686,3.771c-.127.707-.116,1.438-.2,2.155q-.272,2.456-.575,4.908c-.148,1.219-.311,2.435-.468,3.653-.051.4-.01.485.351.656.784.371,1.573.734,2.357,1.107.629.3,1.252.609,1.881.909a4.727,4.727,0,0,0,.459.173c.263.093.338.292.173.517-.691.945-1.391,1.885-2.084,2.829-.324.443-.633.9-.963,1.336-.265.353-.56.686-.826,1.038a2.7,2.7,0,0,0-.219.427h-8.765a3.3,3.3,0,0,0-.267-1.288c-.266-.955-.5-1.918-.756-2.876-.12-.45-.258-.9-.393-1.343-.325-1.083-.629-2.172-.986-3.245-.317-.956-.692-1.892-1.044-2.836-.106-.284-.207-.57-.332-.845-.312-.686-.609-1.38-.961-2.045-.534-1.006-1.107-1.992-1.667-2.984a.568.568,0,0,0-.636-.314Z" transform="translate(0 -239.052)" fill="#004745"/>
          <path id="Trazado_108257" data-name="Trazado 108257" d="M5254.732,397.041a4.187,4.187,0,0,1,.306-.6c.322-.445.675-.867,1-1.309.508-.685,1-1.384,1.506-2.066.437-.583.89-1.153,1.344-1.722a.43.43,0,0,0-.183-.719c-.573-.242-1.14-.5-1.707-.759q-1.176-.532-2.347-1.07-.446-.2-.888-.422a.577.577,0,0,1-.3-.688,12.635,12.635,0,0,0,.335-2.234c.065-.717.257-1.421.334-2.138.159-1.484.275-2.972.418-4.457.036-.366.115-.728.169-1.093s.1-.714.147-1.072c.077-.567.146-1.136.232-1.7a11.041,11.041,0,0,1,.235-1.281c.162-.589.374-1.164.565-1.744.021-.062.045-.123.071-.183a16.35,16.35,0,0,1,.755-1.721,10.51,10.51,0,0,1,1.066-1.435c.543-.656,1.1-1.3,1.676-1.929.4-.443.832-.861,1.256-1.283a.247.247,0,0,1,.21-.068.232.232,0,0,1,.076.2,3.019,3.019,0,0,1-.139.443,1.75,1.75,0,0,0-.136.367,10.959,10.959,0,0,0-.065,3.211c.055.3.015.613.085.9.2.809.473,1.6.63,2.416a17.847,17.847,0,0,0,.923,2.53,20.582,20.582,0,0,0,.91,1.95c.386.8.772,1.609,1.167,2.41.159.322.346.63.514.948.215.4.432.807.632,1.217s.4.84.584,1.268q.3.7.563,1.414.475,1.278.925,2.564c.139.393.253.8.381,1.192.26.8.539,1.6.779,2.41.3,1.028.573,2.066.865,3.1.178.631.389,1.253.548,1.888.1.41.142.837.209,1.257Z" transform="translate(-78.815 -210.675)" fill="#004745"/>
          <path id="Trazado_108258" data-name="Trazado 108258" d="M5467.824,421.65c.047-.621.092-1.242.146-1.863.085-1,.178-1.992.268-2.988q.031-.355.059-.711a.675.675,0,0,0-.336-.665c-.874-.551-1.754-1.091-2.619-1.656-.61-.4-1.2-.834-1.8-1.249-.148-.1-.3-.194-.457-.285a.314.314,0,0,1-.109-.528q1.131-1.454,2.265-2.9a.328.328,0,0,0-.007-.448q-1.179-1.48-2.358-2.961c-.623-.782-1.252-1.56-1.87-2.346-.572-.728-1.129-1.468-1.7-2.2-.876-1.125-1.764-2.243-2.638-3.371-.43-.556-.837-1.129-1.26-1.69-.2-.261-.414-.508-.6-.773a.892.892,0,0,1-.081-.3c.1,0,.215-.034.292.006a11.532,11.532,0,0,0,2.332.758c.633.171,1.253.383,1.88.576.507.157,1.016.312,1.523.47q.857.266,1.711.535c.2.064.408.126.609.2q1.042.355,2.082.714l.023.009c.514.15,1.031.292,1.543.452s1.026.339,1.538.511c.148.049.292.106.44.154.521.172,1.043.34,1.563.513.731.243,1.465.474,2.19.737.769.279,1.526.593,2.292.884a4.7,4.7,0,0,1,1.248.557.932.932,0,0,1,.386.594,26.108,26.108,0,0,1,.558,4.707c.028,1.449-.064,2.9-.114,4.35-.03.86-.064,1.721-.127,2.58-.043.588-.145,1.171-.212,1.757-.032.277-.037.556-.071.833q-.181,1.489-.378,2.977c-.074.552-.175,1.1-.251,1.651a2.292,2.292,0,0,0,.021.415Z" transform="translate(-247.541 -235.285)" fill="#004745"/>
          <path id="Trazado_108259" data-name="Trazado 108259" d="M5443.354,421.38a8.408,8.408,0,0,0-.014-1.226,47.424,47.424,0,0,1-.4-5.468c-.021-.588-.155-1.172-.175-1.761-.031-.946-.157-1.885-.1-2.84.056-1-.04-2.014-.037-3.022,0-1.682.137-3.357.3-5.032.075-.788.04-1.587.054-2.381.009-.475.013-.95.022-1.425a3.557,3.557,0,0,0-.173-1.355,1.262,1.262,0,0,1,.019-.574,4.342,4.342,0,0,1,.136-.672,8.684,8.684,0,0,1,.37-1.06c.112-.25.334-.244.5-.024.848,1.084,1.7,2.166,2.541,3.255.8,1.03,1.579,2.073,2.382,3.1,1.213,1.55,2.443,3.085,3.653,4.636.534.685,1.037,1.394,1.557,2.091.1.138.221.264.324.4a.467.467,0,0,1,0,.629q-.933,1.2-1.858,2.414c-.125.162-.256.32-.379.485-.185.25-.134.425.121.588.932.6,1.854,1.2,2.785,1.8.579.372,1.168.73,1.747,1.1.213.137.409.3.615.45a.451.451,0,0,1,.181.449c-.073.956-.13,1.914-.2,2.87-.03.425-.078.848-.116,1.272s-.076.862-.113,1.292Z" transform="translate(-237.399 -235.014)" fill="#004745"/>
          <path id="Trazado_108260" data-name="Trazado 108260" d="M5165.97,472h-6.548V454.769a1.266,1.266,0,0,1,.261.184c.078.091.112.219.184.318a21.75,21.75,0,0,1,2.1,4.042c.2.455.363.927.545,1.39.281.716.581,1.426.84,2.15.205.57.36,1.157.538,1.736.33,1.079.67,2.155.986,3.238.234.8.444,1.607.654,2.413C5165.688,470.826,5165.826,471.416,5165.97,472Z" transform="translate(0 -285.638)" fill="#fff"/>
          <path id="Trazado_108261" data-name="Trazado 108261" d="M5410.023,496.761c-.128-1-.245-2-.388-3-.085-.584-.221-1.16-.321-1.741-.213-1.227-.389-2.462-.641-3.68a1.524,1.524,0,0,1,.2-1.263c.455-.69.855-1.416,1.276-2.129.087-.148.157-.306.24-.457.122-.221.256-.249.453-.083s.375.342.563.513c.688.622,1.373,1.245,2.063,1.862a.832.832,0,0,1,.266.631c.064,1.186.148,2.371.225,3.557.041.63.075,1.261.121,1.891.081,1.1.17,2.19.252,3.285.016.2.018.408.026.612Z" transform="translate(-208.894 -310.396)" fill="#fff"/>
          <path id="Trazado_108262" data-name="Trazado 108262" d="M5588.394,466.286c.067-.553.1-1.113.211-1.656a14.658,14.658,0,0,0,.267-1.895c.074-.922.228-1.838.328-2.758s.194-1.842.257-2.766c.061-.908.1-1.818.109-2.728.009-1.435.008-2.871-.043-4.305a13.77,13.77,0,0,0-.283-1.743,2.009,2.009,0,0,1-.045-.339.183.183,0,0,1,.093-.145.185.185,0,0,1,.15.088c.242.464.483.928.708,1.4s.462.958.654,1.452a13.951,13.951,0,0,1,.492,1.519c.171.656.324,1.319.439,1.986.157.91.269,1.828.408,2.742.03.2.106.4.14.6.105.638.2,1.278.3,1.918a.4.4,0,0,0,.294.38v6.254Z" transform="translate(-359.592 -279.921)" fill="#fff"/>
          <path id="Trazado_108263" data-name="Trazado 108263" d="M5346.891,498.218c-.134-.6-.266-1.192-.4-1.787-.059-.247-.129-.49-.2-.735q-.256-.923-.518-1.844c-.194-.685-.388-1.371-.6-2.052-.172-.564-.359-1.123-.547-1.682-.176-.519-.363-1.034-.541-1.552a.619.619,0,0,1,.237-.7q1.04-.842,2.073-1.693a.394.394,0,0,1,.605.01q1.03,1,2.064,2c.334.325.671.65,1,.979.209.208.21.342.094.619-.319.762-.635,1.527-.934,2.3-.277.718-.545,1.441-.79,2.171-.406,1.21-.794,2.427-1.183,3.643a1.351,1.351,0,0,0-.023.317Z" transform="translate(-154.773 -311.853)" fill="#fff"/>
          <path id="Trazado_108264" data-name="Trazado 108264" d="M5165.97,469.136c-.145-.588-.282-1.177-.435-1.762-.21-.806-.42-1.613-.654-2.413-.316-1.083-.657-2.159-.986-3.238-.178-.579-.333-1.167-.538-1.736-.259-.724-.559-1.434-.84-2.15-.182-.463-.344-.935-.545-1.39a21.748,21.748,0,0,0-2.1-4.042c-.071-.1-.106-.226-.184-.318a1.261,1.261,0,0,0-.261-.184v-.542a.568.568,0,0,1,.636.314c.56.992,1.133,1.978,1.667,2.984.352.665.649,1.36.961,2.045.125.275.226.562.332.845.352.944.727,1.88,1.044,2.836.356,1.072.661,2.162.986,3.245.134.447.272.892.393,1.343.256.958.49,1.921.756,2.876a3.3,3.3,0,0,1,.267,1.288Z" transform="translate(0 -282.771)"/>
          <path id="Trazado_108265" data-name="Trazado 108265" d="M5335.411,169.37a6.674,6.674,0,0,1-.177,2.024c-.09.373-.1.764-.187,1.139-.186.815-.4,1.623-.591,2.436a3.121,3.121,0,0,0-.077.534c-.041.655-.072,1.31-.106,1.966a.731.731,0,0,1-.006.1q-.24,1.726-.479,3.452c-.089.649-.165,1.3-.263,1.948-.083.55-.2,1.1-.283,1.646-.126.865-.2,1.739-.357,2.6a17.688,17.688,0,0,1-.534,2.144A13.123,13.123,0,0,1,5331,192.3c-.5.808-1.037,1.593-1.581,2.372a12.049,12.049,0,0,1-1.062,1.353c-.447.476-.952.9-1.439,1.339-.61.548-1.238,1.076-1.84,1.632a7.847,7.847,0,0,1-4.209,2.15,8.5,8.5,0,0,1-3.611-.149,7,7,0,0,1-3.138-1.844c-.511-.52-1-1.061-1.515-1.579-.554-.558-1.125-1.1-1.689-1.648a12.97,12.97,0,0,1-1.709-2.088,17.615,17.615,0,0,1-1.316-2.582,12.122,12.122,0,0,1-.551-1.673c-.158-.551-.254-1.12-.422-1.666a9.37,9.37,0,0,1-.253-2.314c-.076-1.441-.167-2.882-.222-4.324-.033-.893-.01-1.788-.015-2.682,0-.45-.015-.9-.017-1.349a.664.664,0,0,1,.35-.632.577.577,0,0,0,.243-.264,15.752,15.752,0,0,0,.707-2.01,20.865,20.865,0,0,0,.377-2.573c.072-.709.015-1.433.117-2.136a8.865,8.865,0,0,1,.728-2.992c.253-.477.557-.93.793-1.415s.412-1,.625-1.492q.466-1.083.948-2.16a8.256,8.256,0,0,1,.416-.862,10.192,10.192,0,0,1,.921-1.414,3.133,3.133,0,0,1,1.286-1c.406-.147.794-.342,1.191-.516a.216.216,0,0,1,.046-.018c.811-.15,1.622-.308,2.436-.441a.633.633,0,0,1,.408.12,16.164,16.164,0,0,0,3.176,1.714c.792.312,1.605.57,2.406.863a2.438,2.438,0,0,0,1.092.093c.89-.082,1.78-.153,2.671-.23a1.347,1.347,0,0,0,.364-.046,1.8,1.8,0,0,1,1.465.2c.408.19.8.423,1.188.646.562.32,1.123.641,1.675.978a5.212,5.212,0,0,1,1.85,1.661,7.488,7.488,0,0,1,.694,1.518,7.759,7.759,0,0,1,.549,2.264.876.876,0,0,0,.029.194A6.443,6.443,0,0,1,5335.411,169.37Zm-24.028,20.013a4.962,4.962,0,0,0,.169.664c.027.067.169.087.258.128a.813.813,0,0,0,.087-.253c0-.094-.07-.187-.075-.283a1.289,1.289,0,0,1,.037-.427.241.241,0,0,1,.212-.1c.056.012.1.123.13.2.017.041-.021.1-.006.145.04.109.069.267.15.305a.5.5,0,0,0,.386-.009c.314-.16.411-.172.666.078s.474.5.709.751a7.393,7.393,0,0,0,2.156,1.437c.307.154.624.289.938.427a2.367,2.367,0,0,0,.745.3c.683.034,1.356.118,2.031.215a.822.822,0,0,0,.243-.013c.214-.034.426-.073.639-.113.144-.027.288-.056.43-.091.205-.051.407-.115.613-.161.317-.071.645-.11.954-.205a5.233,5.233,0,0,0,.764-.337,6.986,6.986,0,0,0,.842-.45c.272-.184.51-.42.768-.627a.347.347,0,0,1,.2-.089,4.834,4.834,0,0,0,1.167-.151,4.34,4.34,0,0,1,1.286.038.655.655,0,0,0,.776-.414,1.231,1.231,0,0,0,0-1.069,12.523,12.523,0,0,0-1.1-1.862,9.725,9.725,0,0,0-2.148-2.209,1.865,1.865,0,0,0-.383-.22c-.041-.02-.1.008-.158.014.011.059,0,.138.037.173.335.335.676.665,1.018.993.242.231.5.45.728.691a.331.331,0,0,1,.065.281.272.272,0,0,1-.238.11,6.128,6.128,0,0,1-1.064-.275.658.658,0,0,0-.69.006.329.329,0,0,1-.494-.089c-.13-.17-.086-.3.053-.453a1.1,1.1,0,0,0-.113-1.563,5.471,5.471,0,0,0-.99-.583.548.548,0,0,1-.368-.52c-.01-.195-.06-.387-.086-.581a6.2,6.2,0,0,1-.143-1.191c.054-.874-.206-1.734-.071-2.606a.069.069,0,0,0,0-.048c-.045-.062-.094-.121-.142-.181-.057.049-.149.089-.164.149a2.042,2.042,0,0,0-.089.554,22.335,22.335,0,0,0,.3,4.231.656.656,0,0,0,.442.535,5.959,5.959,0,0,1,.843.394.716.716,0,0,1,.264.3c.24.5-.047.869-.327,1.226-.18.231-.34.234-.564.045a.331.331,0,0,0-.426-.049c-.238.143-.473.295-.721.421a1.806,1.806,0,0,1-.566.211,3.8,3.8,0,0,1-.932.018,1.664,1.664,0,0,1-.678-.244c-.424-.273-.817-.592-1.23-.882a.978.978,0,0,0-.285-.087c-.011.1-.023.2-.032.305-.006.078-.007.156-.012.234-.082-.02-.163-.045-.246-.061-.16-.03-.357-.128-.47-.068a.713.713,0,0,1-.559.075,1.242,1.242,0,0,0-.362,0,.9.9,0,0,1-.265.023,4.024,4.024,0,0,0-1.793.059,3.109,3.109,0,0,1-.53-.007,2.131,2.131,0,0,1,.315-.461c.646-.556,1.31-1.089,1.959-1.639.07-.059.093-.173.137-.261-.1.012-.207.023-.309.037-.015,0-.028.016-.042.025a13.306,13.306,0,0,0-2.513,2.037c-.183.2-.355.407-.545.6a6.661,6.661,0,0,0-1.137,1.534C5311.657,188.739,5311.52,189.086,5311.383,189.383Zm1.765-12.885c-.461-.21-.625-.1-.65.391,0,.059-.079.129-.138.168-.234.153-.33.616-.118.716a4.03,4.03,0,0,1,.934.557.081.081,0,0,0,.024.008c.224.079.446.165.672.237a3.955,3.955,0,0,0,1.6.137c.194-.019.385-.075.579-.081a.58.58,0,0,0,.5-.211.248.248,0,0,1,.349-.062,4.09,4.09,0,0,0,.426.19c.122.044.242,0,.208-.144a3.216,3.216,0,0,0-.248-.679c-.052-.1-.12-.159-.02-.27a.3.3,0,0,0-.015-.445,2.7,2.7,0,0,0-.792-.562,2.293,2.293,0,0,0-1.3-.27.515.515,0,0,1-.122-.011c-.384-.013-.77-.05-1.152-.031C5313.606,176.151,5313.3,176.174,5313.147,176.5Zm11.48,2.018c-.051.248-.081.453-.137.651-.068.235-.021.295.223.288a1.915,1.915,0,0,1,.576.043,3.214,3.214,0,0,1,.518.269,4.791,4.791,0,0,0,2.633.391.483.483,0,0,0,.262-.122.948.948,0,0,1,.937-.293c.136.037.223-.032.209-.187-.02-.225-.035-.45-.062-.673a.467.467,0,0,0-.085-.17,1.253,1.253,0,0,0-.153-.219,2.521,2.521,0,0,0-.416-.382,3.1,3.1,0,0,0-.581-.261,2.669,2.669,0,0,0-.536-.152,5.766,5.766,0,0,0-.833-.068,3.273,3.273,0,0,0-1.994.313.457.457,0,0,0-.2.291c-.017.3,0,.3-.309.272A.113.113,0,0,0,5324.628,178.516Zm-10.6-3.111a9.886,9.886,0,0,1,3.414.638.3.3,0,0,0,.144.026.951.951,0,0,1,.688.209c.125.086.278.147.4.008a.318.318,0,0,0-.016-.449c-.274-.292-.571-.562-.849-.851a3.186,3.186,0,0,0-.972-.547,1.8,1.8,0,0,0-.838-.241,3.067,3.067,0,0,1-.339-.054c-.479-.049-.958-.1-1.439-.137a1.025,1.025,0,0,0-.288.055,5.151,5.151,0,0,1-.6.13,3.051,3.051,0,0,0-1.465.791.04.04,0,0,0-.016.018c-.028.121-.109.265-.069.356s.2.14.312.183a.553.553,0,0,0,.219,0Zm13.086.265c-.385.021-.771.034-1.154.067a.914.914,0,0,0-.346.114,5.854,5.854,0,0,0-.693.418,5.117,5.117,0,0,0-.715.62c-.155.169-.075.312.16.311.194,0,.389-.049.584-.068.477-.046.954-.089,1.431-.126a1.045,1.045,0,0,1,.24.046,2.5,2.5,0,0,0,.339.049,5.972,5.972,0,0,1,2.379.411,1.254,1.254,0,0,0,.6.108.531.531,0,0,1,.5.167.4.4,0,0,0,.513.115c.2-.106.153-.307.118-.484-.086-.429-.554-.575-.714-.951,0-.011-.029-.014-.044-.019-.234-.089-.465-.19-.7-.265A6.711,6.711,0,0,0,5327.109,175.67Zm-8.784,8.193a1.374,1.374,0,0,0-.384.055,2.119,2.119,0,0,0-1.02.771,1.177,1.177,0,0,0,.052,1.16.774.774,0,0,0,.3.2c.191.071.313-.049.25-.245a3.807,3.807,0,0,0-.167-.355.564.564,0,0,1,.1-.7,1.6,1.6,0,0,1,.951-.463,2.98,2.98,0,0,0,.539-.033c.122-.021.3-.058.342-.143a8.783,8.783,0,0,0,.4-.974.181.181,0,0,0-.051-.168.183.183,0,0,0-.171.034,1.144,1.144,0,0,0-.25.325A.754.754,0,0,1,5318.325,183.863Zm.958-5.145a6.549,6.549,0,0,0-.128-.678.891.891,0,0,0-.215-.369,1.227,1.227,0,0,0-.346-.172,1.425,1.425,0,0,0,.087.4.991.991,0,0,1-.136,1.245,3.238,3.238,0,0,0-.291.3,1.473,1.473,0,0,0-.131.321,3.373,3.373,0,0,0,.367-.01.269.269,0,0,0,.14-.095,7.346,7.346,0,0,0,.5-.576A1.569,1.569,0,0,0,5319.284,178.718Zm4.466,1.946.1-.071c-.042-.086-.079-.175-.126-.258-.152-.261-.319-.515-.461-.782a.7.7,0,0,1,.135-.858,1.356,1.356,0,0,0,.228-.477c.02-.062-.055-.153-.086-.231-.066.037-.156.057-.195.113-.134.2-.243.408-.376.6a1.006,1.006,0,0,0-.07,1.09C5323.093,180.215,5323.5,180.346,5323.75,180.664Zm-8.6-1.281-.013-.06a3.693,3.693,0,0,0-.482.071c-.072.019-.124.108-.185.165.063.056.119.144.19.161a2.115,2.115,0,0,0,1.906-.361.24.24,0,0,0,.072-.208.22.22,0,0,0-.189-.1c-.184.033-.36.1-.542.148C5315.656,179.263,5315.4,179.321,5315.15,179.383Zm11.362,1.8c.176-.036.306-.056.431-.092.047-.014.121-.064.121-.1a.232.232,0,0,0-.085-.158.8.8,0,0,0-.221-.1,3.351,3.351,0,0,1-1.114-.489.775.775,0,0,0-.342-.125.652.652,0,0,0-.227.042c.026.08.029.183.082.234a2.241,2.241,0,0,0,.461.362C5325.917,180.921,5326.233,181.051,5326.512,181.18Z" transform="translate(-123.214 -36.294)" fill="#fff"/>
          <path id="Trazado_108266" data-name="Trazado 108266" d="M5299.162,140.852c-.047-.5-.1-1-.14-1.494a.59.59,0,0,1,.016-.311,2.154,2.154,0,0,0,.152-1.084.593.593,0,0,0-.13-.355,1.2,1.2,0,0,1-.283-1.183.393.393,0,0,0,.018-.121c0-.458,0-.916,0-1.374,0-.269.016-.539,0-.807-.014-.2-.079-.4-.105-.6a1.568,1.568,0,0,1-.018-.474.75.75,0,0,0-.1-.559,1.54,1.54,0,0,1-.125-.474c-.01-.045.021-.1.015-.146a3.247,3.247,0,0,1,.906-2.257,1.5,1.5,0,0,1,.292-.262.339.339,0,0,0,.09-.48.471.471,0,0,1,.047-.647.637.637,0,0,0,.1-.194,13.294,13.294,0,0,1,.543-1.283,10.6,10.6,0,0,1,.813-1.2c.18-.243.4-.457.593-.688a.349.349,0,0,0,.1-.191.965.965,0,0,1,.221-.681c.042-.048-.006-.2-.051-.29a.276.276,0,0,1,.048-.372c.373-.38.729-.777,1.1-1.157s.748-.735,1.125-1.1c.251-.242.521-.467.758-.723a.418.418,0,0,0,.035-.333.309.309,0,0,1,.169-.424,2.225,2.225,0,0,0,.417-.259,1.56,1.56,0,0,0,.476-.452,3.612,3.612,0,0,1,1.917-1.527c.5-.262,1.053-.289,1.561-.5a2.461,2.461,0,0,1,.775-.1.812.812,0,0,0,.615-.3.834.834,0,0,1,.412-.2,4.883,4.883,0,0,0,.531-.08,3.159,3.159,0,0,1,1.72-.144,15.918,15.918,0,0,1,3.281.737,16.551,16.551,0,0,1,1.718.832c.25.131.458.343.707.477a.7.7,0,0,0,.457.059.462.462,0,0,1,.457.075.588.588,0,0,0,.683.1.437.437,0,0,1,.351.006,18.666,18.666,0,0,1,1.583,1.022,7.672,7.672,0,0,1,1.676,1.718,2.586,2.586,0,0,1,.505.791c.02.074.158.138.253.165a.868.868,0,0,1,.7.767.915.915,0,0,0,.108.35,2.937,2.937,0,0,1,.257.858,2.768,2.768,0,0,0,.488.917,1.535,1.535,0,0,0,.973.655,3.94,3.94,0,0,1,.911.355c.081.037.124.154.185.234-.076.054-.149.111-.227.161s-.186.113-.279.169a1.367,1.367,0,0,0,.229.26,3.628,3.628,0,0,1,.948.689c.172.22.175.324-.068.46-.208.117-.093.212.021.287a3.484,3.484,0,0,1,1.083,1.12,4.141,4.141,0,0,1,.229.512c.064.149.129.3.185.451a1.47,1.47,0,0,1,.12.394c.02.327.012.656.016.984,0,.232-.106.342-.344.349-.338.01-.432.114-.388.467.09.731.194,1.461.3,2.19a1.382,1.382,0,0,1-.171,1.062.731.731,0,0,0-.017.66,6.29,6.29,0,0,1,.237,1.146,4.364,4.364,0,0,1-.092,1.019c-.015.09-.144.16-.219.242a2.41,2.41,0,0,0-.3.341c-.145.236-.265.488-.4.733a.511.511,0,0,0-.049.085c-.135.442-.284.88-.4,1.327a2.288,2.288,0,0,1-.838,1.389.589.589,0,0,0-.205.319,3.6,3.6,0,0,0-.037.512,1.323,1.323,0,0,1-.075.451c-.04.083-.19.112-.291.165-.045-.1-.132-.194-.128-.287.012-.261.062-.52.1-.78.129-.974.227-1.955.4-2.922.155-.868.439-1.714.579-2.583a24.853,24.853,0,0,0,.222-2.545c.025-.447-.024-.9-.036-1.348a10.973,10.973,0,0,0-.6-2.929c-.153-.5-.326-1-.527-1.48a4.559,4.559,0,0,0-1.427-1.873,26.351,26.351,0,0,0-4.726-2.765.623.623,0,0,0-.423-.055,7.62,7.62,0,0,1-1.775.236c-.6.056-1.21.1-1.815.15a3.423,3.423,0,0,1-1.682-.272c-.527-.226-1.082-.388-1.6-.625-.677-.309-1.342-.646-1.995-1.005-.437-.241-.836-.548-1.263-.808a.61.61,0,0,0-.372-.076,14.857,14.857,0,0,0-3.524.875,4.861,4.861,0,0,0-2.343,2.02,29.657,29.657,0,0,0-2.075,4.425,23.031,23.031,0,0,1-1.053,2.083,4.747,4.747,0,0,0-.619,1.6,1.233,1.233,0,0,1-.071.311,5.963,5.963,0,0,0-.262,1.816c-.086.847-.176,1.694-.263,2.542-.041.4-.06.8-.121,1.2a7.846,7.846,0,0,1-.218.854,1.856,1.856,0,0,0-.11.351,2.141,2.141,0,0,1-.711,1.311c-.152.165-.3.145-.366-.069a4.112,4.112,0,0,1-.092-.578Z" transform="translate(-116.53 -1.631)" fill="#004745"/>
          <path id="Trazado_108267" data-name="Trazado 108267" d="M5304.387,349.806a1.272,1.272,0,0,1,.108.27,14.272,14.272,0,0,0,1.346,3.761A13.883,13.883,0,0,0,5308,357.08c.4.46.9.837,1.334,1.271.509.51,1.021,1.02,1.485,1.569a9.764,9.764,0,0,0,3.389,2.636,7.566,7.566,0,0,0,2.267.534,9.929,9.929,0,0,0,2.812-.171,7.029,7.029,0,0,0,2.126-.819,13.134,13.134,0,0,0,2.841-2.25c.48-.456.983-.89,1.485-1.322.073-.063.2-.061.308-.089a1.06,1.06,0,0,1-.012.3,3.368,3.368,0,0,1-.311.8c-.407.62-.83,1.235-1.295,1.813a51.773,51.773,0,0,1-4.622,5c-.249.237-.5.48-.725.736a1.347,1.347,0,0,1-1.128.435c-.153-.006-.308.03-.462.031a1.088,1.088,0,0,1-.432-.032c-.456-.2-.913-.407-1.348-.652q-1.378-.78-2.733-1.6c-.539-.327-1.062-.68-1.584-1.035-.6-.41-1.212-.814-1.788-1.258q-1.091-.839-2.132-1.741a9.957,9.957,0,0,1-1.967-2.442,8.169,8.169,0,0,1-.557-1.171,17.091,17.091,0,0,1-.584-1.661,11.979,11.979,0,0,1-.2-1.233c-.035-.2-.089-.393-.137-.59a1.4,1.4,0,0,1-.066-.259,9.588,9.588,0,0,1-.008-1.033c.038-.489.124-.974.173-1.462.037-.375.042-.753.075-1.128a3.2,3.2,0,0,1,.1-.431Z" transform="translate(-121.143 -197.651)" fill="#fff"/>
          <path id="Trazado_108268" data-name="Trazado 108268" d="M5300.875,380.318c.043.142.1.282.129.426.142.631.248,1.273.429,1.892a7.878,7.878,0,0,0,.523,1.187,8.007,8.007,0,0,0,.434.8,11.9,11.9,0,0,0,2.908,3.238c.7.521,1.363,1.079,2.059,1.6.38.284.788.531,1.191.783,1.188.742,2.375,1.486,3.572,2.214.573.349,1.163.675,1.758.984a3.293,3.293,0,0,0,.635.162c.078.021.2.071.206.114a.315.315,0,0,1-.1.249.788.788,0,0,1-.347.1,2.118,2.118,0,0,0-1.162.532c-.92.765-1.869,1.5-2.8,2.244q-1.2.96-2.4,1.926c-.044.036-.084.078-.129.113-.209.164-.325.137-.431-.114-.094-.219-.172-.444-.258-.665-.37-.947-.716-1.9-1.118-2.836-.316-.735-.7-1.444-1.056-2.16-.54-1.075-1.086-2.147-1.629-3.221-.189-.373-.39-.741-.56-1.122-.2-.44-.375-.891-.548-1.341-.205-.534-.416-1.067-.591-1.611-.187-.584-.365-1.174-.5-1.772a12.391,12.391,0,0,1-.425-2.617c0-.262,0-.525.01-.786a1.45,1.45,0,0,1,.088-.313Z" transform="translate(-118.395 -223.228)" fill="#fff"/>
          <path id="Trazado_108269" data-name="Trazado 108269" d="M5402.289,413.678c0,.828.024,1.59-.007,2.35-.03.737-.131,1.47-.172,2.207q-.1,1.83-.164,3.663-.057,1.709-.067,3.419c0,.375.076.749.1,1.125a1.326,1.326,0,0,1-.084.361,1.006,1.006,0,0,1-.346-.119c-.633-.558-1.255-1.129-1.881-1.7-1.18-1.067-2.363-2.13-3.537-3.2a.8.8,0,0,0-.878-.207,1.637,1.637,0,0,1-.28.091,2.249,2.249,0,0,1-.315.01c.039-.115.044-.266.123-.341.407-.391.844-.75,1.248-1.145a58.458,58.458,0,0,0,4.1-4.347c.22-.265.469-.507.679-.779.325-.42.626-.857.94-1.286a.788.788,0,0,1,.192-.217.357.357,0,0,1,.266-.054C5402.258,413.531,5402.278,413.655,5402.289,413.678Z" transform="translate(-197.187 -251.045)" fill="#fff"/>
          <path id="Trazado_108270" data-name="Trazado 108270" d="M5287.413,246.814c.045.523.09,1.032.134,1.541,0,.041.013.081.015.122.015.63.02,1.26.045,1.89.028.687.075,1.373.113,2.06a.2.2,0,0,0,.012.072,3.368,3.368,0,0,1,.216,1.3.844.844,0,0,0,.115.264,1.111,1.111,0,0,0,.18-.244.642.642,0,0,0,.037-.314,5.221,5.221,0,0,1,.122-2.026c.119-.484.274-.962.368-1.455a1.654,1.654,0,0,1,.187-.454c.034-.062.123-.14.178-.134a.31.31,0,0,1,.2.148.991.991,0,0,1,.065.285c.04.209.073.42.124.626a.941.941,0,0,1-.271,1.01,1.447,1.447,0,0,0-.357,1.387.466.466,0,0,0,.244.312,1.043,1.043,0,0,1,.595.994,5.805,5.805,0,0,1,0,.59c0,.638-.012,1.275-.007,1.912a4.2,4.2,0,0,0,.066.435,1.345,1.345,0,0,1,.02.411.316.316,0,0,1-.486.236,1.064,1.064,0,0,1-.646-.6c-.143-.417-.295-.83-.441-1.245a1,1,0,0,0-.043-.166,1.9,1.9,0,0,1-.2-1.281.5.5,0,0,0-.153-.361,1.088,1.088,0,0,1-.3-.626c-.051-.32-.164-.629-.219-.949a6.788,6.788,0,0,1-.146-1.193c.008-1.114.067-2.227.081-3.341a10.829,10.829,0,0,0-.089-1.341,1.527,1.527,0,0,1,.5-1.549.661.661,0,0,1,.4-.138,1.15,1.15,0,0,1,.935.883c.025.143.086.28.121.423.018.073.045.186.009.221a.352.352,0,0,1-.241.069.409.409,0,0,1-.194-.093.928.928,0,0,1-.139-.139c-.188-.207-.363-.451-.7-.344A.881.881,0,0,0,5287.413,246.814Zm.83,7.868c.012.126.016.191.024.257a4.409,4.409,0,0,0,.633,1.308c.05.1.216.153.327.228,0-.145-.009-.29-.015-.435,0-.007-.008-.014-.011-.022a6.519,6.519,0,0,1-.644-1.366c-.01-.065-.115-.115-.177-.171Z" transform="translate(-107.061 -109.785)" fill="#fff"/>
          <path id="Trazado_108271" data-name="Trazado 108271" d="M5477.4,287.716c-.052-.115-.1-.231-.153-.346a1.5,1.5,0,0,0-.228.322c-.262.7-.508,1.41-.763,2.115a.347.347,0,0,1-.114.184,2.7,2.7,0,0,1-.369.158,1.778,1.778,0,0,1-.036-.338,2.214,2.214,0,0,0-.131-1.319.652.652,0,0,1,.159-.828,6.893,6.893,0,0,0,.521-.652,1.029,1.029,0,0,1,.186-.194c.429-.309.681-.242.911.234.021.044.038.109.073.124.242.106.264.3.25.531a.69.69,0,0,1-.21.577c-.06.047-.07.157-.1.241-.078.265-.15.532-.228.8a.975.975,0,0,0-.059.161,5.684,5.684,0,0,1-.472,1.544,9.364,9.364,0,0,1-.5,1.039c-.194.376-.4.744-.61,1.113a2.837,2.837,0,0,1-.167.241l-.978,1.378c-.034.047-.056.109-.1.137s-.146.073-.194.051a.211.211,0,0,1-.073-.181,1.141,1.141,0,0,1,.1-.3c.08-.188.157-.377.255-.556a2.833,2.833,0,0,1,.218-.255.767.767,0,0,0,.07-.19c-.064,0-.129,0-.193,0-.081,0-.207.049-.231.016a.358.358,0,0,1-.057-.267c.1-.439.208-.875.323-1.31a2.735,2.735,0,0,0,.1-1.215,1.013,1.013,0,0,1,.024-.389c.074-.344.16-.686.245-1.028a.692.692,0,0,1,.091-.278c.074-.087.19-.194.287-.192.158,0,.177.156.174.3-.006.243,0,.487,0,.73,0,.088-.04.176-.04.264,0,.173.02.346.026.519a1.644,1.644,0,0,1,.005.474c-.158.569-.339,1.13-.512,1.694a.427.427,0,0,0-.039.166,1.011,1.011,0,0,0,.072.211c.056-.039.138-.065.165-.118.239-.48.477-.961.7-1.448.153-.334.292-.676.421-1.02a8.383,8.383,0,0,1,.473-1.268,2.146,2.146,0,0,0,.293-.836.331.331,0,0,1,.131-.224A.605.605,0,0,0,5477.4,287.716Z" transform="translate(-263.715 -144.693)" fill="#fff"/>
          <path id="Trazado_108272" data-name="Trazado 108272" d="M5291.153,258.566q-.053-1.1-.105-2.2a6.279,6.279,0,0,1-.034-.871.507.507,0,0,1,.257-.365.466.466,0,0,1,.391.153,2.089,2.089,0,0,1,.37.605,1.691,1.691,0,0,1-.046,1.807,4.867,4.867,0,0,0-.49,1.193c-.026.068-.019.148-.047.215a.919.919,0,0,1-.117.169c-.059-.049-.151-.088-.169-.149-.05-.179-.069-.366-.1-.55Z" transform="translate(-110.302 -118.28)" fill="#fff"/>
          <path id="Trazado_108273" data-name="Trazado 108273" d="M5488.7,278.664a6.515,6.515,0,0,1-.111.67c-.019.071-.133.116-.2.173-.034-.075-.1-.151-.1-.226a.844.844,0,0,0-.482-.77.408.408,0,0,0-.521.043c-.163.143-.327.285-.5.418-.041.031-.114.021-.171.03-.006-.067-.043-.152-.015-.2.2-.331.409-.659.63-.977a.658.658,0,0,1,.748-.239c.3.072.591.184.636.557.021.17.034.342.051.513Z" transform="translate(-274.251 -137.09)" fill="#fff"/>
          <path id="Trazado_108274" data-name="Trazado 108274" d="M5301.378,288.335a4.456,4.456,0,0,1-.108.5.218.218,0,0,1-.169.105.177.177,0,0,1-.127-.12,7.351,7.351,0,0,1,.014-.843c.006-.061.118-.114.182-.171.058.07.144.131.168.211a1.135,1.135,0,0,1,.007.316Z" transform="translate(-118.653 -145.676)" fill="#fff"/>
          <path id="Trazado_108275" data-name="Trazado 108275" d="M5337.167,302.579c.137-.3.274-.644.451-.969a6.644,6.644,0,0,1,1.137-1.534c.191-.191.363-.4.546-.6a13.276,13.276,0,0,1,2.513-2.037c.014-.009.027-.023.042-.025.1-.014.206-.025.31-.037-.045.088-.067.2-.138.261-.65.55-1.313,1.084-1.96,1.639a2.13,2.13,0,0,0-.315.461,3.112,3.112,0,0,0,.53.007,4.026,4.026,0,0,1,1.794-.059.9.9,0,0,0,.265-.023,1.24,1.24,0,0,1,.362,0,.713.713,0,0,0,.559-.075c.113-.06.311.038.47.068.083.016.164.04.246.061,0-.078,0-.156.011-.234.009-.1.022-.2.033-.305a.987.987,0,0,1,.285.087c.413.29.807.609,1.23.882a1.665,1.665,0,0,0,.678.244,3.8,3.8,0,0,0,.932-.018,1.8,1.8,0,0,0,.565-.211c.248-.126.483-.278.721-.422a.332.332,0,0,1,.427.049c.225.189.384.186.564-.045.279-.358.567-.731.327-1.226a.716.716,0,0,0-.264-.3,5.943,5.943,0,0,0-.844-.394.655.655,0,0,1-.44-.535,22.175,22.175,0,0,1-.3-4.231,2,2,0,0,1,.088-.554c.016-.06.106-.1.164-.149.047.06.1.119.142.181a.072.072,0,0,1,0,.048c-.135.872.125,1.733.071,2.606a6.24,6.24,0,0,0,.143,1.191c.026.194.076.387.086.581a.548.548,0,0,0,.367.52,5.423,5.423,0,0,1,.99.583,1.1,1.1,0,0,1,.113,1.563c-.139.15-.183.284-.052.453a.329.329,0,0,0,.494.089.656.656,0,0,1,.689-.006,6.139,6.139,0,0,0,1.064.275.271.271,0,0,0,.238-.11.334.334,0,0,0-.065-.281c-.231-.241-.486-.46-.728-.691-.343-.328-.683-.658-1.018-.993-.036-.035-.026-.114-.038-.173.054-.006.117-.033.159-.014a1.848,1.848,0,0,1,.382.22,9.694,9.694,0,0,1,2.148,2.209,12.527,12.527,0,0,1,1.1,1.862,1.237,1.237,0,0,1,0,1.069.656.656,0,0,1-.777.414,4.338,4.338,0,0,0-1.286-.038,4.833,4.833,0,0,1-1.166.151.352.352,0,0,0-.2.089c-.258.207-.494.443-.767.627a7.038,7.038,0,0,1-.843.45,5.249,5.249,0,0,1-.763.337c-.31.095-.637.134-.954.205-.206.046-.408.11-.614.161-.142.035-.285.064-.43.091-.212.04-.425.079-.638.113a.828.828,0,0,1-.243.013c-.674-.1-1.349-.182-2.031-.215a2.36,2.36,0,0,1-.744-.3c-.315-.138-.632-.272-.938-.427a7.381,7.381,0,0,1-2.156-1.437c-.236-.251-.464-.51-.709-.751s-.353-.238-.666-.078a.5.5,0,0,1-.387.009c-.081-.038-.11-.2-.149-.305-.016-.042.022-.1.006-.145-.031-.074-.074-.185-.131-.2a.24.24,0,0,0-.212.1,1.3,1.3,0,0,0-.037.427c0,.1.074.189.074.283a.812.812,0,0,1-.087.253c-.089-.041-.23-.061-.258-.128A4.882,4.882,0,0,1,5337.167,302.579Zm15.784.725.011.069c.3-.051.595-.1.888-.156a.226.226,0,0,0,.175-.353,4.888,4.888,0,0,0-1-1.649.721.721,0,0,0-.523-.22,3.48,3.48,0,0,1-.753-.085,7.494,7.494,0,0,0-2.6-.234.738.738,0,0,1-.38-.072,1.1,1.1,0,0,0-.924.027,2.674,2.674,0,0,1-2.6-.11,4.985,4.985,0,0,0-.535-.3.358.358,0,0,0-.473.045.387.387,0,0,1-.493.084,2.479,2.479,0,0,0-1.307-.079,1.4,1.4,0,0,1-.618-.079,1.325,1.325,0,0,0-.57-.056c-.51.056-1.018.137-1.524.219a.535.535,0,0,0-.32.131c-.218.286-.4.6-.605.9-.132.191-.284.369-.422.557-.04.055-.095.134-.081.186s.1.1.162.12a.436.436,0,0,0,.218.007.921.921,0,0,1,.868.212.4.4,0,0,0,.519.03.46.46,0,0,1,.388-.008.9.9,0,0,0,.758.046.884.884,0,0,1,.737.054.642.642,0,0,0,.656-.01.473.473,0,0,1,.324-.056c.321.093.63.23.951.326a3.451,3.451,0,0,0,1.063.246,1.794,1.794,0,0,1,1.135.136.251.251,0,0,0,.119.025c.548.03,1.1.045,1.642.094a1.192,1.192,0,0,1,.531.19.64.64,0,0,0,.622.1,2.532,2.532,0,0,1,.5-.121c.292-.042.586-.074.879-.094.2-.013.407,0,.61.006s.391.018.584,0C5352.022,303.393,5352.486,303.346,5352.951,303.3Zm-12.247-.111c-.07.045-.224.09-.248.172a.442.442,0,0,0,.089.348.488.488,0,0,0,.313.106.453.453,0,0,1,.4.275c.207.4.323.443.744.267.156-.066.248-.032.315.115a1.137,1.137,0,0,0,.085.15c.273.422.574.434.89.056.069-.083.208-.109.314-.161a2.686,2.686,0,0,1,.1.383c.006.051-.057.113-.093.167-.09.132-.153.278-.01.4.163.135.266-.012.366-.122.016-.018.031-.038.048-.056a.357.357,0,0,1,.543-.035c.051.041.089.105.145.132.132.064.288.176.4.146.093-.024.148-.223.2-.353a2.819,2.819,0,0,1,.082-.33.313.313,0,0,1,.224-.145c.057,0,.142.1.169.174a3.331,3.331,0,0,1,.068.361.242.242,0,0,0,.3.212c.249-.049.5-.083.745-.152a.7.7,0,0,0,.346-.206c.143-.181.255-.223.47-.1a.729.729,0,0,0,.976-.12.442.442,0,0,1,.331-.081.579.579,0,0,0,.539-.158c.114-.1.259-.166.382-.258a2.3,2.3,0,0,0,.222-.211,1.036,1.036,0,0,0-.292-.118,6.866,6.866,0,0,1-1.7,0,.124.124,0,0,0-.073,0,2.559,2.559,0,0,1-1.238-.028c-.185-.027-.376-.02-.564-.028a9.111,9.111,0,0,1-1.242-.068,15.332,15.332,0,0,0-2.536-.277,1.666,1.666,0,0,1-.383-.075C5341.675,303.454,5341.217,303.33,5340.7,303.193Z" transform="translate(-148.998 -149.489)" fill="#004745"/>
          <path id="Trazado_108276" data-name="Trazado 108276" d="M5342.771,274.017c.153-.324.459-.347.738-.361.382-.019.768.017,1.152.031a.515.515,0,0,0,.122.011,2.294,2.294,0,0,1,1.3.27,2.714,2.714,0,0,1,.792.562.3.3,0,0,1,.015.445c-.1.11-.032.167.02.27a3.19,3.19,0,0,1,.248.679c.035.141-.085.187-.207.144a4.185,4.185,0,0,1-.427-.19.248.248,0,0,0-.349.062.58.58,0,0,1-.5.211c-.193.006-.385.062-.578.081a3.956,3.956,0,0,1-1.6-.137c-.227-.072-.449-.158-.673-.237-.007,0-.017,0-.022-.008a4.064,4.064,0,0,0-.935-.558c-.213-.1-.116-.562.118-.716.06-.039.136-.109.138-.168C5342.146,273.918,5342.31,273.807,5342.771,274.017Zm3.523,1.234a.558.558,0,0,0-.442-.513.29.29,0,0,0-.349.233,5.217,5.217,0,0,0-.112.525c-.027.179.01.333.229.358A.59.59,0,0,0,5346.294,275.251Zm-3.713-.22a.469.469,0,0,0,.519.49.33.33,0,0,0,.327-.374c-.009-.308-.194-.528-.437-.52C5342.709,274.636,5342.578,274.766,5342.582,275.031Zm2.665-.267c-.075-.137-.121-.358-.242-.412a2.75,2.75,0,0,0-.757-.151c-.063-.008-.134.05-.2.078.057.049.117.145.168.14.282-.022.389.159.485.369a.838.838,0,0,0,.157.275.237.237,0,0,0,.23.019A1.083,1.083,0,0,0,5345.247,274.764Zm-1.181.488-.258-.313c-.057.056-.17.152-.162.163a1.292,1.292,0,0,0,.242.256C5343.9,275.369,5343.976,275.306,5344.065,275.252Zm.276.163-.2.153c.085.061.167.162.257.172.074.008.159-.095.239-.149Z" transform="translate(-152.836 -133.813)" fill="#004745"/>
          <path id="Trazado_108277" data-name="Trazado 108277" d="M5418.2,283.754a.11.11,0,0,1,.054-.008c.31.033.292.033.309-.272a.463.463,0,0,1,.2-.291,3.275,3.275,0,0,1,1.994-.313,5.772,5.772,0,0,1,.833.068,2.687,2.687,0,0,1,.536.152,3.065,3.065,0,0,1,.58.261,2.464,2.464,0,0,1,.417.382,1.257,1.257,0,0,1,.153.219.476.476,0,0,1,.085.17c.027.224.043.449.062.673.014.155-.072.224-.208.187a.949.949,0,0,0-.937.293.479.479,0,0,1-.262.122,4.8,4.8,0,0,1-2.635-.391,3.144,3.144,0,0,0-.516-.269,1.914,1.914,0,0,0-.576-.043c-.244.006-.291-.053-.223-.288C5418.123,284.208,5418.153,284,5418.2,283.754Zm4.41.708.045-.051a2.419,2.419,0,0,0-.446-.443c-.07-.043-.3.054-.362.149a2.183,2.183,0,0,0-.235.658c-.013.061.138.229.163.219a8.283,8.283,0,0,0,.793-.371C5422.605,284.606,5422.6,284.518,5422.614,284.463Zm-3.3-.677c-.413,0-.483.083-.423.409.007.04.014.08.022.12a.456.456,0,0,0,.705.287c.1-.065.2-.137.3-.208.123-.088.113-.158-.021-.233-.119-.066-.223-.159-.337-.233C5419.46,283.865,5419.355,283.811,5419.311,283.786Zm1.676-.081c-.01.4.132.707.311.689.159-.016.34-.037.36-.254.016-.179-.35-.547-.537-.533C5421.065,283.612,5421.014,283.685,5420.987,283.705Zm-.3-.128-.019-.109c-.128-.084-.268-.134-.393.01-.034.039.006.14.012.213Zm.1,1.241.006-.1-.419-.137-.059.084c.058.062.1.159.173.178A.881.881,0,0,0,5420.792,284.817Z" transform="translate(-216.789 -141.531)" fill="#004745"/>
          <path id="Trazado_108278" data-name="Trazado 108278" d="M5341.808,261.9l-1.712.129a.553.553,0,0,1-.219,0c-.114-.044-.272-.093-.312-.183s.041-.235.069-.356a.038.038,0,0,1,.016-.018,3.049,3.049,0,0,1,1.465-.791,5.2,5.2,0,0,0,.6-.13,1.026,1.026,0,0,1,.288-.055c.48.038.959.088,1.439.137a3.043,3.043,0,0,0,.339.054,1.8,1.8,0,0,1,.838.242,3.185,3.185,0,0,1,.972.547c.277.288.574.559.849.851a.318.318,0,0,1,.016.449c-.124.14-.276.079-.4-.008a.953.953,0,0,0-.688-.209.294.294,0,0,1-.144-.026A9.883,9.883,0,0,0,5341.808,261.9Zm.28-.949c-.461.072-.883.131-1.3.21a.9.9,0,0,0-.264.162,1.8,1.8,0,0,0,.253.238.416.416,0,0,0,.217.02c.441-.012.883-.054,1.323-.036a6.9,6.9,0,0,1,2.951.6.223.223,0,0,0,.2-.012.2.2,0,0,0,.005-.191.8.8,0,0,0-.546-.454,2.909,2.909,0,0,1-.478-.189,1.906,1.906,0,0,0-.439-.148C5343.358,261.067,5342.7,261.008,5342.088,260.948Z" transform="translate(-150.998 -122.785)" fill="#004745"/>
          <path id="Trazado_108279" data-name="Trazado 108279" d="M5418.919,270.76a6.717,6.717,0,0,1,2.492.516c.239.075.469.176.7.265.016.006.04.009.044.019.161.376.628.522.715.951.036.177.082.378-.118.484a.405.405,0,0,1-.513-.115.531.531,0,0,0-.5-.167,1.254,1.254,0,0,1-.6-.108,5.976,5.976,0,0,0-2.379-.411,2.494,2.494,0,0,1-.339-.049,1.054,1.054,0,0,0-.24-.046c-.477.036-.955.08-1.431.126-.2.019-.39.067-.584.068-.235,0-.316-.143-.16-.311a5.107,5.107,0,0,1,.714-.62,5.823,5.823,0,0,1,.693-.418.915.915,0,0,1,.345-.114C5418.149,270.794,5418.535,270.781,5418.919,270.76Zm.015.4c-.336.016-.67.041-1.006.045a.859.859,0,0,0-.746.441.6.6,0,0,0-.045.2.762.762,0,0,0,.224.036.734.734,0,0,0,.226-.094,1.027,1.027,0,0,1,.787-.079.961.961,0,0,0,.267.041,7.465,7.465,0,0,1,2.948.57.734.734,0,0,0,.3.092.357.357,0,0,0,.241-.15.241.241,0,0,0-.084-.217,4.263,4.263,0,0,0-.9-.442A6.993,6.993,0,0,0,5418.934,271.159Z" transform="translate(-215.024 -131.383)" fill="#004745"/>
          <path id="Trazado_108280" data-name="Trazado 108280" d="M5372.156,316.761a.754.754,0,0,0,.89-.536,1.135,1.135,0,0,1,.25-.325.131.131,0,0,1,.223.134,8.878,8.878,0,0,1-.4.974c-.043.085-.22.122-.342.143a2.984,2.984,0,0,1-.539.033,1.608,1.608,0,0,0-.951.463.564.564,0,0,0-.1.7,3.805,3.805,0,0,1,.167.355c.062.2-.06.316-.251.245a.772.772,0,0,1-.3-.2,1.179,1.179,0,0,1-.052-1.16,2.118,2.118,0,0,1,1.021-.771A1.365,1.365,0,0,1,5372.156,316.761Z" transform="translate(-177.044 -169.192)" fill="#004745"/>
          <path id="Trazado_108281" data-name="Trazado 108281" d="M5380.005,283.32a1.568,1.568,0,0,1-.155.36c-.15.2-.329.388-.5.576a.275.275,0,0,1-.14.095,3.377,3.377,0,0,1-.367.01,1.549,1.549,0,0,1,.13-.321,3.383,3.383,0,0,1,.292-.3.99.99,0,0,0,.136-1.245,1.407,1.407,0,0,1-.086-.4,1.241,1.241,0,0,1,.346.172.907.907,0,0,1,.215.369A6.683,6.683,0,0,1,5380.005,283.32Z" transform="translate(-183.934 -140.895)" fill="#004745"/>
          <path id="Trazado_108282" data-name="Trazado 108282" d="M5408.584,287.806c-.253-.318-.657-.449-.849-.87a1.006,1.006,0,0,1,.07-1.09c.134-.2.243-.409.377-.6.039-.056.129-.076.194-.113.031.078.105.169.086.231a1.34,1.34,0,0,1-.228.477.7.7,0,0,0-.135.858c.143.267.309.52.461.782.048.083.085.172.126.258Z" transform="translate(-208.046 -143.435)" fill="#004745"/>
          <path id="Trazado_108283" data-name="Trazado 108283" d="M5356.936,292.022c.252-.061.5-.12.756-.185.181-.047.358-.115.542-.148a.221.221,0,0,1,.188.1.239.239,0,0,1-.072.208,2.115,2.115,0,0,1-1.905.361c-.073-.017-.127-.106-.191-.161.061-.057.114-.146.186-.165a3.683,3.683,0,0,1,.482-.071Z" transform="translate(-164.998 -148.933)" fill="#004745"/>
          <path id="Trazado_108284" data-name="Trazado 108284" d="M5423.265,299.36c-.279-.13-.6-.26-.894-.422a2.243,2.243,0,0,1-.462-.362c-.053-.051-.055-.154-.081-.234a.643.643,0,0,1,.226-.042.77.77,0,0,1,.342.125,3.358,3.358,0,0,0,1.114.489.819.819,0,0,1,.222.1.233.233,0,0,1,.084.158c0,.033-.072.083-.121.1C5423.571,299.3,5423.441,299.324,5423.265,299.36Z" transform="translate(-219.966 -154.473)" fill="#004745"/>
          <path id="Trazado_108285" data-name="Trazado 108285" d="M5293.953,303.88l.138-.2c.062.057.168.107.178.171a6.494,6.494,0,0,0,.644,1.366c0,.008.01.015.01.022.006.145.011.29.016.435-.112-.074-.276-.123-.327-.228a4.409,4.409,0,0,1-.633-1.308C5293.97,304.072,5293.965,304.006,5293.953,303.88Z" transform="translate(-112.773 -158.984)" fill="#004745"/>
          <path id="Trazado_108286" data-name="Trazado 108286" d="M5358.78,343.594c-.465.042-.929.089-1.4.123-.193.014-.389,0-.583,0s-.408-.019-.61-.006c-.294.019-.587.052-.88.094a2.554,2.554,0,0,0-.5.121.641.641,0,0,1-.622-.1,1.189,1.189,0,0,0-.531-.19c-.545-.049-1.094-.064-1.641-.094a.258.258,0,0,1-.12-.025,1.793,1.793,0,0,0-1.135-.136,3.458,3.458,0,0,1-1.062-.246c-.321-.1-.629-.233-.951-.326a.473.473,0,0,0-.324.056.642.642,0,0,1-.656.01.885.885,0,0,0-.738-.054.9.9,0,0,1-.758-.046.459.459,0,0,0-.387.008.394.394,0,0,1-.518-.03.921.921,0,0,0-.868-.212.437.437,0,0,1-.218-.007c-.064-.02-.149-.068-.163-.12s.041-.13.082-.186c.138-.188.29-.366.422-.557.206-.3.388-.609.6-.9a.536.536,0,0,1,.321-.131c.507-.082,1.015-.163,1.525-.218a1.324,1.324,0,0,1,.57.056,1.4,1.4,0,0,0,.618.079,2.479,2.479,0,0,1,1.307.079.388.388,0,0,0,.494-.084.358.358,0,0,1,.473-.045,4.985,4.985,0,0,1,.535.3,2.673,2.673,0,0,0,2.6.11,1.1,1.1,0,0,1,.924-.027.74.74,0,0,0,.38.072,7.491,7.491,0,0,1,2.6.235,3.492,3.492,0,0,0,.753.085.72.72,0,0,1,.523.22,4.913,4.913,0,0,1,1,1.649c.078.18.02.313-.175.353-.293.061-.592.1-.888.156Z" transform="translate(-154.826 -189.78)" fill="#004745"/>
          <path id="Trazado_108287" data-name="Trazado 108287" d="M5357.706,359.38c.513.137.97.262,1.429.382a1.673,1.673,0,0,0,.383.075,15.327,15.327,0,0,1,2.536.277,9.135,9.135,0,0,0,1.242.068c.188.009.379,0,.565.028a2.555,2.555,0,0,0,1.237.028.125.125,0,0,1,.073,0,6.866,6.866,0,0,0,1.7,0,1.039,1.039,0,0,1,.292.118,2.425,2.425,0,0,1-.222.211c-.124.092-.268.158-.382.258a.578.578,0,0,1-.539.158.442.442,0,0,0-.331.081.729.729,0,0,1-.976.12c-.214-.126-.327-.083-.469.1a.7.7,0,0,1-.346.206c-.243.069-.5.1-.744.152a.242.242,0,0,1-.3-.212,3.58,3.58,0,0,0-.068-.361c-.028-.073-.112-.176-.168-.174a.312.312,0,0,0-.224.145,2.725,2.725,0,0,0-.082.33c-.051.13-.107.329-.2.353-.115.03-.271-.082-.4-.146-.056-.027-.093-.091-.145-.132a.357.357,0,0,0-.543.035c-.017.018-.032.038-.048.056-.1.109-.2.256-.366.122-.143-.119-.079-.265.01-.4.036-.054.1-.116.092-.167a2.622,2.622,0,0,0-.1-.383c-.106.052-.244.078-.314.161-.316.378-.616.366-.889-.056a1.2,1.2,0,0,1-.085-.15c-.067-.147-.159-.18-.316-.115-.42.176-.538.133-.744-.267a.454.454,0,0,0-.4-.275.487.487,0,0,1-.312-.106.438.438,0,0,1-.088-.348C5357.482,359.47,5357.636,359.425,5357.706,359.38Z" transform="translate(-165.999 -205.677)" fill="#fff"/>
          <path id="Trazado_108288" data-name="Trazado 108288" d="M5365.142,280.869a.591.591,0,0,1-.676.6c-.218-.025-.256-.179-.229-.358a5.088,5.088,0,0,1,.112-.525.291.291,0,0,1,.35-.233A.558.558,0,0,1,5365.142,280.869Z" transform="translate(-171.683 -139.431)" fill="#fff"/>
          <path id="Trazado_108289" data-name="Trazado 108289" d="M5346.907,280.086c0-.265.128-.395.409-.4.243-.008.427.212.437.52a.329.329,0,0,1-.326.374A.469.469,0,0,1,5346.907,280.086Z" transform="translate(-157.162 -138.868)" fill="#fff"/>
          <path id="Trazado_108290" data-name="Trazado 108290" d="M5357.17,277.613a1.093,1.093,0,0,1-.16.318.237.237,0,0,1-.229-.019.836.836,0,0,1-.157-.275c-.1-.21-.2-.391-.485-.369-.053,0-.113-.091-.169-.14.067-.028.139-.086.2-.078a2.745,2.745,0,0,1,.757.151C5357.048,277.254,5357.095,277.476,5357.17,277.613Z" transform="translate(-164.76 -136.662)" fill="#fff"/>
          <path id="Trazado_108291" data-name="Trazado 108291" d="M5353.9,281.93c-.09.054-.165.117-.178.105a1.283,1.283,0,0,1-.242-.256c-.008-.011.1-.106.162-.163Z" transform="translate(-162.675 -140.491)" fill="#fff"/>
          <path id="Trazado_108292" data-name="Trazado 108292" d="M5356.745,284.563l.294.176c-.08.054-.165.156-.238.149-.091-.009-.172-.11-.257-.172Z" transform="translate(-165.241 -142.96)" fill="#fff"/>
          <path id="Trazado_108293" data-name="Trazado 108293" d="M5441.154,290.163c-.013.055-.008.143-.041.161a8.372,8.372,0,0,1-.793.371c-.025.01-.177-.157-.163-.219a2.156,2.156,0,0,1,.235-.658c.057-.095.291-.191.361-.149a2.422,2.422,0,0,1,.446.443Z" transform="translate(-235.329 -147.232)" fill="#fff"/>
          <path id="Trazado_108294" data-name="Trazado 108294" d="M5423.615,288.592c.045.025.15.079.248.143.115.074.218.166.336.233.134.075.145.145.021.233-.1.071-.2.143-.3.208a.456.456,0,0,1-.705-.287c-.01-.04-.017-.08-.024-.12C5423.132,288.675,5423.2,288.592,5423.615,288.592Z" transform="translate(-221.094 -146.338)" fill="#fff"/>
          <path id="Trazado_108295" data-name="Trazado 108295" d="M5436.267,287.585c.027-.02.079-.093.136-.1.185-.015.551.354.536.533-.021.217-.2.238-.361.254C5436.4,288.292,5436.256,287.99,5436.267,287.585Z" transform="translate(-232.069 -145.412)" fill="#fff"/>
          <path id="Trazado_108296" data-name="Trazado 108296" d="M5432.233,286.31l-.4.113c-.005-.073-.045-.174-.011-.213.125-.144.264-.093.393-.01Z" transform="translate(-228.332 -144.265)" fill="#fff"/>
          <path id="Trazado_108297" data-name="Trazado 108297" d="M5432.625,293.72a.878.878,0,0,1-.3.02c-.069-.019-.117-.116-.173-.178l.058-.084.419.137Z" transform="translate(-228.622 -150.434)" fill="#fff"/>
          <path id="Trazado_108298" data-name="Trazado 108298" d="M5347.1,263.292c.616.061,1.27.119,1.921.195a1.9,1.9,0,0,1,.439.147,2.929,2.929,0,0,0,.477.189.8.8,0,0,1,.547.453.2.2,0,0,1-.006.191.225.225,0,0,1-.2.012,6.893,6.893,0,0,0-2.95-.6c-.441-.018-.882.024-1.324.036a.414.414,0,0,1-.216-.02,1.778,1.778,0,0,1-.254-.238.906.906,0,0,1,.265-.162C5346.219,263.423,5346.642,263.364,5347.1,263.292Z" transform="translate(-156.013 -125.129)" fill="#004745"/>
          <path id="Trazado_108299" data-name="Trazado 108299" d="M5425.171,273.248a7,7,0,0,1,2.211.442,4.253,4.253,0,0,1,.9.442c.056.031.11.177.083.218a.355.355,0,0,1-.24.15.732.732,0,0,1-.3-.092,7.462,7.462,0,0,0-2.948-.57.959.959,0,0,1-.267-.041,1.027,1.027,0,0,0-.787.079.73.73,0,0,1-.226.094.762.762,0,0,1-.224-.036.608.608,0,0,1,.045-.2.86.86,0,0,1,.747-.441C5424.5,273.289,5424.835,273.263,5425.171,273.248Z" transform="translate(-221.261 -133.472)" fill="#004745"/>
        </g>
      </g>
    </g>
  </g>
</svg>
