<svg xmlns="http://www.w3.org/2000/svg" xmlns:xlink="http://www.w3.org/1999/xlink" width="101.808" height="101.809" viewBox="0 0 101.808 101.809">
  <defs>
    <clipPath id="clip-path">
      <circle id="Elipse_5139" data-name="Elipse 5139" cx="39.066" cy="39.066" r="39.066" transform="translate(-609.221 1147.134) rotate(-67.871)" fill="none"/>
    </clipPath>
  </defs>
  <g id="Grupo_70249" data-name="Grupo 70249" transform="translate(-596 -1372)">
    <circle id="Elipse_5137" data-name="Elipse 5137" cx="44.052" cy="44.052" r="44.052" transform="matrix(0.099, -0.995, 0.995, 0.099, 598.725, 1462.401)" fill="#0ac4bf"/>
    <path id="Trazado_108087" data-name="Trazado 108087" d="M-510.686,1129.1a47.741,47.741,0,0,1-51.045,44.19,47.741,47.741,0,0,1-44.189-51.045,47.74,47.74,0,0,1,51.045-44.189,47.52,47.52,0,0,1,26.037,10.048" transform="translate(1205.221 297.244)" fill="none" stroke="#0ac4bf" stroke-linecap="round" stroke-linejoin="round" stroke-width="0.914"/>
    <circle id="Elipse_5138" data-name="Elipse 5138" cx="39.066" cy="39.066" r="39.066" transform="translate(596 1444.377) rotate(-67.871)" fill="#fff"/>
    <g id="Grupo_60985" data-name="Grupo 60985" transform="translate(1205.221 297.244)">
      <g id="Grupo_60984" data-name="Grupo 60984" clip-path="url(#clip-path)">
        <g id="Grupo_60995" data-name="Grupo 60995" transform="translate(-1682.665 502.105)">
          <path id="Trazado_108121" data-name="Trazado 108121" d="M1088.558,654.744c2.527-1.169,5.048-2.354,7.584-3.5,2.1-.949,4.213-1.847,6.311-2.79a2.716,2.716,0,0,0,.8-.6c1.038-1.072,2.043-2.178,3.088-3.244a1.528,1.528,0,0,0,.469-1.637,26.961,26.961,0,0,1-1.22-8.506,1,1,0,0,0-.189-.458c-.275-.491-.77-.963-.8-1.466a30.777,30.777,0,0,0-1.251-5.731,13.6,13.6,0,0,1-.11-5.356,15.067,15.067,0,0,0,.1-2.854,2.35,2.35,0,0,1,3.494-2.286c.077.039.16.067.391.162.1-.608.19-1.159.278-1.711.12-.753.265-1.5.347-2.261.06-.552-.025-1.123.069-1.666a9.641,9.641,0,0,1,.5-1.448c.308-.886.622-1.77.909-2.663.115-.358.149-.742.25-1.105a5.086,5.086,0,0,1,.275-.659,5.206,5.206,0,0,0,.716-1.774.762.762,0,0,1,.477-.781l-.1-.446.1.08a21.281,21.281,0,0,1,5.027-5.751c.341-.148.679-.3,1.025-.44a3.471,3.471,0,0,1,.512-.134c.069-.016.2.007.206-.02.239-.687.945-.511,1.417-.758a13.27,13.27,0,0,1,1.758-.723,5.2,5.2,0,0,0,1.7-.755,1.775,1.775,0,0,1,.9-.171c.592-.051,1.185-.08,1.779-.111.217-.011.434,0,.783,0,.148-.16.148-.16.91.16.248-.215.5-.573.906-.191l.3-.475.034.41a2.7,2.7,0,0,1,.641-.05,2.624,2.624,0,0,1,.655.241c.24.112.44.189.676-.049.081-.082.324,0,.493,0,.1,0,.2,0,.358,0l.275.353.188-.278-.02.162a5.6,5.6,0,0,0,.911.289,4.089,4.089,0,0,0,.864-.056l-.046.307.805-.044.045.614,1.729.531.387.4-.166.3c.276.233.926-.059.818.607l.817.154c-.006.136-.012.266-.015.33a7.267,7.267,0,0,0,.9.342c.5.12.721.5,1,.88a12.786,12.786,0,0,0,1.136,1.029c.377.4.683.862,1.037,1.283.244.29.526.549.772.838.059.069.018.218.071.3.2.307.367.71.659.876.453.257.361.744.621,1.082a5.52,5.52,0,0,1,.641,1.5c.087.24.1.507.161.757a5.932,5.932,0,0,1,.373,1.492c-.013.579.571,1.12.1,1.712-.025.031-.005.1,0,.152a26.842,26.842,0,0,1,.35,2.683,12.33,12.33,0,0,1-.252,2.026,1.194,1.194,0,0,0-.024.321,9.787,9.787,0,0,1-.157,1.67c-.007.664-.281,1.232-.317,1.865a15.951,15.951,0,0,1-.384,2.038c-.084.437-.153.877-.234,1.347.642.2.278.776.168,1.157a3.785,3.785,0,0,1-.646,1.016,6.177,6.177,0,0,1,1.336-.151,2.353,2.353,0,0,1,2.295,2.348,11.769,11.769,0,0,1-1.152,5.382,16.042,16.042,0,0,1-2.866,4.417c-.559.635-1.151,1.242-1.686,1.9a8.323,8.323,0,0,0-.891,1.341,2.771,2.771,0,0,1-1.732,1.436.763.763,0,0,0-.449.414,17.5,17.5,0,0,1-1.887,3.8c-.718,1.136-1.288,2.366-1.907,3.563-.182.353.056.688.589.883,1.771.649,3.555,1.267,5.313,1.95a69.539,69.539,0,0,1,11.825,5.6c.666.416,1.309.869,1.963,1.306v.648l-22.644,4.663c.349-.878,1.783-.986,2.425-3.062.755-2.437.69-7.065.553-8.511-.078-.824-.247-1.64-.374-2.46l-.18-.008c-.45,1.227-.949,2.439-1.335,3.686a6.823,6.823,0,0,1-1.486,2.651c-.944,1.029-1.921,2.029-2.883,3.041h-.54a2.536,2.536,0,0,1,.272-.311,20.328,20.328,0,0,0,3.547-3.834,3.679,3.679,0,0,0,.487-.949,42.383,42.383,0,0,1,2.953-7.051,1.726,1.726,0,0,0,.069-.248,28.59,28.59,0,0,1-6.374,4.389,14.109,14.109,0,0,1-10.982,1.427,13.5,13.5,0,0,1-7.366-4.5c-1.117-1.387-2.32-2.705-3.372-3.925a30.188,30.188,0,0,0,3.662,8.428c1.58,2.23,3.261,4.388,4.9,6.577h-.432c-.381-.478-.756-.962-1.145-1.434a35.06,35.06,0,0,1-6.986-12.3c-.015-.052-.079-.09-.146-.163a15.313,15.313,0,0,0-1.221,5.542,18.276,18.276,0,0,0,1.119,5.908c.259.819,1.767,4.729,2.041,5.543l-20.449-3.1Zm31.288-32.486-.249-.24a5.3,5.3,0,0,0-1.084-.906,13.83,13.83,0,0,0-7.385-1.255,1.977,1.977,0,0,0-1.918,1.735,8.576,8.576,0,0,0,.164,3.942,3.338,3.338,0,0,0,2.578,2.678,12.014,12.014,0,0,0,3.023.369,5.476,5.476,0,0,0,5.251-4.181A2.292,2.292,0,0,0,1119.846,622.258Zm1.362-.254a5.255,5.255,0,0,1-.017,1.336,10.582,10.582,0,0,1-1.781,3.485,5.461,5.461,0,0,1-3.762,2.2,8.413,8.413,0,0,1-3.629-.293,4.143,4.143,0,0,1-3.172-3.678c-.109-.885-.172-1.776-.261-2.708l-.353-.077-.856-1.055c-.067.26-.1.36-.118.463-.232,1.619-.476,3.236-.688,4.857a63.541,63.541,0,0,0-.607,9.9,12.635,12.635,0,0,0,3.659,8.957c.3.3.584.629.9.972l-.366-2.125.159-.028c.029.115.063.229.088.345a6.574,6.574,0,0,0,2.912,4.529,15.658,15.658,0,0,0,10.812,2.4,6.735,6.735,0,0,0,4.917-2.963c.1-.151.228-.285.343-.427l.128.094-1.164,1.75.076.117c1.7-1.1,3.432-2.145,5.084-3.308a14.618,14.618,0,0,0,2.207-2.052,13.436,13.436,0,0,0,3.032-6.411c.635-2.8,1.186-5.624,1.741-8.443.269-1.366.464-2.745.693-4.119l-.159-.075a4.738,4.738,0,0,1-2.044,1.187c-.166.035-.283.266-.443.379a1.127,1.127,0,0,1-.525.273.519.519,0,0,0-.558.443,8.3,8.3,0,0,1-1.991,3.355,3.093,3.093,0,0,1-1.852.909,7.942,7.942,0,0,1-5.355-1.237,6.066,6.066,0,0,1-2.506-6.791,1.813,1.813,0,0,0-.03-1.352,7.791,7.791,0,0,1-3.848-.543,26.658,26.658,0,0,1-2.605,6.472,3.556,3.556,0,0,1-1.326,1.557,1.519,1.519,0,0,0-.366,2.484c.144.184.306.354.559.644a1.865,1.865,0,0,1-1.291-1.177A1.98,1.98,0,0,1,1118,629.8a1.478,1.478,0,0,0,.611-.552c1.033-2.212,2.036-4.438,3.042-6.663a1.86,1.86,0,0,0,.081-.374Zm-13.368-2.941.12.161c.217-.031.437-.045.649-.1.922-.222,1.84-.455,2.76-.685a1.753,1.753,0,0,0,.358-.1,5.653,5.653,0,0,1,3.682-.445c1.754.338,3.451.8,4.495,2.453a.384.384,0,0,0,.158.141,29.869,29.869,0,0,0,3.206,1.384c1.673.516,3.4.1,5.1.019a.512.512,0,0,0,.243-.1,5.237,5.237,0,0,1,3.135-.8,7.474,7.474,0,0,1,4.591,1.292c.831.621,1.614,1.3,2.45,1.918a3.684,3.684,0,0,0,1.091.515c.48.148,1.322-.569,1.241-1.064-.169-1.024-.4-2.04-.589-3.06a1.869,1.869,0,0,1-.049-.62c.42-2.68.967-5.345,1.242-8.039a46.379,46.379,0,0,0-.024-5.651.607.607,0,0,0-.354-.429,33.373,33.373,0,0,0-12.431-1.7,1.64,1.64,0,0,1-.713-.166c-1.535-.659-3.047-1.374-4.6-1.992a28,28,0,0,0-5.963-1.649,1.14,1.14,0,0,0-1.284.485c-.857,1.222-1.8,2.387-2.65,3.611a16.122,16.122,0,0,0-3.223,7.844,10.563,10.563,0,0,1-1.585,4.541C1108.481,617.541,1108.187,618.317,1107.84,619.063Zm3.564-16.87a1.358,1.358,0,0,1-.013.576c-.323.741-.7,1.457-1.046,2.19a8.705,8.705,0,0,0-.593,1.415,16.89,16.89,0,0,1-.718,2.539,3.883,3.883,0,0,0-.5,1.7,13.368,13.368,0,0,1-.239,1.992c-.15,1.278-.262,2.562-.448,3.835-.06.414.017.642.39.783.469-.828.945-1.633,1.381-2.458a2.442,2.442,0,0,0,.292-.952,16.9,16.9,0,0,1,1.32-5.7,31.9,31.9,0,0,1,4.41-6.951c1.089-1.389,1.1-1.374,2.857-1.028a40.358,40.358,0,0,1,9.676,3.435,2.007,2.007,0,0,0,.92.195,35.165,35.165,0,0,1,12.485,1.766.583.583,0,0,1,.487.593c.041.735.156,1.468.171,2.2a47.764,47.764,0,0,1-1.124,10.384,4.939,4.939,0,0,0-.259,1.581c.167,1.122.491,2.221.77,3.411.584-.628,1.184-1.24,1.74-1.891a1.965,1.965,0,0,0,.223-.694l-.068-.019.435-.745-.181-.47c.419-.129.554-1.041.247-1.7h.318l-.184-.483h.247c.318-.968.042-2.016.506-2.837,0-.315-.017-.559,0-.8.036-.419.087-.836.146-1.252.023-.165-.215-.315.048-.521.122-.1.021-.476.021-.833.153-.132.09-.754-.24-1.17l.307-.187-.566-.476.335-.081-.076-.92.15-.051-.456-.324.355-.127-.395-.469.248-.2a8.085,8.085,0,0,1-.556-1.511,2.661,2.661,0,0,0-.26-1.052c-.072-.275-.327-.528-.314-.768.022-.415-.282-.576-.448-.845-.145-.236-.277-.48-.462-.8-.007.036.07-.12.026-.17-.2-.225-.442-.408-.644-.629a6.7,6.7,0,0,1-.522-.677c-.116-.165-.208-.347-.309-.521l-.355-.79-.1.1-.741-.628.093-.121-.59-.08.079-.462-.777-.128.326-.35-1.912-.876c.241-.616-.623-.239-.685-.607-.105-.624-.7-.266-1.011-.565l.1-.339-1.879-.831-.075-.542-.074.155-2.849-.656a1.459,1.459,0,0,1-1.16-.139c-.3-.147-.718-.39-.939-.285a2.7,2.7,0,0,1-2.326.064c-.128.549-.562.254-.851.264-.433.015-.874-.162-1.3-.136a7.248,7.248,0,0,0-1.305.319,1.481,1.481,0,0,1-.289.185c-.3.115-.6.2-.9.312-.8.289-1.6.552-2.383.885-.42.179-.951.187-1.215.672-.03.055-.16.062-.246.079a3.64,3.64,0,0,0-1.713.817c-.208.18-.447.324-.668.489-.191.142-.512.271-.539.443-.088.559-.643.705-.941.954-.536.448-.766,1.084-1.257,1.528a3.046,3.046,0,0,0-.376.522Zm19.135,20.9c-.623,0-1.36,0-2.1,0a2.348,2.348,0,0,0-2.411,1.871,5.742,5.742,0,0,0,2.864,5.9,7.829,7.829,0,0,0,3.517.9,3.486,3.486,0,0,0,2.911-.986,8.243,8.243,0,0,0,1.9-3.989c.158-.911.239-1.93-.654-2.51a6.354,6.354,0,0,0-2.319-.924A35.745,35.745,0,0,0,1130.54,623.093Zm11.669,12.767a16.1,16.1,0,0,0,3.848-5.662,10.99,10.99,0,0,0,.921-4.669,1.969,1.969,0,0,0-1.117-1.835,2.012,2.012,0,0,0-2.325.186c-.607.533-1.2,1.084-1.767,1.659a1.3,1.3,0,0,0-.3.657c-.454,2.527-.88,5.059-1.338,7.585-.233,1.284-.515,2.56-.788,3.9a8.974,8.974,0,0,0,3.635-3.661c.609-1.121,1.2-2.255,1.747-3.405a27.475,27.475,0,0,0,1.292-3.015,3.1,3.1,0,0,0-.374-2.742c-.3-.459-.583-.513-.966-.129a19.769,19.769,0,0,0-1.409,1.627.674.674,0,0,0-.025.482,25.875,25.875,0,0,1,.572,2.567,5.992,5.992,0,0,1-1.211,4.442,9.06,9.06,0,0,0,.3-6.806c-.37.649-.668,1.177-.972,1.7a1.106,1.106,0,0,0-.038,1.381,1.6,1.6,0,0,1,.218.66,2.2,2.2,0,0,1-1.489,2.488,11.009,11.009,0,0,0,.8-.972,1.687,1.687,0,0,0,.073-2.026,1.287,1.287,0,0,1-.021-1.6c.408-.76.765-1.549,1.211-2.285a10.525,10.525,0,0,1,1.276-1.731c.866-.927,1.713-.747,2.193.434a4.4,4.4,0,0,1-.047,3.515A40.078,40.078,0,0,1,1142.209,635.86Zm-37.26-8.361a12.708,12.708,0,0,1-.191-1.308,8.062,8.062,0,0,1,1.672-5.073,1.755,1.755,0,0,0,.268-.621,3.23,3.23,0,0,0-.512-2.044c-.234-.516-.486-.559-.915-.186a3.03,3.03,0,0,0-1.142,2.192,31.774,31.774,0,0,0,.953,8.858,9.052,9.052,0,0,0,.539,1.276l.158-.042a87.532,87.532,0,0,1,1.1-9.3A9.311,9.311,0,0,0,1104.949,627.5Zm2-8.811a8.291,8.291,0,0,1,.186-1.147c.171-.551-.091-.8-.558-.943a3.786,3.786,0,0,0-.616-.179,1.869,1.869,0,0,0-2.233,1.813c-.048.784-.009,1.574-.009,2.113a17.558,17.558,0,0,1,1.022-1.961c.542-.81,1.479-1.141,2.053.115A1.36,1.36,0,0,0,1106.947,618.687Zm-1.541,14.944.173-.056c.009-.082.021-.164.026-.246a5.626,5.626,0,0,0-.491-2.992,14.5,14.5,0,0,1-1.119-5.025c-.137-1.247-.222-2.5-.337-3.826a11.1,11.1,0,0,0,.037,5.238,27.887,27.887,0,0,1,1.235,5.73A3.849,3.849,0,0,0,1105.406,633.632Zm7.13-15.242,6.684,1.574C1118.411,618.675,1114.264,617.528,1112.536,618.39Zm16.647,3.5c2.449.142,4.9.076,7.336.982C1134.845,621.293,1130.716,620.773,1129.183,621.893Zm11.91,15.309c-.545.2-1.13.415-1.709.645a.391.391,0,0,0-.167.24c-.138.473-.261.949-.4,1.467C1140.289,639.334,1140.4,637.945,1141.093,637.2Zm-33.624-18.346c.1-.472.731-.863.235-1.424Z" fill="#004745"/>
          <path id="Trazado_108122" data-name="Trazado 108122" d="M1269.856,1074.437c-1.637-2.189-3.319-4.347-4.9-6.577a30.189,30.189,0,0,1-3.662-8.428c1.052,1.219,2.255,2.537,3.372,3.925a13.5,13.5,0,0,0,7.366,4.5,14.109,14.109,0,0,0,10.982-1.427,28.589,28.589,0,0,0,6.374-4.389,1.73,1.73,0,0,1-.069.248,42.383,42.383,0,0,0-2.953,7.051,3.679,3.679,0,0,1-.487.949,20.323,20.323,0,0,1-3.547,3.834,2.531,2.531,0,0,0-.272.311Z" transform="translate(-154.08 -416.345)" fill="#fff"/>
          <path id="Trazado_108123" data-name="Trazado 108123" d="M1250.543,1083.616c-.274-.814-.559-1.625-.818-2.443a18.276,18.276,0,0,1-1.119-5.908,15.318,15.318,0,0,1,1.221-5.542c.068.074.131.111.146.163a35.06,35.06,0,0,0,6.986,12.3c.388.473.764.956,1.145,1.434Z" transform="translate(-142.759 -425.524)" fill="#fff"/>
          <path id="Trazado_108124" data-name="Trazado 108124" d="M1458.558,1120.9c.963-1.012,1.939-2.012,2.883-3.041a6.824,6.824,0,0,0,1.486-2.651c.386-1.247.885-2.459,1.335-3.686l.179.008c.127.82.3,1.636.374,2.46a14.719,14.719,0,0,1-1.073,6.911Z" transform="translate(-330.036 -462.811)" fill="#fff"/>
          <path id="Trazado_108125" data-name="Trazado 108125" d="M1264.821,857.682l.522.2a1.852,1.852,0,0,1-.08.373c-1.007,2.224-2.009,4.451-3.042,6.663a1.477,1.477,0,0,1-.611.552,1.98,1.98,0,0,0-1.151,2.448,1.865,1.865,0,0,0,1.291,1.177c-.253-.291-.415-.46-.559-.644a1.519,1.519,0,0,1,.366-2.484,3.556,3.556,0,0,0,1.326-1.557,26.649,26.649,0,0,0,2.605-6.472,7.793,7.793,0,0,0,3.848.543,1.813,1.813,0,0,1,.03,1.352,6.065,6.065,0,0,0,2.506,6.791,7.941,7.941,0,0,0,5.355,1.237,3.091,3.091,0,0,0,1.852-.909,8.3,8.3,0,0,0,1.991-3.355.519.519,0,0,1,.559-.443,1.126,1.126,0,0,0,.525-.273c.16-.113.276-.344.443-.379a4.736,4.736,0,0,0,2.044-1.187l.159.075c-.229,1.373-.424,2.753-.693,4.119-.555,2.82-1.105,5.641-1.741,8.443a13.433,13.433,0,0,1-3.032,6.411,14.618,14.618,0,0,1-2.208,2.052c-1.652,1.163-3.385,2.212-5.084,3.308l-.076-.117,1.164-1.75-.128-.094c-.115.142-.242.276-.343.427a6.734,6.734,0,0,1-4.917,2.963,15.658,15.658,0,0,1-10.812-2.4,6.573,6.573,0,0,1-2.912-4.529c-.025-.116-.059-.23-.088-.345l-.159.028.366,2.125c-.318-.343-.6-.668-.9-.972a12.636,12.636,0,0,1-3.659-8.957,63.556,63.556,0,0,1,.607-9.9c.212-1.621.456-3.239.688-4.857.015-.1.051-.2.118-.463l.856,1.055.353.077c.088.932.152,1.823.261,2.708a4.143,4.143,0,0,0,3.171,3.678,8.417,8.417,0,0,0,3.629.293,5.46,5.46,0,0,0,3.761-2.2,10.584,10.584,0,0,0,1.781-3.485A5.255,5.255,0,0,0,1264.821,857.682Zm-7.069,16.455a27.036,27.036,0,0,0,13.012,2.918c-2.2-.353-4.43-.538-6.6-1.018S1259.887,874.783,1257.752,874.138Zm10.482-4.221a1.138,1.138,0,0,0-1.69-.625c-.614.247-1.208.56-1.838.75a1.684,1.684,0,0,1-2.08-.906c-.163-.3-.288-.619-.461-.911a.746.746,0,0,0-1.021-.322,7.681,7.681,0,0,1,.756.7,6.464,6.464,0,0,1,.506.806,1.848,1.848,0,0,0,2.138.955,7.323,7.323,0,0,0,1.428-.454,1.456,1.456,0,0,1,1.02-.1A7.041,7.041,0,0,0,1268.234,869.916Zm-.685.472a1.756,1.756,0,0,0,1.909-.263,1.491,1.491,0,0,0,.337-1.826,8.072,8.072,0,0,0-1.171-1.591,1.131,1.131,0,0,1-.367-.841c.008-.32-.032-.641-.051-.961a4.431,4.431,0,0,0-.254,1.063.891.891,0,0,0,.292.9,6.834,6.834,0,0,1,1.137,1.423,1.238,1.238,0,0,1-.783,1.883A9.341,9.341,0,0,1,1267.549,870.388Zm5.172,4.694a17.352,17.352,0,0,0-2.106-5.324Zm-17.144-3.427,4.016-3.746A16.436,16.436,0,0,0,1255.576,871.655Z" transform="translate(-143.614 -235.679)" fill="#fff"/>
          <path id="Trazado_108126" data-name="Trazado 108126" d="M1267.075,682.24c.347-.745.641-1.522,1.053-2.229a10.565,10.565,0,0,0,1.585-4.541,16.122,16.122,0,0,1,3.223-7.844c.854-1.224,1.793-2.388,2.649-3.61a1.141,1.141,0,0,1,1.284-.485,28,28,0,0,1,5.963,1.649c1.551.618,3.063,1.333,4.6,1.992a1.641,1.641,0,0,0,.713.166,33.374,33.374,0,0,1,12.431,1.7.607.607,0,0,1,.354.429,46.354,46.354,0,0,1,.024,5.651c-.274,2.694-.822,5.359-1.242,8.039a1.872,1.872,0,0,0,.049.62c.194,1.021.421,2.036.589,3.06.082.495-.761,1.212-1.241,1.064a3.686,3.686,0,0,1-1.091-.515c-.835-.614-1.619-1.3-2.449-1.918a7.474,7.474,0,0,0-4.591-1.292,5.235,5.235,0,0,0-3.135.8.511.511,0,0,1-.243.1c-1.7.078-3.423.5-5.1-.019a29.866,29.866,0,0,1-3.206-1.384.384.384,0,0,1-.158-.141c-1.044-1.652-2.741-2.115-4.495-2.453a5.652,5.652,0,0,0-3.682.445,1.762,1.762,0,0,1-.358.1c-.92.229-1.839.462-2.76.685-.212.051-.433.065-.649.1Z" transform="translate(-159.235 -63.178)" fill="#fff"/>
          <path id="Trazado_108127" data-name="Trazado 108127" d="M1270.542,607.569l1.03-1.447a3.052,3.052,0,0,1,.376-.522c.491-.444.721-1.08,1.257-1.528.3-.249.853-.4.941-.955.027-.172.348-.3.539-.443.221-.165.46-.309.668-.489a3.642,3.642,0,0,1,1.713-.817c.086-.017.216-.024.246-.079.264-.484.8-.492,1.215-.672.778-.333,1.586-.6,2.383-.885.3-.108.607-.2.9-.312a1.49,1.49,0,0,0,.289-.185,7.234,7.234,0,0,1,1.305-.319c.43-.026.871.151,1.3.136.289-.01.723.286.851-.264a2.7,2.7,0,0,0,2.326-.064c.221-.1.641.138.939.285a1.458,1.458,0,0,0,1.16.139l2.849.656.074-.155.075.542,1.879.831-.1.339c.308.3.906-.059,1.011.565.062.367.926-.01.685.607l1.912.876-.326.35.777.128c-.027.16-.05.3-.079.462l.59.08-.093.121.741.628.1-.1.355.79c.1.174.194.356.31.522a6.672,6.672,0,0,0,.522.677c.2.221.447.4.644.629.044.05-.034.206-.026.17.185.322.317.566.462.8.166.269.469.43.448.845-.012.239.243.493.314.768a2.655,2.655,0,0,1,.26,1.052,8.1,8.1,0,0,0,.556,1.511l-.248.2.395.469-.355.127.456.324-.15.051c.024.289.048.579.076.92l-.335.081.566.476-.307.188c.33.416.394,1.037.24,1.17,0,.357.1.738-.021.833-.263.206-.025.356-.048.521-.059.416-.111.834-.146,1.252-.021.24,0,.483,0,.8-.464.82-.188,1.869-.506,2.837h-.247l.184.483h-.318c.307.654.172,1.567-.247,1.7l.181.47-.435.745.068.018a1.965,1.965,0,0,1-.223.694c-.555.651-1.155,1.263-1.74,1.891-.279-1.19-.6-2.289-.77-3.411a4.938,4.938,0,0,1,.259-1.581,47.78,47.78,0,0,0,1.124-10.384c-.016-.735-.13-1.468-.171-2.2a.582.582,0,0,0-.486-.593,35.165,35.165,0,0,0-12.485-1.766,2.007,2.007,0,0,1-.92-.195,40.353,40.353,0,0,0-9.676-3.435c-1.76-.346-1.769-.361-2.857,1.028a31.891,31.891,0,0,0-4.41,6.951,16.891,16.891,0,0,0-1.32,5.7,2.443,2.443,0,0,1-.293.952c-.435.826-.912,1.63-1.381,2.458-.373-.141-.45-.369-.39-.783.185-1.273.3-2.556.448-3.835a13.369,13.369,0,0,0,.239-1.991,3.882,3.882,0,0,1,.5-1.7,16.9,16.9,0,0,0,.718-2.539,8.687,8.687,0,0,1,.593-1.415c.343-.733.723-1.449,1.046-2.19A1.357,1.357,0,0,0,1270.542,607.569Z" transform="translate(-159.138 -5.376)" fill="#fff"/>
          <path id="Trazado_108128" data-name="Trazado 108128" d="M1289.036,846.071a2.292,2.292,0,0,1,.381,2.14,5.476,5.476,0,0,1-5.251,4.182,12.012,12.012,0,0,1-3.023-.369,3.338,3.338,0,0,1-2.578-2.678,8.574,8.574,0,0,1-.164-3.942,1.977,1.977,0,0,1,1.918-1.735,13.83,13.83,0,0,1,7.385,1.255,5.3,5.3,0,0,1,1.084.906,1.509,1.509,0,0,0,.081.456,1.6,1.6,0,0,1-.462,2.141,16.37,16.37,0,0,0-1.134,1.273c.484-.41.9-.761,1.321-1.119a1.584,1.584,0,0,0,.51-2.251A.9.9,0,0,1,1289.036,846.071Zm-8.157-.145c.259-.091.461-.151.654-.233a1.141,1.141,0,0,1,1.309.2,5.461,5.461,0,0,0,4.113,1.05c.45-.05.886-.237,1.275.188C1287.088,844.839,1282.573,844.09,1280.88,845.926Zm3.845-1.447a6.655,6.655,0,0,1,3.377,1.756C1287.906,845.233,1285.929,844.361,1284.724,844.479Zm2.973,3.253-2.781.429A3.075,3.075,0,0,0,1287.7,847.732Z" transform="translate(-169.191 -223.813)" fill="#fff"/>
          <path id="Trazado_108129" data-name="Trazado 108129" d="M1439.048,874.315a35.767,35.767,0,0,1,3.715.268,6.356,6.356,0,0,1,2.319.924c.893.58.812,1.6.654,2.51a8.242,8.242,0,0,1-1.9,3.989,3.485,3.485,0,0,1-2.911.986,7.827,7.827,0,0,1-3.517-.9,5.743,5.743,0,0,1-2.864-5.9,2.348,2.348,0,0,1,2.411-1.871C1437.688,874.317,1438.425,874.315,1439.048,874.315Zm4.825,3.64c-.941-2.34-5.744-3.441-7.075-1.736.208.034.487,0,.657.121a5.354,5.354,0,0,0,4.032.971C1442.433,877.16,1443.254,876.974,1443.872,877.955Zm-7.167,1.059c-.068-.156-.14-.312-.205-.469-.233-.563-.461-1.129-.7-1.691a1,1,0,0,1,.207-1.14c.2-.224.383-.465.573-.7l-.169-.151a10.555,10.555,0,0,0-.707.871,1.163,1.163,0,0,0-.268.71A5.461,5.461,0,0,0,1436.705,879.014Zm.269-3.417a6.536,6.536,0,0,1,4.038-.4C1439.476,874.536,1437.739,874.726,1436.974,875.6Zm.056,1.57a2.668,2.668,0,0,0,2.317,1.309Z" transform="translate(-308.508 -251.223)" fill="#fff"/>
          <path id="Trazado_108130" data-name="Trazado 108130" d="M1561.618,889.733a40.079,40.079,0,0,0,3.9-7.253,4.4,4.4,0,0,0,.047-3.515c-.48-1.182-1.327-1.361-2.193-.434a10.544,10.544,0,0,0-1.276,1.731c-.447.736-.8,1.525-1.211,2.285a1.287,1.287,0,0,0,.021,1.6,1.688,1.688,0,0,1-.073,2.026,11.047,11.047,0,0,1-.8.972,2.2,2.2,0,0,0,1.489-2.488,1.6,1.6,0,0,0-.218-.66,1.106,1.106,0,0,1,.038-1.381c.3-.525.6-1.053.972-1.7a9.059,9.059,0,0,1-.3,6.806,5.991,5.991,0,0,0,1.211-4.442,25.841,25.841,0,0,0-.572-2.567.674.674,0,0,1,.025-.482,19.777,19.777,0,0,1,1.409-1.627c.383-.385.67-.33.966.129a3.1,3.1,0,0,1,.374,2.742,27.393,27.393,0,0,1-1.292,3.015c-.55,1.151-1.138,2.284-1.747,3.405a8.974,8.974,0,0,1-3.635,3.661c.272-1.34.555-2.615.788-3.9.458-2.526.884-5.058,1.338-7.585a1.3,1.3,0,0,1,.3-.657c.567-.575,1.16-1.126,1.767-1.659a2.013,2.013,0,0,1,2.326-.186,1.97,1.97,0,0,1,1.117,1.835,10.992,10.992,0,0,1-.921,4.67A16.1,16.1,0,0,1,1561.618,889.733Z" transform="translate(-419.409 -253.874)" fill="#fff"/>
          <path id="Trazado_108131" data-name="Trazado 108131" d="M1233.418,836.84a9.311,9.311,0,0,1,1.93-6.245,87.471,87.471,0,0,0-1.1,9.3l-.158.042a9.052,9.052,0,0,1-.539-1.275,31.779,31.779,0,0,1-.953-8.858,3.03,3.03,0,0,1,1.142-2.192c.429-.372.681-.33.915.186a3.23,3.23,0,0,1,.512,2.044,1.755,1.755,0,0,1-.268.621,8.062,8.062,0,0,0-1.672,5.073A12.741,12.741,0,0,0,1233.418,836.84Z" transform="translate(-128.469 -209.342)" fill="#fff"/>
          <path id="Trazado_108132" data-name="Trazado 108132" d="M1232.017,814.6a1.361,1.361,0,0,1-.154-.19c-.574-1.257-1.511-.925-2.053-.115a17.532,17.532,0,0,0-1.022,1.961c0-.539-.039-1.328.009-2.113a1.869,1.869,0,0,1,2.233-1.813,3.8,3.8,0,0,1,.616.179c.467.147.728.392.557.943A8.293,8.293,0,0,0,1232.017,814.6Z" transform="translate(-125.07 -195.916)" fill="#fff"/>
          <path id="Trazado_108133" data-name="Trazado 108133" d="M1227.673,871.6a3.844,3.844,0,0,1-.475-1.177,27.881,27.881,0,0,0-1.235-5.73,11.1,11.1,0,0,1-.037-5.238c.115,1.325.2,2.578.337,3.826a14.5,14.5,0,0,0,1.119,5.025,5.627,5.627,0,0,1,.49,2.992c0,.082-.017.164-.026.246Z" transform="translate(-122.267 -237.963)" fill="#fff"/>
          <path id="Trazado_108134" data-name="Trazado 108134" d="M1310.555,828.308c1.728-.862,5.875.285,6.684,1.574Z" transform="translate(-198.019 -209.918)" fill="#fff"/>
          <path id="Trazado_108135" data-name="Trazado 108135" d="M1464.675,858.262c1.533-1.12,5.662-.6,7.337.982C1469.572,858.339,1467.124,858.4,1464.675,858.262Z" transform="translate(-335.492 -236.37)" fill="#fff"/>
          <path id="Trazado_108136" data-name="Trazado 108136" d="M1556.134,1004.945c-.693.743-.8,2.132-2.278,2.352.14-.518.264-.995.4-1.467a.39.39,0,0,1,.167-.24C1555,1005.36,1555.589,1005.148,1556.134,1004.945Z" transform="translate(-415.041 -367.743)" fill="#fff"/>
          <path id="Trazado_108137" data-name="Trazado 108137" d="M1363.671,864.6a.9.9,0,0,0,.067.26,1.584,1.584,0,0,1-.51,2.251c-.416.358-.837.709-1.321,1.119a16.384,16.384,0,0,1,1.134-1.273,1.6,1.6,0,0,0,.462-2.141,1.513,1.513,0,0,1-.081-.456Z" transform="translate(-243.825 -242.345)" fill="#004745"/>
          <path id="Trazado_108138" data-name="Trazado 108138" d="M1263.642,823.326l.235-1.424C1264.373,822.463,1263.74,822.854,1263.642,823.326Z" transform="translate(-156.173 -204.47)" fill="#fff"/>
          <path id="Trazado_108139" data-name="Trazado 108139" d="M1325.39,1016.583c2.135.645,4.241,1.419,6.412,1.9s4.4.666,6.6,1.018A27.037,27.037,0,0,1,1325.39,1016.583Z" transform="translate(-211.252 -378.124)" fill="#004745"/>
          <path id="Trazado_108140" data-name="Trazado 108140" d="M1363.875,960.229a7.053,7.053,0,0,1-1.243-.106,1.456,1.456,0,0,0-1.02.1,7.321,7.321,0,0,1-1.428.454,1.848,1.848,0,0,1-2.138-.955,6.441,6.441,0,0,0-.506-.806,7.666,7.666,0,0,0-.756-.7.746.746,0,0,1,1.021.322c.173.292.3.612.461.911a1.684,1.684,0,0,0,2.08.906c.631-.19,1.224-.5,1.838-.75A1.138,1.138,0,0,1,1363.875,960.229Z" transform="translate(-239.255 -325.991)" fill="#004745"/>
          <path id="Trazado_108141" data-name="Trazado 108141" d="M1416.091,936.593a9.358,9.358,0,0,0,1.05-.213,1.238,1.238,0,0,0,.782-1.883,6.832,6.832,0,0,0-1.137-1.423.891.891,0,0,1-.292-.9,4.437,4.437,0,0,1,.254-1.063c.019.32.059.641.051.961a1.132,1.132,0,0,0,.367.841,8.069,8.069,0,0,1,1.171,1.591,1.491,1.491,0,0,1-.337,1.826A1.756,1.756,0,0,1,1416.091,936.593Z" transform="translate(-292.156 -301.884)" fill="#004745"/>
          <path id="Trazado_108142" data-name="Trazado 108142" d="M1446.578,981.358l-2.106-5.324A17.348,17.348,0,0,1,1446.578,981.358Z" transform="translate(-317.472 -341.955)" fill="#004745"/>
          <path id="Trazado_108143" data-name="Trazado 108143" d="M1305.246,962.656a16.439,16.439,0,0,1,4.016-3.747Z" transform="translate(-193.283 -326.68)" fill="#004745"/>
          <path id="Trazado_108144" data-name="Trazado 108144" d="M1302.713,856.735c1.693-1.836,6.209-1.088,7.351,1.207-.388-.424-.825-.237-1.275-.187a5.462,5.462,0,0,1-4.113-1.05,1.141,1.141,0,0,0-1.309-.2C1303.174,856.585,1302.972,856.644,1302.713,856.735Zm4.947-.511-.359,1.22h1.955l.06-.211Zm-2.165-.29-1.092.314.939.6Z" transform="translate(-191.024 -234.622)" fill="#004745"/>
          <path id="Trazado_108145" data-name="Trazado 108145" d="M1338.309,851.762c1.2-.119,3.182.753,3.377,1.756A6.655,6.655,0,0,0,1338.309,851.762Z" transform="translate(-222.775 -231.096)" fill="#004745"/>
          <path id="Trazado_108146" data-name="Trazado 108146" d="M1342.873,881.966a3.075,3.075,0,0,1-2.781.429Z" transform="translate(-224.366 -258.047)" fill="#004745"/>
          <path id="Trazado_108147" data-name="Trazado 108147" d="M1463.476,886.845c-.618-.981-1.439-.8-2.386-.643a5.353,5.353,0,0,1-4.032-.971c-.17-.121-.449-.087-.657-.121C1457.733,883.4,1462.535,884.505,1463.476,886.845Zm-1.527-1a2.118,2.118,0,0,0-1.6-1.046l-.2,1.2Zm-4.757-.954,0,.155.922.5c.033-.371.057-.64.086-.961Z" transform="translate(-328.112 -260.113)" fill="#004745"/>
          <path id="Trazado_108148" data-name="Trazado 108148" d="M1445.044,883.557a5.464,5.464,0,0,1-1.266-2.568,1.163,1.163,0,0,1,.268-.71,10.547,10.547,0,0,1,.707-.871l.169.151c-.19.233-.372.475-.573.7a1,1,0,0,0-.207,1.14c.236.562.464,1.128.7,1.691C1444.9,883.245,1444.975,883.4,1445.044,883.557Z" transform="translate(-316.847 -255.766)" fill="#004745"/>
          <path id="Trazado_108149" data-name="Trazado 108149" d="M1458.043,879.612c.764-.871,2.5-1.06,4.038-.4A6.535,6.535,0,0,0,1458.043,879.612Z" transform="translate(-329.577 -255.238)" fill="#004745"/>
          <path id="Trazado_108150" data-name="Trazado 108150" d="M1458.565,900.715l2.317,1.309A2.668,2.668,0,0,1,1458.565,900.715Z" transform="translate(-330.042 -274.771)" fill="#004745"/>
          <path id="Trazado_108151" data-name="Trazado 108151" d="M1345.556,860.512l1.657,1.009-.06.211H1345.2Z" transform="translate(-228.919 -238.911)" fill="#fff"/>
          <path id="Trazado_108152" data-name="Trazado 108152" d="M1319.461,857.826l-.152.916-.939-.6Z" transform="translate(-204.989 -236.515)" fill="#fff"/>
          <path id="Trazado_108153" data-name="Trazado 108153" d="M1492.853,890.15l-1.806.155.2-1.2A2.118,2.118,0,0,1,1492.853,890.15Z" transform="translate(-359.016 -264.414)" fill="#fff"/>
          <path id="Trazado_108154" data-name="Trazado 108154" d="M1463.728,887.43l1.01-.307-.086.961-.922-.5Z" transform="translate(-334.648 -262.647)" fill="#fff"/>
        </g>
      </g>
    </g>
  </g>
</svg>
