<svg xmlns="http://www.w3.org/2000/svg" width="292" height="279.485" viewBox="0 0 292 279.485">
  <g id="Grupo_70245" data-name="Grupo 70245" transform="translate(-72.862 -178.053)">
    <g id="Grupo_70244" data-name="Grupo 70244" transform="translate(72.862 178.053)">
      <path id="Trazado_116709" data-name="Trazado 116709" d="M325.693,401.431c-17.141-5.216-9.091-27.171,7.4-67.685,17.707-43.51-5.424-81.64-35.033-88.549-31-7.234-70.756,1.191-91.337,21.92-13.389,13.484-32.663,10.215-50.776-4.19-30.486-24.244-86.363,14.352-57.868,67.858,7.67,14.4,11.443,21.733,11.443,30.772,0,9.279-7.644,16.742-14.23,18.551-14.639,4.021-22.318,14.8-22.426,24.583-.107,9.657,7.33,18.882,23.376,21.815,25.812,4.718,35.732,36.34,40.8,46.291s23.655,22.067,47.6,22.067h136.99c28.889,0,42.851-22.06,43.221-45.6C365.259,423.318,355.254,410.426,325.693,401.431Z" transform="translate(-72.862 -215.379)" fill="#339ce9" opacity="0.25"/>
      <g id="Grupo_70077" data-name="Grupo 70077" transform="translate(223.45 174.911)">
        <path id="Trazado_116710" data-name="Trazado 116710" d="M649.562,611.222l-.491-.4a116.086,116.086,0,0,0-25.261,67.865l.537.021A115.506,115.506,0,0,1,649.562,611.222Z" transform="translate(-614.676 -603.042)" fill="#85a2d2"/>
        <path id="Trazado_116711" data-name="Trazado 116711" d="M690.392,592.68c-1.461-1.486-7.223,2.865-7.125,8.2C688.3,599.743,691.792,594.115,690.392,592.68Z" transform="translate(-649.032 -592.385)" fill="#85a2d2"/>
        <path id="Trazado_116712" data-name="Trazado 116712" d="M675.647,619.642c3.825,3.471,10.479,2.257,10.672.258C686.551,617.806,679.955,615.782,675.647,619.642Z" transform="translate(-644.63 -606.875)" fill="#85a2d2"/>
        <path id="Trazado_116713" data-name="Trazado 116713" d="M663.024,637.513c4.819,3.688,12.526,1.643,12.587-.7C675.72,634.335,667.762,632.455,663.024,637.513Z" transform="translate(-637.336 -616.617)" fill="#85a2d2"/>
        <path id="Trazado_116714" data-name="Trazado 116714" d="M625.765,742.076c6.348,1.446,13.129-4.7,12.237-7.2C637.093,732.167,628.227,734.051,625.765,742.076Z" transform="translate(-615.806 -674.052)" fill="#85a2d2"/>
        <path id="Trazado_116715" data-name="Trazado 116715" d="M650.3,659.346c6.051,3.736,14.878.483,14.732-2.234C664.94,654.19,655.352,652.7,650.3,659.346Z" transform="translate(-629.985 -628.357)" fill="#85a2d2"/>
        <path id="Trazado_116716" data-name="Trazado 116716" d="M630.456,713.647c7.05,2.4,15.456-3.354,14.749-6.185C644.5,704.372,634.187,705.115,630.456,713.647Z" transform="translate(-618.517 -657.919)" fill="#85a2d2"/>
        <path id="Trazado_116717" data-name="Trazado 116717" d="M639.08,684.448c7.165,3.4,16.661-1.337,16.231-4.33C654.924,676.851,643.985,676.189,639.08,684.448Z" transform="translate(-623.5 -641.77)" fill="#85a2d2"/>
        <path id="Trazado_116718" data-name="Trazado 116718" d="M667.29,597.278c-2.24.877-1.895,8.25,2.754,10.662C672.281,602.772,669.481,596.489,667.29,597.278Z" transform="translate(-639.027 -595.174)" fill="#85a2d2"/>
        <path id="Trazado_116719" data-name="Trazado 116719" d="M651.4,612.23c-2.607,1.288-1.578,10.1,4.124,12.447C657.691,618.32,653.941,611.072,651.4,612.23Z" transform="translate(-629.833 -603.781)" fill="#85a2d2"/>
        <path id="Trazado_116720" data-name="Trazado 116720" d="M602.657,725.488c-2.077,2.776,2.815,11.951,9.476,11.487C611.492,728.926,604.729,722.915,602.657,725.488Z" transform="translate(-602.174 -668.95)" fill="#85a2d2"/>
        <path id="Trazado_116721" data-name="Trazado 116721" d="M634.126,631.341c-2.992,1.88-.9,12.375,6.063,14.417C642.061,637.942,637.044,629.656,634.126,631.341Z" transform="translate(-619.871 -614.768)" fill="#85a2d2"/>
        <path id="Trazado_116722" data-name="Trazado 116722" d="M607.1,690.474c-2.719,2.821,1.769,13.693,9.4,14.029C616.692,695.579,609.777,687.9,607.1,690.474Z" transform="translate(-604.556 -648.774)" fill="#85a2d2"/>
        <path id="Trazado_116723" data-name="Trazado 116723" d="M617.817,655.776c-3.2,2.557.283,14.353,8.295,15.707C627.327,662.365,620.941,653.483,617.817,655.776Z" transform="translate(-610.531 -628.804)" fill="#85a2d2"/>
      </g>
      <g id="Grupo_70150" data-name="Grupo 70150" transform="translate(39.763 66.948)">
        <g id="Grupo_70149" data-name="Grupo 70149">
          <g id="Grupo_70078" data-name="Grupo 70078" transform="translate(189.051 130.433)">
            <path id="Trazado_116724" data-name="Trazado 116724" d="M639.448,664.864c6.285-4.483,7.482,1.32,10.06-7,3.741-12.07,9.469-13.871,14.043-11.143s5.71,8.626-3.136,17.65c-6.1,6.22-.422,4.517-1.382,12.177-.834,6.657-11.368,13.1-11.327,19.517.1,15.825-17.148,18.766-22.786,15.4s-11.242-19.939,2.732-27.367C633.315,681.092,633.986,668.76,639.448,664.864Z" transform="translate(-617.199 -645.613)" fill="#6689bc"/>
            <path id="Trazado_116725" data-name="Trazado 116725" d="M627.481,703.259l13.832-23.183-3.663-14.5c.355-.232.691-.428,1.013-.6l3.467,13.725,13.415-22.483-2.052-8.124a8.06,8.06,0,0,1,1-.636l1.867,7.39,4.376-7.334c.166.086.331.176.494.273s.321.2.475.305l-4.376,7.334,7.39-1.867a8.022,8.022,0,0,1-.083,1.185l-8.124,2.052L643.1,679.283l13.726-3.467c0,.363-.01.753-.045,1.175l-14.5,3.663L628.45,703.837l16.8-4.245q-.073.62-.183,1.209l-17.438,4.405-4.133,6.928-.4.668-7.25,12.152-.969-.578,7.25-12.152.4-.668,4.134-6.928-4.405-17.438q.466-.377.978-.735Z" transform="translate(-614.881 -646.682)" fill="#37639a"/>
          </g>
          <g id="Grupo_70081" data-name="Grupo 70081" transform="translate(174.928 68.207)">
            <g id="Grupo_70079" data-name="Grupo 70079" transform="translate(16.733 11.887)">
              <path id="Trazado_116726" data-name="Trazado 116726" d="M642.893,526.886l-.786-.518a130.46,130.46,0,0,0-20.982,75.037l.807-.024A129.578,129.578,0,0,1,642.893,526.886Z" transform="translate(-621.063 -526.368)" fill="#6689bc"/>
            </g>
            <g id="Grupo_70080" data-name="Grupo 70080" transform="translate(37.629)">
              <path id="Trazado_116727" data-name="Trazado 116727" d="M670.618,510.493q.036.251.073.5l.484-.137c4.823-1.384,8.095-10.873,8.368-11.321q.248-.662.5-1.325-.6.374-1.2.755C678.426,499.058,669.792,505.2,670.618,510.493Z" transform="translate(-670.562 -498.211)" fill="#6689bc"/>
            </g>
            <path id="Trazado_116728" data-name="Trazado 116728" d="M622.364,664.088c-.008.18-.017.358-.025.538l.411.02c9.941.025,18.754-11.235,19.378-11.393q.346-.383.7-.759h-.974C641.178,652.361,622.97,652.756,622.364,664.088Z" transform="translate(-605.068 -587.354)" fill="#6689bc"/>
            <path id="Trazado_116729" data-name="Trazado 116729" d="M626.667,629.825q-.047.263-.093.526l.419.077c8.965,1.287,17.994-7.647,18.542-7.763q.395-.346.792-.685l-.994-.116C644.731,621.687,628.435,620.1,626.667,629.825Z" transform="translate(-607.515 -569.547)" fill="#6689bc"/>
            <path id="Trazado_116730" data-name="Trazado 116730" d="M635.342,596.975l-.155.51.419.131c7.773,2.173,16.526-4.651,17-4.738q.437-.306.877-.607l-1-.229C651.958,591.842,637.852,588.877,635.342,596.975Z" transform="translate(-612.492 -552.031)" fill="#6689bc"/>
            <path id="Trazado_116731" data-name="Trazado 116731" d="M647.662,566.044q-.107.244-.213.489l.413.184c6.453,2.682,14.509-2.288,14.91-2.35q.475-.268.953-.529l-1-.337C662.288,563.294,650.534,559.534,647.662,566.044Z" transform="translate(-619.577 -535.207)" fill="#6689bc"/>
            <path id="Trazado_116732" data-name="Trazado 116732" d="M661.288,540.32l-.261.466.4.229c5.095,2.762,12.053-.707,12.38-.755q.506-.233,1.014-.46l-.985-.427C673.483,539.179,664.134,535.291,661.288,540.32Z" transform="translate(-627.423 -521.062)" fill="#6689bc"/>
            <path id="Trazado_116733" data-name="Trazado 116733" d="M582.336,637.312l-.91-.386q.184.626.373,1.25c-.013.93,6.106,17.357,16.48,17.443l.411.02q.011-.269.024-.538C599.413,644.6,583.145,637.771,582.336,637.312Z" transform="translate(-581.426 -578.367)" fill="#6689bc"/>
            <path id="Trazado_116734" data-name="Trazado 116734" d="M595.056,599.473l-.887-.493q.12.636.245,1.268c-.065.789,3.717,15.555,13.009,16.918l.419.077c.03-.176.061-.352.092-.527C609.7,607.639,595.726,599.938,595.056,599.473Z" transform="translate(-588.79 -556.44)" fill="#6689bc"/>
            <path id="Trazado_116735" data-name="Trazado 116735" d="M611.388,565.775l-.855-.592q.059.639.123,1.275c-.1.651,1.849,13.522,9.858,15.773l.419.132q.077-.255.155-.51C623.539,574.234,611.927,566.222,611.388,565.775Z" transform="translate(-598.246 -536.911)" fill="#6689bc"/>
            <path id="Trazado_116736" data-name="Trazado 116736" d="M630.453,536.263l-.814-.683c0,.425,0,.849.009,1.272-.109.523.477,11.343,7.088,14.092l.413.184q.106-.245.213-.489C640.158,544.463,630.874,536.673,630.453,536.263Z" transform="translate(-609.285 -519.805)" fill="#6689bc"/>
            <path id="Trazado_116737" data-name="Trazado 116737" d="M649.369,513.989l-.773-.757q-.046.631-.086,1.259c-.1.4-.342,9.077,4.853,11.891l.4.228.261-.466C656.8,521.331,649.685,514.338,649.369,513.989Z" transform="translate(-620.17 -506.891)" fill="#6689bc"/>
          </g>
          <g id="Grupo_70082" data-name="Grupo 70082" transform="translate(13.999 157.728)">
            <path id="Trazado_116738" data-name="Trazado 116738" d="M217.352,724.982l.233-.439a90.9,90.9,0,0,1,39.648,40.968l-.384.185A90.449,90.449,0,0,0,217.352,724.982Z" transform="translate(-210.117 -718.517)" fill="#85a2d2"/>
            <path id="Trazado_116739" data-name="Trazado 116739" d="M200.265,716.093c.6-1.531,6.157-.208,7.756,3.668C204,720.525,199.7,717.569,200.265,716.093Z" transform="translate(-200.214 -713.275)" fill="#85a2d2"/>
            <path id="Trazado_116740" data-name="Trazado 116740" d="M216.758,730.075c-1.7,3.706-6.923,4.925-7.689,3.545C208.244,732.183,212.412,728.648,216.758,730.075Z" transform="translate(-205.27 -721.522)" fill="#85a2d2"/>
            <path id="Trazado_116741" data-name="Trazado 116741" d="M229.678,739.564c-2.354,4.175-8.606,5.127-9.383,3.459C219.439,741.27,224.644,737.41,229.678,739.564Z" transform="translate(-211.764 -726.83)" fill="#85a2d2"/>
            <path id="Trazado_116742" data-name="Trazado 116742" d="M289.455,804.545c-4.169,3.04-11.031.745-11.165-1.339C278.1,800.967,285.149,799.535,289.455,804.545Z" transform="translate(-245.328 -762.789)" fill="#85a2d2"/>
            <path id="Trazado_116743" data-name="Trazado 116743" d="M243.657,752.053c-3.235,4.6-10.682,5.031-11.426,3.027C231.385,752.943,237.9,748.853,243.657,752.053Z" transform="translate(-218.672 -733.732)" fill="#85a2d2"/>
            <path id="Trazado_116744" data-name="Trazado 116744" d="M274.827,785.843c-4.382,3.949-12.3,2.447-12.676.183C261.693,783.578,269.438,780.867,274.827,785.843Z" transform="translate(-235.993 -752.326)" fill="#85a2d2"/>
            <path id="Trazado_116745" data-name="Trazado 116745" d="M258.143,767.363c-4.153,4.7-12.55,4.28-13.174,1.988C244.228,766.874,251.986,762.953,258.143,767.363Z" transform="translate(-226.047 -742.108)" fill="#85a2d2"/>
            <path id="Trazado_116746" data-name="Trazado 116746" d="M222.526,710.27c1.906-.073,3.964,5.351,1.334,8.552C220.612,715.8,220.683,710.391,222.526,710.27Z" transform="translate(-212.372 -710.269)" fill="#85a2d2"/>
            <path id="Trazado_116747" data-name="Trazado 116747" d="M238.166,716.109c2.3.108,4.312,6.783.9,10.27C235.491,722.48,235.951,716.074,238.166,716.109Z" transform="translate(-221.148 -713.644)" fill="#85a2d2"/>
            <path id="Trazado_116748" data-name="Trazado 116748" d="M307.115,782.3c2.382,1.347,1.694,9.5-3.3,11.263C301.759,787.564,304.8,781.1,307.115,782.3Z" transform="translate(-259.686 -751.811)" fill="#85a2d2"/>
            <path id="Trazado_116749" data-name="Trazado 116749" d="M255.894,724.52c2.767.414,4.533,8.636.1,12.3C252.182,731.776,253.241,724.224,255.894,724.52Z" transform="translate(-231.009 -718.499)" fill="#85a2d2"/>
            <path id="Trazado_116750" data-name="Trazado 116750" d="M292.891,758.578c2.863,1.177,3,10.427-2.45,13.071C287.5,765.278,290.133,757.567,292.891,758.578Z" transform="translate(-251.606 -738.132)" fill="#85a2d2"/>
            <path id="Trazado_116751" data-name="Trazado 116751" d="M274.512,737.04c3.128.837,4.289,10.435-1.12,13.932C269.651,744.783,271.519,736.37,274.512,737.04Z" transform="translate(-241.296 -725.717)" fill="#85a2d2"/>
          </g>
          <g id="Grupo_70085" data-name="Grupo 70085" transform="translate(37.452 148.48)">
            <g id="Grupo_70083" data-name="Grupo 70083" transform="translate(5.492 6.031)">
              <path id="Trazado_116752" data-name="Trazado 116752" d="M268.781,702.982l.409-.332a72.058,72.058,0,0,1,16.052,40.293l-.452.034A71.571,71.571,0,0,0,268.781,702.982Z" transform="translate(-268.781 -702.65)" fill="#6689bc"/>
            </g>
            <g id="Grupo_70084" data-name="Grupo 70084">
              <path id="Trazado_116753" data-name="Trazado 116753" d="M261.747,694.607q-.006.141-.012.282l-.278-.048c-2.774-.484-5.149-5.543-5.328-5.775q-.177-.351-.358-.7.359.171.716.347C256.725,688.737,261.9,691.628,261.747,694.607Z" transform="translate(-255.771 -688.363)" fill="#6689bc"/>
            </g>
            <path id="Trazado_116754" data-name="Trazado 116754" d="M289.158,777.451c.015.1.03.2.045.3l-.229.036c-5.55.594-11.123-5.121-11.481-5.172q-.215-.191-.433-.379l.544-.057C277.973,772.062,288.165,771.217,289.158,777.451Z" transform="translate(-268.073 -736.736)" fill="#6689bc"/>
            <path id="Trazado_116755" data-name="Trazado 116755" d="M285.36,758.4c.028.1.055.191.082.286l-.23.067c-4.933,1.236-10.492-3.18-10.8-3.212q-.241-.168-.482-.333l.549-.122C274.8,754.948,283.811,753.119,285.36,758.4Z" transform="translate(-266.262 -726.677)" fill="#6689bc"/>
            <path id="Trazado_116756" data-name="Trazado 116756" d="M279.78,740.418l.116.273-.226.1c-4.216,1.656-9.5-1.608-9.769-1.628q-.262-.144-.525-.285l.546-.185C270.2,738.548,277.91,736.083,279.78,740.418Z" transform="translate(-263.633 -716.967)" fill="#6689bc"/>
            <path id="Trazado_116757" data-name="Trazado 116757" d="M272.71,723.8l.147.258-.22.126c-3.449,1.861-8.236-.418-8.464-.429l-.563-.237.537-.244C264.382,723.134,270.73,720.367,272.71,723.8Z" transform="translate(-260.301 -707.851)" fill="#6689bc"/>
            <path id="Trazado_116758" data-name="Trazado 116758" d="M265.544,710.212l.173.243-.211.15c-2.686,1.826-6.773.313-6.959.306-.2-.066-.4-.131-.593-.2l.526-.294C258.667,710.293,263.664,707.6,265.544,710.212Z" transform="translate(-257.032 -700.331)" fill="#6689bc"/>
            <path id="Trazado_116759" data-name="Trazado 116759" d="M313.74,758.861l.486-.267q-.067.357-.136.713c.061.514-2.408,9.961-8.2,10.615l-.229.035c-.015-.1-.03-.2-.045-.3C304.622,763.889,313.314,759.162,313.74,758.861Z" transform="translate(-284.529 -728.946)" fill="#6689bc"/>
            <path id="Trazado_116760" data-name="Trazado 116760" d="M306.939,738.667l.467-.324q-.03.358-.064.716c.082.433-1.178,8.824-6.289,10.121l-.229.067-.082-.286C299.233,744.041,306.592,738.964,306.939,738.667Z" transform="translate(-281.64 -717.244)" fill="#6689bc"/>
            <path id="Trazado_116761" data-name="Trazado 116761" d="M298.057,720.976l.444-.377q0,.357,0,.713c.091.355-.252,7.59-4.6,9.3l-.227.1c-.038-.092-.077-.182-.116-.273C291.759,726.366,297.782,721.255,298.057,720.976Z" transform="translate(-277.416 -706.991)" fill="#6689bc"/>
            <path id="Trazado_116762" data-name="Trazado 116762" d="M287.579,705.761l.415-.426c.024.236.047.47.068.7.091.283.389,6.3-3.145,8.211l-.22.126-.147-.258C282.632,710.865,287.368,706.012,287.579,705.761Z" transform="translate(-272.137 -698.17)" fill="#6689bc"/>
            <path id="Trazado_116763" data-name="Trazado 116763" d="M277.133,694.551l.388-.464q.062.346.121.692c.08.218.715,5-2.024,6.862l-.212.15-.173-.243C273.405,699.048,276.976,694.763,277.133,694.551Z" transform="translate(-266.717 -691.671)" fill="#6689bc"/>
          </g>
          <g id="Grupo_70087" data-name="Grupo 70087" transform="translate(0 0)">
            <path id="Trazado_116764" data-name="Trazado 116764" d="M244.578,350.576a14.449,14.449,0,0,0-28.88,0v89.35h0a14.193,14.193,0,0,1-14.44,13.934h43.319V350.576Z" transform="translate(-186.819 -336.642)" fill="#ddd"/>
            <g id="Grupo_70086" data-name="Grupo 70086" transform="translate(0 56.122)">
              <path id="Trazado_116765" data-name="Trazado 116765" d="M195.933,516.747h0V469.586H167.053v47.161a14.449,14.449,0,0,0,28.88,0Z" transform="translate(-167.053 -469.586)" fill="#fff"/>
            </g>
          </g>
          <path id="Trazado_116766" data-name="Trazado 116766" d="M420.913,535.244h0V350.575h0a14.194,14.194,0,0,0-14.44-13.934h-136.8a14.194,14.194,0,0,1,14.44,13.934V535.244a14.194,14.194,0,0,0,14.44,13.934h136.8A14.194,14.194,0,0,1,420.913,535.244Z" transform="translate(-226.349 -336.641)" fill="#fff"/>
          <path id="Trazado_116767" data-name="Trazado 116767" d="M352.081,793.773V799.4h0a14.194,14.194,0,0,1-14.44,13.934H474.447a14.194,14.194,0,0,0,14.44-13.934v-5.624Z" transform="translate(-265.628 -600.794)" fill="#ddd"/>
          <g id="Grupo_70100" data-name="Grupo 70100" transform="translate(69.244 28.39)">
            <g id="Grupo_70090" data-name="Grupo 70090">
              <g id="Grupo_70088" data-name="Grupo 70088" transform="translate(2.77 7.752)">
                <path id="Trazado_116768" data-name="Trazado 116768" d="M353.054,438.625h-14.3a1.107,1.107,0,0,1-1.112-1.1V423.357a1.107,1.107,0,0,1,1.112-1.1h14.3a1.107,1.107,0,0,1,1.112,1.1v14.166A1.107,1.107,0,0,1,353.054,438.625Zm-13.188-2.2h12.076V424.459H339.867Z" transform="translate(-337.642 -422.255)" fill="#4da78b"/>
              </g>
              <g id="Grupo_70089" data-name="Grupo 70089">
                <path id="Trazado_116769" data-name="Trazado 116769" d="M342.082,423.96a1.114,1.114,0,0,1-.968-.558c-2.849-4.985-9.351-8.22-9.417-8.252a1.1,1.1,0,0,1-.5-1.476,1.117,1.117,0,0,1,1.489-.5,28.871,28.871,0,0,1,9.266,7.476c4.292-7.923,11.984-14.407,17.459-16.673a1.115,1.115,0,0,1,1.455.591,1.1,1.1,0,0,1-.6,1.442c-5.485,2.271-13.368,9.109-17.174,17.309a1.112,1.112,0,0,1-.963.64Z" transform="translate(-331.079 -403.891)" fill="#bf3976"/>
              </g>
            </g>
            <g id="Grupo_70099" data-name="Grupo 70099" transform="translate(30.259 6.611)">
              <g id="Grupo_70098" data-name="Grupo 70098">
                <g id="Grupo_70091" data-name="Grupo 70091">
                  <rect id="Rectángulo_7232" data-name="Rectángulo 7232" width="82.464" height="2.234" fill="#a7d4c6"/>
                </g>
                <g id="Grupo_70092" data-name="Grupo 70092" transform="translate(0 5.473)">
                  <rect id="Rectángulo_7233" data-name="Rectángulo 7233" width="27.21" height="2.234" fill="#a7d4c6"/>
                </g>
                <g id="Grupo_70093" data-name="Grupo 70093" transform="translate(37.776 5.473)">
                  <rect id="Rectángulo_7234" data-name="Rectángulo 7234" width="31.957" height="2.234" fill="#a7d4c6"/>
                </g>
                <g id="Grupo_70094" data-name="Grupo 70094" transform="translate(0 10.945)">
                  <rect id="Rectángulo_7235" data-name="Rectángulo 7235" width="45.562" height="2.234" fill="#a7d4c6"/>
                </g>
                <g id="Grupo_70095" data-name="Grupo 70095" transform="translate(51.203 10.945)">
                  <rect id="Rectángulo_7236" data-name="Rectángulo 7236" width="31.262" height="2.234" fill="#a7d4c6"/>
                </g>
                <g id="Grupo_70096" data-name="Grupo 70096" transform="translate(0 16.418)">
                  <rect id="Rectángulo_7237" data-name="Rectángulo 7237" width="19.742" height="2.234" fill="#a7d4c6"/>
                </g>
                <g id="Grupo_70097" data-name="Grupo 70097" transform="translate(32.056 16.418)">
                  <rect id="Rectángulo_7238" data-name="Rectángulo 7238" width="50.408" height="2.234" fill="#a7d4c6"/>
                </g>
              </g>
            </g>
          </g>
          <g id="Grupo_70112" data-name="Grupo 70112" transform="translate(69.244 61.674)">
            <g id="Grupo_70103" data-name="Grupo 70103">
              <g id="Grupo_70101" data-name="Grupo 70101" transform="translate(2.77 7.752)">
                <path id="Trazado_116770" data-name="Trazado 116770" d="M353.054,517.469h-14.3a1.107,1.107,0,0,1-1.112-1.1V502.2a1.107,1.107,0,0,1,1.112-1.1h14.3a1.107,1.107,0,0,1,1.112,1.1v14.166A1.107,1.107,0,0,1,353.054,517.469Zm-13.188-2.2h12.076V503.3H339.867Z" transform="translate(-337.642 -501.099)" fill="#4da78b"/>
              </g>
              <g id="Grupo_70102" data-name="Grupo 70102">
                <path id="Trazado_116771" data-name="Trazado 116771" d="M342.082,502.8a1.114,1.114,0,0,1-.968-.559c-2.849-4.985-9.351-8.22-9.417-8.252a1.1,1.1,0,0,1-.5-1.476,1.117,1.117,0,0,1,1.489-.5,28.878,28.878,0,0,1,9.266,7.476c4.292-7.923,11.984-14.407,17.459-16.673a1.116,1.116,0,0,1,1.455.591,1.1,1.1,0,0,1-.6,1.441c-5.485,2.271-13.368,9.109-17.174,17.309a1.112,1.112,0,0,1-.963.64Z" transform="translate(-331.079 -482.736)" fill="#bf3976"/>
              </g>
            </g>
            <g id="Grupo_70111" data-name="Grupo 70111" transform="translate(30.259 6.611)">
              <g id="Grupo_70104" data-name="Grupo 70104" transform="translate(0 16.418)">
                <rect id="Rectángulo_7239" data-name="Rectángulo 7239" width="59.119" height="2.234" transform="translate(59.119 2.234) rotate(180)" fill="#a7d4c6"/>
              </g>
              <g id="Grupo_70105" data-name="Grupo 70105" transform="translate(41.232 10.945)">
                <rect id="Rectángulo_7240" data-name="Rectángulo 7240" width="27.21" height="2.234" transform="translate(27.21 2.234) rotate(180)" fill="#a7d4c6"/>
              </g>
              <g id="Grupo_70106" data-name="Grupo 70106" transform="translate(0 10.945)">
                <rect id="Rectángulo_7241" data-name="Rectángulo 7241" width="31.957" height="2.234" transform="translate(31.957 2.234) rotate(180)" fill="#a7d4c6"/>
              </g>
              <g id="Grupo_70107" data-name="Grupo 70107" transform="translate(36.902 5.473)">
                <rect id="Rectángulo_7242" data-name="Rectángulo 7242" width="45.562" height="2.234" transform="translate(45.562 2.234) rotate(180)" fill="#a7d4c6"/>
              </g>
              <g id="Grupo_70108" data-name="Grupo 70108" transform="translate(0 5.473)">
                <rect id="Rectángulo_7243" data-name="Rectángulo 7243" width="31.262" height="2.234" transform="translate(31.262 2.234) rotate(180)" fill="#a7d4c6"/>
              </g>
              <g id="Grupo_70109" data-name="Grupo 70109" transform="translate(62.722 0)">
                <rect id="Rectángulo_7244" data-name="Rectángulo 7244" width="19.742" height="2.234" transform="translate(19.742 2.234) rotate(180)" fill="#a7d4c6"/>
              </g>
              <g id="Grupo_70110" data-name="Grupo 70110" transform="translate(0 0)">
                <rect id="Rectángulo_7245" data-name="Rectángulo 7245" width="50.408" height="2.234" transform="translate(50.408 2.234) rotate(180)" fill="#a7d4c6"/>
              </g>
            </g>
          </g>
          <g id="Grupo_70124" data-name="Grupo 70124" transform="translate(69.244 94.958)">
            <g id="Grupo_70115" data-name="Grupo 70115">
              <g id="Grupo_70113" data-name="Grupo 70113" transform="translate(2.77 7.753)">
                <path id="Trazado_116772" data-name="Trazado 116772" d="M353.054,596.313h-14.3a1.107,1.107,0,0,1-1.112-1.1V581.045a1.107,1.107,0,0,1,1.112-1.1h14.3a1.107,1.107,0,0,1,1.112,1.1v14.166A1.107,1.107,0,0,1,353.054,596.313Zm-13.188-2.2h12.076V582.147H339.867Z" transform="translate(-337.642 -579.944)" fill="#4da78b"/>
              </g>
              <g id="Grupo_70114" data-name="Grupo 70114">
                <path id="Trazado_116773" data-name="Trazado 116773" d="M342.082,581.648a1.114,1.114,0,0,1-.968-.559c-2.849-4.985-9.351-8.22-9.417-8.252a1.1,1.1,0,0,1-.5-1.476,1.117,1.117,0,0,1,1.489-.5,28.878,28.878,0,0,1,9.266,7.476c4.292-7.923,11.984-14.407,17.459-16.673a1.115,1.115,0,0,1,1.455.591,1.1,1.1,0,0,1-.6,1.441c-5.485,2.271-13.368,9.109-17.174,17.309a1.112,1.112,0,0,1-.963.64Z" transform="translate(-331.079 -561.579)" fill="#bf3976"/>
              </g>
            </g>
            <g id="Grupo_70123" data-name="Grupo 70123" transform="translate(30.259 6.611)">
              <g id="Grupo_70116" data-name="Grupo 70116" transform="translate(0 0)">
                <rect id="Rectángulo_7246" data-name="Rectángulo 7246" width="82.464" height="2.234" transform="translate(82.464 2.234) rotate(180)" fill="#a7d4c6"/>
              </g>
              <g id="Grupo_70117" data-name="Grupo 70117" transform="translate(41.877 5.473)">
                <rect id="Rectángulo_7247" data-name="Rectángulo 7247" width="27.21" height="2.234" transform="translate(27.21 2.234) rotate(180)" fill="#a7d4c6"/>
              </g>
              <g id="Grupo_70118" data-name="Grupo 70118" transform="translate(0 5.473)">
                <rect id="Rectángulo_7248" data-name="Rectángulo 7248" width="31.957" height="2.234" transform="translate(31.957 2.234) rotate(180)" fill="#a7d4c6"/>
              </g>
              <g id="Grupo_70119" data-name="Grupo 70119" transform="translate(36.902 10.945)">
                <rect id="Rectángulo_7249" data-name="Rectángulo 7249" width="45.562" height="2.234" transform="translate(45.562 2.234) rotate(180)" fill="#a7d4c6"/>
              </g>
              <g id="Grupo_70120" data-name="Grupo 70120" transform="translate(0 10.945)">
                <rect id="Rectángulo_7250" data-name="Rectángulo 7250" width="31.262" height="2.234" transform="translate(31.262 2.234) rotate(180)" fill="#a7d4c6"/>
              </g>
              <g id="Grupo_70121" data-name="Grupo 70121" transform="translate(62.722 16.418)">
                <rect id="Rectángulo_7251" data-name="Rectángulo 7251" width="19.742" height="2.234" transform="translate(19.742 2.234) rotate(180)" fill="#a7d4c6"/>
              </g>
              <g id="Grupo_70122" data-name="Grupo 70122" transform="translate(0 16.418)">
                <rect id="Rectángulo_7252" data-name="Rectángulo 7252" width="50.408" height="2.234" transform="translate(50.408 2.234) rotate(180)" fill="#a7d4c6"/>
              </g>
            </g>
          </g>
          <g id="Grupo_70136" data-name="Grupo 70136" transform="translate(69.244 128.242)">
            <g id="Grupo_70127" data-name="Grupo 70127">
              <g id="Grupo_70125" data-name="Grupo 70125" transform="translate(2.77 7.752)">
                <path id="Trazado_116774" data-name="Trazado 116774" d="M353.054,675.157h-14.3a1.107,1.107,0,0,1-1.112-1.1V659.889a1.107,1.107,0,0,1,1.112-1.1h14.3a1.107,1.107,0,0,1,1.112,1.1v14.166A1.107,1.107,0,0,1,353.054,675.157Zm-13.188-2.2h12.076V660.991H339.867Z" transform="translate(-337.642 -658.787)" fill="#4da78b"/>
              </g>
              <g id="Grupo_70126" data-name="Grupo 70126">
                <path id="Trazado_116775" data-name="Trazado 116775" d="M342.082,660.492a1.114,1.114,0,0,1-.968-.559c-2.849-4.985-9.351-8.22-9.417-8.252a1.1,1.1,0,0,1-.5-1.476,1.117,1.117,0,0,1,1.489-.5,28.877,28.877,0,0,1,9.266,7.476c4.292-7.923,11.984-14.407,17.459-16.673a1.115,1.115,0,0,1,1.455.591,1.1,1.1,0,0,1-.6,1.441c-5.485,2.271-13.368,9.109-17.174,17.309a1.112,1.112,0,0,1-.963.64Z" transform="translate(-331.079 -640.423)" fill="#bf3976"/>
              </g>
            </g>
            <g id="Grupo_70135" data-name="Grupo 70135" transform="translate(30.259 6.611)">
              <g id="Grupo_70128" data-name="Grupo 70128" transform="translate(0 16.418)">
                <rect id="Rectángulo_7253" data-name="Rectángulo 7253" width="82.464" height="2.234" fill="#a7d4c6"/>
              </g>
              <g id="Grupo_70129" data-name="Grupo 70129" transform="translate(0 10.945)">
                <rect id="Rectángulo_7254" data-name="Rectángulo 7254" width="27.21" height="2.234" fill="#a7d4c6"/>
              </g>
              <g id="Grupo_70130" data-name="Grupo 70130" transform="translate(37.776 10.945)">
                <rect id="Rectángulo_7255" data-name="Rectángulo 7255" width="31.957" height="2.234" fill="#a7d4c6"/>
              </g>
              <g id="Grupo_70131" data-name="Grupo 70131" transform="translate(0 5.473)">
                <rect id="Rectángulo_7256" data-name="Rectángulo 7256" width="45.562" height="2.234" fill="#a7d4c6"/>
              </g>
              <g id="Grupo_70132" data-name="Grupo 70132" transform="translate(51.203 5.473)">
                <rect id="Rectángulo_7257" data-name="Rectángulo 7257" width="31.262" height="2.234" fill="#a7d4c6"/>
              </g>
              <g id="Grupo_70133" data-name="Grupo 70133">
                <rect id="Rectángulo_7258" data-name="Rectángulo 7258" width="19.742" height="2.234" fill="#a7d4c6"/>
              </g>
              <g id="Grupo_70134" data-name="Grupo 70134" transform="translate(27.21)">
                <rect id="Rectángulo_7259" data-name="Rectángulo 7259" width="50.408" height="2.234" fill="#a7d4c6"/>
              </g>
            </g>
          </g>
          <g id="Grupo_70148" data-name="Grupo 70148" transform="translate(72.014 168.137)">
            <g id="Grupo_70139" data-name="Grupo 70139" transform="translate(0 1.141)">
              <g id="Grupo_70138" data-name="Grupo 70138">
                <g id="Grupo_70137" data-name="Grupo 70137">
                  <path id="Trazado_116776" data-name="Trazado 116776" d="M353.054,754h-14.3a1.107,1.107,0,0,1-1.112-1.1V738.733a1.107,1.107,0,0,1,1.112-1.1h14.3a1.107,1.107,0,0,1,1.112,1.1V752.9A1.107,1.107,0,0,1,353.054,754Zm-13.188-2.2h12.076V739.835H339.867Z" transform="translate(-337.642 -737.631)" fill="#4da78b"/>
                </g>
              </g>
            </g>
            <g id="Grupo_70147" data-name="Grupo 70147" transform="translate(27.488)">
              <g id="Grupo_70140" data-name="Grupo 70140">
                <rect id="Rectángulo_7260" data-name="Rectángulo 7260" width="82.464" height="2.234" fill="#a7d4c6"/>
              </g>
              <g id="Grupo_70141" data-name="Grupo 70141" transform="translate(0 5.473)">
                <rect id="Rectángulo_7261" data-name="Rectángulo 7261" width="27.21" height="2.234" fill="#a7d4c6"/>
              </g>
              <g id="Grupo_70142" data-name="Grupo 70142" transform="translate(40.398 5.473)">
                <rect id="Rectángulo_7262" data-name="Rectángulo 7262" width="31.957" height="2.234" fill="#a7d4c6"/>
              </g>
              <g id="Grupo_70143" data-name="Grupo 70143" transform="translate(0 10.945)">
                <rect id="Rectángulo_7263" data-name="Rectángulo 7263" width="45.562" height="2.234" fill="#a7d4c6"/>
              </g>
              <g id="Grupo_70144" data-name="Grupo 70144" transform="translate(51.203 10.945)">
                <rect id="Rectángulo_7264" data-name="Rectángulo 7264" width="31.262" height="2.234" fill="#a7d4c6"/>
              </g>
              <g id="Grupo_70145" data-name="Grupo 70145" transform="translate(0 16.418)">
                <rect id="Rectángulo_7265" data-name="Rectángulo 7265" width="19.742" height="2.234" fill="#a7d4c6"/>
              </g>
              <g id="Grupo_70146" data-name="Grupo 70146" transform="translate(27.885 16.418)">
                <rect id="Rectángulo_7266" data-name="Rectángulo 7266" width="38.066" height="2.234" fill="#a7d4c6"/>
              </g>
            </g>
          </g>
        </g>
      </g>
      <g id="Grupo_70168" data-name="Grupo 70168" transform="translate(22.987 104.098)">
        <g id="Grupo_70151" data-name="Grupo 70151" transform="translate(6.679 64.899)">
          <path id="Trazado_116777" data-name="Trazado 116777" d="M157.474,578.375a8.115,8.115,0,0,1-2.5,4.968,3.718,3.718,0,0,0,2.431,3.076,2.894,2.894,0,0,0,3.72-.633l.792-4.184S160.007,578.6,157.474,578.375Z" transform="translate(-154.979 -578.375)" fill="#e0935f"/>
        </g>
        <g id="Grupo_70152" data-name="Grupo 70152" transform="translate(5.399 53.529)">
          <path id="Trazado_116778" data-name="Trazado 116778" d="M160.814,552.774a1.762,1.762,0,0,0-1.967-1.331,1.654,1.654,0,0,0-1.628,1.637,1.873,1.873,0,0,0-2.459-.526,2,2,0,0,0-.736,2.561,1.606,1.606,0,0,0-1.859,1.182,2.74,2.74,0,0,0,.933,2.957,1.475,1.475,0,0,0-1.06,1.976c.569,1.731,3.4,1.72,3.4,1.72l-.809-3.625h-.01c.666-.631,2.619-2.522,2.288-2.7-.244-.13-1.036-.432-1.613-.647l2.625-1.259s-.018-.069-.054-.176a16.451,16.451,0,0,0,2.762.627l1.51,1.047a15.138,15.138,0,0,0-.339,2.133c.068.183.868-1.477.868-1.477a2.362,2.362,0,0,0,.534-3.795A2.038,2.038,0,0,0,160.814,552.774Z" transform="translate(-151.946 -551.441)" fill="#030303"/>
          <path id="Trazado_116779" data-name="Trazado 116779" d="M158.159,557.693c-.051.051-.916,3.053-.916,3.053v3.372s3.867,2.581,4.461,2.6,2.24-4.2,2.24-4.2l1.627-4.486-3.545-1.425S158.21,557.642,158.159,557.693Z" transform="translate(-155.007 -554.426)" fill="#030303"/>
          <path id="Trazado_116780" data-name="Trazado 116780" d="M163.716,563.194c-1.356.081-3.1.377-4.1-.251a48.263,48.263,0,0,1-.41,5.8l-.729-.3s-.3-1.757-.338-1.794c-.313-.33-1.4-1.328-2.3-.4-.971,1-.372,2.694,1.238,3.275,2.606,4.127,6.869,3.842,7.469,2.815,1.567-2.684.651-6.9.1-8.824A1.517,1.517,0,0,0,163.716,563.194Z" transform="translate(-153.924 -558.088)" fill="#f2b78b"/>
          <path id="Trazado_116781" data-name="Trazado 116781" d="M161.805,559.858s-3.316.946-3.324.974,2.205,4.047,2.205,4.047l.319,2.08c.214-2.207.171-3.347,1.2-4.16a6.515,6.515,0,0,1,4.236-1.06C166.645,560.593,161.805,559.858,161.805,559.858Z" transform="translate(-155.722 -556.305)" fill="#030303"/>
        </g>
        <path id="Trazado_116782" data-name="Trazado 116782" d="M240.692,605.693c.937-.393,2.268-2.006,1.556-2.413-.445-.255-1.738,1.053-3.065,1.545a5.017,5.017,0,0,0-1.877,1.741l-7.524.876.54,3.273,7.414-1.418a10.16,10.16,0,0,0,4.3.475c2.393-.395,4.429-1.515,4.095-3.539C245.81,604.282,242.273,605.936,240.692,605.693Z" transform="translate(-191.525 -527.848)" fill="#f2b78b"/>
        <g id="Grupo_70155" data-name="Grupo 70155" transform="translate(8.671 75.222)">
          <g id="Grupo_70154" data-name="Grupo 70154">
            <g id="Grupo_70153" data-name="Grupo 70153">
              <path id="Trazado_116783" data-name="Trazado 116783" d="M176.965,605.992c-7.025-2.826-16.251-4.849-17.184-1.173-1.112,4.382,8.969,6.872,15.548,7.728,9.063,1.179,20.923-2.669,20.923-2.669l-.279-4.143S182.415,608.184,176.965,605.992Z" transform="translate(-159.696 -602.828)" fill="#0ac4bf"/>
            </g>
          </g>
        </g>
        <path id="Trazado_116784" data-name="Trazado 116784" d="M158.4,602.084c-.933-4.276-5.247-9.5-5.247-9.5s-2.691.452-6.152-2.443c-3.98,3.483-6.869,7.313-5.473,19.766.814,7.26,3.031,16.419,3.031,20.218h14.926s-.279-5.64-1-11.85C157.4,608.868,159.484,607.059,158.4,602.084Z" transform="translate(-140.321 -520.276)" fill="#0ac4bf"/>
        <g id="Grupo_70156" data-name="Grupo 70156" transform="translate(2.124 84.187)">
          <path id="Trazado_116785" data-name="Trazado 116785" d="M152.512,631.753a55.337,55.337,0,0,0,.179-7.288.416.416,0,0,0-.158-.309.422.422,0,0,0-.265-.092.418.418,0,0,0-.419.438,54.423,54.423,0,0,1-.177,7.175c-.455,5.079,3.958,14.625,5.366,17.517a.421.421,0,0,1-.231.577l-2.386.9a.419.419,0,0,1-.5-.161c-1.472-2.24-6.9-10.893-8.16-18.537a54.588,54.588,0,0,1-.726-7.5.418.418,0,0,0-.419-.411h0a.424.424,0,0,0-.292.116.416.416,0,0,0-.132.313,54.781,54.781,0,0,0,.738,7.619c1.488,9.007,8.6,19.329,8.668,19.432l.188.271,4.635-1.747-.214-.42C158.141,649.525,152,637.418,152.512,631.753Z" transform="translate(-144.188 -624.064)" fill="#4da78b"/>
        </g>
        <path id="Trazado_116786" data-name="Trazado 116786" d="M189.617,824.767s.413,1.515.413,1.549,2.8-1.124,2.8-1.124l.116-1.777-3.48-.384Z" transform="translate(-168.228 -654.85)" fill="#f2b78b"/>
        <g id="Grupo_70159" data-name="Grupo 70159" transform="translate(6.13 109.85)">
          <g id="Grupo_70158" data-name="Grupo 70158">
            <g id="Grupo_70157" data-name="Grupo 70157">
              <path id="Trazado_116787" data-name="Trazado 116787" d="M166.712,684.857s-8.687.005-13.033,0c.9,12.029,7.147,22.154,11.324,33.21,1.4,8.148,2.168,16.784,2.866,25.018l5.261.581c.833-10,1.19-21.169-.385-30.94S169.079,694.277,166.712,684.857Z" transform="translate(-153.679 -684.857)" fill="#003a61"/>
            </g>
          </g>
        </g>
        <path id="Trazado_116788" data-name="Trazado 116788" d="M194.353,829.861a14.739,14.739,0,0,1-2.622-2.292,2.723,2.723,0,0,1-3.213-.425,5.777,5.777,0,0,0-.894,4.051l2.934.488.1-.618a22.4,22.4,0,0,0,4.7,1.416c2.4.4,2.945-.2,2.74-.618S196.279,831.122,194.353,829.861Z" transform="translate(-167.129 -657.227)" fill="#030303"/>
        <g id="Grupo_70160" data-name="Grupo 70160" transform="translate(3.527 109.85)">
          <path id="Trazado_116789" data-name="Trazado 116789" d="M150.846,718.468c-.374,4.93.659,25.89.659,25.89h5.311s2.488-23.96,2.934-29.75,1.373-26.425,1.373-29.751h-12.9C145.835,694.808,150.177,706.115,150.846,718.468Z" transform="translate(-147.512 -684.857)" fill="#00527c"/>
        </g>
        <g id="Grupo_70162" data-name="Grupo 70162">
          <rect id="Rectángulo_7267" data-name="Rectángulo 7267" width="7.492" height="32.439" transform="translate(54.497 64.867) rotate(41.239)" fill="#007796"/>
          <circle id="Elipse_5253" data-name="Elipse 5253" cx="35.186" cy="35.186" r="35.186" transform="translate(46.997 3.782)" fill="#ddd" style="mix-blend-mode: multiply;isolation: isolate"/>
          <g id="Grupo_70161" data-name="Grupo 70161" transform="translate(43.215)">
            <path id="Trazado_116790" data-name="Trazado 116790" d="M254.794,492.924a38.985,38.985,0,1,1,55.015-3.617A39.029,39.029,0,0,1,254.794,492.924Zm48.894-55.774a35.186,35.186,0,1,0,3.264,49.653A35.226,35.226,0,0,0,303.687,437.15Z" transform="translate(-241.525 -424.641)" fill="#42aeba"/>
          </g>
          <path id="Trazado_116791" data-name="Trazado 116791" d="M175.421,637.52l-2.817-2.47a.381.381,0,0,0-.53.026l-32.741,34.807a.4.4,0,0,0-.038.056,1.37,1.37,0,0,0-.1.954c.152.829.86,2.207,3.222,4.279a10.8,10.8,0,0,0,4.054,2.536,1.837,1.837,0,0,0,1.487-.089.561.561,0,0,0,.106-.084l30.221-37.016a.383.383,0,0,0-.044-.529Z" transform="translate(-139.157 -546.171)" fill="#42aeba"/>
        </g>
        <g id="Grupo_70163" data-name="Grupo 70163" transform="translate(9.484 104.274)">
          <path id="Trazado_116792" data-name="Trazado 116792" d="M170.121,679.647a5.017,5.017,0,0,0-2.266-1.193l-3.324-6.806-2.908,1.6,3.8,6.522a10.161,10.161,0,0,0,.98,4.215c1.166,2.126,2.9,3.674,4.7,2.687,1.733-.951-1-3.738-1.3-5.31.681.753,2.645,1.473,2.793.667C172.689,681.52,171.026,680.735,170.121,679.647Z" transform="translate(-161.623 -671.648)" fill="#f2b78b"/>
        </g>
        <g id="Grupo_70166" data-name="Grupo 70166" transform="translate(2.532 75.046)">
          <g id="Grupo_70165" data-name="Grupo 70165">
            <g id="Grupo_70164" data-name="Grupo 70164">
              <path id="Trazado_116793" data-name="Trazado 116793" d="M152.65,619.2c.676-7.542-.052-16.959-3.841-16.79-4.516.2-3.989,10.572-2.908,17.117,1.49,9.017,8.6,19.26,8.6,19.26l3.886-1.464S152.126,625.054,152.65,619.2Z" transform="translate(-145.155 -602.411)" fill="#0ac4bf"/>
            </g>
          </g>
        </g>
        <g id="Grupo_70167" data-name="Grupo 70167" transform="translate(8.066 169.351)">
          <path id="Trazado_116794" data-name="Trazado 116794" d="M159.194,827.7l1.874,2.129,1.366-2.237.029-1.785h-3.446Z" transform="translate(-158.699 -825.804)" fill="#f2b78b"/>
          <path id="Trazado_116795" data-name="Trazado 116795" d="M164.961,831.862a14.724,14.724,0,0,1-2.963-1.83,2.722,2.722,0,0,1-3.239.109,5.774,5.774,0,0,0-.217,4.143h2.974v-.626a22.38,22.38,0,0,0,4.865.626c2.432,0,2.873-.678,2.6-1.06S167.068,832.79,164.961,831.862Z" transform="translate(-158.264 -828.247)" fill="#030303"/>
        </g>
      </g>
      <g id="Grupo_70180" data-name="Grupo 70180" transform="translate(170.467 143.612)">
        <g id="Grupo_70176" data-name="Grupo 70176" transform="translate(0 3.596)">
          <path id="Trazado_116796" data-name="Trazado 116796" d="M521.411,526.775c1.957-.278,1.439,3.592,2.145,5.027.094-1.011,1.234-2.765,1.836-2.208.378.348-.484,1.974-.555,3.387a5.015,5.015,0,0,1-1.1,2.313l1.42,7.441-3.284.466-.87-7.5a10.161,10.161,0,0,1-1.742-3.961C518.921,529.341,519.379,527.064,521.411,526.775Z" transform="translate(-501.222 -526.761)" fill="#f2b78b"/>
          <g id="Grupo_70169" data-name="Grupo 70169" transform="translate(19.355 8.952)">
            <path id="Trazado_116797" data-name="Trazado 116797" d="M532.578,565.983c5,5.691,9.964,13.724,6.805,15.822-3.765,2.5-9.458-6.182-12.447-12.105-4.118-8.159-4.421-20.623-4.421-20.623l4-1.111S528.7,561.568,532.578,565.983Z" transform="translate(-522.515 -547.966)" fill="#8f2b58"/>
          </g>
          <path id="Trazado_116798" data-name="Trazado 116798" d="M553.2,556.869c3.631,1.357,2.568,10.832-1.958,12.046-5.284,1.417-3.709-3.776-7.568-8.58C540.091,555.88,552.436,552.866,553.2,556.869Z" transform="translate(-515.009 -543.078)" fill="#030303"/>
          <path id="Trazado_116799" data-name="Trazado 116799" d="M554.144,584.139a8.119,8.119,0,0,0,2.5,4.968,3.718,3.718,0,0,1-2.431,3.076,2.893,2.893,0,0,1-3.72-.633l-.792-4.184S551.611,584.365,554.144,584.139Z" transform="translate(-518.868 -559.917)" fill="#e0935f"/>
          <path id="Trazado_116800" data-name="Trazado 116800" d="M547.752,568.091c.73,3.12,1.388,3.8,1.388,3.8s1.323-1.6,2.391-.493c.971,1,.372,2.694-1.238,3.275-2.606,4.127-6.869,3.842-7.469,2.815-2.087-3.573.228-9.852.228-9.852A7.9,7.9,0,0,0,547.752,568.091Z" transform="translate(-514.393 -550.384)" fill="#f2b78b"/>
          <g id="Grupo_70171" data-name="Grupo 70171" transform="translate(0 125.16)">
            <g id="Grupo_70170" data-name="Grupo 70170">
              <path id="Trazado_116801" data-name="Trazado 116801" d="M498.621,824.141l-.636,1.9-2.339,1.7-.775-2.657.41-1.844Z" transform="translate(-487.187 -823.244)" fill="#f2b78b"/>
              <path id="Trazado_116802" data-name="Trazado 116802" d="M481.031,828.723a14.154,14.154,0,0,0,3.321-1.111,2.652,2.652,0,0,0,3.114.955,6.453,6.453,0,0,1-.806,4.318l-2.884-.775.154-.644a21.139,21.139,0,0,1-4.87-.623c-2.358-.634-2.619-1.445-2.261-1.768S478.761,829.128,481.031,828.723Z" transform="translate(-476.668 -825.767)" fill="#030303"/>
            </g>
          </g>
          <g id="Grupo_70172" data-name="Grupo 70172" transform="translate(7.272 69.174)">
            <path id="Trazado_116803" data-name="Trazado 116803" d="M511.91,690.621h13.3c-1.135,13.559-11.451,21.185-17.955,31.916a149.343,149.343,0,0,0-8.193,25.27c-1.721-.485-3.472-.856-5.173-1.413.927-10.551,2.35-20.117,6.453-29.551S511.91,690.621,511.91,690.621Z" transform="translate(-493.893 -690.621)" fill="#00001c"/>
          </g>
          <path id="Trazado_116804" data-name="Trazado 116804" d="M537.657,607.848c.933-4.276,5.247-9.5,5.247-9.5s2.691.452,6.151-2.443c3.981,3.483,6.87,7.313,5.473,19.766-.814,7.26-3.03,16.419-3.03,20.218H536.572s.675-5.121,1-11.85C538.017,614.581,536.572,612.823,537.657,607.848Z" transform="translate(-511.283 -566.717)" fill="#bf3976"/>
          <g id="Grupo_70174" data-name="Grupo 70174" transform="translate(52.983 121.943)">
            <g id="Grupo_70173" data-name="Grupo 70173">
              <path id="Trazado_116805" data-name="Trazado 116805" d="M613.042,817.292l-.368,2.812-2.381-1.1-1.02-1.465,2.86-1.922Z" transform="translate(-606.276 -815.621)" fill="#f2b78b"/>
              <path id="Trazado_116806" data-name="Trazado 116806" d="M606.191,821.295a2.722,2.722,0,0,0,2.749-1.717,5.773,5.773,0,0,1,2.491,3.317l-2.469,1.659-.349-.52a22.378,22.378,0,0,1-3.689,3.234c-2.019,1.357-2.763,1.04-2.75.572s1.348-1.428,2.579-3.373A14.747,14.747,0,0,0,606.191,821.295Z" transform="translate(-602.174 -817.908)" fill="#030303"/>
            </g>
          </g>
          <g id="Grupo_70175" data-name="Grupo 70175" transform="translate(27.192 69.174)">
            <path id="Trazado_116807" data-name="Trazado 116807" d="M560.153,721.14c4.6,7.16,9.1,14.375,13.271,21.793-1.469,1.016-2.95,1.938-4.4,3.025-6.158-8.375-13.281-15.287-18.557-24.469s-7.037-20.549-9.383-30.868H554.1C557.9,700.471,556,711.359,560.153,721.14Z" transform="translate(-541.081 -690.621)" fill="#14142e"/>
          </g>
        </g>
        <path id="Trazado_116808" data-name="Trazado 116808" d="M573.766,523.617c.388-1.552-.934-5.226,1.037-5.366,2.047-.146,2.975,1.984,3.148,4.4a10.159,10.159,0,0,1-.868,4.239l.73,7.513-3.308.236-.18-7.573a5.014,5.014,0,0,1-1.561-2.029c-.368-1.366-1.552-2.774-1.257-3.194C571.978,521.174,573.461,522.648,573.766,523.617Z" transform="translate(-531.443 -518.243)" fill="#f2b78b"/>
        <g id="Grupo_70177" data-name="Grupo 70177" transform="translate(35.89 32.786)">
          <path id="Trazado_116809" data-name="Trazado 116809" d="M563.038,596.324c.175-.132.35-.268.529-.417q.209.183.414.368c-.577,1.308-1.078,2.586-1.473,3.782a.418.418,0,0,1-.526.269.428.428,0,0,1-.19-.123.417.417,0,0,1-.086-.409C562.069,598.692,562.522,597.522,563.038,596.324Z" transform="translate(-561.684 -595.907)" fill="#0c3265"/>
          <path id="Trazado_116810" data-name="Trazado 116810" d="M575.4,612.6q.179.571.325,1.2a18.578,18.578,0,0,1-1.334,2.133.413.413,0,0,1-.334.167.424.424,0,0,1-.265-.092h0a.415.415,0,0,1-.134-.184.428.428,0,0,1,.059-.4A19.5,19.5,0,0,0,575.4,612.6Z" transform="translate(-568.587 -605.551)" fill="#0c3265"/>
        </g>
        <g id="Grupo_70179" data-name="Grupo 70179" transform="translate(35.255 9.426)">
          <g id="Grupo_70178" data-name="Grupo 70178">
            <path id="Trazado_116811" data-name="Trazado 116811" d="M567.215,540.571l4.146.249s2.31,12.252-.009,21.092c-1.684,6.417-5.434,16.1-9.639,14.441-3.528-1.391-.35-10.286,3.345-16.9C567.923,554.329,567.215,540.571,567.215,540.571Z" transform="translate(-560.179 -540.571)" fill="#bf3976"/>
          </g>
        </g>
      </g>
      <g id="Grupo_70183" data-name="Grupo 70183" transform="translate(157.84 137.355)">
        <g id="Grupo_70182" data-name="Grupo 70182" transform="translate(0 0)">
          <g id="Grupo_70181" data-name="Grupo 70181">
            <path id="Trazado_116812" data-name="Trazado 116812" d="M472.971,521.764s-8.926,3.342-14.723,5.656l.4,2.865c6.209.629,15.711,1.383,15.711,1.383l-.7-4.952h0Z" transform="translate(-453.397 -514.02)" fill="#f2b78b"/>
            <path id="Trazado_116813" data-name="Trazado 116813" d="M490.165,513.831l.7,5.018,1.96,2.216,55.133-7.74-1.39-9.9-55.133,7.74Z" transform="translate(-471.84 -503.421)" fill="#8f2b58"/>
            <rect id="Rectángulo_7268" data-name="Rectángulo 7268" width="55.699" height="5.067" transform="translate(18.325 10.41) rotate(-7.991)" fill="#bf3976"/>
            <path id="Trazado_116814" data-name="Trazado 116814" d="M446.757,537.3a30.994,30.994,0,0,0,5.253.723s.4-.333.233-1.493-.635-1.372-.635-1.372A31.038,31.038,0,0,0,446.757,537.3Z" transform="translate(-446.757 -521.762)" fill="#bf3976"/>
          </g>
        </g>
        <path id="Trazado_116815" data-name="Trazado 116815" d="M620.825,506.087l.7,5.018,1.935,2.22,1.249-2.667-.7-5.018-1.935-2.22Z" transform="translate(-547.342 -503.421)" fill="#f2b78b"/>
        <path id="Trazado_116816" data-name="Trazado 116816" d="M624.63,511.758c.214-.03.479.586.59,1.377s.027,1.457-.188,1.487-.479-.586-.59-1.377S624.415,511.788,624.63,511.758Z" transform="translate(-549.404 -508.238)" fill="#fc5252"/>
      </g>
      <g id="Grupo_70215" data-name="Grupo 70215" transform="translate(127.153)">
        <path id="Trazado_116817" data-name="Trazado 116817" d="M416.218,278.659a19.039,19.039,0,0,0-4.066-1.247l-6.085-4.511-1.846,2.755,6.375,4.04a15.6,15.6,0,0,0,1.8,1.754c1.77,1.429,2.8.736,3.877-.419.691.463.654,3.484,1.08,3.77C418.488,285.561,418.32,280.067,416.218,278.659Z" transform="translate(-391.49 -232.861)" fill="#e0935f"/>
        <g id="Grupo_70185" data-name="Grupo 70185" transform="translate(1.955 19.421)">
          <g id="Grupo_70184" data-name="Grupo 70184">
            <path id="Trazado_116818" data-name="Trazado 116818" d="M385.948,238.105c-1.256-4.287,1.817-13.622-3.677-14.043-3.566-.273-4.677,12.574-2.362,16.365,3.19,5.222,9.034,7.725,14.262,10.664l2.643-3.279C393.711,245.685,386.923,241.431,385.948,238.105Z" transform="translate(-378.696 -224.058)" fill="#005d4d"/>
          </g>
        </g>
        <g id="Grupo_70194" data-name="Grupo 70194" transform="translate(0.978)">
          <path id="Trazado_116819" data-name="Trazado 116819" d="M395.076,178.186c-1.906.667-7.665,7.77-3.33,12.108,3.867,3.87,10.355-4.863,10.355-4.863a2.43,2.43,0,0,0,2-1.978C404.25,182,397.912,177.2,395.076,178.186Z" transform="translate(-384.348 -178.053)" fill="#030303"/>
          <g id="Grupo_70186" data-name="Grupo 70186" transform="translate(5.726 10.533)">
            <path id="Trazado_116820" data-name="Trazado 116820" d="M392.817,203a8.117,8.117,0,0,1-2.867,4.763,3.717,3.717,0,0,0,2.189,3.252,2.894,2.894,0,0,0,3.758-.347L397,206.561S395.325,203.423,392.817,203Z" transform="translate(-389.948 -203.004)" fill="#e0935f"/>
          </g>
          <g id="Grupo_70187" data-name="Grupo 70187" transform="translate(7.441 5.922)">
            <path id="Trazado_116821" data-name="Trazado 116821" d="M399.831,192.081c-1.91,2.573-2.786,2.939-2.786,2.939s-.58-1.99-2-1.4c-1.289.533-1.413,2.324-.166,3.5.75,4.824,4.775,6.257,5.733,5.553,3.335-2.448,3.709-9.13,3.709-9.13Z" transform="translate(-394.01 -192.081)" fill="#f2b78b"/>
          </g>
          <g id="Grupo_70189" data-name="Grupo 70189" transform="translate(0.241 15.296)">
            <g id="Grupo_70188" data-name="Grupo 70188">
              <path id="Trazado_116822" data-name="Trazado 116822" d="M395.105,227.232c-.6-4.335-6.718-10.04-6.718-10.04s-2.718.245-5.947-2.9c-4.235,3.169-6.252,6.93-4.891,19.386.685,6.267,3.07,14.757-.6,20.294l14.883,1.139c.041-.533-.272-17.214.424-18.979C393.727,232.407,395.581,230.654,395.105,227.232Z" transform="translate(-376.953 -214.287)" fill="#0ac4bf"/>
            </g>
          </g>
          <g id="Grupo_70190" data-name="Grupo 70190" transform="translate(0.712 24.553)">
            <path id="Trazado_116823" data-name="Trazado 116823" d="M392.394,257.06c-4.42-2.383-8.99-4.846-11.622-9.156-1.055-1.727-2.03-5.794-1.834-9.609a.414.414,0,0,0-.4-.443.423.423,0,0,0-.443.4c-.186,3.623.656,7.961,1.957,10.092,2.752,4.5,7.423,7.024,11.942,9.46.155.084.307.169.462.252q0-.482.01-.957Z" transform="translate(-378.069 -237.16)" fill="#005d4d"/>
            <path id="Trazado_116824" data-name="Trazado 116824" d="M397.288,244.736a19.48,19.48,0,0,1-.27-5.432c.029-.885.059-1.8.05-2.672a.415.415,0,0,0-.426-.418.422.422,0,0,0-.418.426c.008.854-.021,1.76-.05,2.637a19.918,19.918,0,0,0,.3,5.7c.651,2.222,3.593,4.716,6.531,6.842.017-.362.036-.7.057-1.008C400.426,248.859,397.836,246.607,397.288,244.736Z" transform="translate(-388.502 -236.213)" fill="#005d4d"/>
          </g>
          <path id="Trazado_116825" data-name="Trazado 116825" d="M418.265,278.01a19.049,19.049,0,0,0-4.067-1.247l-6.085-4.511-1.846,2.755,6.376,4.04a15.655,15.655,0,0,0,1.8,1.754c1.77,1.429,2.8.736,3.877-.419.691.463.654,3.484,1.081,3.77C420.535,284.912,420.367,279.418,418.265,278.01Z" transform="translate(-393.651 -232.486)" fill="#f2b78b"/>
          <g id="Grupo_70192" data-name="Grupo 70192" transform="translate(1.134 19.151)">
            <g id="Grupo_70191" data-name="Grupo 70191">
              <path id="Trazado_116826" data-name="Trazado 116826" d="M387.028,237.462c-1.256-4.287,1.833-14-3.677-14.043-5.916-.043-4.677,12.574-2.362,16.365,3.19,5.222,9.035,7.725,14.262,10.664l2.643-3.279C394.791,245.042,388,240.787,387.028,237.462Z" transform="translate(-379.07 -223.419)" fill="#0ac4bf"/>
            </g>
          </g>
          <g id="Grupo_70193" data-name="Grupo 70193" transform="translate(0 0.001)">
            <path id="Trazado_116827" data-name="Trazado 116827" d="M380.744,190.18c-3.178,4.451-2.5,6.227-3.316,9.158-.781,2.813-1.522,5.6-.656,5.666.581.044,6.445-6.039,7.47-11.132.5-2.467,2.833-1.915,2.614-5.7-.2-3.378,7.28-2.744,7.28-2.744l-6.161-7.377C380.971,178.063,383.282,186.626,380.744,190.18Z" transform="translate(-376.383 -178.055)" fill="#030303"/>
          </g>
        </g>
        <g id="Grupo_70207" data-name="Grupo 70207" transform="translate(9.13 35.633)">
          <g id="Grupo_70197" data-name="Grupo 70197" transform="translate(48.478 21.506)">
            <g id="Grupo_70196" data-name="Grupo 70196">
              <g id="Grupo_70195" data-name="Grupo 70195" transform="translate(0 2.248)">
                <path id="Trazado_116828" data-name="Trazado 116828" d="M514.31,321.042a7.676,7.676,0,0,1-2.823.117l-.958,3.166,2.492.271,2.579-1.182,1.8-2.814-.584-1.87A10.9,10.9,0,0,1,514.31,321.042Z" transform="translate(-510.528 -318.731)" fill="#f2b78b"/>
              </g>
              <path id="Trazado_116829" data-name="Trazado 116829" d="M520.221,315.654a7.4,7.4,0,0,1-3.791,5.865,4.654,4.654,0,0,0,2.114,1.153,5.227,5.227,0,0,0,1.791.248l.29-.964-1.247-.375c.739-1.25,2.174-2.7,2.744-4.6C523.435,312.611,521.971,312.342,520.221,315.654Z" transform="translate(-513.938 -313.406)" fill="#030303"/>
            </g>
          </g>
          <g id="Grupo_70202" data-name="Grupo 70202" transform="translate(0 20.919)">
            <g id="Grupo_70201" data-name="Grupo 70201">
              <g id="Grupo_70200" data-name="Grupo 70200">
                <g id="Grupo_70199" data-name="Grupo 70199">
                  <g id="Grupo_70198" data-name="Grupo 70198">
                    <path id="Trazado_116830" data-name="Trazado 116830" d="M399.312,321.556a56.463,56.463,0,0,0,15.27-1.307l29.85,1.185,1.512-4.649c-9.581-3.116-29.82-5.642-32.837-4.482C408.359,314.127,387.38,320.643,399.312,321.556Z" transform="translate(-395.692 -312.015)" fill="#001738"/>
                  </g>
                </g>
              </g>
            </g>
          </g>
          <g id="Grupo_70206" data-name="Grupo 70206" transform="translate(8.145)">
            <g id="Grupo_70205" data-name="Grupo 70205">
              <g id="Grupo_70204" data-name="Grupo 70204">
                <g id="Grupo_70203" data-name="Grupo 70203">
                  <path id="Trazado_116831" data-name="Trazado 116831" d="M432.687,277.746l-17.7,1.974a.634.634,0,0,0,.679.584l17.8-1.347,8.616-15.635a.633.633,0,0,0-.249-.86Z" transform="translate(-414.985 -262.462)" fill="#297c53"/>
                </g>
              </g>
            </g>
          </g>
        </g>
        <g id="Grupo_70210" data-name="Grupo 70210" transform="translate(36.801 85.031)">
          <g id="Grupo_70209" data-name="Grupo 70209">
            <g id="Grupo_70208" data-name="Grupo 70208">
              <path id="Trazado_116832" data-name="Trazado 116832" d="M465.008,381.768c-.862-.452-.732-2.293-.732-2.293l-3.036,1.311.221,2.29,2.566,1.207,3.31-.444,1.051-1.653A10.907,10.907,0,0,1,465.008,381.768Z" transform="translate(-461.24 -379.475)" fill="#f2b78b"/>
            </g>
            <path id="Trazado_116833" data-name="Trazado 116833" d="M468.669,385.565a7.4,7.4,0,0,1-6.927.89,4.649,4.649,0,0,0,.484,2.359,5.224,5.224,0,0,0,.966,1.527l.923-.4-.519-1.195c1.432-.243,3.469-.086,5.285-.874C473.068,386.056,472.329,384.764,468.669,385.565Z" transform="translate(-461.522 -382.854)" fill="#030303"/>
          </g>
        </g>
        <g id="Grupo_70214" data-name="Grupo 70214" transform="translate(0 52.306)">
          <g id="Grupo_70213" data-name="Grupo 70213">
            <g id="Grupo_70212" data-name="Grupo 70212">
              <g id="Grupo_70211" data-name="Grupo 70211">
                <path id="Trazado_116834" data-name="Trazado 116834" d="M407.489,301.961c-3.59-.125-32.2,2.666-32.2,2.666-3.057,4.127-.439,12.5,8.7,12.731,7.674.2,19.438-6.365,19.438-6.365s4.187,16.428,6.6,25.559l4.617-1.8C414.353,328.971,416.267,302.269,407.489,301.961Z" transform="translate(-374.065 -301.957)" fill="#002853"/>
              </g>
            </g>
          </g>
        </g>
      </g>
      <g id="Grupo_70243" data-name="Grupo 70243" transform="translate(251.887 159.475)">
        <g id="Grupo_70238" data-name="Grupo 70238">
          <path id="Trazado_116835" data-name="Trazado 116835" d="M711.36,559.4c0-2.931,3.751-4.335,6.758-3.182,6.006,2.3,2.51,14.858,4.681,16.351s2.1,6.649,0,7.6-12.348-.611-12.348-1.154,1.357-3.6,1.832-6.784S711.36,559.4,711.36,559.4Z" transform="translate(-693.179 -555.819)" fill="#030303"/>
          <g id="Grupo_70237" data-name="Grupo 70237" transform="translate(0 2.966)">
            <g id="Grupo_70216" data-name="Grupo 70216" transform="translate(17.408)">
              <path id="Trazado_116836" data-name="Trazado 116836" d="M722.964,578.375a8.115,8.115,0,0,0,2.5,4.968,3.718,3.718,0,0,1-2.431,3.076,2.894,2.894,0,0,1-3.72-.633l-.792-4.184S720.431,578.6,722.964,578.375Z" transform="translate(-715.247 -571.819)" fill="#e0935f"/>
              <path id="Trazado_116837" data-name="Trazado 116837" d="M716.572,562.886a48.26,48.26,0,0,0,.41,5.8l.729-.3s.3-1.757.337-1.794c.314-.33,1.4-1.328,2.3-.4.971,1,.372,2.694-1.238,3.275-2.606,4.127-6.869,3.842-7.469,2.815-1.568-2.684-.651-6.9-.1-8.824C713,562.014,715.32,563.672,716.572,562.886Z" transform="translate(-710.773 -562.844)" fill="#f2b78b"/>
            </g>
            <g id="Grupo_70227" data-name="Grupo 70227" transform="translate(0 11.524)">
              <g id="Grupo_70218" data-name="Grupo 70218" transform="translate(2.68 6.637)">
                <g id="Grupo_70217" data-name="Grupo 70217">
                  <path id="Trazado_116838" data-name="Trazado 116838" d="M687.85,617.659c2.085-4.071,3.783-13.383,8.775-11.561,5.951,2.172.338,11.038-2.606,14.3-4.056,4.49-10.153,7.371-15.72,9.851a19.012,19.012,0,0,1-2.416-3.459C679.57,625.136,686.233,620.817,687.85,617.659Z" transform="translate(-675.884 -605.864)" fill="#007796"/>
                </g>
              </g>
              <g id="Grupo_70219" data-name="Grupo 70219" transform="translate(13.827)">
                <path id="Trazado_116839" data-name="Trazado 116839" d="M702.468,602.084c.933-4.276,7.464-9.5,7.464-9.5s2.691.452,6.151-2.443c3.981,3.483,5.705,7.387,3.4,19.7-1.161,6.2-4.188,14.479-.954,20.28H703.6c0-.534,1.585-17.143,1.026-18.956C703.446,607.348,701.732,605.459,702.468,602.084Z" transform="translate(-702.29 -590.143)" fill="#0ac4bf"/>
              </g>
              <g id="Grupo_70220" data-name="Grupo 70220" transform="translate(15.837 8.738)">
                <path id="Trazado_116840" data-name="Trazado 116840" d="M711.223,619.655a26.262,26.262,0,0,0,1.363-4.154A34.573,34.573,0,0,1,714,611.1a.422.422,0,0,1,.776.333,33.97,33.97,0,0,0-1.372,4.294,26.822,26.822,0,0,1-1.416,4.3,15.083,15.083,0,0,1-4.489,4.642c0-.3-.431-.572-.444-.8,0-.082.412-.159.406-.23A13.284,13.284,0,0,0,711.223,619.655Z" transform="translate(-707.051 -610.841)" fill="#007796"/>
                <path id="Trazado_116841" data-name="Trazado 116841" d="M717.886,627.722a18.217,18.217,0,0,0,3.01-6.359.422.422,0,1,1,.816.214,19.122,19.122,0,0,1-3.172,6.678c-2.913,3.571-7.062,6.1-10.987,7.983q.032-.491.06-.969A30.367,30.367,0,0,0,717.886,627.722Z" transform="translate(-707.341 -616.739)" fill="#007796"/>
              </g>
              <g id="Grupo_70222" data-name="Grupo 70222" transform="translate(8.607 5.882)">
                <g id="Grupo_70221" data-name="Grupo 70221">
                  <path id="Trazado_116842" data-name="Trazado 116842" d="M701.707,615.929c1.942-4.037,2.229-12.956,7.394-11.74,4.79,1.128,1.739,10.544-1.074,13.993-3.875,4.75-9.918,7.651-15.633,9.961-.836-1.169-1.726-2.256-2.468-3.505C693.611,623.241,700.2,619.061,701.707,615.929Z" transform="translate(-689.926 -604.076)" fill="#0ac4bf"/>
                </g>
              </g>
              <g id="Grupo_70224" data-name="Grupo 70224" transform="translate(0 21.378)">
                <g id="Grupo_70223" data-name="Grupo 70223">
                  <path id="Trazado_116843" data-name="Trazado 116843" d="M675,655.105l7.717.373a.162.162,0,0,0,.159-.219l-5.312-14a.157.157,0,0,0-.052-.07.161.161,0,0,0-.091-.034l-7.717-.373a.161.161,0,0,0-.159.219l5.312,14a.161.161,0,0,0,.143.1Z" transform="translate(-669.537 -640.782)" fill="#18898d"/>
                </g>
              </g>
              <g id="Grupo_70226" data-name="Grupo 70226" transform="translate(1.642 28.091)">
                <g id="Grupo_70225" data-name="Grupo 70225">
                  <path id="Trazado_116844" data-name="Trazado 116844" d="M676.894,657.928a2.738,2.738,0,0,1-1.851,2.64c-.827.188-2.243-3.135-1.309-3.636S676.783,656.664,676.894,657.928Z" transform="translate(-673.427 -656.685)" fill="#f2b78b"/>
                </g>
              </g>
            </g>
            <g id="Grupo_70229" data-name="Grupo 70229" transform="translate(8.007 51.508)">
              <g id="Grupo_70228" data-name="Grupo 70228">
                <path id="Trazado_116845" data-name="Trazado 116845" d="M695.633,684.857s8.687.006,13.033,0c-.9,12.118-7.148,22.319-11.324,33.457-1.4,8.208-2.168,17.748-2.866,26.044h-5.261c-.833-10.074-1.19-21.581.385-31.424S693.266,694.347,695.633,684.857Z" transform="translate(-688.505 -684.857)" fill="#001738"/>
              </g>
            </g>
            <g id="Grupo_70230" data-name="Grupo 70230" transform="translate(17.161 51.508)">
              <path id="Trazado_116846" data-name="Trazado 116846" d="M720.464,718.468c.374,4.93-.659,25.89-.659,25.89H714.5s-2.488-23.96-2.934-29.75-1.373-26.425-1.373-29.751h12.9C729.593,695.848,721.134,706.115,720.464,718.468Z" transform="translate(-710.188 -684.857)" fill="#002853"/>
            </g>
            <g id="Grupo_70233" data-name="Grupo 70233" transform="translate(16.298 111.009)">
              <g id="Grupo_70232" data-name="Grupo 70232">
                <g id="Grupo_70231" data-name="Grupo 70231" transform="translate(2.731)">
                  <path id="Trazado_116847" data-name="Trazado 116847" d="M717.548,827.909a3.494,3.494,0,0,0,.506-2.1H721.5l-.177,1.893-1.873,2.128-3.213.91-1.622-1.1A10.9,10.9,0,0,0,717.548,827.909Z" transform="translate(-714.614 -825.804)" fill="#f2b78b"/>
                </g>
                <path id="Trazado_116848" data-name="Trazado 116848" d="M710.875,832.23a7.4,7.4,0,0,0,6.708-1.941,4.65,4.65,0,0,1,.5,2.356,5.233,5.233,0,0,1-.278,1.786h-1.006v-1.3c-1.41.347-3.216,1.3-5.2,1.3C707.036,834.432,707.2,832.952,710.875,832.23Z" transform="translate(-708.144 -828.396)" fill="#030303"/>
              </g>
            </g>
            <g id="Grupo_70236" data-name="Grupo 70236" transform="translate(3.374 111.009)">
              <g id="Grupo_70235" data-name="Grupo 70235">
                <g id="Grupo_70234" data-name="Grupo 70234" transform="translate(2.731)">
                  <path id="Trazado_116849" data-name="Trazado 116849" d="M686.932,827.909a3.494,3.494,0,0,0,.506-2.1h3.446l-.177,1.893-1.873,2.128-3.213.91-1.622-1.1A10.9,10.9,0,0,0,686.932,827.909Z" transform="translate(-683.998 -825.804)" fill="#f2b78b"/>
                </g>
                <path id="Trazado_116850" data-name="Trazado 116850" d="M680.259,832.23a7.4,7.4,0,0,0,6.708-1.941,4.649,4.649,0,0,1,.5,2.356,5.233,5.233,0,0,1-.278,1.786h-1.006v-1.3c-1.41.347-3.216,1.3-5.2,1.3C676.42,834.432,676.584,832.952,680.259,832.23Z" transform="translate(-677.528 -828.396)" fill="#030303"/>
              </g>
            </g>
          </g>
          <path id="Trazado_116851" data-name="Trazado 116851" d="M714.8,560.479a9.924,9.924,0,0,1,4.93,1.031c2.578,1.257,3.305,4.3,3.444,7.248s3.3,6.421,2.176,8.47c-1.752,3.451-6.57-2-7.339-6.413-.448-2.569-.422-6.591-1.736-8.284-.94-1.212-3.285-.549-3.674-.444A2.352,2.352,0,0,1,714.8,560.479Z" transform="translate(-694.423 -558.503)" fill="#030303"/>
        </g>
        <g id="Grupo_70242" data-name="Grupo 70242" transform="translate(2.613 113.974)">
          <g id="Grupo_70241" data-name="Grupo 70241">
            <g id="Grupo_70239" data-name="Grupo 70239" transform="translate(12.831)">
              <path id="Trazado_116852" data-name="Trazado 116852" d="M726.031,827.7l-1.874,2.129-1.366-2.237-.029-1.785h3.446Z" transform="translate(-715.736 -825.804)" fill="#f2b78b"/>
              <path id="Trazado_116853" data-name="Trazado 116853" d="M710.212,831.862a14.724,14.724,0,0,0,2.963-1.83,2.722,2.722,0,0,0,3.239.109,5.774,5.774,0,0,1,.217,4.143h-2.974v-.626a22.38,22.38,0,0,1-4.865.626c-2.432,0-2.873-.678-2.6-1.06S708.1,832.79,710.212,831.862Z" transform="translate(-706.119 -828.247)" fill="#030303"/>
            </g>
            <g id="Grupo_70240" data-name="Grupo 70240">
              <path id="Trazado_116854" data-name="Trazado 116854" d="M695.638,827.7l-1.874,2.129-1.366-2.237-.029-1.785h3.446Z" transform="translate(-685.343 -825.804)" fill="#f2b78b"/>
              <path id="Trazado_116855" data-name="Trazado 116855" d="M679.818,831.862a14.723,14.723,0,0,0,2.963-1.83,2.723,2.723,0,0,0,3.24.109,5.776,5.776,0,0,1,.217,4.143h-2.974v-.626a22.378,22.378,0,0,1-4.865.626c-2.433,0-2.874-.678-2.6-1.06S677.711,832.79,679.818,831.862Z" transform="translate(-675.725 -828.247)" fill="#030303"/>
            </g>
          </g>
        </g>
      </g>
    </g>
  </g>
</svg>
