<svg xmlns="http://www.w3.org/2000/svg" width="211.75" height="210.534" viewBox="0 0 211.75 210.534">
  <g id="Grupo_69647" data-name="Grupo 69647" transform="translate(-619.561 310.006)">
    <g id="Grupo_69595" data-name="Grupo 69595">
      <path id="Trazado_116331" data-name="Trazado 116331" d="M816.566-157.568a8.892,8.892,0,0,0-8.969,8.813,8.892,8.892,0,0,0,8.969,8.813,8.893,8.893,0,0,0,8.97-8.813A8.893,8.893,0,0,0,816.566-157.568Zm0,15.794a7.045,7.045,0,0,1-7.1-6.981,7.044,7.044,0,0,1,7.1-6.98,7.043,7.043,0,0,1,7.105,6.98A7.044,7.044,0,0,1,816.566-141.774Z" fill="#95424f"/>
      <path id="Trazado_116332" data-name="Trazado 116332" d="M816.566-155.735a7.044,7.044,0,0,0-7.1,6.98,7.045,7.045,0,0,0,7.1,6.981,7.044,7.044,0,0,0,7.105-6.981A7.043,7.043,0,0,0,816.566-155.735Zm-2.005,10.468a1.448,1.448,0,0,1-1.46-1.435,1.448,1.448,0,0,1,1.46-1.435,1.449,1.449,0,0,1,1.462,1.435A1.449,1.449,0,0,1,814.561-145.267Zm0-4.1a1.448,1.448,0,0,1-1.46-1.435,1.449,1.449,0,0,1,1.46-1.436,1.45,1.45,0,0,1,1.462,1.436A1.449,1.449,0,0,1,814.561-149.372Zm4.009,4.1a1.448,1.448,0,0,1-1.461-1.435,1.448,1.448,0,0,1,1.461-1.435,1.448,1.448,0,0,1,1.462,1.435A1.448,1.448,0,0,1,818.57-145.267Zm0-4.1a1.448,1.448,0,0,1-1.461-1.435,1.449,1.449,0,0,1,1.461-1.436,1.449,1.449,0,0,1,1.462,1.436A1.449,1.449,0,0,1,818.57-149.372Z" fill="#70333b"/>
    </g>
    <g id="Grupo_69596" data-name="Grupo 69596">
      <path id="Trazado_116333" data-name="Trazado 116333" d="M816.566-134.253a8.893,8.893,0,0,0-8.969,8.813,8.892,8.892,0,0,0,8.969,8.813,8.893,8.893,0,0,0,8.97-8.813A8.893,8.893,0,0,0,816.566-134.253Zm0,15.794a7.045,7.045,0,0,1-7.1-6.981,7.043,7.043,0,0,1,7.1-6.979,7.042,7.042,0,0,1,7.105,6.979A7.044,7.044,0,0,1,816.566-118.459Z" fill="#95424f"/>
      <path id="Trazado_116334" data-name="Trazado 116334" d="M816.566-132.419a7.043,7.043,0,0,0-7.1,6.979,7.045,7.045,0,0,0,7.1,6.981,7.044,7.044,0,0,0,7.105-6.981A7.042,7.042,0,0,0,816.566-132.419Zm-2.005,10.467a1.448,1.448,0,0,1-1.46-1.435,1.448,1.448,0,0,1,1.46-1.435,1.449,1.449,0,0,1,1.462,1.435A1.449,1.449,0,0,1,814.561-121.952Zm0-4.1a1.448,1.448,0,0,1-1.46-1.434,1.448,1.448,0,0,1,1.46-1.436,1.45,1.45,0,0,1,1.462,1.436A1.449,1.449,0,0,1,814.561-126.057Zm4.009,4.1a1.448,1.448,0,0,1-1.461-1.435,1.448,1.448,0,0,1,1.461-1.435,1.448,1.448,0,0,1,1.462,1.435A1.448,1.448,0,0,1,818.57-121.952Zm0-4.1a1.448,1.448,0,0,1-1.461-1.434,1.449,1.449,0,0,1,1.461-1.436,1.449,1.449,0,0,1,1.462,1.436A1.448,1.448,0,0,1,818.57-126.057Z" fill="#70333b"/>
    </g>
    <g id="Grupo_69597" data-name="Grupo 69597">
      <path id="Trazado_116335" data-name="Trazado 116335" d="M781.774-237.437a8.892,8.892,0,0,0-12.293,2.647,8.891,8.891,0,0,0,2.863,12.244,8.892,8.892,0,0,0,12.293-2.647A8.893,8.893,0,0,0,781.774-237.437Zm-8.45,13.343a7.044,7.044,0,0,1-2.268-9.7,7.044,7.044,0,0,1,9.737-2.1,7.043,7.043,0,0,1,2.268,9.7A7.044,7.044,0,0,1,773.324-224.094Z" fill="#95424f"/>
      <path id="Trazado_116336" data-name="Trazado 116336" d="M780.793-235.888a7.044,7.044,0,0,0-9.737,2.1,7.044,7.044,0,0,0,2.268,9.7,7.044,7.044,0,0,0,9.737-2.1A7.043,7.043,0,0,0,780.793-235.888Zm-7.294,7.771a1.447,1.447,0,0,1-.466-1.994,1.446,1.446,0,0,1,2-.431,1.448,1.448,0,0,1,.467,1.994A1.447,1.447,0,0,1,773.5-228.117Zm2.2-3.468a1.449,1.449,0,0,1-.466-1.994,1.448,1.448,0,0,1,2-.431,1.448,1.448,0,0,1,.466,1.994A1.449,1.449,0,0,1,775.7-231.585Zm1.191,5.613a1.449,1.449,0,0,1-.467-1.995,1.448,1.448,0,0,1,2-.43,1.446,1.446,0,0,1,.467,1.994A1.447,1.447,0,0,1,776.886-225.972Zm2.2-3.469a1.448,1.448,0,0,1-.467-1.993,1.45,1.45,0,0,1,2-.432,1.449,1.449,0,0,1,.466,1.995A1.448,1.448,0,0,1,779.082-229.441Z" fill="#70333b"/>
    </g>
    <g id="Grupo_69648" data-name="Grupo 69648" transform="translate(-27.948 62.214)">
      <path id="Trazado_116335-2" data-name="Trazado 116335" d="M781.774-237.437a8.892,8.892,0,0,0-12.293,2.647,8.891,8.891,0,0,0,2.863,12.244,8.892,8.892,0,0,0,12.293-2.647A8.893,8.893,0,0,0,781.774-237.437Zm-8.45,13.343a7.044,7.044,0,0,1-2.268-9.7,7.044,7.044,0,0,1,9.737-2.1,7.043,7.043,0,0,1,2.268,9.7A7.044,7.044,0,0,1,773.324-224.094Z" fill="#95424f"/>
      <path id="Trazado_116336-2" data-name="Trazado 116336" d="M780.793-235.888a7.044,7.044,0,0,0-9.737,2.1,7.044,7.044,0,0,0,2.268,9.7,7.044,7.044,0,0,0,9.737-2.1A7.043,7.043,0,0,0,780.793-235.888Zm-7.294,7.771a1.447,1.447,0,0,1-.466-1.994,1.446,1.446,0,0,1,2-.431,1.448,1.448,0,0,1,.467,1.994A1.447,1.447,0,0,1,773.5-228.117Zm2.2-3.468a1.449,1.449,0,0,1-.466-1.994,1.448,1.448,0,0,1,2-.431,1.448,1.448,0,0,1,.466,1.994A1.449,1.449,0,0,1,775.7-231.585Zm1.191,5.613a1.449,1.449,0,0,1-.467-1.995,1.448,1.448,0,0,1,2-.43,1.446,1.446,0,0,1,.467,1.994A1.447,1.447,0,0,1,776.886-225.972Zm2.2-3.469a1.448,1.448,0,0,1-.467-1.993,1.45,1.45,0,0,1,2-.432,1.449,1.449,0,0,1,.466,1.995A1.448,1.448,0,0,1,779.082-229.441Z" fill="#70333b"/>
    </g>
    <g id="Grupo_69649" data-name="Grupo 69649" transform="translate(-68.948 103.421)">
      <path id="Trazado_116335-3" data-name="Trazado 116335" d="M781.774-237.437a8.892,8.892,0,0,0-12.293,2.647,8.891,8.891,0,0,0,2.863,12.244,8.892,8.892,0,0,0,12.293-2.647A8.893,8.893,0,0,0,781.774-237.437Zm-8.45,13.343a7.044,7.044,0,0,1-2.268-9.7,7.044,7.044,0,0,1,9.737-2.1,7.043,7.043,0,0,1,2.268,9.7A7.044,7.044,0,0,1,773.324-224.094Z" fill="#95424f"/>
      <path id="Trazado_116336-3" data-name="Trazado 116336" d="M780.793-235.888a7.044,7.044,0,0,0-9.737,2.1,7.044,7.044,0,0,0,2.268,9.7,7.044,7.044,0,0,0,9.737-2.1A7.043,7.043,0,0,0,780.793-235.888Zm-7.294,7.771a1.447,1.447,0,0,1-.466-1.994,1.446,1.446,0,0,1,2-.431,1.448,1.448,0,0,1,.467,1.994A1.447,1.447,0,0,1,773.5-228.117Zm2.2-3.468a1.449,1.449,0,0,1-.466-1.994,1.448,1.448,0,0,1,2-.431,1.448,1.448,0,0,1,.466,1.994A1.449,1.449,0,0,1,775.7-231.585Zm1.191,5.613a1.449,1.449,0,0,1-.467-1.995,1.448,1.448,0,0,1,2-.43,1.446,1.446,0,0,1,.467,1.994A1.447,1.447,0,0,1,776.886-225.972Zm2.2-3.469a1.448,1.448,0,0,1-.467-1.993,1.45,1.45,0,0,1,2-.432,1.449,1.449,0,0,1,.466,1.995A1.448,1.448,0,0,1,779.082-229.441Z" fill="#70333b"/>
    </g>
    <g id="Grupo_69598" data-name="Grupo 69598">
      <path id="Trazado_116337" data-name="Trazado 116337" d="M706.943-233.188a8.893,8.893,0,0,0-12.293,2.647,8.892,8.892,0,0,0,2.862,12.244,8.892,8.892,0,0,0,12.293-2.646A8.893,8.893,0,0,0,706.943-233.188Zm-8.45,13.343a7.044,7.044,0,0,1-2.268-9.7,7.044,7.044,0,0,1,9.737-2.1,7.043,7.043,0,0,1,2.268,9.7A7.044,7.044,0,0,1,698.493-219.845Z" fill="#95424f"/>
      <path id="Trazado_116338" data-name="Trazado 116338" d="M705.962-231.639a7.044,7.044,0,0,0-9.737,2.1,7.044,7.044,0,0,0,2.268,9.7,7.044,7.044,0,0,0,9.737-2.1A7.043,7.043,0,0,0,705.962-231.639Zm-7.295,7.771a1.447,1.447,0,0,1-.465-1.994,1.446,1.446,0,0,1,2-.431,1.448,1.448,0,0,1,.467,1.994A1.449,1.449,0,0,1,698.667-223.868Zm2.2-3.468a1.449,1.449,0,0,1-.467-1.994,1.45,1.45,0,0,1,2-.431,1.449,1.449,0,0,1,.466,1.994A1.449,1.449,0,0,1,700.864-227.336Zm1.19,5.613a1.449,1.449,0,0,1-.466-1.995,1.448,1.448,0,0,1,2-.43,1.448,1.448,0,0,1,.467,1.994A1.448,1.448,0,0,1,702.054-221.723Zm2.2-3.469a1.447,1.447,0,0,1-.467-1.993,1.449,1.449,0,0,1,2-.432,1.449,1.449,0,0,1,.467,2A1.448,1.448,0,0,1,704.251-225.192Z" fill="#70333b"/>
    </g>
    <g id="Grupo_69599" data-name="Grupo 69599">
      <path id="Trazado_116339" data-name="Trazado 116339" d="M711.831-188.962a8.893,8.893,0,0,0,.14,12.574,8.892,8.892,0,0,0,12.569-.361,8.892,8.892,0,0,0-.139-12.574A8.893,8.893,0,0,0,711.831-188.962Zm11.388,10.944a7.044,7.044,0,0,1-9.956.285,7.043,7.043,0,0,1-.11-9.959,7.043,7.043,0,0,1,9.955-.286A7.044,7.044,0,0,1,723.219-178.018Z" fill="#95424f"/>
      <path id="Trazado_116340" data-name="Trazado 116340" d="M713.153-187.692a7.043,7.043,0,0,0,.11,9.959,7.044,7.044,0,0,0,9.956-.285,7.044,7.044,0,0,0-.111-9.96A7.043,7.043,0,0,0,713.153-187.692Zm6.159,8.7a1.448,1.448,0,0,1-2.047.059,1.448,1.448,0,0,1-.023-2.048,1.448,1.448,0,0,1,2.047-.059A1.448,1.448,0,0,1,719.312-178.993Zm-2.96-2.845a1.449,1.449,0,0,1-2.047.06,1.449,1.449,0,0,1-.023-2.048,1.449,1.449,0,0,1,2.048-.059A1.449,1.449,0,0,1,716.352-181.838Zm5.738-.045a1.449,1.449,0,0,1-2.048.058,1.447,1.447,0,0,1-.022-2.047,1.447,1.447,0,0,1,2.047-.06A1.449,1.449,0,0,1,722.09-181.883Zm-2.961-2.845a1.448,1.448,0,0,1-2.046.06,1.449,1.449,0,0,1-.023-2.049,1.449,1.449,0,0,1,2.048-.059A1.449,1.449,0,0,1,719.129-184.728Z" fill="#70333b"/>
    </g>
    <g id="Grupo_69600" data-name="Grupo 69600">
      <path id="Trazado_116341" data-name="Trazado 116341" d="M766.253-194.581a8.892,8.892,0,0,0,.139,12.574,8.892,8.892,0,0,0,12.57-.36,8.893,8.893,0,0,0-.14-12.574A8.892,8.892,0,0,0,766.253-194.581Zm11.388,10.944a7.045,7.045,0,0,1-9.957.286,7.043,7.043,0,0,1-.109-9.959,7.043,7.043,0,0,1,9.955-.286A7.044,7.044,0,0,1,777.641-183.637Z" fill="#95424f"/>
      <path id="Trazado_116342" data-name="Trazado 116342" d="M767.575-193.31a7.043,7.043,0,0,0,.109,9.959,7.045,7.045,0,0,0,9.957-.286,7.044,7.044,0,0,0-.111-9.959A7.043,7.043,0,0,0,767.575-193.31Zm6.158,8.7a1.448,1.448,0,0,1-2.047.058,1.447,1.447,0,0,1-.023-2.047,1.448,1.448,0,0,1,2.047-.06A1.448,1.448,0,0,1,773.733-184.611Zm-2.96-2.845a1.447,1.447,0,0,1-2.046.059,1.449,1.449,0,0,1-.024-2.048,1.449,1.449,0,0,1,2.048-.059A1.449,1.449,0,0,1,770.773-187.456Zm5.738-.046a1.448,1.448,0,0,1-2.048.059,1.449,1.449,0,0,1-.022-2.048,1.447,1.447,0,0,1,2.047-.059A1.447,1.447,0,0,1,776.511-187.5Zm-2.96-2.845a1.449,1.449,0,0,1-2.047.06,1.448,1.448,0,0,1-.023-2.048,1.447,1.447,0,0,1,2.048-.059A1.448,1.448,0,0,1,773.551-190.347Z" fill="#70333b"/>
    </g>
    <g id="Grupo_69601" data-name="Grupo 69601">
      <path id="Trazado_116343" data-name="Trazado 116343" d="M789.184-113.211a4.937,4.937,0,0,0,.165-1.261,30.2,30.2,0,0,0-12.522-24.43l-1.712,3.262A30.321,30.321,0,0,1,789.184-113.211Z" fill="#e29770"/>
      <path id="Trazado_116344" data-name="Trazado 116344" d="M739.348-134l-1.621-3.081a30.09,30.09,0,0,0-10.265,22.613,4.654,4.654,0,0,0,.168,1.22A30.244,30.244,0,0,1,739.348-134Z" fill="#e29770"/>
      <path id="Trazado_116345" data-name="Trazado 116345" d="M763-140.12q1.187.172,2.342.432a4.307,4.307,0,0,1,3.952,1.17,31.007,31.007,0,0,1,5.618,2.746l1.576-3.375a31.026,31.026,0,0,0-13.678-5.418l-.768,3.722C762.364-140.6,762.682-140.364,763-140.12Z" fill="#e29770"/>
      <path id="Trazado_116346" data-name="Trazado 116346" d="M761.92-140.26l.288.034c-.084-.064-.174-.126-.257-.189Z" fill="#e29770"/>
      <path id="Trazado_116347" data-name="Trazado 116347" d="M752.544-139.911a57.142,57.142,0,0,1,4.758-3.328.2.2,0,0,1,.277.059.2.2,0,0,1-.062.271c-1.474.923-2.848,1.876-4.137,2.854a31.506,31.506,0,0,1,5.026-.4,30.855,30.855,0,0,1,3.456.192l.028-.195c-1.129-.834-2.322-1.653-3.592-2.451a.194.194,0,0,1-.06-.271.2.2,0,0,1,.275-.059c1.214.759,2.361,1.542,3.447,2.339l.581-3.7a31.514,31.514,0,0,0-4.135-.272,31.124,31.124,0,0,0-20.317,7.474l1.5,3.212A31.056,31.056,0,0,1,752.544-139.911Z" fill="#e29770"/>
      <path id="Trazado_116348" data-name="Trazado 116348" d="M775.115-135.64l-2.4,4.572,2.2-4.7a31.007,31.007,0,0,0-5.618-2.746,4.119,4.119,0,0,1,1.042,1.768,4.1,4.1,0,0,1-.339,3.109,47.522,47.522,0,0,1,6.685,9.623,46.775,46.775,0,0,1,4.782,14.444c.123.76.2,1.3.251,1.545a.9.9,0,0,0,.027.1.191.191,0,0,1,.03.2.2.2,0,0,1-.264.1.339.339,0,0,1-.084-.059.326.326,0,0,1-.034-.053.8.8,0,0,1-.035-.088,2.048,2.048,0,0,1-.051-.215c-.032-.174-.071-.417-.115-.727-.1-.619-.233-1.508-.452-2.611a46.317,46.317,0,0,0-2.681-8.78,46.972,46.972,0,0,0-8.275-13.128,4.228,4.228,0,0,1-2.373,1.7,4.313,4.313,0,0,1-3.281-.4l-8.7,8.983,7.951-9.521a4.122,4.122,0,0,1-1.22-1.942,4.132,4.132,0,0,1,1.618-4.54c-.509-.412-1.026-.819-1.564-1.222l-.288-.034-.251,1.217.193-1.22a30.855,30.855,0,0,0-3.456-.192,31.506,31.506,0,0,0-5.026.4,49.522,49.522,0,0,0-11.113,11.6l.048.1-.052-.1a46.92,46.92,0,0,0-2.733,4.541,46.415,46.415,0,0,0-4.772,14.333c-.125.771-.2,1.314-.258,1.606a1.105,1.105,0,0,1-.052.19.388.388,0,0,1-.053.1.306.306,0,0,1-.086.059.2.2,0,0,1-.26-.1.186.186,0,0,1,.029-.2l.005-.015c.01-.033.023-.093.039-.173.03-.161.068-.4.116-.714.093-.618.229-1.514.452-2.626a46.624,46.624,0,0,1,2.7-8.854,47.14,47.14,0,0,1,4.66-8.546L739.348-134a30.244,30.244,0,0,0-11.718,20.752c1.628,5.9,14.787,11.2,30.776,11.2s29.167-5.023,30.778-11.157A30.321,30.321,0,0,0,775.115-135.64Z" fill="#f7a479"/>
      <path id="Trazado_116349" data-name="Trazado 116349" d="M765.078-139.624c.087-.023.176-.043.26-.064q-1.155-.259-2.342-.432c.384.293.764.59,1.13.893A4.249,4.249,0,0,1,765.078-139.624Z" fill="#f7a479"/>
      <path id="Trazado_116350" data-name="Trazado 116350" d="M752.544-139.911a31.056,31.056,0,0,0-12.955,5.723l2.484,5.314A49.806,49.806,0,0,1,752.544-139.911Z" fill="#f7a479"/>
      <path id="Trazado_116351" data-name="Trazado 116351" d="M737.727-137.085,739.348-134l2.706,5.151a.094.094,0,0,1,.019-.021l-2.484-5.314-1.5-3.212-5.024-10.753a4.255,4.255,0,0,1-.951.387Z" fill="#5f2931"/>
      <path id="Trazado_116352" data-name="Trazado 116352" d="M742.315-128.357l-.048-.1,0,0Z" fill="#5f2931"/>
      <path id="Trazado_116353" data-name="Trazado 116353" d="M735.228-151.787a4.216,4.216,0,0,0-4.251-4.179,4.215,4.215,0,0,0-4.252,4.179,4.215,4.215,0,0,0,4.252,4.177,4.346,4.346,0,0,0,1.137-.156,4.255,4.255,0,0,0,.951-.387A4.157,4.157,0,0,0,735.228-151.787Z" fill="#c9c9c9"/>
      <path id="Trazado_116354" data-name="Trazado 116354" d="M772.711-131.068l2.4-4.572,1.712-3.262,6.085-11.576a4.149,4.149,0,0,1-.95-.384l-5.478,11.715-1.576,3.375Z" fill="#5f2931"/>
      <path id="Trazado_116355" data-name="Trazado 116355" d="M784.049-150.322A4.216,4.216,0,0,0,788.3-154.5a4.216,4.216,0,0,0-4.251-4.179A4.216,4.216,0,0,0,779.8-154.5a4.165,4.165,0,0,0,2.164,3.638,4.149,4.149,0,0,0,.95.384A4.439,4.439,0,0,0,784.049-150.322Z" fill="#ea6b54"/>
      <path id="Trazado_116356" data-name="Trazado 116356" d="M762.038-140.843l.768-3.722,3.267-15.888a4.1,4.1,0,0,1-1.023-.115L762.541-144.6l-.581,3.7C761.987-140.879,762.014-140.86,762.038-140.843Z" fill="#5f2931"/>
      <path id="Trazado_116357" data-name="Trazado 116357" d="M761.92-140.26l.031-.155c-.02-.014-.041-.031-.061-.043l-.028.195-.193,1.22Z" fill="#5f2931"/>
      <path id="Trazado_116358" data-name="Trazado 116358" d="M766.073-160.453a4.225,4.225,0,0,0,1.138-.157,4.166,4.166,0,0,0,2.925-5.16,4.262,4.262,0,0,0-5.254-2.874,4.167,4.167,0,0,0-2.925,5.16,4.215,4.215,0,0,0,3.093,2.916A4.1,4.1,0,0,0,766.073-160.453Z" fill="#f28c5e"/>
      <path id="Trazado_116359" data-name="Trazado 116359" d="M734.69-111.453c-.223,1.112-.359,2.008-.452,2.626-.048.309-.086.553-.116.714-.016.08-.029.14-.039.173l-.005.015a.186.186,0,0,0-.029.2.2.2,0,0,0,.26.1.306.306,0,0,0,.086-.059.388.388,0,0,0,.053-.1,1.105,1.105,0,0,0,.052-.19c.062-.292.133-.835.258-1.606a46.415,46.415,0,0,1,4.772-14.333,46.92,46.92,0,0,1,2.733-4.541l0,0a49.522,49.522,0,0,1,11.113-11.6c1.289-.978,2.663-1.931,4.137-2.854a.2.2,0,0,0,.062-.271.2.2,0,0,0-.277-.059,57.142,57.142,0,0,0-4.758,3.328,49.806,49.806,0,0,0-10.471,11.037.094.094,0,0,0-.019.021,47.14,47.14,0,0,0-4.66,8.546A46.624,46.624,0,0,0,734.69-111.453Z" fill="#cb8966"/>
      <path id="Trazado_116360" data-name="Trazado 116360" d="M762.208-140.226c.538.4,1.055.81,1.564,1.222a3.15,3.15,0,0,1,.354-.223c-.366-.3-.746-.6-1.13-.893-.314-.244-.632-.482-.958-.723-.024-.017-.051-.036-.078-.057-1.086-.8-2.233-1.58-3.447-2.339a.2.2,0,0,0-.275.059.194.194,0,0,0,.06.271c1.27.8,2.463,1.617,3.592,2.451.02.012.041.029.061.043C762.034-140.352,762.124-140.29,762.208-140.226Z" fill="#cb8966"/>
      <path id="Trazado_116361" data-name="Trazado 116361" d="M778.052-120.159a46.317,46.317,0,0,1,2.681,8.78c.219,1.1.355,1.992.452,2.611.044.31.083.553.115.727a2.048,2.048,0,0,0,.051.215.8.8,0,0,0,.035.088.326.326,0,0,0,.034.053.339.339,0,0,0,.084.059.2.2,0,0,0,.264-.1.191.191,0,0,0-.03-.2.9.9,0,0,1-.027-.1c-.053-.244-.128-.785-.251-1.545a46.775,46.775,0,0,0-4.782-14.444,47.522,47.522,0,0,0-6.685-9.623,4.121,4.121,0,0,1-.216.354A46.972,46.972,0,0,1,778.052-120.159Z" fill="#cb8966"/>
      <path id="Trazado_116362" data-name="Trazado 116362" d="M755.423-123l8.7-8.983a4.382,4.382,0,0,1-.749-.538Z" fill="#5f2931"/>
      <path id="Trazado_116363" data-name="Trazado 116363" d="M764.126-139.227a3.15,3.15,0,0,0-.354.223,4.132,4.132,0,0,0-1.618,4.54,4.122,4.122,0,0,0,1.22,1.942,4.382,4.382,0,0,0,.749.538,4.313,4.313,0,0,0,3.281.4,4.228,4.228,0,0,0,2.373-1.7,4.121,4.121,0,0,0,.216-.354,4.1,4.1,0,0,0,.339-3.109,4.119,4.119,0,0,0-1.042-1.768,4.307,4.307,0,0,0-3.952-1.17c-.084.021-.173.041-.26.064A4.249,4.249,0,0,0,764.126-139.227Z" fill="#fcb569"/>
    </g>
    <g id="Grupo_69602" data-name="Grupo 69602">
      <path id="Trazado_116364" data-name="Trazado 116364" d="M656.3-283.393l-4.7-4.624-12.415,12.2,4.7,4.624Z" fill="#886749"/>
      <path id="Trazado_116365" data-name="Trazado 116365" d="M695.408-248.239a32.462,32.462,0,0,0-13.784-24.337l-5.495,5.393Z" fill="#c9c9c9"/>
      <path id="Trazado_116366" data-name="Trazado 116366" d="M676.129-267.183l-1.6,1.57,21.047,20.681q-.026-1.7-.17-3.307Z" fill="#d9d9d9"/>
      <path id="Trazado_116367" data-name="Trazado 116367" d="M654.81-246.236a33.2,33.2,0,0,0,24.125,13.486L660.01-251.344Z" fill="#c9c9c9"/>
      <path id="Trazado_116368" data-name="Trazado 116368" d="M682.948-232.521,661.9-253.2h0Z" fill="#c9c9c9"/>
      <path id="Trazado_116369" data-name="Trazado 116369" d="M660.01-251.344l18.925,18.594c1.284.13,2.621.209,4.013.229L661.9-253.2Z" fill="#d9d9d9"/>
      <path id="Trazado_116370" data-name="Trazado 116370" d="M643.887-271.2l-4.705-4.624-6.417-6.3a8.778,8.778,0,0,1-1.352-1.712L619.82-285.1a18.843,18.843,0,0,0,5.419,10.369l29.285,28.774.289-.284,5.2-5.108,2.04-2.006Zm10.928,18.131a4.1,4.1,0,0,1-5.737,0,3.936,3.936,0,0,1,0-5.64,4.116,4.116,0,0,1,5.737,0A3.936,3.936,0,0,1,654.815-253.064Z" fill="#d29b6d"/>
      <path id="Trazado_116371" data-name="Trazado 116371" d="M681.624-272.576l.367-.366-29.283-28.773a19.7,19.7,0,0,0-27.469,0,18.873,18.873,0,0,0-5.419,16.62l11.594,1.265a8.53,8.53,0,0,1,1.353-10.488,8.9,8.9,0,0,1,12.415,0l29.283,28.774.066-.066,1.6-1.57Z" fill="#ba8b62"/>
      <path id="Trazado_116372" data-name="Trazado 116372" d="M654.815-258.7a4.116,4.116,0,0,0-5.737,0,3.936,3.936,0,0,0,0,5.64,4.1,4.1,0,0,0,5.737,0A3.936,3.936,0,0,0,654.815-258.7Zm-1.19,4.468a2.4,2.4,0,0,1-3.357,0,2.294,2.294,0,0,1,0-3.29,2.4,2.4,0,0,1,3.357,0A2.3,2.3,0,0,1,653.625-254.236Z" fill="#a57c58"/>
      <path id="Trazado_116373" data-name="Trazado 116373" d="M650.269-257.532a2.3,2.3,0,0,0,0,3.3,2.4,2.4,0,0,0,3.355,0,2.3,2.3,0,0,0,0-3.3A2.407,2.407,0,0,0,650.269-257.532Z" fill="#816246"/>
    </g>
    <g id="Grupo_69603" data-name="Grupo 69603">
      <path id="Trazado_116374" data-name="Trazado 116374" d="M745.009-277.8a18.172,18.172,0,0,0,1.474-1.466,7.105,7.105,0,0,0,1.243-1.892,3.343,3.343,0,0,0,.274-1.28,2.868,2.868,0,0,0-.238-1.135,3.682,3.682,0,0,0-1.234-1.618,2.48,2.48,0,0,0-1.448-.481,2.09,2.09,0,0,0-1.5.611,2.632,2.632,0,0,0-.675,1.893,4.5,4.5,0,0,0,.091.891,10.873,10.873,0,0,0,1.769,4.14C744.842-278.021,744.925-277.91,745.009-277.8Z" fill="none"/>
      <path id="Trazado_116375" data-name="Trazado 116375" d="M809.079-271.076a23.233,23.233,0,0,1,2.415,2.781c1.636-1.249,2.543-2.551,2.137-3.245-.448-.77-2.369-.548-4.572.44a.187.187,0,0,1,.02.02Z" fill="none"/>
      <path id="Trazado_116376" data-name="Trazado 116376" d="M808.031-270.054c-.123-.112-.242-.226-.361-.338-2.648,1.515-4.362,3.457-3.831,4.364s3.164.432,5.868-1.09c.2-.111.384-.226.573-.341a22.3,22.3,0,0,0-2.249-2.595Z" fill="none"/>
      <path id="Trazado_116377" data-name="Trazado 116377" d="M799.871-274.517a13.981,13.981,0,0,0-1.737-.1c-.446,0-.895.024-1.351.055l.646,8.065,6.83-4.748c.123-.086.246-.181.372-.274h0q.441-.312.916-.608a.808.808,0,0,1-.077-.057A12.692,12.692,0,0,0,799.871-274.517Z" fill="none"/>
      <path id="Trazado_116378" data-name="Trazado 116378" d="M752.022-262.314a2.705,2.705,0,0,1,.033-.42l.037-.458a2.415,2.415,0,0,0-.348,1.213,2.463,2.463,0,0,0,.373,1.26,5.165,5.165,0,0,0,1.2,1.343,16.233,16.233,0,0,0,4.881,2.51c.943.327,1.979.631,3.082.9C755.664-257.4,752.022-259.709,752.022-262.314Z" fill="none"/>
      <path id="Trazado_116379" data-name="Trazado 116379" d="M807.821-270.478c-.018.012-.036.018-.058.034s-.063.032-.093.052c.119.112.238.226.361.338A.693.693,0,0,1,807.821-270.478Z" fill="#f28c5e"/>
      <path id="Trazado_116380" data-name="Trazado 116380" d="M809.059-271.1l0,0s.016.01.022.016A.187.187,0,0,0,809.059-271.1Z" fill="#f28c5e"/>
      <path id="Trazado_116381" data-name="Trazado 116381" d="M798.134-274.62a13.981,13.981,0,0,1,1.737.1,12.692,12.692,0,0,1,5.6,2.33.808.808,0,0,0,.077.057c.245-.154.5-.309.756-.456.21-.118.424-.229.636-.338-.2-.157-.406-.3-.612-.454a14.269,14.269,0,0,0-6.28-2.589,16.708,16.708,0,0,0-1.917-.109c-.488,0-.979.022-1.466.059l.115,1.452C797.239-274.6,797.688-274.62,798.134-274.62Z" fill="#f28c5e"/>
      <path id="Trazado_116382" data-name="Trazado 116382" d="M747.954-274.931a14.287,14.287,0,0,1-2-1.747,16.537,16.537,0,0,0,2.224-2.345,7.308,7.308,0,0,0,.921-1.589,4.794,4.794,0,0,0,.381-1.825,4.282,4.282,0,0,0-.351-1.695,5.168,5.168,0,0,0-1.737-2.241,3.982,3.982,0,0,0-2.318-.757,3.575,3.575,0,0,0-2.565,1.062,4.06,4.06,0,0,0-1.092,2.9,6.057,6.057,0,0,0,.119,1.164,12.331,12.331,0,0,0,2,4.691c.115.163.239.321.358.477-1.345,1.128-2.769,2.2-4.178,3.32a32.586,32.586,0,0,0-4.845,4.559,13.988,13.988,0,0,0-1.894,2.856,7.636,7.636,0,0,0-.856,3.346,5.465,5.465,0,0,0,1.161,3.382,8.205,8.205,0,0,0,2.267,2,16.629,16.629,0,0,0,4.235,1.731c1.468.409,2.922.7,4.166.986a.741.741,0,0,0,.9-.544.725.725,0,0,0-.554-.869,53.983,53.983,0,0,1-5.475-1.4,12.659,12.659,0,0,1-2.482-1.143,6.684,6.684,0,0,1-1.864-1.634,4.024,4.024,0,0,1-.868-2.508,6.3,6.3,0,0,1,.712-2.718,12.911,12.911,0,0,1,1.7-2.563,31.688,31.688,0,0,1,4.636-4.348c1.38-1.1,2.809-2.171,4.194-3.328a16.991,16.991,0,0,0,4.379,3.292,20.134,20.134,0,0,0,3.479,1.448l.114-1.492A18.244,18.244,0,0,1,747.954-274.931Zm-2.945-2.868c-.084-.111-.169-.222-.244-.331a10.841,10.841,0,0,1-1.771-4.146,4.814,4.814,0,0,1-.091-.891,2.6,2.6,0,0,1,.677-1.893,2.076,2.076,0,0,1,1.5-.611,2.5,2.5,0,0,1,1.452.481,3.665,3.665,0,0,1,1.232,1.618,2.81,2.81,0,0,1,.24,1.135,3.343,3.343,0,0,1-.274,1.28,7.105,7.105,0,0,1-1.243,1.892A18.172,18.172,0,0,1,745.009-277.8Z" fill="#f28c5e"/>
      <path id="Trazado_116383" data-name="Trazado 116383" d="M792.161-255.264a17.931,17.931,0,0,0,5.413-2.809,7.438,7.438,0,0,0,1.324-1.391L785.983-253.7A41.64,41.64,0,0,0,792.161-255.264Z" fill="#e7ac77"/>
      <path id="Trazado_116384" data-name="Trazado 116384" d="M774.892-254.416a56.069,56.069,0,0,1-13.608-1.549c-1.1-.27-2.139-.574-3.082-.9a16.233,16.233,0,0,1-4.881-2.51,5.165,5.165,0,0,1-1.2-1.343,2.463,2.463,0,0,1-.373-1.26,2.415,2.415,0,0,1,.348-1.213l.219-2.769a.956.956,0,0,0-.1.075,6.771,6.771,0,0,0-1.593,1.8,4.107,4.107,0,0,0-.6,2.108,4.127,4.127,0,0,0,.6,2.109,6.568,6.568,0,0,0,1.349,1.587,14.5,14.5,0,0,0,3.77,2.284,36.735,36.735,0,0,0,8.4,2.361,64.089,64.089,0,0,0,10.755.874c.74,0,1.469-.016,2.194-.036l2.787-1.8C778.269-254.484,776.6-254.416,774.892-254.416Z" fill="#e7ac77"/>
      <path id="Trazado_116385" data-name="Trazado 116385" d="M796.783-274.565l-.119-1.45-2.06-25.744c-.455,4.2-9.1,7.543-19.712,7.543-10.9,0-19.735-3.533-19.735-7.894l-2.336,29.647-.114,1.492-.4,5.01-.219,2.773-.037.454a2.705,2.705,0,0,0-.033.42c0,2.6,3.642,4.909,9.262,6.349a56.081,56.081,0,0,0,13.608,1.549c1.709,0,3.373-.068,4.981-.186l6.367-4.123,11.187-7.775Zm-38.861-18.771a1.823,1.823,0,0,1,1.613,1.977,1.821,1.821,0,0,1-1.613,1.973,1.822,1.822,0,0,1-1.61-1.973A1.824,1.824,0,0,1,757.922-293.336Zm-1.61,19.554a1.819,1.819,0,0,1-1.611-1.971,1.821,1.821,0,0,1,1.611-1.975,1.819,1.819,0,0,1,1.61,1.975A1.818,1.818,0,0,1,756.312-273.782Zm3.223,10a1.821,1.821,0,0,1-1.613-1.973,1.823,1.823,0,0,1,1.613-1.975,1.821,1.821,0,0,1,1.61,1.975A1.818,1.818,0,0,1,759.535-263.786ZM760-282.781a1.817,1.817,0,0,1-1.61-1.971,1.815,1.815,0,0,1,1.61-1.971,1.815,1.815,0,0,1,1.611,1.971A1.817,1.817,0,0,1,760-282.781Zm5.118,8.028a1.819,1.819,0,0,1-1.611-1.973,1.821,1.821,0,0,1,1.611-1.973,1.82,1.82,0,0,1,1.61,1.973A1.818,1.818,0,0,1,765.122-274.753Zm1.2-12.664a1.815,1.815,0,0,1-1.611-1.969,1.817,1.817,0,0,1,1.611-1.973,1.817,1.817,0,0,1,1.61,1.973A1.815,1.815,0,0,1,766.318-287.417ZM771-264.846a1.817,1.817,0,0,1-1.611-1.973A1.817,1.817,0,0,1,771-268.79a1.815,1.815,0,0,1,1.608,1.971A1.815,1.815,0,0,1,771-264.846Zm1.608-15.1A1.818,1.818,0,0,1,771-281.924a1.817,1.817,0,0,1,1.608-1.969,1.817,1.817,0,0,1,1.613,1.969A1.818,1.818,0,0,1,772.607-279.951Zm5.773,8.142a1.819,1.819,0,0,1-1.61-1.973,1.817,1.817,0,0,1,1.61-1.971,1.817,1.817,0,0,1,1.611,1.971A1.819,1.819,0,0,1,778.38-271.809Zm0-14.914a1.821,1.821,0,0,1-1.61-1.977,1.817,1.817,0,0,1,1.61-1.971,1.817,1.817,0,0,1,1.611,1.971A1.821,1.821,0,0,1,778.38-286.723Zm4.154,4.8a1.819,1.819,0,0,1,1.615-1.969,1.817,1.817,0,0,1,1.608,1.969,1.818,1.818,0,0,1-1.608,1.973A1.82,1.82,0,0,1,782.534-281.924Zm2.648,18.138a1.819,1.819,0,0,1-1.61-1.973,1.822,1.822,0,0,1,1.61-1.975,1.823,1.823,0,0,1,1.613,1.975A1.821,1.821,0,0,1,785.182-263.786Zm1.72-26.885a1.82,1.82,0,0,1,1.613-1.973,1.818,1.818,0,0,1,1.61,1.973,1.819,1.819,0,0,1-1.61,1.971A1.821,1.821,0,0,1,786.9-290.671Zm2.441,17.893a1.821,1.821,0,0,1-1.613-1.975,1.819,1.819,0,0,1,1.613-1.973,1.82,1.82,0,0,1,1.61,1.973A1.823,1.823,0,0,1,789.343-272.778Zm3.686-10a1.819,1.819,0,0,1-1.61-1.971,1.817,1.817,0,0,1,1.61-1.971,1.816,1.816,0,0,1,1.613,1.971A1.818,1.818,0,0,1,793.029-282.781Z" fill="#fde3ce"/>
      <path id="Trazado_116386" data-name="Trazado 116386" d="M794.509-302.981h0s0,0,0,.009Z" fill="#fde3ce"/>
      <path id="Trazado_116387" data-name="Trazado 116387" d="M794.509-302.972s0,0,0-.009c-1.08-3.95-9.445-7.025-19.613-7.025-10.9,0-19.735,3.535-19.735,7.9s8.835,7.894,19.735,7.894c10.607,0,19.257-3.347,19.712-7.543a3.5,3.5,0,0,0,.024-.351A3.27,3.27,0,0,0,794.509-302.972Zm-19.82-6.356c1.147,0,2.081.667,2.081,1.487s-.934,1.488-2.081,1.488-2.082-.664-2.082-1.488S773.543-309.328,774.689-309.328ZM760-300.618c-1.148,0-2.082-.672-2.082-1.492s.934-1.49,2.082-1.49,2.079.668,2.079,1.49S761.149-300.618,760-300.618Zm3.769-5.735c0-.818.93-1.488,2.077-1.488s2.078.67,2.078,1.488-.926,1.494-2.078,1.494S763.773-305.527,763.773-306.353Zm3.426,9.93c-1.149,0-2.077-.671-2.077-1.489s.928-1.5,2.077-1.5,2.08.67,2.08,1.5S768.349-296.423,767.2-296.423Zm7.49-6.558c1.147,0,2.081.669,2.081,1.489S775.836-300,774.689-300s-2.082-.668-2.082-1.494S773.543-302.981,774.689-302.981Zm.2,8.046c-1.147,0-2.079-.667-2.079-1.488s.932-1.489,2.079-1.489,2.08.663,2.08,1.489S776.043-294.935,774.892-294.935Zm5.1-12.069c0-.827.933-1.49,2.078-1.49s2.082.663,2.082,1.49-.936,1.487-2.082,1.487S779.989-306.18,779.989-307Zm5.193,9.986c-1.146,0-2.076-.666-2.076-1.49s.93-1.49,2.076-1.49,2.081.67,2.081,1.49S786.331-297.018,785.182-297.018Zm4.161-4.862c-1.151,0-2.08-.666-2.08-1.49s.929-1.489,2.08-1.489,2.076.669,2.076,1.489S790.492-301.88,789.343-301.88Z" fill="#e7ac77"/>
      <path id="Trazado_116388" data-name="Trazado 116388" d="M760-300.618c1.147,0,2.079-.672,2.079-1.492s-.932-1.49-2.079-1.49-2.08.664-2.08,1.49S758.856-300.618,760-300.618Z" fill="#fde3ce"/>
      <path id="Trazado_116389" data-name="Trazado 116389" d="M765.85-304.859c1.152,0,2.078-.668,2.078-1.494s-.926-1.488-2.078-1.488-2.077.668-2.077,1.488S764.7-304.859,765.85-304.859Z" fill="#fde3ce"/>
      <path id="Trazado_116390" data-name="Trazado 116390" d="M774.689-306.353c1.147,0,2.079-.664,2.079-1.488s-.932-1.487-2.079-1.487-2.082.665-2.082,1.487S773.541-306.353,774.689-306.353Z" fill="#fde3ce"/>
      <path id="Trazado_116391" data-name="Trazado 116391" d="M782.067-305.517c1.146,0,2.078-.663,2.078-1.487s-.932-1.49-2.078-1.49-2.078.669-2.078,1.49S780.92-305.517,782.067-305.517Z" fill="#fde3ce"/>
      <path id="Trazado_116392" data-name="Trazado 116392" d="M774.689-300c1.147,0,2.079-.668,2.079-1.494s-.932-1.489-2.079-1.489-2.082.669-2.082,1.489S773.541-300,774.689-300Z" fill="#fde3ce"/>
      <path id="Trazado_116393" data-name="Trazado 116393" d="M785.182-300c-1.146,0-2.076.666-2.076,1.49s.93,1.49,2.076,1.49,2.081-.666,2.081-1.49S786.331-300,785.182-300Z" fill="#fde3ce"/>
      <path id="Trazado_116394" data-name="Trazado 116394" d="M774.892-297.912c-1.147,0-2.081.663-2.081,1.489s.934,1.488,2.081,1.488,2.08-.665,2.08-1.488S776.038-297.912,774.892-297.912Z" fill="#fde3ce"/>
      <path id="Trazado_116395" data-name="Trazado 116395" d="M767.2-299.408c-1.149,0-2.077.67-2.077,1.5s.928,1.489,2.077,1.489,2.08-.667,2.08-1.489S768.349-299.408,767.2-299.408Z" fill="#fde3ce"/>
      <path id="Trazado_116396" data-name="Trazado 116396" d="M757.924-289.386a1.822,1.822,0,0,0,1.613-1.973,1.824,1.824,0,0,0-1.613-1.977,1.824,1.824,0,0,0-1.612,1.977A1.822,1.822,0,0,0,757.924-289.386Z" fill="#d3b395"/>
      <path id="Trazado_116397" data-name="Trazado 116397" d="M766.318-287.417a1.814,1.814,0,0,0,1.61-1.969,1.816,1.816,0,0,0-1.61-1.973,1.819,1.819,0,0,0-1.611,1.973A1.817,1.817,0,0,0,766.318-287.417Z" fill="#d3b395"/>
      <path id="Trazado_116398" data-name="Trazado 116398" d="M758.392-284.752A1.818,1.818,0,0,0,760-282.781a1.818,1.818,0,0,0,1.611-1.971A1.818,1.818,0,0,0,760-286.725,1.818,1.818,0,0,0,758.392-284.752Z" fill="#d3b395"/>
      <path id="Trazado_116399" data-name="Trazado 116399" d="M765.122-274.753a1.818,1.818,0,0,0,1.61-1.973,1.82,1.82,0,0,0-1.61-1.973,1.821,1.821,0,0,0-1.611,1.973A1.819,1.819,0,0,0,765.122-274.753Z" fill="#d3b395"/>
      <path id="Trazado_116400" data-name="Trazado 116400" d="M756.312-273.786a1.815,1.815,0,0,0,1.612-1.967,1.821,1.821,0,0,0-1.612-1.975,1.822,1.822,0,0,0-1.611,1.975A1.817,1.817,0,0,0,756.312-273.786Z" fill="#d3b395"/>
      <path id="Trazado_116401" data-name="Trazado 116401" d="M778.38-271.809a1.819,1.819,0,0,0,1.611-1.977,1.815,1.815,0,0,0-1.611-1.967,1.817,1.817,0,0,0-1.612,1.967A1.82,1.82,0,0,0,778.38-271.809Z" fill="#d3b395"/>
      <path id="Trazado_116402" data-name="Trazado 116402" d="M787.73-274.753a1.822,1.822,0,0,0,1.613,1.973,1.823,1.823,0,0,0,1.61-1.973,1.823,1.823,0,0,0-1.61-1.973A1.821,1.821,0,0,0,787.73-274.753Z" fill="#d3b395"/>
      <path id="Trazado_116403" data-name="Trazado 116403" d="M769.388-266.819A1.817,1.817,0,0,0,771-264.846a1.815,1.815,0,0,0,1.608-1.973A1.815,1.815,0,0,0,771-268.79,1.817,1.817,0,0,0,769.388-266.819Z" fill="#d3b395"/>
      <path id="Trazado_116404" data-name="Trazado 116404" d="M785.182-267.734a1.821,1.821,0,0,0-1.608,1.975,1.818,1.818,0,0,0,1.608,1.973,1.819,1.819,0,0,0,1.613-1.973A1.822,1.822,0,0,0,785.182-267.734Z" fill="#d3b395"/>
      <path id="Trazado_116405" data-name="Trazado 116405" d="M759.537-267.734a1.822,1.822,0,0,0-1.613,1.975,1.819,1.819,0,0,0,1.613,1.973,1.818,1.818,0,0,0,1.608-1.973A1.821,1.821,0,0,0,759.537-267.734Z" fill="#d3b395"/>
      <path id="Trazado_116406" data-name="Trazado 116406" d="M772.607-279.951a1.818,1.818,0,0,0,1.615-1.973,1.819,1.819,0,0,0-1.615-1.969A1.818,1.818,0,0,0,771-281.924,1.818,1.818,0,0,0,772.607-279.951Z" fill="#d3b395"/>
      <path id="Trazado_116407" data-name="Trazado 116407" d="M784.145-279.951a1.818,1.818,0,0,0,1.612-1.973,1.819,1.819,0,0,0-1.612-1.969,1.82,1.82,0,0,0-1.611,1.969A1.82,1.82,0,0,0,784.145-279.951Z" fill="#d3b395"/>
      <path id="Trazado_116408" data-name="Trazado 116408" d="M793.031-282.781a1.818,1.818,0,0,0,1.613-1.971,1.818,1.818,0,0,0-1.613-1.973,1.819,1.819,0,0,0-1.61,1.973A1.819,1.819,0,0,0,793.031-282.781Z" fill="#d3b395"/>
      <path id="Trazado_116409" data-name="Trazado 116409" d="M778.38-286.725a1.819,1.819,0,0,0,1.611-1.975,1.819,1.819,0,0,0-1.611-1.971,1.82,1.82,0,0,0-1.612,1.971A1.821,1.821,0,0,0,778.38-286.725Z" fill="#d3b395"/>
      <path id="Trazado_116410" data-name="Trazado 116410" d="M788.515-288.7a1.818,1.818,0,0,0,1.61-1.971,1.818,1.818,0,0,0-1.61-1.973,1.818,1.818,0,0,0-1.611,1.973A1.818,1.818,0,0,0,788.515-288.7Z" fill="#d3b395"/>
      <path id="Trazado_116411" data-name="Trazado 116411" d="M789.343-301.88c1.147,0,2.078-.666,2.078-1.49s-.931-1.489-2.078-1.489-2.08.666-2.08,1.489S788.194-301.88,789.343-301.88Z" fill="#fde3ce"/>
      <path id="Trazado_116412" data-name="Trazado 116412" d="M816.606-273.218c-1.192-2.04-5.43-1.883-9.663.294-.212.109-.426.22-.636.338-.259.147-.511.3-.756.456q-.476.3-.916.608h0c-.126.093-.249.188-.372.274l-6.83,4.748-11.189,7.775a39.364,39.364,0,0,0-3.617,6.526l3.36-1.5,12.915-5.769,8.931-3.983a17.273,17.273,0,0,0,2.06-.854l.248-.1-.014-.018c.239-.119.479-.247.72-.382.288-.162.567-.327.837-.5-.044-.076-.083-.157-.127-.232a21.152,21.152,0,0,0-1.273-1.922c-.189.115-.377.23-.573.341-2.7,1.522-5.333,2.009-5.868,1.09s1.183-2.849,3.831-4.364c.03-.02.062-.034.093-.052s.04-.022.058-.034a.714.714,0,0,1,.21-.6.743.743,0,0,1,1.026-.016l0,0c2.2-.988,4.124-1.21,4.572-.44.406.694-.5,2-2.137,3.245a21.415,21.415,0,0,1,1.343,2.037,1.119,1.119,0,0,1,.063.112C816.034-268.515,817.651-271.424,816.606-273.218Z" fill="#c9c9c9"/>
      <path id="Trazado_116413" data-name="Trazado 116413" d="M786.24-258.725l-6.367,4.123-2.787,1.8-21.929,14.184L782.623-252.2A39.364,39.364,0,0,1,786.24-258.725Z" fill="#a6a6a6"/>
      <path id="Trazado_116414" data-name="Trazado 116414" d="M811.494-268.3a23.233,23.233,0,0,0-2.415-2.781v0c-.006-.006-.018-.012-.022-.016a.743.743,0,0,0-1.026.016.714.714,0,0,0-.21.6.693.693,0,0,0,.21.424h0a22.3,22.3,0,0,1,2.249,2.595,21.152,21.152,0,0,1,1.273,1.922c.044.075.083.156.127.232a14.671,14.671,0,0,1,1.723,4.532,21.335,21.335,0,0,1,.331,3.746,24.43,24.43,0,0,1-3.134,11.674,32.557,32.557,0,0,1-7.906,9.445.724.724,0,0,0-.095,1.028.752.752,0,0,0,1.046.087,33.935,33.935,0,0,0,8.262-9.875,25.826,25.826,0,0,0,3.307-12.359,22.808,22.808,0,0,0-.349-3.995,16.353,16.353,0,0,0-1.965-5.124,1.119,1.119,0,0,0-.063-.112A21.415,21.415,0,0,0,811.494-268.3Z" fill="#f28c5e"/>
    </g>
    <g id="Grupo_69605" data-name="Grupo 69605">
      <path id="Trazado_116415" data-name="Trazado 116415" d="M827.435-209.708v7.928c.831-.239,1.555-2.189,1.655-4.6.113-2.59-.538-4.719-1.446-4.76a.571.571,0,0,0-.209.032Z" fill="none"/>
      <path id="Trazado_116416" data-name="Trazado 116416" d="M809.038-207.053a124.968,124.968,0,0,1-12.682,8.846v3.092a128.586,128.586,0,0,0,15.434-10.3Q810.367-206.243,809.038-207.053Z" fill="#ddad77"/>
      <path id="Trazado_116417" data-name="Trazado 116417" d="M826.388-170.894c.344.19.7.382,1.047.569v-2.409c-.246-.142-.489-.285-.732-.426Z" fill="#ddad77"/>
      <path id="Trazado_116418" data-name="Trazado 116418" d="M813.607-204.376a129.607,129.607,0,0,1-17.251,11.485v2.989a132.772,132.772,0,0,0,20.21-12.858Q815.046-203.567,813.607-204.376Z" fill="#ddad77"/>
      <path id="Trazado_116419" data-name="Trazado 116419" d="M826.263-202.807c.253.649.592,1.037.976,1.054a.6.6,0,0,0,.2-.027v-.531C827.04-202.475,826.651-202.638,826.263-202.807Z" fill="#ddad77"/>
      <path id="Trazado_116420" data-name="Trazado 116420" d="M818.453-201.78a135.018,135.018,0,0,1-22.1,14.058V-185a137.262,137.262,0,0,0,25.061-15.313Q819.908-201.033,818.453-201.78Z" fill="#ddad77"/>
      <path id="Trazado_116421" data-name="Trazado 116421" d="M825.8-166.708h1.632v-1.418q-.673-.36-1.332-.719Z" fill="#ddad77"/>
      <path id="Trazado_116422" data-name="Trazado 116422" d="M826.056-213.291a144.671,144.671,0,0,1-22.675-13.578h-5.306a141.376,141.376,0,0,0,26.45,15.883A6.362,6.362,0,0,1,826.056-213.291Z" fill="#ddad77"/>
      <path id="Trazado_116423" data-name="Trazado 116423" d="M805.312-211.843a.892.892,0,0,1,.121.192,139.089,139.089,0,0,0,18.357,10.314l-.14-2.618a143.333,143.333,0,0,1-27.294-16.487v2.214c1.269,1.026,4.164,3.276,8.267,6.031A1.013,1.013,0,0,1,805.312-211.843Z" fill="#ddad77"/>
      <path id="Trazado_116424" data-name="Trazado 116424" d="M796.356-215.759v9.339c2.139-1.444,4.3-3,6.442-4.671C800-212.995,797.806-214.635,796.356-215.759Z" fill="#ddad77"/>
      <path id="Trazado_116425" data-name="Trazado 116425" d="M823.574-206.454a14.612,14.612,0,0,1,.357-2.674,143.329,143.329,0,0,1-27.575-16.614v2.83a140.418,140.418,0,0,0,27.208,16.792C823.567-206.231,823.57-206.341,823.574-206.454Z" fill="#ddad77"/>
      <path id="Trazado_116426" data-name="Trazado 116426" d="M827.435-207.614q-.734-.3-1.455-.612a12.2,12.2,0,0,0-.187,1.713,12.082,12.082,0,0,0,.013,1.4c.538.236,1.083.472,1.629.7Z" fill="#ddad77"/>
      <path id="Trazado_116427" data-name="Trazado 116427" d="M804.492-209.947c-2.7,2.124-5.444,4.08-8.136,5.856v3.608a123.363,123.363,0,0,0,10.931-7.659C806.309-208.757,805.378-209.362,804.492-209.947Z" fill="#ddad77"/>
      <path id="Trazado_116428" data-name="Trazado 116428" d="M827.435-211.1a1.765,1.765,0,0,0-.894,1.012c.3.128.594.258.894.384Z" fill="#ddad77"/>
      <path id="Trazado_116429" data-name="Trazado 116429" d="M826.993-175.234l.442.262v-2.314c-.047-.026-.094-.056-.145-.088Z" fill="#ddad77"/>
      <path id="Trazado_116430" data-name="Trazado 116430" d="M805.251-182.707a.918.918,0,0,1-.138-.148c-1.342.686-2.6,1.3-3.768,1.859a139.81,139.81,0,0,0,22.008,14.288h2.308l-.132-2.448A137.822,137.822,0,0,1,805.251-182.707Z" fill="#ddad77"/>
      <path id="Trazado_116431" data-name="Trazado 116431" d="M819.223-191.08c.768.624,2.621,2.1,5.339,4.04l-.137-2.526c-1.65-1.222-2.836-2.164-3.475-2.683Q820.083-191.652,819.223-191.08Z" fill="#ddad77"/>
      <path id="Trazado_116432" data-name="Trazado 116432" d="M817.521-189.971c-.885.57-1.767,1.12-2.637,1.656,1.64,1.3,5.151,3.982,10,7.129l-.182-3.384c-4.468-3.118-7.092-5.327-7.153-5.377Z" fill="#ddad77"/>
      <path id="Trazado_116433" data-name="Trazado 116433" d="M811.146-186.11a133.137,133.137,0,0,0,14,9.763l-.135-2.45a131.767,131.767,0,0,1-11.893-8.457Q812.114-186.663,811.146-186.11Z" fill="#ddad77"/>
      <path id="Trazado_116434" data-name="Trazado 116434" d="M824.289-192.094l-.134-2.442c-.515.384-1.037.76-1.554,1.129C823.024-193.068,823.594-192.623,824.289-192.094Z" fill="#ddad77"/>
      <path id="Trazado_116435" data-name="Trazado 116435" d="M823.909-199.157c-.176-.075-.352-.155-.526-.232a138.6,138.6,0,0,1-27.027,16.527v2.015a140.623,140.623,0,0,0,27.676-16.016Z" fill="#ddad77"/>
      <path id="Trazado_116436" data-name="Trazado 116436" d="M799.416-180.1c-1.171.533-2.2.987-3.06,1.355v.2A139.839,139.839,0,0,0,814-166.708h5.287a136.652,136.652,0,0,1-19.742-13.256A.97.97,0,0,1,799.416-180.1Z" fill="#ddad77"/>
      <path id="Trazado_116437" data-name="Trazado 116437" d="M827.435-214.776v-12.093H806.71A141.513,141.513,0,0,0,827.435-214.776Z" fill="#ddad77"/>
      <path id="Trazado_116438" data-name="Trazado 116438" d="M809.336-185.1q-1.216.677-2.368,1.283a137.361,137.361,0,0,0,18.439,12.374l-.14-2.567A132.5,132.5,0,0,1,809.434-185,1.289,1.289,0,0,1,809.336-185.1Z" fill="#ddad77"/>
      <path id="Trazado_116439" data-name="Trazado 116439" d="M796.356-176.077v9.369h13.795A142.327,142.327,0,0,1,796.356-176.077Z" fill="#ddad77"/>
      <path id="Trazado_116440" data-name="Trazado 116440" d="M804.551-231.933v5.065h14.587v-5.065Z" fill="#95424f"/>
      <path id="Trazado_116441" data-name="Trazado 116441" d="M810.151-166.708h-5.6v5.067h14.588v-5.067h-8.986Z" fill="#95424f"/>
      <g id="Grupo_69604" data-name="Grupo 69604">
        <path id="Trazado_116442" data-name="Trazado 116442" d="M825.98-208.226q.72.309,1.455.612v-2.094c-.3-.126-.6-.256-.894-.384A7.563,7.563,0,0,0,825.98-208.226Z" fill="#ffc587"/>
        <path id="Trazado_116443" data-name="Trazado 116443" d="M824.525-210.986a141.376,141.376,0,0,1-26.45-15.883h-1.719v1.127a143.329,143.329,0,0,0,27.575,16.614A11.937,11.937,0,0,1,824.525-210.986Z" fill="#ffc587"/>
        <path id="Trazado_116444" data-name="Trazado 116444" d="M806.71-226.869h-3.329a144.671,144.671,0,0,0,22.675,13.578,2.573,2.573,0,0,1,1.379-.678v-.807A141.513,141.513,0,0,1,806.71-226.869Z" fill="#ffc587"/>
        <path id="Trazado_116445" data-name="Trazado 116445" d="M826.263-202.807c.388.169.777.332,1.172.5v-2.1c-.546-.229-1.091-.465-1.629-.7A7.838,7.838,0,0,0,826.263-202.807Z" fill="#ffc587"/>
        <path id="Trazado_116446" data-name="Trazado 116446" d="M823.624-204.407c-.01-.127-.023-.253-.03-.386v0c-.03-.43-.039-.872-.03-1.324a140.418,140.418,0,0,1-27.208-16.792v2.47a143.333,143.333,0,0,0,27.294,16.487Z" fill="#ffc587"/>
        <path id="Trazado_116447" data-name="Trazado 116447" d="M823.909-199.157l-.047-.841-.032-.616-.04-.723a139.089,139.089,0,0,1-18.357-10.314.892.892,0,0,0-.121-.192,1.013,1.013,0,0,0-.689-.354c-4.1-2.755-7-5-8.267-6.031v2.469c1.45,1.124,3.647,2.764,6.442,4.668-2.14,1.67-4.3,3.227-6.442,4.671v2.329c2.692-1.776,5.437-3.732,8.136-5.856.886.585,1.817,1.19,2.795,1.805a123.363,123.363,0,0,1-10.931,7.659v2.276a124.968,124.968,0,0,0,12.682-8.846q1.327.81,2.752,1.641a128.586,128.586,0,0,1-15.434,10.3v2.224a129.607,129.607,0,0,0,17.251-11.485q1.437.806,2.959,1.616a132.772,132.772,0,0,1-20.21,12.858v2.18a135.018,135.018,0,0,0,22.1-14.058q1.452.745,2.964,1.47A137.262,137.262,0,0,1,796.356-185v2.135a138.6,138.6,0,0,0,27.027-16.527C823.557-199.312,823.733-199.232,823.909-199.157Z" fill="#ffc587"/>
        <path id="Trazado_116448" data-name="Trazado 116448" d="M827.435-177.286V-178.4l-.145,1.025C827.341-177.342,827.388-177.312,827.435-177.286Z" fill="#ffc587"/>
        <path id="Trazado_116449" data-name="Trazado 116449" d="M826.7-173.16c.243.141.486.284.732.426v-2.238l-.442-.262Z" fill="#ffc587"/>
        <path id="Trazado_116450" data-name="Trazado 116450" d="M805.251-182.707a137.822,137.822,0,0,0,20.278,13.551l-.122-2.287a137.361,137.361,0,0,1-18.439-12.374q1.15-.606,2.368-1.283a1.289,1.289,0,0,0,.1.1,132.5,132.5,0,0,0,15.833,10.992l-.125-2.337a133.137,133.137,0,0,1-14-9.763q.969-.554,1.968-1.144a131.767,131.767,0,0,0,11.893,8.457l-.128-2.389c-4.844-3.147-8.355-5.831-10-7.129.87-.536,1.752-1.086,2.637-1.656l.023.024c.061.05,2.685,2.259,7.153,5.377l-.081-1.5-.054-.969c-2.718-1.941-4.571-3.416-5.339-4.04q.858-.571,1.727-1.169c.639.519,1.825,1.461,3.475,2.683l-.136-2.528c-.7-.529-1.265-.974-1.688-1.313.517-.369,1.039-.745,1.554-1.129l-.123-2.327a140.623,140.623,0,0,1-27.676,16.016v2.106c.861-.368,1.889-.822,3.06-1.355a.97.97,0,0,0,.126.132,136.652,136.652,0,0,0,19.742,13.256h4.069A139.81,139.81,0,0,1,801.345-181c1.165-.555,2.426-1.173,3.768-1.859A.918.918,0,0,0,805.251-182.707Z" fill="#ffc587"/>
        <path id="Trazado_116451" data-name="Trazado 116451" d="M826.1-168.845q.657.36,1.332.719v-2.2c-.352-.187-.7-.379-1.047-.569Z" fill="#ffc587"/>
        <path id="Trazado_116452" data-name="Trazado 116452" d="M796.356-176.077a142.327,142.327,0,0,0,13.795,9.369H814a139.839,139.839,0,0,1-17.641-11.834Z" fill="#ffc587"/>
      </g>
      <path id="Trazado_116453" data-name="Trazado 116453" d="M827.768-213.987a1.84,1.84,0,0,0-.333.018,2.566,2.566,0,0,0-1.379.678,6.362,6.362,0,0,0-1.531,2.305,11.669,11.669,0,0,0-.591,1.858,14.523,14.523,0,0,0-.36,2.674c0,.113-.007.223-.01.334q-.015.678.031,1.324v0c0,.133.019.259.029.386l.026.456.14,2.619.042.724.03.61.047.843.123,2.292.125,2.327.132,2.442.136,2.528.137,2.526.054.969a32.8,32.8,0,0,0,3.123,5.5l3.183-22.821a13.742,13.742,0,0,0,.307-1.837l.039-.22-.016,0c.017-.228.034-.454.044-.683C831.476-210.379,829.9-213.9,827.768-213.987Zm1.322,7.611c-.1,2.4-.824,4.357-1.655,4.6a.583.583,0,0,1-.2.027c-.384-.017-.723-.4-.976-1.05a7.988,7.988,0,0,1-.46-2.305,13.875,13.875,0,0,1-.014-1.4,13.142,13.142,0,0,1,.191-1.713,7.7,7.7,0,0,1,.561-1.868,1.766,1.766,0,0,1,.894-1.01.445.445,0,0,1,.209-.027C828.552-211.094,829.2-208.969,829.09-206.376Z" fill="#c9c9c9"/>
      <path id="Trazado_116454" data-name="Trazado 116454" d="M824.616-186.071l.081,1.5.182,3.384.128,2.389.135,2.45.125,2.337.14,2.567.122,2.287.132,2.448.04.732.1-.732.3-2.137.285-2.049.315-2.266.29-2.074.3-2.14.145-1.025.3-2.181A32.514,32.514,0,0,1,824.616-186.071Z" fill="#a6a6a6"/>
    </g>
    <g id="Grupo_69646" data-name="Grupo 69646">
      <g id="Grupo_69606" data-name="Grupo 69606">
        <path id="Trazado_116455" data-name="Trazado 116455" d="M655.184-229.12c1.849-.164,3.32,1.043,4.64,2.783,10.4,13.368,20.3,26.77,28.408,40.3.968,2.978,2.7,4.876,5.2,5.658,2.39,1.108,3.642,4.032,3.806,8.694l-.9,19.127a137.491,137.491,0,0,1-7.362,35.3,13.1,13.1,0,0,1-5.314,5.66,11.538,11.538,0,0,1-7.692,1.947c-11.891-.439-23.634.537-35.535,1.8-3.257-.013-5.076-1.985-5.6-5.718l.222-9.249c.065-5.341-2.143-8.164-5.064-10.195a9.715,9.715,0,0,1-4.563-6.341c2.676-31.141,13.777-60,27.621-88.114A2.492,2.492,0,0,1,655.184-229.12Zm6.422,71.437c-.315.62-1.665,6.752-2.06,8.3s1.209,6.454,1.282,7.465,3,5.223,3.542,6.081a39.657,39.657,0,0,0,4.795,4.761c.852.627,5.817,1.972,7.292,2.138s2.724-1.154,3.507-2.316,2.453-9.077,3.412-14.043-.179-10.414-5.967-18.6-11.751-2.767-11.717-3.01C665.772-167.452,661.92-158.3,661.606-157.683Z" fill="#d6d6d5" fill-rule="evenodd"/>
      </g>
      <g id="Grupo_69607" data-name="Grupo 69607">
        <path id="Trazado_116456" data-name="Trazado 116456" d="M661.984-223.437c-6.41,10.135-10.213,21.662-12.163,34.919-1.481,14.294-1.609,28.754,1.4,43.591,2.018,7.577,4.485,14.578,9.007,18.963,3.8,3.317,7.95,3.453,12.462.322a17.532,17.532,0,0,0,4.939-6.235c-5.683-7.834-6.327-20.736-4.419-35.914a13.7,13.7,0,0,0-4.626-1.2c-2.576-.436-4.4-2.214-5.6-4.936-4.845-10.227-5.028-20.752-2.36-31.458,1.519-6.72,3.527-10.782,6.037-11.9Z" fill="#52b6bc" fill-rule="evenodd"/>
      </g>
      <g id="Grupo_69608" data-name="Grupo 69608">
        <path id="Trazado_116457" data-name="Trazado 116457" d="M688.042-186.26c-3.986-2.928-7.122.579-6.85,6.047.227,2.392-.219,4.338-1.929,4.82-1.1.357-2.193-.14-3.285-1.176-8.047-6.66-11.248-12.99-10.462-18.543.257-5.991,4.96-14.758,7.908-12.851A222.332,222.332,0,0,1,688.042-186.26Z" fill="#54b6ba" fill-rule="evenodd"/>
      </g>
      <g id="Grupo_69609" data-name="Grupo 69609">
        <path id="Trazado_116458" data-name="Trazado 116458" d="M673.068-166.916c2.337,1.468,2.122,7.505-.481,13.473s-6.613,9.622-8.953,8.157-2.123-7.505.481-13.473S670.728-168.381,673.068-166.916Z" fill="#607a7d" fill-rule="evenodd"/>
      </g>
      <g id="Grupo_69612" data-name="Grupo 69612">
        <g id="Grupo_69610" data-name="Grupo 69610">
          <path id="Trazado_116459" data-name="Trazado 116459" d="M697.147-171.388l4.283,2.782a1.934,1.934,0,0,1,.57.67,32.286,32.286,0,0,0-5.96,6.664,33.5,33.5,0,0,1-7.146-3.943A12.111,12.111,0,0,0,697.147-171.388Z" fill="#57b8bf" fill-rule="evenodd"/>
        </g>
        <g id="Grupo_69611" data-name="Grupo 69611">
          <path id="Trazado_116460" data-name="Trazado 116460" d="M701.979-167.975a2.17,2.17,0,0,1,.214,1.237l.023,0a29.136,29.136,0,0,1-.715,7.907,8.072,8.072,0,0,1-2.374,3.974,7.529,7.529,0,0,1-3.016,2.013c-.72.4-.879-.133-.9-1.093l.688-7.276A27.4,27.4,0,0,1,701.979-167.975Z" fill="#6cc1cc" fill-rule="evenodd"/>
        </g>
      </g>
      <g id="Grupo_69613" data-name="Grupo 69613">
        <path id="Trazado_116461" data-name="Trazado 116461" d="M695.532-152.781a8.415,8.415,0,0,1-5.333-1.982c-1.877-2.586-1.26-6.995-1.342-10.475L696-161.353A32.747,32.747,0,0,0,695.532-152.781Z" fill="#3aabae" fill-rule="evenodd"/>
      </g>
      <g id="Grupo_69614" data-name="Grupo 69614">
        <path id="Trazado_116462" data-name="Trazado 116462" d="M675.282-166.574c5.091,2.716,9.475,8.345,9.745,20.912a64.391,64.391,0,0,1-7.9,29.773,5.791,5.791,0,0,1-3.888,2.476l-5.908.371a14.15,14.15,0,0,1,.718-5.539,16.585,16.585,0,0,1,4.746-7.04q7.588-7.5,7.766-17.31C681.073-154.265,678.926-161.554,675.282-166.574Z" fill="#3aabae" fill-rule="evenodd"/>
      </g>
      <g id="Grupo_69615" data-name="Grupo 69615">
        <path id="Trazado_116463" data-name="Trazado 116463" d="M656.078-228.969l-1.136-4.772c-.374-1.89-1.989-2.959-3.432-.662-19.778,36.264-29.842,68.247-30.738,96.258-.191,2.013,1.7,3.089,2.839,1.745l2.279-3.234C634.023-169.9,644.219-199.173,656.078-228.969Z" fill="#d6d6d5" fill-rule="evenodd"/>
      </g>
      <g id="Grupo_69616" data-name="Grupo 69616">
        <path id="Trazado_116464" data-name="Trazado 116464" d="M622.286-136.165c.012-11.689,2.286-23.411,5.027-35.143a268.007,268.007,0,0,1,25.717-62.873l.737-1.113c-.807-1.468-2.319-.719-3.073.892-17.393,31.849-29.225,63.8-30.636,95.854C620.088-136.994,620.787-136.153,622.286-136.165Z" fill="#6c6d6d" fill-rule="evenodd"/>
      </g>
      <g id="Grupo_69617" data-name="Grupo 69617">
        <path id="Trazado_116465" data-name="Trazado 116465" d="M661.5-224.115c-10.131,12.586-25.551,60.478-24.6,89.028.025,1.73.375,2.922,1.668,3.487a5.907,5.907,0,0,1,3.284,5.836l.429,9.465c.273,3.589,2.62,5.32,7.784,4.533l17.18-1.38a38.467,38.467,0,0,0,10.716-4.3c3.532-.81,7.938-3.345,13.671-8.5-.841,2.936-1.735,5.84-2.74,8.692-1.366,4.493-4.338,7.693-10.836,7.675-4.437-.152-8.842-.207-13.193-.1-8.4.17-23.58,1.737-24.167,1.87-3.7.1-5.72-1.987-5.859-5.682l.186-10.582a10.172,10.172,0,0,0-4.646-8.462,10.092,10.092,0,0,1-4.947-6.649c1.248-17.2,6.08-34.963,12.057-52.9a309.545,309.545,0,0,1,15.5-35.3c.948-2.281,3.715-2.463,6.154.225Z" fill="#52b6bb" fill-rule="evenodd"/>
      </g>
      <g id="Grupo_69618" data-name="Grupo 69618">
        <path id="Trazado_116466" data-name="Trazado 116466" d="M686.937-118.062a5.037,5.037,0,0,1-1.685,3.609c-.979.811-1.82.515-1.872-.664a5.047,5.047,0,0,1,1.688-3.607C686.047-119.535,686.887-119.239,686.937-118.062Z" fill="#1e8687" fill-rule="evenodd"/>
      </g>
      <g id="Grupo_69619" data-name="Grupo 69619">
        <path id="Trazado_116467" data-name="Trazado 116467" d="M684.66-116.589c.024-.047.05-.092.078-.138a1.811,1.811,0,0,1,2.493-.585c6.5,4.027,9.467,9.478,8.824,16.2a1.809,1.809,0,0,1-1.975,1.629,1.809,1.809,0,0,1-1.63-1.974c.508-5.313-1.823-9.493-7.127-12.78A1.811,1.811,0,0,1,684.66-116.589Z" fill="#d6d6d5"/>
      </g>
      <g id="Grupo_69620" data-name="Grupo 69620">
        <path id="Trazado_116468" data-name="Trazado 116468" d="M696.16-150.661c-3.282,2.706-5.643,7.129-6.465,12.993a92.56,92.56,0,0,0-1.962,12.086c-.208,1.331-.084,2.169.679,2.065,1.073-.155,2.153-1.4,3.235-2.629C693.972-134.914,695.656-142.651,696.16-150.661Z" fill="#efefef" fill-rule="evenodd"/>
      </g>
      <g id="Grupo_69621" data-name="Grupo 69621">
        <path id="Trazado_116469" data-name="Trazado 116469" d="M674.683-166.066c2.17,1.375,1.852,7.19-.717,12.977s-6.411,9.366-8.582,8-1.849-7.188.716-12.976S672.513-167.44,674.683-166.066Z" fill="#e6e6e6" fill-rule="evenodd"/>
      </g>
      <g id="Grupo_69622" data-name="Grupo 69622">
        <path id="Trazado_116470" data-name="Trazado 116470" d="M667.045-215.69l3.866.784L670.3-210.7l-.08.462a1.633,1.633,0,0,1-1.242.89,2.267,2.267,0,0,1-2.471-1.044.685.685,0,0,1-.066-.391l0-.241Z" fill="#f2f2f2" fill-rule="evenodd"/>
      </g>
      <g id="Grupo_69623" data-name="Grupo 69623">
        <path id="Trazado_116471" data-name="Trazado 116471" d="M670.894-215.8c.341.778-.207,1.572-1.225,1.771a2.261,2.261,0,0,1-2.468-1.043c-.346-.775.2-1.57,1.222-1.772A2.278,2.278,0,0,1,670.894-215.8Z" fill="#7c7777" fill-rule="evenodd"/>
      </g>
      <g id="Grupo_69624" data-name="Grupo 69624">
        <path id="Trazado_116472" data-name="Trazado 116472" d="M694.8-178.345a10.628,10.628,0,0,1-5.673,5.287,2.7,2.7,0,0,0-1.39,2.5l1.207,5.234a12.514,12.514,0,0,0,8.24-6.029,12.717,12.717,0,0,0-1.5-6.82C695.428-178.615,695.149-178.834,694.8-178.345Z" fill="#efefef" fill-rule="evenodd"/>
      </g>
      <g id="Grupo_69625" data-name="Grupo 69625">
        <path id="Trazado_116473" data-name="Trazado 116473" d="M668.789-204.872a1.823,1.823,0,0,1,.547-.643,1.812,1.812,0,0,1,2.531.4c4.7,6.439,8.4,11.94,11.628,17.311a1.81,1.81,0,0,1-.618,2.485,1.811,1.811,0,0,1-2.485-.618c-3.175-5.277-6.813-10.692-11.45-17.042A1.81,1.81,0,0,1,668.789-204.872Z" fill="#90d0e1"/>
      </g>
      <g id="Grupo_69626" data-name="Grupo 69626">
        <path id="Trazado_116474" data-name="Trazado 116474" d="M655.091-206.705a1.811,1.811,0,0,1,2.109-.922,1.811,1.811,0,0,1,1.248,2.236c-5.468,19.277-6.01,39.822-1.612,61.065a1.812,1.812,0,0,1-1.406,2.141,1.813,1.813,0,0,1-2.141-1.406c-4.517-21.82-3.954-42.945,1.675-62.788A1.825,1.825,0,0,1,655.091-206.705Z" fill="#90d0e1"/>
      </g>
      <g id="Grupo_69627" data-name="Grupo 69627">
        <path id="Trazado_116475" data-name="Trazado 116475" d="M638.9-180.845a1.811,1.811,0,0,1,2.136-.914,1.811,1.811,0,0,1,1.213,2.255,173.463,173.463,0,0,0-6.794,36.482,1.812,1.812,0,0,1-1.95,1.661,1.811,1.811,0,0,1-1.66-1.95,176.965,176.965,0,0,1,6.936-37.235A1.772,1.772,0,0,1,638.9-180.845Z" fill="#90d0e1"/>
      </g>
      <g id="Grupo_69628" data-name="Grupo 69628">
        <path id="Trazado_116476" data-name="Trazado 116476" d="M685.74-152.218a1.266,1.266,0,0,1,.86-.666,1.267,1.267,0,0,1,1.509.967c1.921,8.761-.935,22.825-4.6,31.61a1.27,1.27,0,0,1-1.658.682,1.266,1.266,0,0,1-.682-1.657c3.563-8.546,6.206-22.138,4.462-30.092A1.266,1.266,0,0,1,685.74-152.218Z" fill="#fff"/>
      </g>
      <g id="Grupo_69629" data-name="Grupo 69629">
        <path id="Trazado_116477" data-name="Trazado 116477" d="M682.145-185.245a1.785,1.785,0,0,1,.584-.669,1.809,1.809,0,0,1,2.519.457,60.263,60.263,0,0,1,3.24,5.149,1.811,1.811,0,0,1-.71,2.461,1.811,1.811,0,0,1-2.46-.71c-.793-1.436-1.818-3.064-3.047-4.838A1.808,1.808,0,0,1,682.145-185.245Z" fill="#efefef"/>
      </g>
      <g id="Grupo_69630" data-name="Grupo 69630">
        <path id="Trazado_116478" data-name="Trazado 116478" d="M653.33-225.813a1.841,1.841,0,0,1,.336-.463,1.811,1.811,0,0,1,2.561,0,59.394,59.394,0,0,1,7.211,8.9,1.81,1.81,0,0,1-.489,2.514,1.81,1.81,0,0,1-2.513-.489,55.9,55.9,0,0,0-6.771-8.367A1.812,1.812,0,0,1,653.33-225.813Z" fill="#90d0e1"/>
      </g>
      <g id="Grupo_69631" data-name="Grupo 69631">
        <path id="Trazado_116479" data-name="Trazado 116479" d="M694.653-162.359a17.768,17.768,0,0,1,5.493-6.4.724.724,0,0,1,1.007.187.724.724,0,0,1-.186,1.007,16.2,16.2,0,0,0-5.491,6.888,18.01,18.01,0,0,0-.664,7.08.725.725,0,0,1-.605.827.725.725,0,0,1-.827-.6,19.377,19.377,0,0,1,.7-7.7.73.73,0,0,1,.03-.094C694.274-161.571,694.454-161.967,694.653-162.359Z" fill="#2d9a9b"/>
      </g>
      <g id="Grupo_69632" data-name="Grupo 69632">
        <path id="Trazado_116480" data-name="Trazado 116480" d="M677.408-131.8c-2.653-2.536-3.279-4.452-4.093-7.966-.339-1.377-1.173-1.966-2.708-1.436-3.756,1.638-7.538,3.263-11.21,4.943a2.976,2.976,0,0,0-1.347,3.751c3,6.416,7.8,9.615,14.312,6.808A20.991,20.991,0,0,0,677.408-131.8Z" fill="#299a9b" fill-rule="evenodd"/>
      </g>
      <g id="Grupo_69633" data-name="Grupo 69633">
        <path id="Trazado_116481" data-name="Trazado 116481" d="M635.087-130.453a1.806,1.806,0,0,1,.551-.645,1.81,1.81,0,0,1,2.529.4,9.149,9.149,0,0,1,1.877,5.029c0,.045,0,.09,0,.135a106.633,106.633,0,0,0,.456,13.226,1.811,1.811,0,0,1-1.623,1.981,1.811,1.811,0,0,1-1.981-1.623,110.233,110.233,0,0,1-.474-13.605,5.526,5.526,0,0,0-1.185-3.014A1.81,1.81,0,0,1,635.087-130.453Z" fill="#299a9b"/>
      </g>
      <g id="Grupo_69634" data-name="Grupo 69634">
        <path id="Trazado_116482" data-name="Trazado 116482" d="M641.539-158.388a1.811,1.811,0,0,1,1.614-.994,1.811,1.811,0,0,1,1.813,1.809c.02,14.518,2.524,25.511,7.879,34.594a1.811,1.811,0,0,1-.64,2.48,1.812,1.812,0,0,1-2.48-.64c-5.7-9.663-8.359-21.238-8.381-36.429A1.806,1.806,0,0,1,641.539-158.388Z" fill="#fff"/>
      </g>
      <g id="Grupo_69635" data-name="Grupo 69635">
        <path id="Trazado_116483" data-name="Trazado 116483" d="M663.658-203.277a1.811,1.811,0,0,1,2.28-.864,1.81,1.81,0,0,1,1.019,2.349c-4.065,10.3-1.473,17.07,9.905,25.869a1.81,1.81,0,0,1,.325,2.54,1.812,1.812,0,0,1-2.541.325c-12.638-9.774-15.738-18.2-11.057-30.064C663.61-203.175,663.633-203.227,663.658-203.277Z" fill="#fff"/>
      </g>
      <g id="Grupo_69636" data-name="Grupo 69636">
        <path id="Trazado_116484" data-name="Trazado 116484" d="M662.114-161.111a23.759,23.759,0,0,1,2.194-3.531.9.9,0,0,1,1.267-.182.905.905,0,0,1,.182,1.268,24.833,24.833,0,0,0-4.65,12.675.906.906,0,0,1-.995.806.905.905,0,0,1-.806-1A28.529,28.529,0,0,1,662.114-161.111Z" fill="#67c1d5"/>
      </g>
      <g id="Grupo_69637" data-name="Grupo 69637">
        <path id="Trazado_116485" data-name="Trazado 116485" d="M687.471-174.437a1.077,1.077,0,0,1,.52-.5,8.7,8.7,0,0,0,4.325-4.149l.008-.015a1.085,1.085,0,0,1,1.458-.479,1.086,1.086,0,0,1,.481,1.459l-.008.016a10.944,10.944,0,0,1-5.367,5.147,1.086,1.086,0,0,1-1.438-.541A1.085,1.085,0,0,1,687.471-174.437Z" fill="#afa3a4"/>
      </g>
      <g id="Grupo_69638" data-name="Grupo 69638">
        <path id="Trazado_116486" data-name="Trazado 116486" d="M673.085-160.794a.907.907,0,0,1,.987-.478.905.905,0,0,1,.709,1.066,26.576,26.576,0,0,1-6.255,13.043.9.9,0,0,1-1.279.061.9.9,0,0,1-.061-1.279,24.824,24.824,0,0,0,5.819-12.182A.926.926,0,0,1,673.085-160.794Z" fill="#44b2b7"/>
      </g>
      <g id="Grupo_69639" data-name="Grupo 69639">
        <path id="Trazado_116487" data-name="Trazado 116487" d="M658.807-200.141a.722.722,0,0,1,.718-.393.723.723,0,0,1,.649.792c-.886,8.96-.867,19.416,5.993,29.031A.724.724,0,0,1,666-169.7a.723.723,0,0,1-1.01-.169c-7.139-10-7.168-20.787-6.255-30.015A.71.71,0,0,1,658.807-200.141Z" fill="#299a9b"/>
      </g>
      <g id="Grupo_69640" data-name="Grupo 69640">
        <path id="Trazado_116488" data-name="Trazado 116488" d="M668.586-121.213a21.175,21.175,0,0,1,3.327-4.7c.012-.013.025-.026.038-.038a28.37,28.37,0,0,0,4.869-5.98.725.725,0,0,1,1-.242.727.727,0,0,1,.241.995,29.778,29.778,0,0,1-5.094,6.264c-3.217,3.519-4.685,7-4.62,10.954a.724.724,0,0,1-.712.736.723.723,0,0,1-.736-.712A15.275,15.275,0,0,1,668.586-121.213Z" fill="#1e8687"/>
      </g>
      <g id="Grupo_69641" data-name="Grupo 69641">
        <path id="Trazado_116489" data-name="Trazado 116489" d="M687.355-113.219a.363.363,0,0,1,.12-.136,3.534,3.534,0,0,0,1.486-2.212.361.361,0,0,1,.437-.267.362.362,0,0,1,.267.437,4.231,4.231,0,0,1-1.785,2.643.363.363,0,0,1-.5-.1A.362.362,0,0,1,687.355-113.219Z" fill="#aba6a6"/>
      </g>
      <g id="Grupo_69642" data-name="Grupo 69642">
        <path id="Trazado_116490" data-name="Trazado 116490" d="M689.292-111.4a.359.359,0,0,1,.187-.172,3.548,3.548,0,0,0,1.9-1.864.348.348,0,0,1,.482-.172.361.361,0,0,1,.172.482,4.236,4.236,0,0,1-2.286,2.225.362.362,0,0,1-.472-.2A.36.36,0,0,1,689.292-111.4Z" fill="#aba6a6"/>
      </g>
      <g id="Grupo_69643" data-name="Grupo 69643">
        <path id="Trazado_116491" data-name="Trazado 116491" d="M690.9-109.258a.362.362,0,0,1,.26-.193,3.519,3.519,0,0,0,2.25-1.423.362.362,0,0,1,.508-.069.362.362,0,0,1,.068.508,4.214,4.214,0,0,1-2.7,1.7.362.362,0,0,1-.42-.293A.365.365,0,0,1,690.9-109.258Z" fill="#aba6a6"/>
      </g>
      <g id="Grupo_69644" data-name="Grupo 69644">
        <path id="Trazado_116492" data-name="Trazado 116492" d="M692.02-106.744a.364.364,0,0,1,.353-.2,3.489,3.489,0,0,0,2.544-.8.363.363,0,0,1,.508.065.363.363,0,0,1-.065.508,4.233,4.233,0,0,1-3.046.953.361.361,0,0,1-.331-.39A.357.357,0,0,1,692.02-106.744Z" fill="#aba6a6"/>
      </g>
      <g id="Grupo_69645" data-name="Grupo 69645">
        <path id="Trazado_116493" data-name="Trazado 116493" d="M692.611-103.814a.364.364,0,0,1,.432-.182,3.515,3.515,0,0,0,2.653-.224.363.363,0,0,1,.481.175.361.361,0,0,1-.174.481,4.21,4.21,0,0,1-3.177.259.362.362,0,0,1-.237-.454A.449.449,0,0,1,692.611-103.814Z" fill="#aba6a6"/>
      </g>
    </g>
  </g>
</svg>
