<svg xmlns="http://www.w3.org/2000/svg" width="292" height="287.854" viewBox="0 0 292 287.854">
  <g id="Grupo_70038" data-name="Grupo 70038" transform="translate(-79.514 -69.979)">
    <g id="Grupo_69932" data-name="Grupo 69932" transform="translate(79.514 108.711)">
      <g id="Grupo_69655" data-name="Grupo 69655" transform="translate(17.641 115.137)">
        <g id="Grupo_69654" data-name="Grupo 69654">
          <line id="Línea_742" data-name="Línea 742" y1="124.633" fill="none" stroke="#a0a7b0" stroke-linecap="round" stroke-linejoin="round" stroke-width="3.47"/>
        </g>
      </g>
      <g id="Grupo_69657" data-name="Grupo 69657" transform="translate(52.979 115.137)">
        <g id="Grupo_69656" data-name="Grupo 69656">
          <line id="Línea_743" data-name="Línea 743" y2="124.633" fill="none" stroke="#a0a7b0" stroke-linecap="round" stroke-linejoin="round" stroke-width="3.47"/>
        </g>
      </g>
      <g id="Grupo_69921" data-name="Grupo 69921" transform="translate(0 0)">
        <g id="Grupo_69694" data-name="Grupo 69694" transform="translate(0 13.381)">
          <g id="Grupo_69659" data-name="Grupo 69659" transform="translate(2.456 0)">
            <g id="Grupo_69658" data-name="Grupo 69658">
              <rect id="Rectángulo_7202" data-name="Rectángulo 7202" width="16.016" height="211.728" transform="translate(0 2.506) rotate(-9)" fill="#d1d5d9"/>
            </g>
          </g>
          <g id="Grupo_69693" data-name="Grupo 69693" transform="translate(0 8.829)">
            <g id="Grupo_69661" data-name="Grupo 69661" transform="translate(0 0)">
              <g id="Grupo_69660" data-name="Grupo 69660">
                <rect id="Rectángulo_7203" data-name="Rectángulo 7203" width="24.024" height="192.585" transform="translate(0 3.758) rotate(-9)" fill="#929fb1"/>
              </g>
            </g>
            <g id="Grupo_69692" data-name="Grupo 69692" transform="translate(0 0.475)">
              <g id="Grupo_69663" data-name="Grupo 69663" transform="translate(18.833)">
                <g id="Grupo_69662" data-name="Grupo 69662">
                  <path id="Trazado_116494" data-name="Trazado 116494" d="M107.9,160.077l2.912,5.253,2.912,5.253.02.035-.824-5.2-.531-.958-2.912-5.253-.864-1.559-1.894.3Z" transform="translate(-106.714 -157.643)" fill="#fff"/>
                </g>
              </g>
              <g id="Grupo_69665" data-name="Grupo 69665" transform="translate(12.521 1)">
                <g id="Grupo_69664" data-name="Grupo 69664">
                  <path id="Trazado_116495" data-name="Trazado 116495" d="M99.839,163.433l2.912,5.253,2.912,5.253,2.912,5.253,2.912,5.253,2.2,3.962-.824-5.2-2.708-4.885-2.912-5.253-2.912-5.253-2.912-5.253-1.924-3.471-1.894.3Z" transform="translate(-97.597 -159.088)" fill="#fff"/>
                </g>
              </g>
              <g id="Grupo_69667" data-name="Grupo 69667" transform="translate(6.208 2)">
                <g id="Grupo_69666" data-name="Grupo 69666">
                  <path id="Trazado_116496" data-name="Trazado 116496" d="M88.87,161.535l2.912,5.253,2.912,5.253,2.912,5.253,2.912,5.253,2.912,5.253,2.912,5.253,2.912,5.253,2.912,5.253,1.461,2.635-.824-5.2-1.973-3.559-2.912-5.253L105,186.927l-2.912-5.253-2.912-5.253-2.912-5.253-2.912-5.253-2.912-5.253-.072-.13-1.894.3Z" transform="translate(-88.48 -160.532)" fill="#fff"/>
                </g>
              </g>
              <g id="Grupo_69669" data-name="Grupo 69669" transform="translate(0 3)">
                <g id="Grupo_69668" data-name="Grupo 69668">
                  <path id="Trazado_116497" data-name="Trazado 116497" d="M79.56,162.548l1.3,2.344,2.912,5.253,2.912,5.253,2.912,5.253,2.912,5.253,2.912,5.253,2.912,5.253,2.912,5.253,2.912,5.253,2.912,5.253,2.912,5.253,2.912,5.253.725,1.309-.824-5.2-1.237-2.232-2.912-5.253-2.912-5.253-2.912-5.253-2.912-5.253-2.912-5.253-2.912-5.253-2.912-5.253-2.912-5.253-2.912-5.253-2.912-5.253L81.3,161.975l-1.789.283Z" transform="translate(-79.514 -161.975)" fill="#fff"/>
                </g>
              </g>
              <g id="Grupo_69671" data-name="Grupo 69671" transform="translate(1.969 15.713)">
                <g id="Grupo_69670" data-name="Grupo 69670">
                  <path id="Trazado_116498" data-name="Trazado 116498" d="M110.086,230.36l-2.912-5.253-2.912-5.253-2.912-5.253-2.912-5.253-2.912-5.253-2.912-5.253L89.7,193.589l-2.912-5.253-2.912-5.253-1.523-2.747.824,5.2,2.034,3.67,2.912,5.253,2.912,5.253,2.912,5.253,2.912,5.253,2.912,5.253,2.912,5.253,2.912,5.253,2.912,5.253,2.912,5.253,2.912,5.253,2.9,5.235-.824-5.2-.5-.905L113,235.613Z" transform="translate(-82.358 -180.336)" fill="#fff"/>
                </g>
              </g>
              <g id="Grupo_69673" data-name="Grupo 69673" transform="translate(4.716 33.057)">
                <g id="Grupo_69672" data-name="Grupo 69672">
                  <path id="Trazado_116499" data-name="Trazado 116499" d="M114.789,256.736l-2.912-5.253-2.912-5.253-2.912-5.253-2.912-5.253-2.912-5.253-2.912-5.253-2.912-5.253-2.912-5.253-2.912-5.253-2.258-4.073.824,5.2,2.769,5,2.912,5.253,2.912,5.253,2.912,5.253,2.912,5.253,2.912,5.253,2.912,5.253,2.912,5.253,2.912,5.253,2.912,5.253,2.912,5.253,2.166,3.909-.824-5.2-2.678-4.832Z" transform="translate(-86.325 -205.386)" fill="#fff"/>
                </g>
              </g>
              <g id="Grupo_69675" data-name="Grupo 69675" transform="translate(7.463 50.401)">
                <g id="Grupo_69674" data-name="Grupo 69674">
                  <path id="Trazado_116500" data-name="Trazado 116500" d="M119.492,283.111l-2.912-5.253-2.912-5.253-2.912-5.253-2.912-5.253-2.912-5.253-2.912-5.253-2.912-5.253L96.2,241.088l-2.912-5.253-2.912-5.253-.081-.147.824,5.2.593,1.07,2.912,5.253,2.912,5.253,2.912,5.253,2.912,5.253,2.912,5.253,2.912,5.253,2.912,5.253L115,278.732l2.912,5.253,2.912,5.253,2.912,5.253,1.431,2.582-.824-5.2-1.943-3.505Z" transform="translate(-90.293 -230.435)" fill="#fff"/>
                </g>
              </g>
              <g id="Grupo_69677" data-name="Grupo 69677" transform="translate(10.21 67.745)">
                <g id="Grupo_69676" data-name="Grupo 69676">
                  <path id="Trazado_116501" data-name="Trazado 116501" d="M102.236,273.59l2.912,5.253,2.912,5.253,2.912,5.253,2.912,5.253,2.912,5.253,2.912,5.253,2.912,5.253,2.912,5.253,2.912,5.253.7,1.256-.824-5.2-1.208-2.179-2.912-5.253-2.912-5.253-2.912-5.253-2.912-5.253-2.912-5.253-2.912-5.253-2.912-5.253-2.912-5.253-2.912-5.253-2.912-5.253-2.912-5.253-.817-1.474.824,5.2,1.328,2.4,2.912,5.253Z" transform="translate(-94.26 -255.484)" fill="#fff"/>
                </g>
              </g>
              <g id="Grupo_69679" data-name="Grupo 69679" transform="translate(12.957 85.089)">
                <g id="Grupo_69678" data-name="Grupo 69678">
                  <path id="Trazado_116502" data-name="Trazado 116502" d="M104.027,294.713l2.912,5.253,2.912,5.253,2.912,5.253,2.912,5.253,2.912,5.253,2.912,5.253,2.912,5.253,2.912,5.253,2.912,5.253,2.873,5.182-.824-5.2-.472-.853-2.912-5.253-2.912-5.253-2.912-5.253-2.912-5.253-2.912-5.253-2.912-5.253-2.912-5.253-2.912-5.253-2.912-5.253-2.912-5.253-2.912-5.253-1.552-2.8.824,5.2,2.064,3.723Z" transform="translate(-98.227 -280.533)" fill="#fff"/>
                </g>
              </g>
              <g id="Grupo_69681" data-name="Grupo 69681" transform="translate(15.704 102.434)">
                <g id="Grupo_69680" data-name="Grupo 69680">
                  <path id="Trazado_116503" data-name="Trazado 116503" d="M108.73,321.088l2.912,5.253,2.912,5.253,2.912,5.253,2.912,5.253,2.912,5.253,2.912,5.253,2.912,5.253,2.912,5.253,2.912,5.253,2.137,3.856-.824-5.2-2.649-4.779-2.912-5.253-2.912-5.253-2.912-5.253-2.912-5.253-2.912-5.253-2.912-5.253-2.912-5.253-2.912-5.253-2.912-5.253-2.912-5.253-2.287-4.126.824,5.2,2.8,5.05Z" transform="translate(-102.195 -305.583)" fill="#fff"/>
                </g>
              </g>
              <g id="Grupo_69683" data-name="Grupo 69683" transform="translate(18.451 119.778)">
                <g id="Grupo_69682" data-name="Grupo 69682">
                  <path id="Trazado_116504" data-name="Trazado 116504" d="M140.216,392.067l-1.914-3.452-2.912-5.253-2.912-5.253-2.912-5.253-2.912-5.253-2.912-5.253-2.912-5.253-2.912-5.253-2.912-5.253-2.912-5.253-2.912-5.253-2.912-5.253-.111-.2.824,5.2.622,1.123,2.912,5.253,2.912,5.253,2.912,5.253,2.912,5.253,2.912,5.253,2.912,5.253,2.912,5.253,2.912,5.253,2.912,5.253,2.912,5.253,2.912,5.253,1.4,2.529Z" transform="translate(-106.162 -330.632)" fill="#fff"/>
                </g>
              </g>
              <g id="Grupo_69685" data-name="Grupo 69685" transform="translate(21.198 137.122)">
                <g id="Grupo_69684" data-name="Grupo 69684">
                  <path id="Trazado_116505" data-name="Trazado 116505" d="M137.182,404.484l-2.912-5.253-2.912-5.253-2.912-5.253-2.912-5.253-2.912-5.253-2.912-5.253-2.912-5.253-2.912-5.253-2.912-5.253-.846-1.526.824,5.2,1.358,2.45,2.912,5.253,2.912,5.253,2.912,5.253,2.912,5.253,2.912,5.253,2.912,5.253,2.912,5.253,2.912,5.253,2.078,3.749,1.894-.3Z" transform="translate(-110.13 -355.681)" fill="#fff"/>
                </g>
              </g>
              <g id="Grupo_69687" data-name="Grupo 69687" transform="translate(23.945 154.466)">
                <g id="Grupo_69686" data-name="Grupo 69686">
                  <path id="Trazado_116506" data-name="Trazado 116506" d="M133.149,415.1l-2.912-5.253-2.912-5.253-2.912-5.253-2.912-5.253-2.912-5.253-2.912-5.253L114.1,380.73l.824,5.2,2.093,3.776,2.912,5.253,2.912,5.253,2.912,5.253,2.912,5.253,2.912,5.253,1.018,1.837,1.894-.3Z" transform="translate(-114.097 -380.73)" fill="#fff"/>
                </g>
              </g>
              <g id="Grupo_69689" data-name="Grupo 69689" transform="translate(26.692 171.81)">
                <g id="Grupo_69688" data-name="Grupo 69688">
                  <path id="Trazado_116507" data-name="Trazado 116507" d="M129.393,426.216l-.277-.5-2.912-5.253-2.912-5.253-2.912-5.253-2.317-4.179.824,5.2,2.828,5.1,2.912,5.253,2.871,5.178Z" transform="translate(-118.064 -405.779)" fill="#fff"/>
                </g>
              </g>
              <g id="Grupo_69691" data-name="Grupo 69691" transform="translate(29.439 189.154)">
                <g id="Grupo_69690" data-name="Grupo 69690">
                  <path id="Trazado_116508" data-name="Trazado 116508" d="M122.032,430.828l.688,4.343,1.581-.25-2.129-3.84Z" transform="translate(-122.032 -430.828)" fill="#fff"/>
                </g>
              </g>
            </g>
          </g>
        </g>
        <g id="Grupo_69872" data-name="Grupo 69872" transform="translate(19.135)">
          <g id="Grupo_69696" data-name="Grupo 69696" transform="translate(3.666)">
            <g id="Grupo_69695" data-name="Grupo 69695" transform="translate(0)">
              <rect id="Rectángulo_7204" data-name="Rectángulo 7204" width="16.016" height="211.728" transform="translate(0 0.559) rotate(-2)" fill="#d1d5d9"/>
            </g>
          </g>
          <g id="Grupo_69871" data-name="Grupo 69871" transform="translate(0 9.427)">
            <g id="Grupo_69699" data-name="Grupo 69699" transform="translate(0 0)">
              <g id="Grupo_69698" data-name="Grupo 69698">
                <g id="Grupo_69697" data-name="Grupo 69697">
                  <rect id="Rectángulo_7205" data-name="Rectángulo 7205" width="24.024" height="192.585" transform="matrix(0.999, -0.035, 0.035, 0.999, 0, 0.838)" fill="#ffb0c8"/>
                </g>
              </g>
            </g>
            <g id="Grupo_69870" data-name="Grupo 69870" transform="translate(0.233 1.109)">
              <g id="Grupo_69701" data-name="Grupo 69701" transform="translate(15.414)">
                <g id="Grupo_69700" data-name="Grupo 69700">
                  <path id="Trazado_116509" data-name="Trazado 116509" d="M130.285,140.734a2,2,0,1,0,2.83-.1A2,2,0,0,0,130.285,140.734Z" transform="translate(-129.747 -140.098)" fill="#fff"/>
                </g>
              </g>
              <g id="Grupo_69703" data-name="Grupo 69703" transform="translate(21.27 5.469)">
                <g id="Grupo_69702" data-name="Grupo 69702">
                  <path id="Trazado_116510" data-name="Trazado 116510" d="M138.744,148.626a2,2,0,0,0,2.33,3.159l-.127-3.643A1.992,1.992,0,0,0,138.744,148.626Z" transform="translate(-138.206 -147.997)" fill="#fff"/>
                </g>
              </g>
              <g id="Grupo_69705" data-name="Grupo 69705" transform="translate(4.095 0.395)">
                <g id="Grupo_69704" data-name="Grupo 69704">
                  <path id="Trazado_116511" data-name="Trazado 116511" d="M113.938,141.305a2,2,0,1,0,2.831-.1A2,2,0,0,0,113.938,141.305Z" transform="translate(-113.401 -140.668)" fill="#fff"/>
                </g>
              </g>
              <g id="Grupo_69707" data-name="Grupo 69707" transform="translate(9.952 5.857)">
                <g id="Grupo_69706" data-name="Grupo 69706">
                  <path id="Trazado_116512" data-name="Trazado 116512" d="M122.4,149.193a2,2,0,1,0,2.83-.1A2,2,0,0,0,122.4,149.193Z" transform="translate(-121.859 -148.556)" fill="#fff"/>
                </g>
              </g>
              <g id="Grupo_69709" data-name="Grupo 69709" transform="translate(15.809 11.318)">
                <g id="Grupo_69708" data-name="Grupo 69708">
                  <path id="Trazado_116513" data-name="Trazado 116513" d="M130.856,157.08a2,2,0,1,0,2.829-.1A2,2,0,0,0,130.856,157.08Z" transform="translate(-130.318 -156.444)" fill="#fff"/>
                </g>
              </g>
              <g id="Grupo_69711" data-name="Grupo 69711" transform="translate(21.666 16.787)">
                <g id="Grupo_69710" data-name="Grupo 69710">
                  <path id="Trazado_116514" data-name="Trazado 116514" d="M139.314,164.972a2,2,0,0,0,2.331,3.159l-.127-3.643A1.993,1.993,0,0,0,139.314,164.972Z" transform="translate(-138.776 -164.343)" fill="#fff"/>
                </g>
              </g>
              <g id="Grupo_69713" data-name="Grupo 69713" transform="translate(0 6.272)">
                <g id="Grupo_69712" data-name="Grupo 69712">
                  <path id="Trazado_116515" data-name="Trazado 116515" d="M107.486,149.268l.132,3.78a1.981,1.981,0,0,0,1.969-.544,2,2,0,0,0-.1-2.83A1.979,1.979,0,0,0,107.486,149.268Z" transform="translate(-107.486 -149.157)" fill="#fff"/>
                </g>
              </g>
              <g id="Grupo_69715" data-name="Grupo 69715" transform="translate(4.491 11.713)">
                <g id="Grupo_69714" data-name="Grupo 69714">
                  <path id="Trazado_116516" data-name="Trazado 116516" d="M114.51,157.651a2,2,0,1,0,2.829-.1A2,2,0,0,0,114.51,157.651Z" transform="translate(-113.971 -157.015)" fill="#fff"/>
                </g>
              </g>
              <g id="Grupo_69717" data-name="Grupo 69717" transform="translate(10.348 17.175)">
                <g id="Grupo_69716" data-name="Grupo 69716">
                  <path id="Trazado_116517" data-name="Trazado 116517" d="M122.968,165.539a2,2,0,1,0,2.83-.1A2,2,0,0,0,122.968,165.539Z" transform="translate(-122.43 -164.902)" fill="#fff"/>
                </g>
              </g>
              <g id="Grupo_69719" data-name="Grupo 69719" transform="translate(16.204 22.636)">
                <g id="Grupo_69718" data-name="Grupo 69718">
                  <path id="Trazado_116518" data-name="Trazado 116518" d="M131.427,173.427a2,2,0,1,0,2.829-.1A2,2,0,0,0,131.427,173.427Z" transform="translate(-130.888 -172.79)" fill="#fff"/>
                </g>
              </g>
              <g id="Grupo_69721" data-name="Grupo 69721" transform="translate(22.061 28.105)">
                <g id="Grupo_69720" data-name="Grupo 69720">
                  <path id="Trazado_116519" data-name="Trazado 116519" d="M139.885,181.318a2,2,0,0,0,2.33,3.159l-.127-3.643A1.993,1.993,0,0,0,139.885,181.318Z" transform="translate(-139.347 -180.689)" fill="#fff"/>
                </g>
              </g>
              <g id="Grupo_69723" data-name="Grupo 69723" transform="translate(0.395 17.59)">
                <g id="Grupo_69722" data-name="Grupo 69722">
                  <path id="Trazado_116520" data-name="Trazado 116520" d="M108.056,165.614l.132,3.78a1.981,1.981,0,0,0,1.969-.544,2,2,0,0,0-.1-2.83A1.982,1.982,0,0,0,108.056,165.614Z" transform="translate(-108.056 -165.503)" fill="#fff"/>
                </g>
              </g>
              <g id="Grupo_69725" data-name="Grupo 69725" transform="translate(4.886 23.031)">
                <g id="Grupo_69724" data-name="Grupo 69724">
                  <path id="Trazado_116521" data-name="Trazado 116521" d="M115.08,174a2,2,0,1,0,2.83-.1A2,2,0,0,0,115.08,174Z" transform="translate(-114.542 -173.361)" fill="#fff"/>
                </g>
              </g>
              <g id="Grupo_69727" data-name="Grupo 69727" transform="translate(10.743 28.493)">
                <g id="Grupo_69726" data-name="Grupo 69726">
                  <path id="Trazado_116522" data-name="Trazado 116522" d="M123.539,181.885a2,2,0,1,0,2.829-.1A2,2,0,0,0,123.539,181.885Z" transform="translate(-123.001 -181.248)" fill="#fff"/>
                </g>
              </g>
              <g id="Grupo_69729" data-name="Grupo 69729" transform="translate(16.599 33.954)">
                <g id="Grupo_69728" data-name="Grupo 69728">
                  <path id="Trazado_116523" data-name="Trazado 116523" d="M132,189.773a2,2,0,1,0,2.83-.1A2,2,0,0,0,132,189.773Z" transform="translate(-131.459 -189.136)" fill="#fff"/>
                </g>
              </g>
              <g id="Grupo_69731" data-name="Grupo 69731" transform="translate(22.456 39.424)">
                <g id="Grupo_69730" data-name="Grupo 69730">
                  <path id="Trazado_116524" data-name="Trazado 116524" d="M140.456,197.664a2,2,0,0,0,2.331,3.159l-.128-3.642A1.99,1.99,0,0,0,140.456,197.664Z" transform="translate(-139.918 -197.035)" fill="#fff"/>
                </g>
              </g>
              <g id="Grupo_69733" data-name="Grupo 69733" transform="translate(0.79 28.908)">
                <g id="Grupo_69732" data-name="Grupo 69732">
                  <path id="Trazado_116525" data-name="Trazado 116525" d="M108.627,181.96l.132,3.78a1.982,1.982,0,0,0,1.969-.544,2,2,0,0,0-.1-2.83A1.98,1.98,0,0,0,108.627,181.96Z" transform="translate(-108.627 -181.849)" fill="#fff"/>
                </g>
              </g>
              <g id="Grupo_69735" data-name="Grupo 69735" transform="translate(5.281 34.35)">
                <g id="Grupo_69734" data-name="Grupo 69734">
                  <path id="Trazado_116526" data-name="Trazado 116526" d="M115.651,190.343a2,2,0,1,0,2.83-.1A2,2,0,0,0,115.651,190.343Z" transform="translate(-115.113 -189.707)" fill="#fff"/>
                </g>
              </g>
              <g id="Grupo_69737" data-name="Grupo 69737" transform="translate(11.138 39.811)">
                <g id="Grupo_69736" data-name="Grupo 69736">
                  <path id="Trazado_116527" data-name="Trazado 116527" d="M124.11,198.231a2,2,0,1,0,2.829-.1A2,2,0,0,0,124.11,198.231Z" transform="translate(-123.572 -197.594)" fill="#fff"/>
                </g>
              </g>
              <g id="Grupo_69739" data-name="Grupo 69739" transform="translate(16.995 45.272)">
                <g id="Grupo_69738" data-name="Grupo 69738">
                  <path id="Trazado_116528" data-name="Trazado 116528" d="M132.568,206.119a2,2,0,1,0,2.83-.1A2,2,0,0,0,132.568,206.119Z" transform="translate(-132.03 -205.482)" fill="#fff"/>
                </g>
              </g>
              <g id="Grupo_69741" data-name="Grupo 69741" transform="translate(22.851 50.742)">
                <g id="Grupo_69740" data-name="Grupo 69740">
                  <path id="Trazado_116529" data-name="Trazado 116529" d="M141.026,214.01a2,2,0,0,0,2.331,3.159l-.127-3.642A1.993,1.993,0,0,0,141.026,214.01Z" transform="translate(-140.489 -213.381)" fill="#fff"/>
                </g>
              </g>
              <g id="Grupo_69743" data-name="Grupo 69743" transform="translate(1.185 40.227)">
                <g id="Grupo_69742" data-name="Grupo 69742">
                  <path id="Trazado_116530" data-name="Trazado 116530" d="M109.2,198.307l.132,3.78a1.982,1.982,0,0,0,1.969-.544,2,2,0,0,0-.1-2.83A1.982,1.982,0,0,0,109.2,198.307Z" transform="translate(-109.198 -198.195)" fill="#fff"/>
                </g>
              </g>
              <g id="Grupo_69745" data-name="Grupo 69745" transform="translate(5.676 45.668)">
                <g id="Grupo_69744" data-name="Grupo 69744">
                  <path id="Trazado_116531" data-name="Trazado 116531" d="M116.222,206.69a2,2,0,1,0,2.83-.1A2,2,0,0,0,116.222,206.69Z" transform="translate(-115.684 -206.053)" fill="#fff"/>
                </g>
              </g>
              <g id="Grupo_69747" data-name="Grupo 69747" transform="translate(11.533 51.129)">
                <g id="Grupo_69746" data-name="Grupo 69746">
                  <path id="Trazado_116532" data-name="Trazado 116532" d="M124.68,214.577a2,2,0,1,0,2.83-.1A2,2,0,0,0,124.68,214.577Z" transform="translate(-124.143 -213.941)" fill="#fff"/>
                </g>
              </g>
              <g id="Grupo_69749" data-name="Grupo 69749" transform="translate(17.39 56.59)">
                <g id="Grupo_69748" data-name="Grupo 69748">
                  <path id="Trazado_116533" data-name="Trazado 116533" d="M133.139,222.465a2,2,0,1,0,2.829-.1A2,2,0,0,0,133.139,222.465Z" transform="translate(-132.601 -221.828)" fill="#fff"/>
                </g>
              </g>
              <g id="Grupo_69751" data-name="Grupo 69751" transform="translate(23.247 62.06)">
                <g id="Grupo_69750" data-name="Grupo 69750">
                  <path id="Trazado_116534" data-name="Trazado 116534" d="M143.928,233.515l-.127-3.643a2,2,0,1,0,.127,3.643Z" transform="translate(-141.06 -229.727)" fill="#fff"/>
                </g>
              </g>
              <g id="Grupo_69753" data-name="Grupo 69753" transform="translate(1.581 51.545)">
                <g id="Grupo_69752" data-name="Grupo 69752">
                  <path id="Trazado_116535" data-name="Trazado 116535" d="M109.769,214.652l.132,3.78a1.983,1.983,0,1,0-.132-3.78Z" transform="translate(-109.769 -214.541)" fill="#fff"/>
                </g>
              </g>
              <g id="Grupo_69755" data-name="Grupo 69755" transform="translate(6.072 56.986)">
                <g id="Grupo_69754" data-name="Grupo 69754">
                  <path id="Trazado_116536" data-name="Trazado 116536" d="M116.793,223.036a2,2,0,1,0,2.829-.1A2,2,0,0,0,116.793,223.036Z" transform="translate(-116.255 -222.399)" fill="#fff"/>
                </g>
              </g>
              <g id="Grupo_69757" data-name="Grupo 69757" transform="translate(11.928 62.447)">
                <g id="Grupo_69756" data-name="Grupo 69756">
                  <path id="Trazado_116537" data-name="Trazado 116537" d="M128.18,233.654a2,2,0,1,0-2.83.1A2,2,0,0,0,128.18,233.654Z" transform="translate(-124.713 -230.287)" fill="#fff"/>
                </g>
              </g>
              <g id="Grupo_69759" data-name="Grupo 69759" transform="translate(17.785 67.909)">
                <g id="Grupo_69758" data-name="Grupo 69758">
                  <path id="Trazado_116538" data-name="Trazado 116538" d="M136.638,241.542a2,2,0,1,0-2.829.1A2,2,0,0,0,136.638,241.542Z" transform="translate(-133.172 -238.175)" fill="#fff"/>
                </g>
              </g>
              <g id="Grupo_69761" data-name="Grupo 69761" transform="translate(23.642 73.378)">
                <g id="Grupo_69760" data-name="Grupo 69760">
                  <path id="Trazado_116539" data-name="Trazado 116539" d="M144.5,249.861l-.127-3.642a2,2,0,1,0,.127,3.642Z" transform="translate(-141.63 -246.074)" fill="#fff"/>
                </g>
              </g>
              <g id="Grupo_69763" data-name="Grupo 69763" transform="translate(1.975 62.863)">
                <g id="Grupo_69762" data-name="Grupo 69762">
                  <path id="Trazado_116540" data-name="Trazado 116540" d="M110.339,231l.132,3.78a1.981,1.981,0,0,0,1.969-.544,1.984,1.984,0,0,0-2.1-3.236Z" transform="translate(-110.339 -230.887)" fill="#fff"/>
                </g>
              </g>
              <g id="Grupo_69765" data-name="Grupo 69765" transform="translate(6.467 68.304)">
                <g id="Grupo_69764" data-name="Grupo 69764">
                  <path id="Trazado_116541" data-name="Trazado 116541" d="M120.292,242.113a2,2,0,1,0-2.829.1A2,2,0,0,0,120.292,242.113Z" transform="translate(-116.826 -238.745)" fill="#fff"/>
                </g>
              </g>
              <g id="Grupo_69767" data-name="Grupo 69767" transform="translate(12.324 73.765)">
                <g id="Grupo_69766" data-name="Grupo 69766">
                  <path id="Trazado_116542" data-name="Trazado 116542" d="M128.75,250a2,2,0,1,0-2.829.1A2,2,0,0,0,128.75,250Z" transform="translate(-125.284 -246.633)" fill="#fff"/>
                </g>
              </g>
              <g id="Grupo_69769" data-name="Grupo 69769" transform="translate(18.18 79.227)">
                <g id="Grupo_69768" data-name="Grupo 69768">
                  <path id="Trazado_116543" data-name="Trazado 116543" d="M137.209,257.888a2,2,0,1,0-2.83.1A2,2,0,0,0,137.209,257.888Z" transform="translate(-133.743 -254.521)" fill="#fff"/>
                </g>
              </g>
              <g id="Grupo_69771" data-name="Grupo 69771" transform="translate(24.037 84.696)">
                <g id="Grupo_69770" data-name="Grupo 69770">
                  <path id="Trazado_116544" data-name="Trazado 116544" d="M145.07,266.207l-.127-3.643a2,2,0,1,0,.127,3.643Z" transform="translate(-142.201 -262.42)" fill="#fff"/>
                </g>
              </g>
              <g id="Grupo_69773" data-name="Grupo 69773" transform="translate(2.371 74.181)">
                <g id="Grupo_69772" data-name="Grupo 69772">
                  <path id="Trazado_116545" data-name="Trazado 116545" d="M110.91,247.345l.132,3.779a1.98,1.98,0,0,0,1.969-.544,2,2,0,0,0-.1-2.829A1.98,1.98,0,0,0,110.91,247.345Z" transform="translate(-110.91 -247.234)" fill="#fff"/>
                </g>
              </g>
              <g id="Grupo_69775" data-name="Grupo 69775" transform="translate(6.862 79.622)">
                <g id="Grupo_69774" data-name="Grupo 69774">
                  <path id="Trazado_116546" data-name="Trazado 116546" d="M120.863,258.459a2,2,0,1,0-2.83.1A2,2,0,0,0,120.863,258.459Z" transform="translate(-117.397 -255.091)" fill="#fff"/>
                </g>
              </g>
              <g id="Grupo_69777" data-name="Grupo 69777" transform="translate(12.719 85.083)">
                <g id="Grupo_69776" data-name="Grupo 69776">
                  <path id="Trazado_116547" data-name="Trazado 116547" d="M129.321,266.347a2,2,0,1,0-2.829.1A2,2,0,0,0,129.321,266.347Z" transform="translate(-125.855 -262.979)" fill="#fff"/>
                </g>
              </g>
              <g id="Grupo_69779" data-name="Grupo 69779" transform="translate(18.575 90.545)">
                <g id="Grupo_69778" data-name="Grupo 69778">
                  <path id="Trazado_116548" data-name="Trazado 116548" d="M137.78,274.234a2,2,0,1,0-2.83.1A2,2,0,0,0,137.78,274.234Z" transform="translate(-134.314 -270.867)" fill="#fff"/>
                </g>
              </g>
              <g id="Grupo_69781" data-name="Grupo 69781" transform="translate(24.432 96.014)">
                <g id="Grupo_69780" data-name="Grupo 69780">
                  <path id="Trazado_116549" data-name="Trazado 116549" d="M145.64,282.553l-.127-3.642a2,2,0,1,0,.127,3.642Z" transform="translate(-142.772 -278.766)" fill="#fff"/>
                </g>
              </g>
              <g id="Grupo_69783" data-name="Grupo 69783" transform="translate(2.766 85.499)">
                <g id="Grupo_69782" data-name="Grupo 69782">
                  <path id="Trazado_116550" data-name="Trazado 116550" d="M111.481,263.691l.132,3.779a1.98,1.98,0,0,0,1.969-.544,2,2,0,0,0-.1-2.829A1.98,1.98,0,0,0,111.481,263.691Z" transform="translate(-111.481 -263.58)" fill="#fff"/>
                </g>
              </g>
              <g id="Grupo_69785" data-name="Grupo 69785" transform="translate(7.257 90.94)">
                <g id="Grupo_69784" data-name="Grupo 69784">
                  <path id="Trazado_116551" data-name="Trazado 116551" d="M121.434,274.8a2,2,0,1,0-2.83.1A2,2,0,0,0,121.434,274.8Z" transform="translate(-117.967 -271.437)" fill="#fff"/>
                </g>
              </g>
              <g id="Grupo_69787" data-name="Grupo 69787" transform="translate(13.114 96.402)">
                <g id="Grupo_69786" data-name="Grupo 69786">
                  <path id="Trazado_116552" data-name="Trazado 116552" d="M129.892,282.693a2,2,0,1,0-2.83.1A2,2,0,0,0,129.892,282.693Z" transform="translate(-126.426 -279.325)" fill="#fff"/>
                </g>
              </g>
              <g id="Grupo_69789" data-name="Grupo 69789" transform="translate(18.971 101.863)">
                <g id="Grupo_69788" data-name="Grupo 69788" transform="translate(0 0)">
                  <path id="Trazado_116553" data-name="Trazado 116553" d="M138.35,290.58a2,2,0,1,0-2.829.1A2,2,0,0,0,138.35,290.58Z" transform="translate(-134.884 -287.213)" fill="#fff"/>
                </g>
              </g>
              <g id="Grupo_69791" data-name="Grupo 69791" transform="translate(24.827 107.332)">
                <g id="Grupo_69790" data-name="Grupo 69790">
                  <path id="Trazado_116554" data-name="Trazado 116554" d="M146.211,298.9l-.127-3.642a2,2,0,1,0,.127,3.642Z" transform="translate(-143.343 -295.112)" fill="#fff"/>
                </g>
              </g>
              <g id="Grupo_69793" data-name="Grupo 69793" transform="translate(3.162 96.817)">
                <g id="Grupo_69792" data-name="Grupo 69792">
                  <path id="Trazado_116555" data-name="Trazado 116555" d="M112.052,280.037l.132,3.779a1.98,1.98,0,0,0,1.969-.544,2,2,0,0,0-.1-2.829A1.981,1.981,0,0,0,112.052,280.037Z" transform="translate(-112.052 -279.926)" fill="#fff"/>
                </g>
              </g>
              <g id="Grupo_69795" data-name="Grupo 69795" transform="translate(7.653 102.258)">
                <g id="Grupo_69794" data-name="Grupo 69794">
                  <path id="Trazado_116556" data-name="Trazado 116556" d="M122,291.151a2,2,0,1,0-2.829.1A2,2,0,0,0,122,291.151Z" transform="translate(-118.538 -287.783)" fill="#fff"/>
                </g>
              </g>
              <g id="Grupo_69797" data-name="Grupo 69797" transform="translate(13.509 107.72)">
                <g id="Grupo_69796" data-name="Grupo 69796">
                  <path id="Trazado_116557" data-name="Trazado 116557" d="M130.463,299.039a2,2,0,1,0-2.83.1A2,2,0,0,0,130.463,299.039Z" transform="translate(-126.996 -295.671)" fill="#fff"/>
                </g>
              </g>
              <g id="Grupo_69799" data-name="Grupo 69799" transform="translate(19.366 113.181)">
                <g id="Grupo_69798" data-name="Grupo 69798">
                  <path id="Trazado_116558" data-name="Trazado 116558" d="M138.921,306.926a2,2,0,1,0-2.829.1A2,2,0,0,0,138.921,306.926Z" transform="translate(-135.455 -303.559)" fill="#fff"/>
                </g>
              </g>
              <g id="Grupo_69801" data-name="Grupo 69801" transform="translate(25.223 118.65)">
                <g id="Grupo_69800" data-name="Grupo 69800">
                  <path id="Trazado_116559" data-name="Trazado 116559" d="M146.782,315.245l-.127-3.643a2,2,0,1,0,.127,3.643Z" transform="translate(-143.913 -311.458)" fill="#fff"/>
                </g>
              </g>
              <g id="Grupo_69803" data-name="Grupo 69803" transform="translate(3.556 108.135)">
                <g id="Grupo_69802" data-name="Grupo 69802">
                  <path id="Trazado_116560" data-name="Trazado 116560" d="M112.622,296.383l.132,3.779a1.979,1.979,0,0,0,1.969-.544,2,2,0,0,0-.1-2.829A1.981,1.981,0,0,0,112.622,296.383Z" transform="translate(-112.622 -296.272)" fill="#fff"/>
                </g>
              </g>
              <g id="Grupo_69805" data-name="Grupo 69805" transform="translate(8.048 113.576)">
                <g id="Grupo_69804" data-name="Grupo 69804">
                  <path id="Trazado_116561" data-name="Trazado 116561" d="M122.575,307.5a2,2,0,1,0-2.829.1A2,2,0,0,0,122.575,307.5Z" transform="translate(-119.109 -304.13)" fill="#fff"/>
                </g>
              </g>
              <g id="Grupo_69807" data-name="Grupo 69807" transform="translate(13.904 119.038)">
                <g id="Grupo_69806" data-name="Grupo 69806">
                  <path id="Trazado_116562" data-name="Trazado 116562" d="M131.034,315.385a2,2,0,1,0-2.83.1A2,2,0,0,0,131.034,315.385Z" transform="translate(-127.567 -312.017)" fill="#fff"/>
                </g>
              </g>
              <g id="Grupo_69809" data-name="Grupo 69809" transform="translate(19.761 124.499)">
                <g id="Grupo_69808" data-name="Grupo 69808">
                  <path id="Trazado_116563" data-name="Trazado 116563" d="M139.492,323.272a2,2,0,1,0-2.83.1A2,2,0,0,0,139.492,323.272Z" transform="translate(-136.026 -319.905)" fill="#fff"/>
                </g>
              </g>
              <g id="Grupo_69811" data-name="Grupo 69811" transform="translate(25.618 129.968)">
                <g id="Grupo_69810" data-name="Grupo 69810">
                  <path id="Trazado_116564" data-name="Trazado 116564" d="M147.353,331.591l-.127-3.643a2,2,0,1,0,.127,3.643Z" transform="translate(-144.484 -327.804)" fill="#fff"/>
                </g>
              </g>
              <g id="Grupo_69813" data-name="Grupo 69813" transform="translate(3.952 119.453)">
                <g id="Grupo_69812" data-name="Grupo 69812">
                  <path id="Trazado_116565" data-name="Trazado 116565" d="M113.193,312.729l.132,3.779a1.979,1.979,0,0,0,1.968-.544,2,2,0,0,0-.1-2.83A1.982,1.982,0,0,0,113.193,312.729Z" transform="translate(-113.193 -312.618)" fill="#fff"/>
                </g>
              </g>
              <g id="Grupo_69815" data-name="Grupo 69815" transform="translate(8.443 124.895)">
                <g id="Grupo_69814" data-name="Grupo 69814">
                  <path id="Trazado_116566" data-name="Trazado 116566" d="M123.146,323.843a2,2,0,1,0-2.83.1A2,2,0,0,0,123.146,323.843Z" transform="translate(-119.68 -320.476)" fill="#fff"/>
                </g>
              </g>
              <g id="Grupo_69817" data-name="Grupo 69817" transform="translate(14.3 130.356)">
                <g id="Grupo_69816" data-name="Grupo 69816">
                  <path id="Trazado_116567" data-name="Trazado 116567" d="M131.6,331.731a2,2,0,1,0-2.829.1A2,2,0,0,0,131.6,331.731Z" transform="translate(-128.138 -328.363)" fill="#fff"/>
                </g>
              </g>
              <g id="Grupo_69819" data-name="Grupo 69819" transform="translate(20.156 135.817)">
                <g id="Grupo_69818" data-name="Grupo 69818">
                  <path id="Trazado_116568" data-name="Trazado 116568" d="M140.063,339.619a2,2,0,1,0-2.83.1A2,2,0,0,0,140.063,339.619Z" transform="translate(-136.597 -336.251)" fill="#fff"/>
                </g>
              </g>
              <g id="Grupo_69821" data-name="Grupo 69821" transform="translate(26.013 141.286)">
                <g id="Grupo_69820" data-name="Grupo 69820">
                  <path id="Trazado_116569" data-name="Trazado 116569" d="M147.924,347.937l-.127-3.643a2,2,0,1,0,.127,3.643Z" transform="translate(-145.055 -344.15)" fill="#fff"/>
                </g>
              </g>
              <g id="Grupo_69823" data-name="Grupo 69823" transform="translate(4.348 130.771)">
                <g id="Grupo_69822" data-name="Grupo 69822">
                  <path id="Trazado_116570" data-name="Trazado 116570" d="M115.865,332.311a2,2,0,0,0-.1-2.83,1.982,1.982,0,0,0-2-.406l.132,3.78A1.98,1.98,0,0,0,115.865,332.311Z" transform="translate(-113.765 -328.964)" fill="#fff"/>
                </g>
              </g>
              <g id="Grupo_69825" data-name="Grupo 69825" transform="translate(8.838 136.213)">
                <g id="Grupo_69824" data-name="Grupo 69824">
                  <path id="Trazado_116571" data-name="Trazado 116571" d="M123.717,340.189a2,2,0,1,0-2.83.1A2,2,0,0,0,123.717,340.189Z" transform="translate(-120.251 -336.822)" fill="#fff"/>
                </g>
              </g>
              <g id="Grupo_69827" data-name="Grupo 69827" transform="translate(14.695 141.674)">
                <g id="Grupo_69826" data-name="Grupo 69826">
                  <path id="Trazado_116572" data-name="Trazado 116572" d="M132.175,348.077a2,2,0,1,0-2.829.1A2,2,0,0,0,132.175,348.077Z" transform="translate(-128.709 -344.709)" fill="#fff"/>
                </g>
              </g>
              <g id="Grupo_69829" data-name="Grupo 69829" transform="translate(20.551 147.135)">
                <g id="Grupo_69828" data-name="Grupo 69828">
                  <path id="Trazado_116573" data-name="Trazado 116573" d="M140.634,355.965a2,2,0,1,0-2.83.1A2,2,0,0,0,140.634,355.965Z" transform="translate(-137.167 -352.597)" fill="#fff"/>
                </g>
              </g>
              <g id="Grupo_69831" data-name="Grupo 69831" transform="translate(26.409 152.604)">
                <g id="Grupo_69830" data-name="Grupo 69830">
                  <path id="Trazado_116574" data-name="Trazado 116574" d="M148.494,364.284l-.127-3.643a2,2,0,1,0,.127,3.643Z" transform="translate(-145.626 -360.496)" fill="#fff"/>
                </g>
              </g>
              <g id="Grupo_69833" data-name="Grupo 69833" transform="translate(4.742 142.089)">
                <g id="Grupo_69832" data-name="Grupo 69832">
                  <path id="Trazado_116575" data-name="Trazado 116575" d="M116.436,348.657a1.983,1.983,0,0,0-2.1-3.236l.132,3.78A1.98,1.98,0,0,0,116.436,348.657Z" transform="translate(-114.335 -345.31)" fill="#fff"/>
                </g>
              </g>
              <g id="Grupo_69835" data-name="Grupo 69835" transform="translate(9.233 147.531)">
                <g id="Grupo_69834" data-name="Grupo 69834">
                  <path id="Trazado_116576" data-name="Trazado 116576" d="M124.288,356.535a2,2,0,1,0-2.83.1A2,2,0,0,0,124.288,356.535Z" transform="translate(-120.821 -353.168)" fill="#fff"/>
                </g>
              </g>
              <g id="Grupo_69837" data-name="Grupo 69837" transform="translate(15.09 152.992)">
                <g id="Grupo_69836" data-name="Grupo 69836">
                  <path id="Trazado_116577" data-name="Trazado 116577" d="M132.746,364.423a2,2,0,1,0-2.829.1A2,2,0,0,0,132.746,364.423Z" transform="translate(-129.28 -361.056)" fill="#fff"/>
                </g>
              </g>
              <g id="Grupo_69839" data-name="Grupo 69839" transform="translate(20.947 158.453)">
                <g id="Grupo_69838" data-name="Grupo 69838">
                  <path id="Trazado_116578" data-name="Trazado 116578" d="M141.2,372.311a2,2,0,1,0-2.83.1A2,2,0,0,0,141.2,372.311Z" transform="translate(-137.738 -368.943)" fill="#fff"/>
                </g>
              </g>
              <g id="Grupo_69841" data-name="Grupo 69841" transform="translate(26.804 163.923)">
                <g id="Grupo_69840" data-name="Grupo 69840">
                  <path id="Trazado_116579" data-name="Trazado 116579" d="M149.065,380.63l-.127-3.642a2,2,0,1,0,.127,3.642Z" transform="translate(-146.197 -376.842)" fill="#fff"/>
                </g>
              </g>
              <g id="Grupo_69843" data-name="Grupo 69843" transform="translate(5.138 153.408)">
                <g id="Grupo_69842" data-name="Grupo 69842">
                  <path id="Trazado_116580" data-name="Trazado 116580" d="M117.007,365a2,2,0,0,0-.1-2.83,1.98,1.98,0,0,0-2-.405l.132,3.779A1.98,1.98,0,0,0,117.007,365Z" transform="translate(-114.906 -361.656)" fill="#fff"/>
                </g>
              </g>
              <g id="Grupo_69845" data-name="Grupo 69845" transform="translate(9.629 158.849)">
                <g id="Grupo_69844" data-name="Grupo 69844">
                  <path id="Trazado_116581" data-name="Trazado 116581" d="M124.859,372.881a2,2,0,1,0-2.83.1A2,2,0,0,0,124.859,372.881Z" transform="translate(-121.392 -369.514)" fill="#fff"/>
                </g>
              </g>
              <g id="Grupo_69847" data-name="Grupo 69847" transform="translate(15.486 164.31)">
                <g id="Grupo_69846" data-name="Grupo 69846">
                  <path id="Trazado_116582" data-name="Trazado 116582" d="M133.317,380.769a2,2,0,1,0-2.829.1A2,2,0,0,0,133.317,380.769Z" transform="translate(-129.851 -377.402)" fill="#fff"/>
                </g>
              </g>
              <g id="Grupo_69849" data-name="Grupo 69849" transform="translate(21.342 169.772)">
                <g id="Grupo_69848" data-name="Grupo 69848">
                  <path id="Trazado_116583" data-name="Trazado 116583" d="M141.776,388.657a2,2,0,1,0-2.83.1A2,2,0,0,0,141.776,388.657Z" transform="translate(-138.309 -385.29)" fill="#fff"/>
                </g>
              </g>
              <g id="Grupo_69851" data-name="Grupo 69851" transform="translate(27.199 175.241)">
                <g id="Grupo_69850" data-name="Grupo 69850">
                  <path id="Trazado_116584" data-name="Trazado 116584" d="M149.636,396.976l-.127-3.643a2,2,0,1,0,.127,3.643Z" transform="translate(-146.768 -393.188)" fill="#fff"/>
                </g>
              </g>
              <g id="Grupo_69853" data-name="Grupo 69853" transform="translate(5.533 164.726)">
                <g id="Grupo_69852" data-name="Grupo 69852">
                  <path id="Trazado_116585" data-name="Trazado 116585" d="M117.578,381.349a2,2,0,0,0-.1-2.83,1.98,1.98,0,0,0-2-.405l.132,3.779A1.98,1.98,0,0,0,117.578,381.349Z" transform="translate(-115.477 -378.002)" fill="#fff"/>
                </g>
              </g>
              <g id="Grupo_69855" data-name="Grupo 69855" transform="translate(10.024 170.167)">
                <g id="Grupo_69854" data-name="Grupo 69854">
                  <path id="Trazado_116586" data-name="Trazado 116586" d="M125.429,389.228a2,2,0,1,0-2.83.1A2,2,0,0,0,125.429,389.228Z" transform="translate(-121.963 -385.86)" fill="#fff"/>
                </g>
              </g>
              <g id="Grupo_69857" data-name="Grupo 69857" transform="translate(15.881 175.628)">
                <g id="Grupo_69856" data-name="Grupo 69856">
                  <path id="Trazado_116587" data-name="Trazado 116587" d="M133.888,397.115a2,2,0,1,0-2.83.1A2,2,0,0,0,133.888,397.115Z" transform="translate(-130.421 -393.748)" fill="#fff"/>
                </g>
              </g>
              <g id="Grupo_69859" data-name="Grupo 69859" transform="translate(21.738 181.09)">
                <g id="Grupo_69858" data-name="Grupo 69858">
                  <path id="Trazado_116588" data-name="Trazado 116588" d="M142.346,405a2,2,0,1,0-2.829.1A2,2,0,0,0,142.346,405Z" transform="translate(-138.88 -401.636)" fill="#fff"/>
                </g>
              </g>
              <g id="Grupo_69861" data-name="Grupo 69861" transform="translate(27.594 186.559)">
                <g id="Grupo_69860" data-name="Grupo 69860">
                  <path id="Trazado_116589" data-name="Trazado 116589" d="M150.079,409.68a2,2,0,1,0,.127,3.643Z" transform="translate(-147.338 -409.534)" fill="#fff"/>
                </g>
              </g>
              <g id="Grupo_69863" data-name="Grupo 69863" transform="translate(5.928 176.044)">
                <g id="Grupo_69862" data-name="Grupo 69862">
                  <path id="Trazado_116590" data-name="Trazado 116590" d="M118.149,397.7a2,2,0,0,0-.1-2.83,1.982,1.982,0,0,0-2-.405l.132,3.779A1.98,1.98,0,0,0,118.149,397.7Z" transform="translate(-116.048 -394.349)" fill="#fff"/>
                </g>
              </g>
              <g id="Grupo_69865" data-name="Grupo 69865" transform="translate(10.42 181.485)">
                <g id="Grupo_69864" data-name="Grupo 69864">
                  <path id="Trazado_116591" data-name="Trazado 116591" d="M126,405.574a2,2,0,1,0-2.829.1A2,2,0,0,0,126,405.574Z" transform="translate(-122.534 -402.206)" fill="#fff"/>
                </g>
              </g>
              <g id="Grupo_69867" data-name="Grupo 69867" transform="translate(16.276 186.946)">
                <g id="Grupo_69866" data-name="Grupo 69866">
                  <path id="Trazado_116592" data-name="Trazado 116592" d="M134.459,413.461a2,2,0,1,0-2.83.1A2,2,0,0,0,134.459,413.461Z" transform="translate(-130.992 -410.094)" fill="#fff"/>
                </g>
              </g>
              <g id="Grupo_69869" data-name="Grupo 69869" transform="translate(6.323 187.362)">
                <g id="Grupo_69868" data-name="Grupo 69868">
                  <path id="Trazado_116593" data-name="Trazado 116593" d="M118.719,414.041a2,2,0,0,0-.1-2.829,1.981,1.981,0,0,0-2-.406l.132,3.78A1.983,1.983,0,0,0,118.719,414.041Z" transform="translate(-116.618 -410.695)" fill="#fff"/>
                </g>
              </g>
            </g>
          </g>
        </g>
        <g id="Grupo_69920" data-name="Grupo 69920" transform="translate(25.624 22.626)">
          <g id="Grupo_69874" data-name="Grupo 69874" transform="translate(3.153 0)">
            <g id="Grupo_69873" data-name="Grupo 69873" transform="translate(0 0)">
              <rect id="Rectángulo_7206" data-name="Rectángulo 7206" width="16.016" height="211.728" transform="translate(18.454 0) rotate(5)" fill="#d1d5d9"/>
            </g>
          </g>
          <g id="Grupo_69919" data-name="Grupo 69919" transform="translate(0 9.188)">
            <g id="Grupo_69918" data-name="Grupo 69918" transform="translate(0 0)">
              <g id="Grupo_69876" data-name="Grupo 69876">
                <g id="Grupo_69875" data-name="Grupo 69875">
                  <rect id="Rectángulo_7207" data-name="Rectángulo 7207" width="192.585" height="24.024" transform="matrix(0.087, -0.996, 0.996, 0.087, 0, 191.853)" fill="#8dd9b0"/>
                </g>
              </g>
              <g id="Grupo_69917" data-name="Grupo 69917" transform="translate(1.275 2.637)">
                <g id="Grupo_69878" data-name="Grupo 69878" transform="translate(19.968 47.88)">
                  <g id="Grupo_69877" data-name="Grupo 69877">
                    <path id="Trazado_116594" data-name="Trazado 116594" d="M147.786,253.68a.96.96,0,0,0,1.26-.507l3.432-8.046a.961.961,0,1,0-1.768-.753l-3.432,8.046A.961.961,0,0,0,147.786,253.68Z" transform="translate(-147.202 -243.787)" fill="#fff"/>
                  </g>
                </g>
                <g id="Grupo_69880" data-name="Grupo 69880" transform="translate(16.216 5.499)">
                  <g id="Grupo_69879" data-name="Grupo 69879">
                    <path id="Trazado_116595" data-name="Trazado 116595" d="M143.492,182.937a.961.961,0,0,0-1.5,1.206l5.323,6.606a.961.961,0,0,0,1.5-1.205Z" transform="translate(-141.782 -182.579)" fill="#fff"/>
                  </g>
                </g>
                <g id="Grupo_69882" data-name="Grupo 69882" transform="translate(12.833 21.639)">
                  <g id="Grupo_69881" data-name="Grupo 69881">
                    <path id="Trazado_116596" data-name="Trazado 116596" d="M137.328,215.351a.96.96,0,0,0,1.331-.271l5.087-7.7a.961.961,0,0,0-1.6-1.059l-5.087,7.7A.96.96,0,0,0,137.328,215.351Z" transform="translate(-136.897 -205.888)" fill="#fff"/>
                  </g>
                </g>
                <g id="Grupo_69884" data-name="Grupo 69884" transform="translate(31.848 15.252)">
                  <g id="Grupo_69883" data-name="Grupo 69883">
                    <path id="Trazado_116597" data-name="Trazado 116597" d="M166.59,196.672a.972.972,0,0,0-1.093.808l-1.128,7.51a.962.962,0,0,0,.808,1.093,1.011,1.011,0,0,0,.143.011.962.962,0,0,0,.95-.82l1.128-7.509A.961.961,0,0,0,166.59,196.672Z" transform="translate(-164.359 -196.664)" fill="#fff"/>
                  </g>
                </g>
                <g id="Grupo_69886" data-name="Grupo 69886" transform="translate(11.891 36.689)">
                  <g id="Grupo_69885" data-name="Grupo 69885">
                    <path id="Trazado_116598" data-name="Trazado 116598" d="M138.115,230.872a.952.952,0,0,0,.407.091.961.961,0,0,0,.409-1.832l-3.216-1.507-.179,2.04Z" transform="translate(-135.536 -227.624)" fill="#fff"/>
                  </g>
                </g>
                <g id="Grupo_69888" data-name="Grupo 69888" transform="translate(26.771)">
                  <g id="Grupo_69887" data-name="Grupo 69887">
                    <path id="Trazado_116599" data-name="Trazado 116599" d="M163.466,174.766l-5.96,3.465a.96.96,0,1,0,.966,1.66l5.96-3.465a.961.961,0,0,0-.966-1.661Z" transform="translate(-157.027 -174.636)" fill="#fff"/>
                  </g>
                </g>
                <g id="Grupo_69890" data-name="Grupo 69890" transform="translate(29.469 31.519)">
                  <g id="Grupo_69889" data-name="Grupo 69889">
                    <path id="Trazado_116600" data-name="Trazado 116600" d="M166.59,220.43l-5.378,5.267a.961.961,0,0,0,1.345,1.374l5.378-5.266c.006-.006.008-.015.015-.022l.1-1.177a.94.94,0,0,0-.1-.16A.965.965,0,0,0,166.59,220.43Z" transform="translate(-160.923 -220.158)" fill="#fff"/>
                  </g>
                </g>
                <g id="Grupo_69892" data-name="Grupo 69892" transform="translate(11.592 143.611)">
                  <g id="Grupo_69891" data-name="Grupo 69891">
                    <path id="Trazado_116601" data-name="Trazado 116601" d="M135.689,391.938a.959.959,0,0,0,1.261-.508l3.432-8.046a.961.961,0,1,0-1.768-.753l-3.432,8.046A.96.96,0,0,0,135.689,391.938Z" transform="translate(-135.105 -382.046)" fill="#fff"/>
                  </g>
                </g>
                <g id="Grupo_69894" data-name="Grupo 69894" transform="translate(7.84 101.229)">
                  <g id="Grupo_69893" data-name="Grupo 69893">
                    <path id="Trazado_116602" data-name="Trazado 116602" d="M135.971,329.364a.962.962,0,0,0,.748-1.564l-5.323-6.606a.961.961,0,0,0-1.5,1.205l5.323,6.606A.959.959,0,0,0,135.971,329.364Z" transform="translate(-129.686 -320.835)" fill="#fff"/>
                  </g>
                </g>
                <g id="Grupo_69896" data-name="Grupo 69896" transform="translate(4.457 117.368)">
                  <g id="Grupo_69895" data-name="Grupo 69895">
                    <path id="Trazado_116603" data-name="Trazado 116603" d="M125.231,353.609a.959.959,0,0,0,1.331-.272l5.088-7.7a.961.961,0,1,0-1.6-1.059l-5.088,7.7A.962.962,0,0,0,125.231,353.609Z" transform="translate(-124.8 -344.145)" fill="#fff"/>
                  </g>
                </g>
                <g id="Grupo_69898" data-name="Grupo 69898" transform="translate(23.473 110.981)">
                  <g id="Grupo_69897" data-name="Grupo 69897">
                    <path id="Trazado_116604" data-name="Trazado 116604" d="M153.4,335.737l-1.128,7.509a.961.961,0,0,0,.807,1.093,1.021,1.021,0,0,0,.144.011.962.962,0,0,0,.949-.819l1.128-7.51a.961.961,0,0,0-.808-1.093A.972.972,0,0,0,153.4,335.737Z" transform="translate(-152.263 -334.921)" fill="#fff"/>
                  </g>
                </g>
                <g id="Grupo_69900" data-name="Grupo 69900" transform="translate(3.516 132.419)">
                  <g id="Grupo_69899" data-name="Grupo 69899">
                    <path id="Trazado_116605" data-name="Trazado 116605" d="M126.02,369.13a.961.961,0,0,0,.816-1.741l-3.217-1.508-.178,2.04Z" transform="translate(-123.441 -365.881)" fill="#fff"/>
                  </g>
                </g>
                <g id="Grupo_69902" data-name="Grupo 69902" transform="translate(18.396 95.73)">
                  <g id="Grupo_69901" data-name="Grupo 69901">
                    <path id="Trazado_116606" data-name="Trazado 116606" d="M151.369,313.024l-5.96,3.465a.961.961,0,1,0,.966,1.661l5.96-3.465a.96.96,0,1,0-.966-1.66Z" transform="translate(-144.931 -312.894)" fill="#fff"/>
                  </g>
                </g>
                <g id="Grupo_69904" data-name="Grupo 69904" transform="translate(21.094 127.249)">
                  <g id="Grupo_69903" data-name="Grupo 69903">
                    <path id="Trazado_116607" data-name="Trazado 116607" d="M155.853,358.7a.963.963,0,0,0-1.358-.015l-5.379,5.266a.961.961,0,1,0,1.345,1.374l5.378-5.266c.006-.006.008-.015.015-.021l.1-1.178A.908.908,0,0,0,155.853,358.7Z" transform="translate(-148.828 -358.415)" fill="#fff"/>
                  </g>
                </g>
                <g id="Grupo_69906" data-name="Grupo 69906" transform="translate(24.725 83.876)">
                  <g id="Grupo_69905" data-name="Grupo 69905">
                    <path id="Trazado_116608" data-name="Trazado 116608" d="M154.164,296.326a.962.962,0,0,0,.462,1.279l6.358,2.979.178-2.039-5.719-2.681A.962.962,0,0,0,154.164,296.326Z" transform="translate(-154.073 -295.773)" fill="#fff"/>
                  </g>
                </g>
                <g id="Grupo_69908" data-name="Grupo 69908" transform="translate(18.15 68.546)">
                  <g id="Grupo_69907" data-name="Grupo 69907">
                    <path id="Trazado_116609" data-name="Trazado 116609" d="M153.807,273.73l-8.684,4.161a.961.961,0,0,0,.416,1.828.942.942,0,0,0,.414-.1l8.684-4.16a.961.961,0,0,0-.83-1.733Z" transform="translate(-144.577 -273.634)" fill="#fff"/>
                  </g>
                </g>
                <g id="Grupo_69910" data-name="Grupo 69910" transform="translate(8.375 77.738)">
                  <g id="Grupo_69909" data-name="Grupo 69909">
                    <path id="Trazado_116610" data-name="Trazado 116610" d="M130.561,286.909l-.1,1.178A.945.945,0,0,0,130.561,286.909Z" transform="translate(-130.459 -286.909)" fill="#fff"/>
                  </g>
                </g>
                <g id="Grupo_69912" data-name="Grupo 69912" transform="translate(16.35 179.606)">
                  <g id="Grupo_69911" data-name="Grupo 69911">
                    <path id="Trazado_116611" data-name="Trazado 116611" d="M142.068,434.584a.961.961,0,0,0,.463,1.278l6.357,2.979.179-2.039-5.72-2.681A.962.962,0,0,0,142.068,434.584Z" transform="translate(-141.977 -434.031)" fill="#fff"/>
                  </g>
                </g>
                <g id="Grupo_69914" data-name="Grupo 69914" transform="translate(9.775 164.276)">
                  <g id="Grupo_69913" data-name="Grupo 69913">
                    <path id="Trazado_116612" data-name="Trazado 116612" d="M133.443,417.976a.947.947,0,0,0,.415-.1l8.683-4.16a.961.961,0,1,0-.83-1.732l-8.684,4.16a.961.961,0,0,0,.416,1.828Z" transform="translate(-132.481 -411.891)" fill="#fff"/>
                  </g>
                </g>
                <g id="Grupo_69916" data-name="Grupo 69916" transform="translate(0 173.468)">
                  <g id="Grupo_69915" data-name="Grupo 69915">
                    <path id="Trazado_116613" data-name="Trazado 116613" d="M118.466,425.167l-.1,1.177A.945.945,0,0,0,118.466,425.167Z" transform="translate(-118.363 -425.167)" fill="#fff"/>
                  </g>
                </g>
              </g>
            </g>
          </g>
        </g>
      </g>
      <g id="Grupo_69923" data-name="Grupo 69923" transform="translate(9.632 115.137)">
        <g id="Grupo_69922" data-name="Grupo 69922">
          <path id="Trazado_116614" data-name="Trazado 116614" d="M93.425,415.8V291.167h51.356V415.8" transform="translate(-93.425 -291.167)" fill="none" stroke="#a0a7b0" stroke-linecap="round" stroke-linejoin="round" stroke-width="3.47"/>
        </g>
      </g>
      <g id="Grupo_69925" data-name="Grupo 69925" transform="translate(9.632 123.146)">
        <g id="Grupo_69924" data-name="Grupo 69924">
          <line id="Línea_744" data-name="Línea 744" x2="51.356" fill="none" stroke="#a0a7b0" stroke-linecap="round" stroke-linejoin="round" stroke-width="3.47"/>
        </g>
      </g>
      <g id="Grupo_69927" data-name="Grupo 69927" transform="translate(9.632 223.666)">
        <g id="Grupo_69926" data-name="Grupo 69926">
          <line id="Línea_745" data-name="Línea 745" x2="51.356" fill="none" stroke="#a0a7b0" stroke-linecap="round" stroke-linejoin="round" stroke-width="3.47"/>
        </g>
      </g>
      <g id="Grupo_69929" data-name="Grupo 69929" transform="translate(9.632 115.137)">
        <g id="Grupo_69928" data-name="Grupo 69928">
          <path id="Trazado_116615" data-name="Trazado 116615" d="M93.425,415.8l51.356-124.633h0" transform="translate(-93.425 -291.167)" fill="none" stroke="#a0a7b0" stroke-linecap="round" stroke-linejoin="round" stroke-width="3.47"/>
        </g>
      </g>
      <g id="Grupo_69931" data-name="Grupo 69931" transform="translate(9.632 115.137)">
        <g id="Grupo_69930" data-name="Grupo 69930">
          <path id="Trazado_116616" data-name="Trazado 116616" d="M93.425,291.167h0L144.781,415.8" transform="translate(-93.425 -291.167)" fill="none" stroke="#a0a7b0" stroke-linecap="round" stroke-linejoin="round" stroke-width="3.47"/>
        </g>
      </g>
    </g>
    <g id="Grupo_69963" data-name="Grupo 69963" transform="translate(208.29 189.433)">
      <g id="Grupo_69958" data-name="Grupo 69958" transform="translate(13.958 83.796)">
        <g id="Grupo_69935" data-name="Grupo 69935" transform="translate(27.448)">
          <g id="Grupo_69933" data-name="Grupo 69933">
            <line id="Línea_746" data-name="Línea 746" y2="54.991" fill="none" stroke="#8b95ad" stroke-linecap="round" stroke-linejoin="round" stroke-width="8.096"/>
          </g>
          <g id="Grupo_69934" data-name="Grupo 69934" opacity="0.4" style="mix-blend-mode: multiply;isolation: isolate">
            <line id="Línea_747" data-name="Línea 747" y2="54.991" fill="none" stroke="#8b95ad" stroke-linecap="round" stroke-linejoin="round" stroke-width="8.096"/>
          </g>
        </g>
        <g id="Grupo_69938" data-name="Grupo 69938" transform="translate(27.448 4.593)">
          <g id="Grupo_69936" data-name="Grupo 69936">
            <line id="Línea_748" data-name="Línea 748" y2="10.593" fill="none" stroke="#8b95ad" stroke-linecap="round" stroke-linejoin="round" stroke-width="13.879"/>
          </g>
          <g id="Grupo_69937" data-name="Grupo 69937" opacity="0.4" style="mix-blend-mode: multiply;isolation: isolate">
            <line id="Línea_749" data-name="Línea 749" y2="10.593" fill="none" stroke="#8b95ad" stroke-linecap="round" stroke-linejoin="round" stroke-width="13.879"/>
          </g>
        </g>
        <g id="Grupo_69957" data-name="Grupo 69957" transform="translate(0 55.047)">
          <g id="Grupo_69941" data-name="Grupo 69941" transform="translate(27.448)">
            <g id="Grupo_69939" data-name="Grupo 69939">
              <line id="Línea_750" data-name="Línea 750" y2="8.73" fill="none" stroke="#8b95ad" stroke-linecap="round" stroke-linejoin="round" stroke-width="11.566"/>
            </g>
            <g id="Grupo_69940" data-name="Grupo 69940" opacity="0.4" style="mix-blend-mode: multiply;isolation: isolate">
              <line id="Línea_751" data-name="Línea 751" y2="8.73" fill="none" stroke="#8b95ad" stroke-linecap="round" stroke-linejoin="round" stroke-width="11.566"/>
            </g>
          </g>
          <g id="Grupo_69944" data-name="Grupo 69944" transform="translate(27.448 7.929)">
            <g id="Grupo_69942" data-name="Grupo 69942">
              <line id="Línea_752" data-name="Línea 752" y2="10.96" fill="none" stroke="#8b95ad" stroke-linecap="round" stroke-linejoin="round" stroke-width="5.783"/>
            </g>
            <g id="Grupo_69943" data-name="Grupo 69943" opacity="0.4" style="mix-blend-mode: multiply;isolation: isolate">
              <line id="Línea_753" data-name="Línea 753" y2="10.96" fill="none" stroke="#8b95ad" stroke-linecap="round" stroke-linejoin="round" stroke-width="5.783"/>
            </g>
          </g>
          <g id="Grupo_69947" data-name="Grupo 69947" transform="translate(0.14 8.085)">
            <g id="Grupo_69945" data-name="Grupo 69945">
              <path id="Trazado_116617" data-name="Trazado 116617" d="M340.475,464.1l-8.108-7.682a11.624,11.624,0,0,0-6.911-2.754H300.878a11.624,11.624,0,0,0-6.911,2.754l-8.108,7.682" transform="translate(-285.859 -453.665)" fill="none" stroke="#8b95ad" stroke-linecap="round" stroke-linejoin="round" stroke-width="5.783"/>
            </g>
            <g id="Grupo_69946" data-name="Grupo 69946" opacity="0.4" style="mix-blend-mode: multiply;isolation: isolate">
              <path id="Trazado_116618" data-name="Trazado 116618" d="M340.475,464.1l-8.108-7.682a11.624,11.624,0,0,0-6.911-2.754H300.878a11.624,11.624,0,0,0-6.911,2.754l-8.108,7.682" transform="translate(-285.859 -453.665)" fill="none" stroke="#8b95ad" stroke-linecap="round" stroke-linejoin="round" stroke-width="5.783"/>
            </g>
          </g>
          <g id="Grupo_69950" data-name="Grupo 69950" transform="translate(0 18.633)">
            <g id="Grupo_69948" data-name="Grupo 69948">
              <path id="Trazado_116619" data-name="Trazado 116619" d="M289.632,470.885a1.988,1.988,0,1,1-1.988-1.987A1.987,1.987,0,0,1,289.632,470.885Z" transform="translate(-285.657 -468.898)" fill="none" stroke="#8b95ad" stroke-linecap="round" stroke-linejoin="round" stroke-width="8.096"/>
            </g>
            <g id="Grupo_69949" data-name="Grupo 69949" opacity="0.4" style="mix-blend-mode: multiply;isolation: isolate">
              <path id="Trazado_116620" data-name="Trazado 116620" d="M289.632,470.885a1.988,1.988,0,1,1-1.988-1.987A1.987,1.987,0,0,1,289.632,470.885Z" transform="translate(-285.657 -468.898)" fill="none" stroke="#8b95ad" stroke-linecap="round" stroke-linejoin="round" stroke-width="8.096"/>
            </g>
          </g>
          <g id="Grupo_69953" data-name="Grupo 69953" transform="translate(50.909 18.633)">
            <g id="Grupo_69951" data-name="Grupo 69951">
              <path id="Trazado_116621" data-name="Trazado 116621" d="M363.157,470.885a1.988,1.988,0,1,1-1.987-1.987A1.987,1.987,0,0,1,363.157,470.885Z" transform="translate(-359.182 -468.898)" fill="none" stroke="#8b95ad" stroke-linecap="round" stroke-linejoin="round" stroke-width="8.096"/>
            </g>
            <g id="Grupo_69952" data-name="Grupo 69952" opacity="0.4" style="mix-blend-mode: multiply;isolation: isolate">
              <path id="Trazado_116622" data-name="Trazado 116622" d="M363.157,470.885a1.988,1.988,0,1,1-1.987-1.987A1.987,1.987,0,0,1,363.157,470.885Z" transform="translate(-359.182 -468.898)" fill="none" stroke="#8b95ad" stroke-linecap="round" stroke-linejoin="round" stroke-width="8.096"/>
            </g>
          </g>
          <g id="Grupo_69956" data-name="Grupo 69956" transform="translate(25.46 18.632)">
            <g id="Grupo_69954" data-name="Grupo 69954">
              <path id="Trazado_116623" data-name="Trazado 116623" d="M326.4,470.884a1.988,1.988,0,1,1-1.987-1.987A1.988,1.988,0,0,1,326.4,470.884Z" transform="translate(-322.428 -468.897)" fill="none" stroke="#8b95ad" stroke-linecap="round" stroke-linejoin="round" stroke-width="8.096"/>
            </g>
            <g id="Grupo_69955" data-name="Grupo 69955" opacity="0.4" style="mix-blend-mode: multiply;isolation: isolate">
              <path id="Trazado_116624" data-name="Trazado 116624" d="M326.4,470.884a1.988,1.988,0,1,1-1.987-1.987A1.988,1.988,0,0,1,326.4,470.884Z" transform="translate(-322.428 -468.897)" fill="none" stroke="#8b95ad" stroke-linecap="round" stroke-linejoin="round" stroke-width="8.096"/>
            </g>
          </g>
        </g>
      </g>
      <g id="Grupo_69959" data-name="Grupo 69959" transform="translate(8.008 90.361)">
        <line id="Línea_754" data-name="Línea 754" x1="66.8" fill="none" stroke="#8b95ad" stroke-linecap="round" stroke-linejoin="round" stroke-width="13.879"/>
      </g>
      <g id="Grupo_69960" data-name="Grupo 69960" transform="translate(8.008 6.009)">
        <rect id="Rectángulo_7208" data-name="Rectángulo 7208" width="66.8" height="78.346" fill="#8ec8d1" stroke="#8ec8d1" stroke-linecap="round" stroke-linejoin="round" stroke-width="17.348"/>
      </g>
      <g id="Grupo_69961" data-name="Grupo 69961" transform="translate(2.002)" opacity="0.3" style="mix-blend-mode: multiply;isolation: isolate">
        <path id="Trazado_116625" data-name="Trazado 116625" d="M343.272,241.837a6,6,0,0,0-6.647,1.74l-66.8,78.346a6.006,6.006,0,0,0,4.571,9.9h66.8a6.006,6.006,0,0,0,6.006-6.006V247.474A6.008,6.008,0,0,0,343.272,241.837Z" transform="translate(-268.389 -241.465)" fill="#8ec8d1"/>
      </g>
      <g id="Grupo_69962" data-name="Grupo 69962" transform="translate(0 84.355)">
        <line id="Línea_755" data-name="Línea 755" x1="82.816" fill="none" stroke="#8ec8d1" stroke-linecap="round" stroke-linejoin="round" stroke-width="17.348"/>
      </g>
    </g>
    <g id="Grupo_69984" data-name="Grupo 69984" transform="translate(316.728 116.829)">
      <g id="Grupo_69964" data-name="Grupo 69964" transform="translate(23 79.226)">
        <rect id="Rectángulo_7209" data-name="Rectángulo 7209" width="3.259" height="119.703" fill="#a0a7b0"/>
      </g>
      <g id="Grupo_69978" data-name="Grupo 69978" transform="translate(4.049 95.197)">
        <g id="Grupo_69977" data-name="Grupo 69977">
          <g id="Grupo_69965" data-name="Grupo 69965" transform="translate(8.516 97.115)">
            <path id="Trazado_116626" data-name="Trazado 116626" d="M441.858,414.9a1.453,1.453,0,0,0-1.155,1.9.847.847,0,0,1,.031.211c0,.659-.7.507-.407,1.216.272.663,5.88,1.149,11.411,1.21v.007l.583,0,.582,0v-.007c5.531-.061,11.139-.546,11.411-1.21.291-.709-.408-.557-.408-1.216a.814.814,0,0,1,.031-.211,1.431,1.431,0,0,0-1.159-1.867A96.589,96.589,0,0,0,441.858,414.9Z" transform="translate(-440.255 -414.352)" fill="#a0a7b0"/>
          </g>
          <g id="Grupo_69966" data-name="Grupo 69966" transform="translate(16.767 100.827)">
            <path id="Trazado_116627" data-name="Trazado 116627" d="M455.966,448.946a1.255,1.255,0,0,1-.148.006.4.4,0,0,1-.148-.041c-.715-.12-1.212-.5-1.271-.963a3.126,3.126,0,0,1,.178-1.13.99.99,0,0,0-.309-.192c-.437-.212-1.036-.5-1.149-1.863a2.45,2.45,0,0,1,.425-1.97,1.253,1.253,0,0,1-.375-.848c-.052-.732.852-1.041,1.335-1.154-.474-.139-1.335-.481-1.335-1.117,0-.611.746-.956,1.167-1.1a1.259,1.259,0,0,1,.208-1.131,2.549,2.549,0,0,1,.183-1.082l-.226-.6a1.9,1.9,0,0,1-1.255-2.047,1.671,1.671,0,0,1,.7-1.4,1.215,1.215,0,0,1-.4-.754c.008-.274.215-.46.566-.522a4.049,4.049,0,0,1,.008-.985c-1.487-.379-1.572-.7-1.6-.811-.085-.318.183-.581.447-.754a2.775,2.775,0,0,1-.791-1.932,2.586,2.586,0,0,1,.935-2.075,1.15,1.15,0,0,1-.47-.868.5.5,0,0,1,.136-.386,1.323,1.323,0,0,1,.984-.278h.07a1.121,1.121,0,0,0,.014-.866,1.99,1.99,0,0,1-1.471-1.7.268.268,0,0,1,.057-.2.274.274,0,0,1,.183-.1l2.994-.313a.271.271,0,0,1,.155-.062l.254.026s.2-.026.206-.026a.269.269,0,0,1,.177.066l2.961.31a.274.274,0,0,1,.183.1.27.27,0,0,1,.057.2,1.994,1.994,0,0,1-1.471,1.694,1.12,1.12,0,0,0,.013.866h.07a1.323,1.323,0,0,1,.984.278.5.5,0,0,1,.137.386,1.15,1.15,0,0,1-.469.868,2.59,2.59,0,0,1,.933,2.075,2.767,2.767,0,0,1-.79,1.93c.263.175.533.438.447.755-.029.109-.114.432-1.6.811a3.954,3.954,0,0,1,.008.989c.358.066.557.249.566.517a1.213,1.213,0,0,1-.4.755,1.67,1.67,0,0,1,.7,1.4,1.9,1.9,0,0,1-1.255,2.047l-.226.6a2.564,2.564,0,0,1,.182,1.082,1.253,1.253,0,0,1,.209,1.131c.42.147,1.167.492,1.167,1.1,0,.636-.861.978-1.335,1.117.483.113,1.387.422,1.335,1.154a1.253,1.253,0,0,1-.375.848,2.45,2.45,0,0,1,.425,1.97c-.114,1.361-.712,1.651-1.149,1.863a.99.99,0,0,0-.309.192,3.13,3.13,0,0,1,.178,1.13c-.059.467-.556.843-1.271.963a.4.4,0,0,1-.148.041C456.088,448.952,456.028,448.95,455.966,448.946Z" transform="translate(-452.172 -419.713)" fill="#a0a7b0"/>
          </g>
          <g id="Grupo_69967" data-name="Grupo 69967" transform="translate(16.36)">
            <path id="Trazado_116628" data-name="Trazado 116628" d="M455.784,306.446a1.455,1.455,0,0,1-.163.006.438.438,0,0,1-.163-.046c-.791-.132-1.342-.548-1.407-1.066a3.459,3.459,0,0,1,.2-1.25,1.067,1.067,0,0,0-.342-.212c-.483-.235-1.146-.556-1.271-2.061a2.712,2.712,0,0,1,.47-2.181,1.381,1.381,0,0,1-.415-.938c-.058-.81.942-1.153,1.476-1.277-.524-.154-1.476-.532-1.476-1.236,0-.676.825-1.058,1.29-1.221a1.393,1.393,0,0,1,.23-1.251,2.829,2.829,0,0,1,.2-1.2l-.25-.665a2.106,2.106,0,0,1-1.389-2.266,1.847,1.847,0,0,1,.777-1.548,1.344,1.344,0,0,1-.446-.835c.01-.3.238-.508.626-.577a4.521,4.521,0,0,1,.009-1.09c-1.645-.419-1.74-.776-1.772-.9-.095-.353.2-.643.5-.835a3.066,3.066,0,0,1-.876-2.137,2.862,2.862,0,0,1,1.034-2.3,1.276,1.276,0,0,1-.52-.961.556.556,0,0,1,.152-.427,1.461,1.461,0,0,1,1.088-.308c.028,0,.053,0,.077,0a1.242,1.242,0,0,0,.015-.959,2.2,2.2,0,0,1-1.628-1.876.291.291,0,0,1,.064-.22.3.3,0,0,1,.2-.11l3.314-.347a.3.3,0,0,1,.172-.069l.28.028s.218-.028.228-.028a.3.3,0,0,1,.2.073l3.277.343a.3.3,0,0,1,.2.11.294.294,0,0,1,.064.222,2.2,2.2,0,0,1-1.628,1.875,1.241,1.241,0,0,0,.015.959c.025,0,.051,0,.078,0a1.461,1.461,0,0,1,1.088.308.558.558,0,0,1,.152.427,1.278,1.278,0,0,1-.519.961,2.866,2.866,0,0,1,1.033,2.3,3.066,3.066,0,0,1-.875,2.137c.291.193.59.483.5.836-.032.121-.127.478-1.772.9a4.385,4.385,0,0,1,.008,1.094c.4.073.616.276.627.572a1.341,1.341,0,0,1-.446.836,1.846,1.846,0,0,1,.777,1.548,2.106,2.106,0,0,1-1.389,2.266l-.25.665a2.844,2.844,0,0,1,.2,1.2,1.387,1.387,0,0,1,.232,1.251c.465.163,1.29.544,1.29,1.221,0,.7-.951,1.082-1.476,1.236.534.124,1.534.467,1.476,1.277a1.381,1.381,0,0,1-.415.938,2.714,2.714,0,0,1,.471,2.181c-.126,1.505-.789,1.827-1.272,2.061a1.067,1.067,0,0,0-.342.212,3.455,3.455,0,0,1,.2,1.25c-.064.517-.616.933-1.407,1.066a.44.44,0,0,1-.163.046C455.919,306.452,455.851,306.45,455.784,306.446Z" transform="translate(-451.585 -274.094)" fill="#a0a7b0"/>
          </g>
          <g id="Grupo_69968" data-name="Grupo 69968" transform="translate(16.36 81.497)">
            <path id="Trazado_116629" data-name="Trazado 116629" d="M454.411,391.795l-.249.6a1.872,1.872,0,0,0-1.39,2.026,1.614,1.614,0,0,0,.777,1.384,1.167,1.167,0,0,0-.445.747c.01.265.23.447.627.512a3.48,3.48,0,0,0,.008.978c-1.646.374-1.741.694-1.773.8-.094.314.2.575.495.747a2.614,2.614,0,0,0-.874,1.91,2.47,2.47,0,0,0,1.033,2.053,1.114,1.114,0,0,0-.52.859.47.47,0,0,0,.153.382,1.581,1.581,0,0,0,1.088.275h.077a1,1,0,0,1,.014.858A2.04,2.04,0,0,0,451.8,407.6a.246.246,0,0,0,.064.2.312.312,0,0,0,.2.1l3.276.306a.322.322,0,0,0,.2.066c.01,0,.229-.026.229-.026l.28.026a.324.324,0,0,0,.172-.062l3.313-.31a.313.313,0,0,0,.2-.1.242.242,0,0,0,.064-.2,2.038,2.038,0,0,0-1.628-1.677,1,1,0,0,1,.015-.858h.078a1.582,1.582,0,0,0,1.088-.275.47.47,0,0,0,.152-.382,1.113,1.113,0,0,0-.521-.859,2.468,2.468,0,0,0,1.035-2.053,2.612,2.612,0,0,0-.876-1.911c.292-.172.589-.432.5-.746-.032-.109-.127-.429-1.772-.8a3.65,3.65,0,0,0,.009-.975c.388-.062.616-.245.625-.516a1.164,1.164,0,0,0-.445-.746,1.614,1.614,0,0,0,.777-1.384,1.872,1.872,0,0,0-1.39-2.026l-.249-.6Z" transform="translate(-451.585 -391.795)" fill="#a0a7b0"/>
          </g>
          <g id="Grupo_69971" data-name="Grupo 69971" transform="translate(0 100.439)">
            <g id="Grupo_69969" data-name="Grupo 69969">
              <path id="Trazado_116630" data-name="Trazado 116630" d="M428.441,456.715a.488.488,0,0,1-.391-.2.482.482,0,0,1-.071-.431c.127-.4.391-1.223.784-2.349a4.819,4.819,0,0,0,.225-2.106,4.749,4.749,0,0,1,.092-1.6,2.1,2.1,0,0,1,.995-1.418.742.742,0,0,1,.035-.62.265.265,0,0,1,.08-.089l.085-.06a2.052,2.052,0,0,0,.874-.953.746.746,0,0,0-.176-.658.74.74,0,0,1-.172-.5.567.567,0,0,1,.467-.435,6.036,6.036,0,0,1,.146-1.834,2.438,2.438,0,0,1,.985-1.143.786.786,0,0,1-.2-.523c.024-.213.2-.311.377-.4a1.323,1.323,0,0,0,.627-.58,10.092,10.092,0,0,0,.573-1.623.653.653,0,0,1-.144-.575c.036-.112.149-.3.5-.324.916-3.093,2.311-8.1,2.454-8.775a1.144,1.144,0,0,1,.728-.9.531.531,0,0,1-.112-.5.546.546,0,0,1,.467-.325.565.565,0,0,0,.528-.5,4.626,4.626,0,0,0,.022-1.331,4.069,4.069,0,0,1,.033-1.323,1.638,1.638,0,0,1,1.019-.967c.048-.022.1-.048.15-.072l-.062-.071c-.108-.123-.257-.292-.168-.5a.424.424,0,0,1,.4-.217c.283-.009.576-.149.6-.439.008-.117-.064-.217-.183-.369a1.154,1.154,0,0,1-.293-.6c-.046-.505.377-.561.6-.589a2.106,2.106,0,0,0,.459-.1c.242-.087.375-.8.378-1.289a.271.271,0,0,1,.115-.221.279.279,0,0,1,.155-.048.294.294,0,0,1,.092.015l2.209.8a.271.271,0,0,1,.168.183.268.268,0,0,1-.053.243c-.309.374-.668,1.008-.539,1.23a2.057,2.057,0,0,0,.289.372c.155.169.443.483.083.841a1.141,1.141,0,0,1-.613.274c-.189.041-.308.07-.377.165a.55.55,0,0,0,.174.719.424.424,0,0,1,.17.425c-.063.215-.285.249-.447.274l-.093.015c.02.048.046.1.068.151a1.642,1.642,0,0,1,.16,1.4,4.065,4.065,0,0,1-.826,1.035,4.591,4.591,0,0,0-.838,1.035.562.562,0,0,0,.085.72.55.55,0,0,1,.149.548.532.532,0,0,1-.409.316,1.146,1.146,0,0,1-.021,1.156c-.323.607-2.474,5.338-3.76,8.3a.53.53,0,0,1,.177.573.654.654,0,0,1-.481.347,10.216,10.216,0,0,0-.6,1.612,1.335,1.335,0,0,0,.107.848.572.572,0,0,1,.029.553.788.788,0,0,1-.486.273,2.444,2.444,0,0,1,.02,1.51,6.023,6.023,0,0,1-1.067,1.5.569.569,0,0,1,.076.634.735.735,0,0,1-.451.271c-.268.084-.465.163-.557.391a2.061,2.061,0,0,0,.056,1.291l.028.1a.275.275,0,0,1,0,.119.746.746,0,0,1-.371.5,2.093,2.093,0,0,1-.149,1.726,4.759,4.759,0,0,1-.96,1.286,4.831,4.831,0,0,0-1.182,1.759c-.4,1.068-.59,1.554-.672,1.762a.486.486,0,0,1-.454.31Z" transform="translate(-427.956 -419.152)" fill="#a0a7b0"/>
            </g>
            <g id="Grupo_69970" data-name="Grupo 69970" transform="translate(25.204)">
              <path id="Trazado_116631" data-name="Trazado 116631" d="M478.1,456.729a.483.483,0,0,1-.455-.312c-.08-.206-.268-.693-.672-1.761A4.8,4.8,0,0,0,475.8,452.9a4.789,4.789,0,0,1-.958-1.286,2.091,2.091,0,0,1-.147-1.731.73.73,0,0,1-.374-.492.272.272,0,0,1,0-.12l.027-.1a2.056,2.056,0,0,0,.057-1.292c-.092-.229-.289-.307-.557-.392a.741.741,0,0,1-.452-.271.569.569,0,0,1,.078-.634,5.97,5.97,0,0,1-1.067-1.5,2.443,2.443,0,0,1,.02-1.51.79.79,0,0,1-.487-.273.575.575,0,0,1,.029-.553,1.326,1.326,0,0,0,.107-.848,10.176,10.176,0,0,0-.6-1.612.649.649,0,0,1-.48-.348.528.528,0,0,1,.176-.573c-1.283-2.954-3.434-7.686-3.758-8.3a1.146,1.146,0,0,1-.021-1.158.53.53,0,0,1-.41-.314.55.55,0,0,1,.149-.549.563.563,0,0,0,.085-.72,4.622,4.622,0,0,0-.84-1.035,4.111,4.111,0,0,1-.825-1.035,1.637,1.637,0,0,1,.161-1.4c.022-.046.048-.1.068-.152l-.093-.014c-.163-.025-.384-.06-.448-.274A.426.426,0,0,1,465.4,424a.55.55,0,0,0,.174-.719c-.069-.095-.188-.124-.377-.165a1.141,1.141,0,0,1-.613-.274c-.361-.358-.072-.672.083-.841a2.067,2.067,0,0,0,.289-.372c.128-.222-.232-.857-.54-1.23a.266.266,0,0,1-.053-.243.271.271,0,0,1,.168-.183l2.209-.8a.294.294,0,0,1,.092-.015.278.278,0,0,1,.154.048.271.271,0,0,1,.115.221c0,.484.135,1.2.377,1.289a2.111,2.111,0,0,0,.46.1c.228.028.651.084.6.589a1.154,1.154,0,0,1-.293.6c-.119.154-.192.253-.183.369.021.29.314.43.6.439a.424.424,0,0,1,.4.217c.089.2-.06.374-.168.5-.017.019-.039.045-.061.071.046.024.1.05.148.071a1.638,1.638,0,0,1,1.02.967,4.1,4.1,0,0,1,.034,1.322,4.642,4.642,0,0,0,.022,1.334.564.564,0,0,0,.528.5.548.548,0,0,1,.467.324.532.532,0,0,1-.111.505,1.139,1.139,0,0,1,.726.9c.145.682,1.54,5.692,2.454,8.775a.507.507,0,0,1,.5.324.653.653,0,0,1-.144.575,10.08,10.08,0,0,0,.573,1.623,1.323,1.323,0,0,0,.627.58c.173.093.353.191.377.405a.785.785,0,0,1-.2.522,2.441,2.441,0,0,1,.985,1.143A6.031,6.031,0,0,1,477,445.3a.563.563,0,0,1,.466.435.736.736,0,0,1-.172.5.748.748,0,0,0-.175.657,2.056,2.056,0,0,0,.872.952l.085.06a.259.259,0,0,1,.08.089.747.747,0,0,1,.036.62,2.094,2.094,0,0,1,.995,1.418,4.752,4.752,0,0,1,.092,1.6,4.815,4.815,0,0,0,.225,2.106c.393,1.125.656,1.945.784,2.349a.482.482,0,0,1-.071.431.488.488,0,0,1-.391.2Z" transform="translate(-464.357 -419.152)" fill="#a0a7b0"/>
            </g>
          </g>
          <g id="Grupo_69976" data-name="Grupo 69976" transform="translate(6.683 123.485)">
            <g id="Grupo_69973" data-name="Grupo 69973" transform="translate(0 0.006)">
              <g id="Grupo_69972" data-name="Grupo 69972">
                <path id="Trazado_116632" data-name="Trazado 116632" d="M441.561,456.452a1.179,1.179,0,0,1-.868-.51,18.99,18.99,0,0,1-2.11.155,4.6,4.6,0,0,1-.751-.05.269.269,0,0,1-.22-.311l.282-1.689a.27.27,0,0,1,.215-.22,10.282,10.282,0,0,1,1.711-.167,4.549,4.549,0,0,1,.735.053c.16-.258.491-.685.934-.685a1.462,1.462,0,0,1,1.056.566,15.353,15.353,0,0,0,2.5-.648,6.6,6.6,0,0,1,2.281-.491,2.1,2.1,0,0,1,1.082.244,1.187,1.187,0,0,1,.485-.255h.017a8.019,8.019,0,0,1,1.206.182.271.271,0,0,1,.212.276l-.1,2.3a.269.269,0,0,1-.159.234,2.033,2.033,0,0,1-.745.157,1.185,1.185,0,0,1-.586-.14,4.742,4.742,0,0,1-1.378.465,2.378,2.378,0,0,1-.348.021,13.7,13.7,0,0,1-1.554-.144,12.354,12.354,0,0,0-1.359-.13c-.62,0-1.17.028-1.412.043a1.845,1.845,0,0,1-.925.716A.81.81,0,0,1,441.561,456.452Z" transform="translate(-437.608 -452.444)" fill="#a0a7b0"/>
              </g>
            </g>
            <g id="Grupo_69975" data-name="Grupo 69975" transform="translate(15.073)">
              <g id="Grupo_69974" data-name="Grupo 69974">
                <path id="Trazado_116633" data-name="Trazado 116633" d="M468.146,456.45a.808.808,0,0,1-.2-.026,1.844,1.844,0,0,1-.925-.716c-.242-.015-.792-.043-1.412-.043a12.328,12.328,0,0,0-1.359.13,13.724,13.724,0,0,1-1.556.144,2.367,2.367,0,0,1-.348-.021,4.759,4.759,0,0,1-1.378-.465,1.184,1.184,0,0,1-.585.14,2.031,2.031,0,0,1-.745-.157.269.269,0,0,1-.159-.234l-.1-2.3a.27.27,0,0,1,.212-.276,9.034,9.034,0,0,1,1.144-.188,1.264,1.264,0,0,1,.562.262,2.1,2.1,0,0,1,1.084-.245,6.6,6.6,0,0,1,2.281.491,15.289,15.289,0,0,0,2.5.648,1.442,1.442,0,0,1,1.016-.564h0a1.277,1.277,0,0,1,.971.683,4.547,4.547,0,0,1,.734-.053,10.291,10.291,0,0,1,1.712.167.271.271,0,0,1,.215.22l.281,1.689a.27.27,0,0,1-.22.311,4.609,4.609,0,0,1-.751.05,19.007,19.007,0,0,1-2.109-.155A1.179,1.179,0,0,1,468.146,456.45Z" transform="translate(-459.378 -452.436)" fill="#a0a7b0"/>
              </g>
            </g>
          </g>
        </g>
      </g>
      <g id="Grupo_69983" data-name="Grupo 69983">
        <g id="Grupo_69979" data-name="Grupo 69979">
          <path id="Trazado_116634" data-name="Trazado 116634" d="M468.11,202.6a118.917,118.917,0,0,0-5.284-10.921c.587-5.872,2.583-15.619,3.758-20.785a47.086,47.086,0,0,0,.7-13.622c-.392-3.915-1.722-11.745-1.722-11.745-.939-3.756-3.6-3.913-5.53-4.208a66.407,66.407,0,0,0-7.418-.645l-.76-2.4a2.4,2.4,0,0,0-2.29-1.676h-5.643a2.4,2.4,0,0,0-2.29,1.676l-.76,2.4a66.407,66.407,0,0,0-7.417.645c-1.929.294-4.592.451-5.53,4.208,0,0-1.331,7.83-1.723,11.745a47.064,47.064,0,0,0,.7,13.622c1.174,5.167,3.171,14.914,3.758,20.785a118.892,118.892,0,0,0-5.284,10.921c-2.232,5.754-3.993,10.216-2.949,18.865.528,4.373,4.582,7.061,8.932,7.954s7.756,1.059,15.389,1.176c7.633-.117,11.039-.283,15.389-1.176s8.4-3.582,8.932-7.954C472.1,212.818,470.342,208.356,468.11,202.6Z" transform="translate(-422.108 -136.606)" fill="#bdc2c8"/>
        </g>
        <g id="Grupo_69982" data-name="Grupo 69982" transform="translate(1.809 5.729)">
          <g id="Grupo_69980" data-name="Grupo 69980" transform="translate(0 51.225)">
            <path id="Trazado_116635" data-name="Trazado 116635" d="M467.974,227.9a39.288,39.288,0,0,0-4.814-9.043c-3.288,1.837-8.1,3.17-15.619,3.641-7.516-.47-12.33-1.8-15.618-3.641a39.307,39.307,0,0,0-4.814,9.043c-.542,1.4-1.927,5.063-2.387,6.341,6.028,2.191,13.073,3.366,22.82,3.428,9.747-.062,16.792-1.237,22.82-3.428C469.9,232.967,468.516,229.3,467.974,227.9Z" transform="translate(-424.721 -218.861)" fill="#c6cad0"/>
          </g>
          <g id="Grupo_69981" data-name="Grupo 69981" transform="translate(3.288)">
            <path id="Trazado_116636" data-name="Trazado 116636" d="M449,161.463c8.1-.7,13.556-2.762,19.533-.814-.861-4.9-1.239-6.168-2.349-11.947-.563-2.254-1.3-3.16-2.427-3.523a6.81,6.81,0,0,0-4.462.157c-2.754,1.306-5.089,3.209-10.295,3.366-5.206-.156-7.541-2.06-10.295-3.366a6.81,6.81,0,0,0-4.463-.157c-1.124.363-1.864,1.269-2.427,3.523-1.109,5.779-1.487,7.046-2.349,11.947C435.445,158.7,440.9,160.758,449,161.463Z" transform="translate(-429.469 -144.88)" fill="#c6cad0"/>
          </g>
        </g>
      </g>
    </g>
    <g id="Grupo_70020" data-name="Grupo 70020" transform="translate(164.055 155.829)">
      <g id="Grupo_70019" data-name="Grupo 70019" transform="translate(0)">
        <g id="Grupo_70006" data-name="Grupo 70006">
          <g id="Grupo_69985" data-name="Grupo 69985" transform="translate(18.964 10.885)">
            <path id="Trazado_116637" data-name="Trazado 116637" d="M231.46,208.653V212.6H229.01l-.008.5,2.158,3.149h1.789l2.142-3.149.026-.5h-2.46v-3.943Z" transform="translate(-229.001 -208.653)" fill="#2d487a"/>
          </g>
          <g id="Grupo_69989" data-name="Grupo 69989" transform="translate(16.501)">
            <g id="Grupo_69986" data-name="Grupo 69986" transform="translate(0 0)">
              <rect id="Rectángulo_7210" data-name="Rectángulo 7210" width="11.041" height="13.886" fill="#ff526e"/>
            </g>
            <g id="Grupo_69987" data-name="Grupo 69987" transform="translate(0)">
              <line id="Línea_756" data-name="Línea 756" x2="11.041" fill="none" stroke="#ffdce2" stroke-linecap="round" stroke-linejoin="round" stroke-width="2.214"/>
            </g>
            <g id="Grupo_69988" data-name="Grupo 69988" transform="translate(0 13.886)">
              <line id="Línea_757" data-name="Línea 757" x2="11.041" fill="none" stroke="#ffdce2" stroke-linecap="round" stroke-linejoin="round" stroke-width="2.214"/>
            </g>
          </g>
          <g id="Grupo_69991" data-name="Grupo 69991" transform="translate(0 30.514)">
            <g id="Grupo_69990" data-name="Grupo 69990">
              <rect id="Rectángulo_7211" data-name="Rectángulo 7211" width="10.047" height="16.684" rx="3.054" fill="#c0c8d7"/>
            </g>
          </g>
          <g id="Grupo_69992" data-name="Grupo 69992" transform="translate(9.467 13.984)">
            <path id="Trazado_116638" data-name="Trazado 116638" d="M216.629,219.144v-4.672h-1.343v-1.343h4.18v1.343h-1.343v4.672Z" transform="translate(-215.285 -213.129)" fill="#2d487a"/>
          </g>
          <g id="Grupo_69993" data-name="Grupo 69993" transform="translate(75.645 43.701)">
            <path id="Trazado_116639" data-name="Trazado 116639" d="M310.862,269.489V256.047h1c0,1.391,0,13.442,0,13.442Z" transform="translate(-310.862 -256.047)" fill="#2d487a"/>
          </g>
          <g id="Grupo_69994" data-name="Grupo 69994" transform="translate(77.97 56.551)">
            <path id="Trazado_116640" data-name="Trazado 116640" d="M314.222,274.618h0C314.221,274.6,314.221,274.6,314.222,274.618Z" transform="translate(-314.22 -274.606)" fill="#2d487a"/>
          </g>
          <g id="Grupo_69995" data-name="Grupo 69995" transform="translate(74.322 56.564)">
            <path id="Trazado_116641" data-name="Trazado 116641" d="M312.6,275.2h-3.65v-.579H312.6C312.6,274.7,312.6,275.2,312.6,275.2Z" transform="translate(-308.951 -274.624)" fill="#2d487a"/>
          </g>
          <g id="Grupo_69996" data-name="Grupo 69996" transform="translate(76.162 54.73)">
            <rect id="Rectángulo_7212" data-name="Rectángulo 7212" width="1.581" height="0.714" fill="#2d487a"/>
          </g>
          <g id="Grupo_69997" data-name="Grupo 69997" transform="translate(78.102 45.149)">
            <path id="Trazado_116642" data-name="Trazado 116642" d="M318.232,260.288h-3.441a.382.382,0,0,1-.381-.381v-1.388a.382.382,0,0,1,.381-.381h4.48a.22.22,0,0,1,.215.343l-.708,1.464A.666.666,0,0,1,318.232,260.288Z" transform="translate(-314.411 -258.138)" fill="#2d487a"/>
          </g>
          <g id="Grupo_69998" data-name="Grupo 69998" transform="translate(72.042 46.254)">
            <rect id="Rectángulo_7213" data-name="Rectángulo 7213" width="6.866" height="0.491" fill="#2d487a"/>
          </g>
          <g id="Grupo_69999" data-name="Grupo 69999" transform="translate(70.415 43.089)">
            <path id="Trazado_116643" data-name="Trazado 116643" d="M305.816,259.3v-1.337a.407.407,0,0,0-.406-.406h-1.694a.407.407,0,0,1-.406-.406v-1.576a.407.407,0,0,1,.406-.406h2.412a.406.406,0,0,1,.406.406V259.3a.361.361,0,1,1-.717,0Z" transform="translate(-303.309 -255.163)" fill="#2d487a"/>
          </g>
          <g id="Grupo_70000" data-name="Grupo 70000" transform="translate(75.832 14.286)">
            <path id="Trazado_116644" data-name="Trazado 116644" d="M311.132,219.239v-5.674h2.425l1.351,1.192h-2.582v4.482Z" transform="translate(-311.132 -213.565)" fill="#2d487a"/>
          </g>
          <g id="Grupo_70001" data-name="Grupo 70001" transform="translate(77.588 15.96)">
            <line id="Línea_758" data-name="Línea 758" y2="6.45" fill="none" stroke="#ff526e" stroke-linecap="round" stroke-linejoin="round" stroke-width="0.611"/>
          </g>
          <g id="Grupo_70003" data-name="Grupo 70003" transform="translate(4.9 16.919)">
            <g id="Grupo_70002" data-name="Grupo 70002">
              <path id="Trazado_116645" data-name="Trazado 116645" d="M295.113,258.744a4.275,4.275,0,0,1,4.257,4.229l.091,14.246a4.21,4.21,0,0,1-4.2,4.23h-82.34a4.242,4.242,0,0,1-4.229-4.23V221.6a4.242,4.242,0,0,1,4.229-4.229h77.429a4.19,4.19,0,0,1,4.186,4.229l-.192,19.516a4.3,4.3,0,0,1-4.277,4.229H272.579A5.421,5.421,0,0,1,267.5,241.2l-.416-2.031a5.421,5.421,0,0,0-5.079-4.143H243.659a4.171,4.171,0,0,0-4.17,4.229l.215,15.261a4.314,4.314,0,0,0,4.289,4.229Z" transform="translate(-208.689 -217.368)" fill="#d5dae4"/>
            </g>
          </g>
          <g id="SVGID" transform="translate(7.836 19.961)">
            <g id="Grupo_70004" data-name="Grupo 70004">
              <path id="Trazado_116646" data-name="Trazado 116646" d="M293.308,223.714l-.744-.976a4.118,4.118,0,0,0-2.859-.977H217.028a5.888,5.888,0,0,0-3.107.811l-.992.811" transform="translate(-212.929 -221.761)" fill="none" stroke="#eaedf2" stroke-linecap="round" stroke-linejoin="round" stroke-width="2.443"/>
            </g>
          </g>
          <g id="SVGID-2" data-name="SVGID" transform="translate(34.994 58.766)">
            <g id="Grupo_70005" data-name="Grupo 70005">
              <path id="Trazado_116647" data-name="Trazado 116647" d="M309.384,280.555h-53a4.471,4.471,0,0,1-3.172-1.375l-1.057-1.374" transform="translate(-252.153 -277.805)" fill="none" stroke="#eaedf2" stroke-linecap="round" stroke-linejoin="round" stroke-width="2.443"/>
            </g>
          </g>
        </g>
        <g id="Grupo_70007" data-name="Grupo 70007" transform="translate(25.098 11.081)">
          <line id="Línea_759" data-name="Línea 759" x2="52.49" y2="4.879" fill="none" stroke="#ff526e" stroke-linecap="round" stroke-linejoin="round" stroke-width="0.611"/>
        </g>
        <g id="Grupo_70018" data-name="Grupo 70018" transform="translate(11.066 26.122)">
          <g id="Grupo_70009" data-name="Grupo 70009">
            <g id="Grupo_70008" data-name="Grupo 70008">
              <path id="Trazado_116648" data-name="Trazado 116648" d="M238.025,232.943a2.291,2.291,0,0,1-2.284,2.284H219.879a2.284,2.284,0,1,1,0-4.567h15.862A2.291,2.291,0,0,1,238.025,232.943Z" transform="translate(-217.595 -230.659)" fill="#ff526e"/>
            </g>
          </g>
          <g id="Grupo_70017" data-name="Grupo 70017" transform="translate(2.286 0.929)">
            <g id="Grupo_70016" data-name="Grupo 70016">
              <g id="Grupo_70010" data-name="Grupo 70010">
                <path id="Trazado_116649" data-name="Trazado 116649" d="M221.74,234.677a.825.825,0,0,1-.844-.794l.51-.016c.037.255.2.341.337.341a.315.315,0,0,0,.336-.305c0-.236-.142-.289-.424-.4l-.083-.048-.006.015A.746.746,0,0,1,221.75,232a.765.765,0,0,1,.767.739l-.5.016c-.035-.239-.174-.286-.285-.286a.237.237,0,0,0-.247.243c0,.2.147.251.39.332a.851.851,0,0,1,.7.806A.807.807,0,0,1,221.74,234.677Z" transform="translate(-220.896 -232)" fill="#fff"/>
              </g>
              <g id="Grupo_70011" data-name="Grupo 70011" transform="translate(2.538 0.051)">
                <path id="Trazado_116650" data-name="Trazado 116650" d="M224.577,234.648l-.015-2.559,1.383-.015.015.455-.913.015.015.607.845-.014.015.454-.874.015.015.587.882-.015.015.455a.015.015,0,0,1-.015.015Z" transform="translate(-224.562 -232.074)" fill="#fff"/>
              </g>
              <g id="Grupo_70012" data-name="Grupo 70012" transform="translate(4.722 0.051)">
                <path id="Trazado_116651" data-name="Trazado 116651" d="M229.683,234.648l-.427-1.692-.4,1.68-.386.012-.757-2.555.5-.019.454,1.789.415-1.777.358-.012.441,1.789.422-1.777.5-.012-.725,2.563a.015.015,0,0,1-.014.011Z" transform="translate(-227.716 -232.074)" fill="#fff"/>
              </g>
              <g id="Grupo_70013" data-name="Grupo 70013" transform="translate(8.619 0.051)">
                <path id="Trazado_116652" data-name="Trazado 116652" d="M233.359,234.648l-.015-2.559.486-.015.015,2.559a.015.015,0,0,1-.015.015Z" transform="translate(-233.344 -232.074)" fill="#fff"/>
              </g>
              <g id="Grupo_70014" data-name="Grupo 70014" transform="translate(10.158 0.051)">
                <path id="Trazado_116653" data-name="Trazado 116653" d="M237.121,234.648l-1.075-1.858.021,1.842-.486.015-.015-2.559.551-.015,1.065,1.858-.021-1.842.486-.015.014,2.559a.015.015,0,0,1-.014.015Z" transform="translate(-235.566 -232.074)" fill="#fff"/>
              </g>
              <g id="Grupo_70015" data-name="Grupo 70015" transform="translate(13.134)">
                <path id="Trazado_116654" data-name="Trazado 116654" d="M241.248,234.677a1.339,1.339,0,1,1-.014-2.677,1.347,1.347,0,0,1,1.248.807l-.577.02a.83.83,0,0,0-.681-.358.869.869,0,1,0,.024,1.738.823.823,0,0,0,.739-.46l-1.052.021-.015-.455,1.675-.015A1.346,1.346,0,0,1,241.248,234.677Z" transform="translate(-239.865 -232)" fill="#fff"/>
              </g>
            </g>
          </g>
        </g>
      </g>
    </g>
    <g id="Grupo_70034" data-name="Grupo 70034" transform="translate(150.007 232.43)">
      <g id="Grupo_70025" data-name="Grupo 70025" transform="translate(205.504 2.477)">
        <g id="Grupo_70022" data-name="Grupo 70022">
          <g id="Grupo_70021" data-name="Grupo 70021">
            <path id="Trazado_116655" data-name="Trazado 116655" d="M484.857,310.771l9.262,117.543a1.549,1.549,0,0,1-1.218,1.743,1.427,1.427,0,0,1-1.464-1.381l-13.285-117c-.249-2.191,1.047-4.208,2.894-4.5s3.547,1.242,3.8,3.434C484.847,310.658,484.852,310.723,484.857,310.771Z" transform="translate(-478.121 -307.138)" fill="#b0967b"/>
          </g>
        </g>
        <g id="Grupo_70024" data-name="Grupo 70024" opacity="0.5" style="mix-blend-mode: multiply;isolation: isolate">
          <g id="Grupo_70023" data-name="Grupo 70023">
            <path id="Trazado_116656" data-name="Trazado 116656" d="M484.857,310.771l9.262,117.543a1.549,1.549,0,0,1-1.218,1.743,1.427,1.427,0,0,1-1.464-1.381l-13.285-117c-.249-2.191,1.047-4.208,2.894-4.5s3.547,1.242,3.8,3.434C484.847,310.658,484.852,310.723,484.857,310.771Z" transform="translate(-478.121 -307.138)" fill="#b0967b"/>
          </g>
        </g>
      </g>
      <g id="Grupo_70030" data-name="Grupo 70030" transform="translate(0 2.476)">
        <g id="Grupo_70027" data-name="Grupo 70027">
          <g id="Grupo_70026" data-name="Grupo 70026">
            <path id="Trazado_116657" data-name="Trazado 116657" d="M197.3,311.678l-13.285,117a1.412,1.412,0,0,1-1.518,1.374,1.568,1.568,0,0,1-1.164-1.737L190.59,310.77c.174-2.2,1.819-3.821,3.675-3.615s3.22,2.159,3.047,4.36C197.308,311.565,197.3,311.63,197.3,311.678Z" transform="translate(-181.323 -307.138)" fill="#b0967b"/>
          </g>
        </g>
        <g id="Grupo_70029" data-name="Grupo 70029" opacity="0.5" style="mix-blend-mode: multiply;isolation: isolate">
          <g id="Grupo_70028" data-name="Grupo 70028">
            <path id="Trazado_116658" data-name="Trazado 116658" d="M197.3,311.678l-13.285,117a1.412,1.412,0,0,1-1.518,1.374,1.568,1.568,0,0,1-1.164-1.737L190.59,310.77c.174-2.2,1.819-3.821,3.675-3.615s3.22,2.159,3.047,4.36C197.308,311.565,197.3,311.63,197.3,311.678Z" transform="translate(-181.323 -307.138)" fill="#b0967b"/>
          </g>
        </g>
      </g>
      <g id="Grupo_70033" data-name="Grupo 70033" transform="translate(0.809 0)">
        <g id="Grupo_70032" data-name="Grupo 70032">
          <g id="Grupo_70031" data-name="Grupo 70031">
            <rect id="Rectángulo_7214" data-name="Rectángulo 7214" width="219.889" height="8.008" fill="#b0967b"/>
          </g>
        </g>
      </g>
    </g>
    <g id="Grupo_70037" data-name="Grupo 70037" transform="translate(144.58 72.31)">
      <g id="Grupo_70036" data-name="Grupo 70036" transform="translate(0 0)">
        <g id="Grupo_70035" data-name="Grupo 70035">
          <path id="Trazado_116659" data-name="Trazado 116659" d="M193.941,78.686a6.412,6.412,0,1,1,6.375,6.444l-.026,4.978-25.709,17.185a2.458,2.458,0,0,0,1.353,4.5l48.479.26a2.458,2.458,0,0,0,1.4-4.487L200.29,90.108" transform="translate(-173.485 -72.31)" fill="none" stroke="#c6cad0" stroke-linecap="round" stroke-linejoin="round" stroke-width="4.626"/>
        </g>
      </g>
    </g>
  </g>
</svg>
