<svg xmlns="http://www.w3.org/2000/svg" width="292" height="232.085" viewBox="0 0 292 232.085">
  <g id="Grupo_61036" data-name="Grupo 61036" transform="translate(-1491.035 -542.193)">
    <g id="Grupo_61005" data-name="Grupo 61005" transform="translate(1550.289 556.701)">
      <path id="Trazado_108300" data-name="Trazado 108300" d="M1859.275,626.753a18.274,18.274,0,1,0,18.274,18.275A18.275,18.275,0,0,0,1859.275,626.753Zm.415,31.8a13.528,13.528,0,1,1,13.528-13.528A13.528,13.528,0,0,1,1859.69,658.555Z" transform="translate(-1835.719 -621.294)" fill="#ffd977"/>
      <rect id="Rectángulo_7001" data-name="Rectángulo 7001" width="4.984" height="7.12" transform="translate(21.063)" fill="#ffd977"/>
      <rect id="Rectángulo_7002" data-name="Rectángulo 7002" width="4.984" height="7.12" transform="translate(30.931 0.467) rotate(25.023)" fill="#ffd977"/>
      <rect id="Rectángulo_7003" data-name="Rectángulo 7003" width="4.984" height="7.12" transform="translate(39.333 5.028) rotate(48.353)" fill="#ffd977"/>
      <rect id="Rectángulo_7004" data-name="Rectángulo 7004" width="4.984" height="7.12" transform="translate(44.628 11.955) rotate(66.394)" fill="#ffd977"/>
      <rect id="Rectángulo_7005" data-name="Rectángulo 7005" width="4.984" height="7.12" transform="translate(7.12 21.36) rotate(90)" fill="#ffd977"/>
      <rect id="Rectángulo_7006" data-name="Rectángulo 7006" width="4.984" height="7.12" transform="translate(46.992 21.36) rotate(90)" fill="#ffd977"/>
      <rect id="Rectángulo_7007" data-name="Rectángulo 7007" width="4.984" height="7.12" transform="translate(19.072 6.918) rotate(154.977)" fill="#ffd977"/>
      <rect id="Rectángulo_7008" data-name="Rectángulo 7008" width="4.984" height="7.12" transform="translate(12.979 9.76) rotate(131.647)" fill="#ffd977"/>
      <rect id="Rectángulo_7009" data-name="Rectángulo 7009" width="4.984" height="7.12" transform="matrix(-0.4, 0.916, -0.916, -0.4, 8.888, 14.806)" fill="#ffd977"/>
      <rect id="Rectángulo_7010" data-name="Rectángulo 7010" width="4.984" height="7.12" transform="translate(21.123 40.584)" fill="#ffd977"/>
      <rect id="Rectángulo_7011" data-name="Rectángulo 7011" width="4.984" height="7.12" transform="matrix(0.906, -0.423, 0.423, 0.906, 27.979, 40.785)" fill="#ffd977"/>
      <rect id="Rectángulo_7012" data-name="Rectángulo 7012" width="4.984" height="7.12" transform="matrix(0.665, -0.747, 0.747, 0.665, 34.072, 37.944)" fill="#ffd977"/>
      <rect id="Rectángulo_7013" data-name="Rectángulo 7013" width="4.984" height="7.12" transform="translate(38.163 32.898) rotate(-66.394)" fill="#ffd977"/>
      <rect id="Rectángulo_7014" data-name="Rectángulo 7014" width="4.984" height="7.12" transform="matrix(-0.906, -0.423, 0.423, -0.906, 16.119, 47.237)" fill="#ffd977"/>
      <rect id="Rectángulo_7015" data-name="Rectángulo 7015" width="4.984" height="7.12" transform="translate(7.718 42.676) rotate(-131.648)" fill="#ffd977"/>
      <rect id="Rectángulo_7016" data-name="Rectángulo 7016" width="4.984" height="7.12" transform="translate(2.423 35.749) rotate(-113.606)" fill="#ffd977"/>
    </g>
    <path id="Trazado_108301" data-name="Trazado 108301" d="M2325.628,603.615l3.617-8.375-7.14-3.084a17.068,17.068,0,0,0-.18-3.732l7.191-3.66-4.138-8.13-6.828,3.475a16.992,16.992,0,0,0-2.418-2.373l2.926-6.773-8.375-3.618-2.926,6.773a17.019,17.019,0,0,0-3.385-.134l-2.151-7.354-8.756,2.561,2.265,7.744a17.072,17.072,0,0,0-2.841,2.427l-7.14-3.084-3.617,8.375,6.5,2.809a17.034,17.034,0,0,0-.268,5.687l-6.728,3.424,4.138,8.131,6.068-3.089a17.023,17.023,0,0,0,2.8,2.853l-2.552,5.907,8.375,3.618,2.552-5.907a17.047,17.047,0,0,0,4,.085l1.911,6.535,8.756-2.561-2.119-7.246a17.028,17.028,0,0,0,3.956-4.093Zm-24.194-4.282a8.966,8.966,0,1,1,11.786-4.676A8.966,8.966,0,0,1,2301.434,599.333Z" transform="translate(-621.717 -18.668)" fill="#e9f1ec"/>
    <g id="Grupo_61007" data-name="Grupo 61007" transform="translate(1690.678 643.097)">
      <path id="Trazado_108303" data-name="Trazado 108303" d="M2419.474,1080.037s-38.542-60.5,75.343-108.759C2494.816,971.278,2497.322,1098.648,2419.474,1080.037Z" transform="translate(-2413.194 -970.865)" fill="#08a29e"/>
      <path id="Trazado_108304" data-name="Trazado 108304" d="M2495.407,970.406l-78.95,100.612C2410.464,1052.911,2406.8,1007.955,2495.407,970.406Z" transform="translate(-2413.645 -970.198)" fill="#0ac4bf"/>
      <path id="Trazado_108305" data-name="Trazado 108305" d="M2438.553,1066.307a.209.209,0,0,1-.172-.337L2514,969.606a.209.209,0,0,1,.329.257l-75.617,96.364A.21.21,0,0,1,2438.553,1066.307Z" transform="translate(-2432.4 -969.527)" fill="#211718"/>
      <path id="Trazado_108306" data-name="Trazado 108306" d="M2591.614,1164.309a.208.208,0,0,1-.042-.413l33.532-5.773a.2.2,0,0,1,.24.17.208.208,0,0,1-.169.24l-33.533,5.773Z" transform="translate(-2549.321 -1113.587)" fill="#211718"/>
      <path id="Trazado_108307" data-name="Trazado 108307" d="M2523.016,1163.794a.2.2,0,0,1-.042,0,.209.209,0,0,1-.172-.239l5.438-32.957a.208.208,0,0,1,.411.068l-5.438,32.956A.209.209,0,0,1,2523.016,1163.794Z" transform="translate(-2496.919 -1092.429)" fill="#211718"/>
    </g>
    <g id="Grupo_61008" data-name="Grupo 61008" transform="translate(1684.43 726.041)">
      <path id="Trazado_108308" data-name="Trazado 108308" d="M2386.731,1342.913s15.449-45.367,88.18-6.14C2474.911,1336.773,2409.542,1391.279,2386.731,1342.913Z" transform="translate(-2386.731 -1320.8)" fill="#0ac4bf"/>
      <path id="Trazado_108309" data-name="Trazado 108309" d="M2474.911,1388.448l-88.18,6.14S2401.37,1444,2474.911,1388.448Z" transform="translate(-2386.731 -1372.475)" fill="#08a29e"/>
      <path id="Trazado_108310" data-name="Trazado 108310" d="M2594.234,1405.073l-.035-.011-18.911-7.642a.28.28,0,0,1,.209-.518l18.912,7.642a.28.28,0,0,1-.175.53Z" transform="translate(-2530.632 -1378.917)" fill="#c1eab1"/>
      <path id="Trazado_108311" data-name="Trazado 108311" d="M2449.587,1423.606a.27.27,0,0,1-.06-.023l-23.885-12.572a.279.279,0,1,1,.26-.494l23.886,12.572a.28.28,0,0,1-.2.518Z" transform="translate(-2416.34 -1389.307)" fill="#c1eab1"/>
    </g>
    <g id="Grupo_61009" data-name="Grupo 61009" transform="translate(1673.328 549.889)">
      <path id="Trazado_108312" data-name="Trazado 108312" d="M2369.338,724.183a.471.471,0,0,1-.088-.034.449.449,0,0,1-.207-.609c30.39-57.647,55.744-97.617,71.389-112.547.347-.332.6-.571.7-.7a.478.478,0,0,1,.656-.071.443.443,0,0,1,.084.634,10.739,10.739,0,0,1-.778.78c-15.578,14.866-40.87,54.755-71.217,112.32A.466.466,0,0,1,2369.338,724.183Z" transform="translate(-2362.08 -601.781)" fill="#515151"/>
      <path id="Trazado_108313" data-name="Trazado 108313" d="M2676.915,582.472c-1.834,1.661-9.922,3.828-10.421,3.315s2.248-8.164,4.081-9.825a4.712,4.712,0,0,1,6.49.247A4.321,4.321,0,0,1,2676.915,582.472Z" transform="translate(-2589.288 -574.784)" fill="#515151"/>
      <path id="Trazado_108314" data-name="Trazado 108314" d="M2615.161,607.718c.3,2.492-2.737,10.236-3.472,10.307s-5.554-6.91-5.856-9.4a4.487,4.487,0,0,1,4.119-4.964A4.75,4.75,0,0,1,2615.161,607.718Z" transform="translate(-2542.971 -596.823)" fill="#515151"/>
      <path id="Trazado_108315" data-name="Trazado 108315" d="M2640.719,658.274c-2.577-.318-9.757-5.044-9.675-5.754s8.135-3.559,10.713-3.242a4.661,4.661,0,0,1,4.149,5.073A4.575,4.575,0,0,1,2640.719,658.274Z" transform="translate(-2562.253 -631.67)" fill="#515151"/>
      <path id="Trazado_108316" data-name="Trazado 108316" d="M2470.959,755.937c.969,4.113-2.642,17.59-3.853,17.838s-10.548-10.582-11.516-14.694a7.477,7.477,0,0,1,5.931-9.019A8.031,8.031,0,0,1,2470.959,755.937Z" transform="translate(-2428.076 -708.548)" fill="#515151"/>
      <path id="Trazado_108317" data-name="Trazado 108317" d="M2522.441,832.821c-4.354-.08-17.2-6.728-17.2-7.928s12.885-7.372,17.239-7.291a7.9,7.9,0,0,1,7.861,7.755A7.6,7.6,0,0,1,2522.441,832.821Z" transform="translate(-2466.159 -760.266)" fill="#515151"/>
      <path id="Trazado_108318" data-name="Trazado 108318" d="M2402.836,813.914c2.3,4.676,1.765,21.762.394,22.374s-15.5-9.935-17.8-14.611a9.063,9.063,0,0,1,4.538-12.348A9.92,9.92,0,0,1,2402.836,813.914Z" transform="translate(-2373.915 -753.298)" fill="#515151"/>
      <path id="Trazado_108319" data-name="Trazado 108319" d="M2480.925,912.7c-5.3-.627-20.094-10.267-19.933-11.724s16.672-7.391,21.97-6.764a9.578,9.578,0,0,1,8.574,10.38A9.393,9.393,0,0,1,2480.925,912.7Z" transform="translate(-2432.354 -818.75)" fill="#515151"/>
      <path id="Trazado_108320" data-name="Trazado 108320" d="M2358.063,893c2.3,4.676,1.766,21.762.394,22.374s-15.5-9.935-17.8-14.61a9.062,9.062,0,0,1,4.537-12.348A9.92,9.92,0,0,1,2358.063,893Z" transform="translate(-2339.714 -813.711)" fill="#515151"/>
      <path id="Trazado_108321" data-name="Trazado 108321" d="M2436.153,991.785c-5.3-.627-20.094-10.267-19.933-11.725s16.672-7.391,21.97-6.764a9.578,9.578,0,0,1,8.574,10.38A9.393,9.393,0,0,1,2436.153,991.785Z" transform="translate(-2398.154 -879.163)" fill="#515151"/>
      <path id="Trazado_108322" data-name="Trazado 108322" d="M2576.3,655.68c.306,2.531-2.782,10.4-3.528,10.472s-5.644-7.021-5.95-9.552a4.559,4.559,0,0,1,4.185-5.044A4.826,4.826,0,0,1,2576.3,655.68Z" transform="translate(-2513.174 -633.41)" fill="#515151"/>
      <path id="Trazado_108323" data-name="Trazado 108323" d="M2600.729,707.423c-2.619-.323-9.913-5.125-9.83-5.846s8.266-3.616,10.885-3.294a4.735,4.735,0,0,1,4.215,5.154A4.648,4.648,0,0,1,2600.729,707.423Z" transform="translate(-2531.588 -669.104)" fill="#515151"/>
      <path id="Trazado_108324" data-name="Trazado 108324" d="M2521.932,695.357c.739,3.555-2.677,15.058-3.725,15.245s-8.827-9.319-9.565-12.874a6.44,6.44,0,0,1,5.308-7.622A6.9,6.9,0,0,1,2521.932,695.357Z" transform="translate(-2468.651 -662.792)" fill="#515151"/>
      <path id="Trazado_108325" data-name="Trazado 108325" d="M2563.408,768.534c-3.721-.458-14.084-7.282-13.966-8.3s11.743-5.138,15.464-4.679a6.727,6.727,0,0,1,5.988,7.322A6.6,6.6,0,0,1,2563.408,768.534Z" transform="translate(-2499.919 -712.839)" fill="#515151"/>
    </g>
    <g id="Grupo_61010" data-name="Grupo 61010" transform="translate(1541.21 696.899)">
      <path id="Trazado_108326" data-name="Trazado 108326" d="M1814.678,1250.452s18.975-27.958-33.985-52.237C1780.693,1198.215,1777.77,1258.149,1814.678,1250.452Z" transform="translate(-1780.532 -1198.018)" fill="#08a29e"/>
      <path id="Trazado_108327" data-name="Trazado 108327" d="M1780.6,1197.8l35.795,48.451C1819.468,1237.8,1821.809,1216.687,1780.6,1197.8Z" transform="translate(-1780.506 -1197.698)" fill="#0ac4bf"/>
      <path id="Trazado_108328" data-name="Trazado 108328" d="M1814.563,1243.982a.1.1,0,0,0,.085-.156l-34.283-46.405a.1.1,0,0,0-.137-.02.1.1,0,0,0-.021.137l34.283,46.405A.1.1,0,0,0,1814.563,1243.982Z" transform="translate(-1780.189 -1197.382)" fill="#211718"/>
      <path id="Trazado_108329" data-name="Trazado 108329" d="M1805.258,1289.893a.1.1,0,0,0,.026-.194l-15.709-3.177a.1.1,0,0,0-.115.077.1.1,0,0,0,.077.115l15.709,3.177Z" transform="translate(-1787.269 -1265.471)" fill="#211718"/>
      <path id="Trazado_108330" data-name="Trazado 108330" d="M1880.353,1291.833h.02a.1.1,0,0,0,.084-.11l-2.11-15.591a.1.1,0,0,0-.195.026l2.11,15.591A.1.1,0,0,0,1880.353,1291.833Z" transform="translate(-1855.021 -1257.471)" fill="#211718"/>
    </g>
    <g id="Grupo_61011" data-name="Grupo 61011" transform="translate(1491.035 721.308)">
      <path id="Trazado_108331" data-name="Trazado 108331" d="M1655.929,1334.78s-4.19-50.133-88.24-28.69C1567.69,1306.09,1620.392,1378.232,1655.929,1334.78Z" transform="translate(-1567.69 -1300.756)" fill="#0ac4bf"/>
      <path id="Trazado_108332" data-name="Trazado 108332" d="M1567.69,1323.346l88.24,28.69S1628.45,1398.628,1567.69,1323.346Z" transform="translate(-1567.69 -1318.012)" fill="#08a29e"/>
      <path id="Trazado_108333" data-name="Trazado 108333" d="M1661.761,1382.239l.038,0,21.2-2.97a.293.293,0,1,0-.081-.581l-21.2,2.97a.293.293,0,0,0,.043.584Z" transform="translate(-1639.322 -1360.282)" fill="#c1eab1"/>
      <path id="Trazado_108334" data-name="Trazado 108334" d="M1783.9,1437.921a.308.308,0,0,0,.066-.009l27.524-6.726a.293.293,0,1,0-.14-.57l-27.524,6.725a.294.294,0,0,0,.073.579Z" transform="translate(-1732.624 -1399.947)" fill="#c1eab1"/>
    </g>
    <g id="Grupo_61012" data-name="Grupo 61012" transform="translate(1518.418 589.412)">
      <path id="Trazado_108335" data-name="Trazado 108335" d="M1772.747,861.63a.373.373,0,0,0,.07-.027.359.359,0,0,0,.166-.487c-24.3-46.095-44.573-78.055-57.083-89.993-.278-.265-.479-.456-.56-.557a.382.382,0,0,0-.525-.056.354.354,0,0,0-.067.507,8.537,8.537,0,0,0,.622.624c12.456,11.887,32.68,43.783,56.945,89.812A.373.373,0,0,0,1772.747,861.63Z" transform="translate(-1707.348 -763.757)" fill="#515151"/>
      <path id="Trazado_108336" data-name="Trazado 108336" d="M1684.8,748.317c1.466,1.328,7.933,3.061,8.333,2.651s-1.8-6.528-3.263-7.856a3.768,3.768,0,0,0-5.189.2A3.454,3.454,0,0,0,1684.8,748.317Z" transform="translate(-1683.661 -742.17)" fill="#515151"/>
      <path id="Trazado_108337" data-name="Trazado 108337" d="M1740.693,768.5c-.241,1.993,2.188,8.185,2.777,8.242s4.441-5.526,4.682-7.518a3.588,3.588,0,0,0-3.293-3.969A3.8,3.8,0,0,0,1740.693,768.5Z" transform="translate(-1727.214 -759.792)" fill="#515151"/>
      <path id="Trazado_108338" data-name="Trazado 108338" d="M1706,808.928c2.061-.254,7.8-4.033,7.736-4.6s-6.505-2.846-8.566-2.592a3.727,3.727,0,0,0-3.317,4.056A3.658,3.658,0,0,0,1706,808.928Z" transform="translate(-1697.542 -787.656)" fill="#515151"/>
      <path id="Trazado_108339" data-name="Trazado 108339" d="M1839.57,887.021c-.775,3.289,2.112,14.065,3.081,14.263s8.434-8.461,9.209-11.75a5.979,5.979,0,0,0-4.742-7.211A6.421,6.421,0,0,0,1839.57,887.021Z" transform="translate(-1802.656 -849.129)" fill="#515151"/>
      <path id="Trazado_108340" data-name="Trazado 108340" d="M1774.174,948.5c3.481-.064,13.753-5.38,13.75-6.339s-10.3-5.894-13.784-5.83a6.316,6.316,0,0,0-6.286,6.2A6.081,6.081,0,0,0,1774.174,948.5Z" transform="translate(-1747.974 -890.483)" fill="#515151"/>
      <path id="Trazado_108341" data-name="Trazado 108341" d="M1883.2,933.38c-1.839,3.739-1.411,17.4-.315,17.891s12.391-7.944,14.23-11.683a7.247,7.247,0,0,0-3.628-9.874A7.932,7.932,0,0,0,1883.2,933.38Z" transform="translate(-1835.123 -884.911)" fill="#515151"/>
      <path id="Trazado_108342" data-name="Trazado 108342" d="M1793.143,1012.368c4.236-.5,16.067-8.21,15.939-9.375s-13.332-5.91-17.567-5.409a7.658,7.658,0,0,0-6.855,8.3A7.511,7.511,0,0,0,1793.143,1012.368Z" transform="translate(-1760.777 -937.247)" fill="#515151"/>
      <path id="Trazado_108343" data-name="Trazado 108343" d="M1919,996.618c-1.839,3.739-1.411,17.4-.315,17.891s12.391-7.944,14.23-11.683a7.246,7.246,0,0,0-3.628-9.873A7.932,7.932,0,0,0,1919,996.618Z" transform="translate(-1862.47 -933.218)" fill="#515151"/>
      <path id="Trazado_108344" data-name="Trazado 108344" d="M1828.943,1075.607c4.236-.5,16.067-8.21,15.938-9.375s-13.331-5.91-17.568-5.409a7.658,7.658,0,0,0-6.855,8.3A7.51,7.51,0,0,0,1828.943,1075.607Z" transform="translate(-1788.124 -985.553)" fill="#515151"/>
      <path id="Trazado_108345" data-name="Trazado 108345" d="M1965.86,1079.59c-3.164,2.8-8.162,15.679-7.348,16.538s14.513-2.837,17.677-5.641a7.282,7.282,0,0,0,.564-10.526A7.9,7.9,0,0,0,1965.86,1079.59Z" transform="translate(-1893.546 -998.39)" fill="#515151"/>
      <path id="Trazado_108346" data-name="Trazado 108346" d="M1865.036,1138.373c4.259.013,16.971-6.222,16.994-7.4s-12.434-7.485-16.693-7.5a7.743,7.743,0,0,0-7.862,7.424A7.427,7.427,0,0,0,1865.036,1138.373Z" transform="translate(-1816.432 -1033.442)" fill="#515151"/>
      <path id="Trazado_108347" data-name="Trazado 108347" d="M1771.376,806.854c-.245,2.024,2.224,8.316,2.821,8.374s4.513-5.614,4.758-7.638a3.646,3.646,0,0,0-3.346-4.033A3.859,3.859,0,0,0,1771.376,806.854Z" transform="translate(-1750.651 -789.047)" fill="#515151"/>
      <path id="Trazado_108348" data-name="Trazado 108348" d="M1737.362,848.229c2.094-.258,7.927-4.1,7.861-4.674s-6.609-2.892-8.7-2.634a3.786,3.786,0,0,0-3.37,4.121A3.717,3.717,0,0,0,1737.362,848.229Z" transform="translate(-1721.446 -817.589)" fill="#515151"/>
      <path id="Trazado_108349" data-name="Trazado 108349" d="M1804.511,838.581c-.591,2.843,2.141,12.041,2.979,12.19s7.058-7.452,7.649-10.294a5.15,5.15,0,0,0-4.245-6.095A5.514,5.514,0,0,0,1804.511,838.581Z" transform="translate(-1775.912 -812.541)" fill="#515151"/>
      <path id="Trazado_108350" data-name="Trazado 108350" d="M1750.739,897.094c2.975-.367,11.262-5.822,11.167-6.641s-9.39-4.108-12.365-3.742a5.379,5.379,0,0,0-4.788,5.855A5.28,5.28,0,0,0,1750.739,897.094Z" transform="translate(-1730.302 -852.56)" fill="#515151"/>
    </g>
    <g id="Grupo_61016" data-name="Grupo 61016" transform="translate(1502.305 651.147)">
      <path id="Trazado_108351" data-name="Trazado 108351" d="M1639.1,1009.123c-.1,1.536.492,3.113.065,4.592-.566,1.958-2.7,3.045-3.612,4.87-.951,1.911-.451,4.422-1.8,6.08-.478.59-1.144,1-1.652,1.563a4.053,4.053,0,0,0-.321,4.861c1.105,1.607,3.237,2.17,5.188,2.159s3.886-.471,5.834-.379c1.982.094,3.92.758,5.9.693a10.04,10.04,0,0,0,7.1-3.7,18.154,18.154,0,0,0,3.531-7.363,16.032,16.032,0,0,0,.526-3.091c.224-4.069-1.838-7.912-4.222-11.217a11.05,11.05,0,0,0-4-3.8C1647.8,1002.606,1639.449,1003.812,1639.1,1009.123Z" transform="translate(-1627.412 -1003.621)" fill="#211718"/>
      <g id="Grupo_61013" data-name="Grupo 61013" transform="translate(25.944 107.315)">
        <path id="Trazado_108352" data-name="Trazado 108352" d="M1730.083,1458.1s-.7,6.883.708,7.664c2.545,1.414,7.238,2.763,6.845,3.976s-11.643,1.262-11.956.154.948-4.5-.388-11.09Z" transform="translate(-1725.293 -1458.105)" fill="#f7c894"/>
        <path id="Trazado_108353" data-name="Trazado 108353" d="M1726.894,1495.616a9.933,9.933,0,0,0-.113,2.472c.312,1.107,11.563,1.06,11.956-.154.291-.9-2.193-1.916-4.551-2.927C1733.629,1495.943,1732.44,1497.4,1726.894,1495.616Z" transform="translate(-1726.394 -1486.294)" fill="#211718"/>
      </g>
      <g id="Grupo_61014" data-name="Grupo 61014" transform="translate(3.281 106.995)">
        <path id="Trazado_108354" data-name="Trazado 108354" d="M1635.665,1456.875s-1.859,6.664-.607,7.672c2.267,1.827,6.662,3.955,6.068,5.084s-11.688-.74-11.807-1.884,1.7-4.269,1.506-10.995Z" transform="translate(-1629.313 -1456.753)" fill="#f7c894"/>
        <path id="Trazado_108355" data-name="Trazado 108355" d="M1629.853,1493.08a9.911,9.911,0,0,0-.531,2.417c.119,1.144,11.213,3.013,11.807,1.884.441-.838-1.834-2.261-3.986-3.659C1636.435,1494.55,1635.015,1495.785,1629.853,1493.08Z" transform="translate(-1629.316 -1484.502)" fill="#211718"/>
      </g>
      <path id="Trazado_108356" data-name="Trazado 108356" d="M1747.542,1110.872s2.363,3.165,4.333,3.165c1.028,0,3.158-2.336,4.514-4.554a7.4,7.4,0,0,1,2.636-2.657l.669,1.157s-3.19,12.455-8.311,12.553-8.961-5.613-8.862-5.908,3.348-3.756,3.348-3.756Z" transform="translate(-1712.507 -1082.457)" fill="#f7c894"/>
      <path id="Trazado_108357" data-name="Trazado 108357" d="M1658.154,1199.711a27.671,27.671,0,0,1,4.434,8.035c1.379,4.333-2.278,55.667-2.278,55.667H1654.2s-3.239-45.716-3.239-46.121c0-1.6-12.023,46.121-12.023,46.121h-6.1s3.3-55.873,10.955-63.7l7.164.443Z" transform="translate(-1628.732 -1153.409)" fill="#515151"/>
      <path id="Trazado_108358" data-name="Trazado 108358" d="M1693.514,1189.668v1.92s-3.643,3.545-14.352,0l-.025-1.92,9.4-.591Z" transform="translate(-1664.092 -1145.286)" fill="#211718"/>
      <path id="Trazado_108359" data-name="Trazado 108359" d="M1654.513,1089.424s3.8-.141,5.721,1.188c1.377.951,4.419,6.314,4.419,6.314l-3.492,2.968a4.319,4.319,0,0,1-2.419,4.861l-.589,7.829s-6.105,3.545-14.377,0c0,0-1.575-14.672-3.052-13.392a19.447,19.447,0,0,0-2.363,2.413l-5.514-5.465s6.012-6.023,8-6.967a9.619,9.619,0,0,1,8.441-.084Z" transform="translate(-1628.732 -1068.203)" fill="#ffd977"/>
      <path id="Trazado_108360" data-name="Trazado 108360" d="M1624.533,1128.437s-3.2,3.736-2.832,4.771,6.021,9.548,6.777,11.162a4.349,4.349,0,0,1,.534,2.574l-2.88,1.4s-.15-2.279-.777-2.949-10.154-10.492-9.932-13.594,4.594-7.842,4.594-7.842Z" transform="translate(-1615.42 -1095.547)" fill="#f7c894"/>
      <path id="Trazado_108361" data-name="Trazado 108361" d="M1731.66,1040.663s.417-.819.851-.555c1.106.674.126,1.848-.525,2.152Z" transform="translate(-1704.213 -1031.452)" fill="#e59757"/>
      <path id="Trazado_108362" data-name="Trazado 108362" d="M1683.505,1006.251a6.248,6.248,0,0,0-4.257,9.324,26.973,26.973,0,0,0,3.035,4.893,6.219,6.219,0,0,1,1.581,4.271l-.045,1.59c3.819,1.393,5.31.435,5.31.435l-.53-4.641h0c3.854-.913,2.509-8.063,2.266-10.195l-.006,0c-.006-.08-.012-.16-.021-.241A6.25,6.25,0,0,0,1683.505,1006.251Z" transform="translate(-1663.514 -1005.552)" fill="#f7c894"/>
      <path id="Trazado_108363" data-name="Trazado 108363" d="M1680.259,1011.577a26.007,26.007,0,0,0-2.607,4.382c-.072.172-.571,1.466-.371,1.585a8.058,8.058,0,0,1-2.544-2.8,6.511,6.511,0,0,1,4.6-9.761,6.881,6.881,0,0,1,6.377,1.76c1.5,1.619,1.811,3.847,2.2,5.926-.436-2.334-3.8-3.727-5.79-4.342.058.018-1.178,2.194-1.245,2.3C1680.676,1010.947,1680.469,1011.262,1680.259,1011.577Z" transform="translate(-1660.04 -1004.543)" fill="#211718"/>
      <path id="Trazado_108364" data-name="Trazado 108364" d="M1683.259,1050.973a.927.927,0,0,0-.533-.383,1.566,1.566,0,0,0-1.686.353c-.676.85,1.089,2.7,2.491,1.518C1683.53,1052.462,1683.913,1051.979,1683.259,1050.973Z" transform="translate(-1665.431 -1039.426)" fill="#f7c894"/>
      <path id="Trazado_108365" data-name="Trazado 108365" d="M1723.808,1041.64a.545.545,0,1,0-.536.555A.545.545,0,0,0,1723.808,1041.64Z" transform="translate(-1697.382 -1032.253)" fill="#211718"/>
      <path id="Trazado_108366" data-name="Trazado 108366" d="M1702.424,1046.545a.545.545,0,1,0-.536.555A.546.546,0,0,0,1702.424,1046.545Z" transform="translate(-1681.047 -1036)" fill="#211718"/>
      <path id="Trazado_108367" data-name="Trazado 108367" d="M1715.423,1058.136s-.718-.518-.994-.432a.815.815,0,0,0-.418.428.63.63,0,0,0-.516-.324c-.339.006-1.041.942-1.041.942s1.013,1.461,2.033,1.24c1.039-.225.926-1.778.926-1.778Z" transform="translate(-1689.542 -1044.927)" fill="#e59757"/>
      <path id="Trazado_108368" data-name="Trazado 108368" d="M1697.9,1041.955a.227.227,0,0,1-.195-.38,2.721,2.721,0,0,1,1.654-.757.227.227,0,0,1,.245.207.232.232,0,0,1-.207.245,2.264,2.264,0,0,0-1.36.614A.228.228,0,0,1,1697.9,1041.955Z" transform="translate(-1678.233 -1032.035)" fill="#211718"/>
      <path id="Trazado_108369" data-name="Trazado 108369" d="M1720.117,1036.278a.227.227,0,0,1-.1-.415,2.691,2.691,0,0,1,1.786-.344.227.227,0,0,1-.069.448,2.257,2.257,0,0,0-1.467.275A.225.225,0,0,1,1720.117,1036.278Z" transform="translate(-1695.241 -1027.963)" fill="#211718"/>
      <path id="Trazado_108370" data-name="Trazado 108370" d="M1715.542,1046.311a.971.971,0,0,0,.775-.956.191.191,0,0,0-.058-.129,2.819,2.819,0,0,1-.713-1.679.191.191,0,0,0-.382.018,3.206,3.206,0,0,0,.767,1.872c-.02.154-.136.506-.748.546a.191.191,0,1,0,.024.381A1.689,1.689,0,0,0,1715.542,1046.311Z" transform="translate(-1691.49 -1033.981)" fill="#e59757"/>
      <path id="Trazado_108371" data-name="Trazado 108371" d="M1715.423,1059.564l-2.969.614a3.555,3.555,0,0,0,1.917.608C1715.177,1060.666,1715.423,1059.564,1715.423,1059.564Z" transform="translate(-1689.542 -1046.354)" fill="#fafafc"/>
      <g id="Grupo_61015" data-name="Grupo 61015" transform="translate(9.146 47.146)">
        <path id="Trazado_108372" data-name="Trazado 108372" d="M1657.018,1203.286s2.5,3.509,2.246,4.324-1.326,3.11-1.408,3.514a19.906,19.906,0,0,1-.254,2.914c-.221.337-.754-2.331-.754-2.331s.135,2.34-.273,2.487-.77-2.35-.77-2.35.212,2.367-.187,2.38-.636-2.283-.636-2.283.139,1.841-.179,1.845-1.021-3.006-.4-4.065c1.465-2.5,1.035-3.838,1.035-3.838Z" transform="translate(-1654.155 -1203.286)" fill="#f7c894"/>
        <path id="Trazado_108373" data-name="Trazado 108373" d="M1672.646,1214a10.565,10.565,0,0,1,1.258,2.88c.016.794.244,2.407-.1,2.4s-.8-2.237-1.05-2.331-.25-1.1-.25-1.1Z" transform="translate(-1668.174 -1211.466)" fill="#f7c894"/>
      </g>
      <path id="Trazado_108374" data-name="Trazado 108374" d="M1687.442,1144.352c-2.77,0-3.924-2.769-3.935-2.8a.1.1,0,0,1,.056-.133.1.1,0,0,1,.134.057c.011.026,1.115,2.668,3.745,2.668a4.118,4.118,0,0,0,3.666-1.938.1.1,0,1,1,.182.094A4.335,4.335,0,0,1,1687.442,1144.352Z" transform="translate(-1667.424 -1108.878)" fill="#211718"/>
      <path id="Trazado_108375" data-name="Trazado 108375" d="M1746.92,1127.009a.1.1,0,0,1-.1-.09,5.88,5.88,0,0,0-1.671-3.214.1.1,0,1,1,.141-.15,5.975,5.975,0,0,1,1.734,3.34.1.1,0,0,1-.09.114Z" transform="translate(-1714.491 -1095.214)" fill="#211718"/>
      <path id="Trazado_108376" data-name="Trazado 108376" d="M1712.777,1198.063a1.807,1.807,0,1,1,1.807-1.807A1.809,1.809,0,0,1,1712.777,1198.063Zm0-2.792a.986.986,0,1,0,.986.985A.987.987,0,0,0,1712.777,1195.271Z" transform="translate(-1688.409 -1149.391)" fill="#f8fff5"/>
    </g>
    <g id="Grupo_61025" data-name="Grupo 61025" transform="translate(1567.727 571.973)">
      <g id="Grupo_61017" data-name="Grupo 61017" transform="translate(0 0)">
        <path id="Trazado_108377" data-name="Trazado 108377" d="M2034.209,733.26l-139.925-.979a.512.512,0,0,0-.516.508l-1.281,183.228a.512.512,0,0,0,.508.516l139.725.977a.513.513,0,0,0,.516-.508l1.283-183.428A.312.312,0,0,0,2034.209,733.26Z" transform="translate(-1892.487 -717.177)" fill="#211718"/>
        <rect id="Rectángulo_7017" data-name="Rectángulo 7017" width="131.454" height="173.998" transform="translate(5.29 19.924)" fill="#f8fff5"/>
        <path id="Trazado_108378" data-name="Trazado 108378" d="M2102.484,678.764l-20.959-.147c.027-.281.047-.565.049-.853a9.384,9.384,0,0,0-18.767-.131c0,.288.013.572.037.853l-20.959-.147a7.234,7.234,0,0,0-7.284,7.183l-.069,9.861a1.672,1.672,0,0,0,1.66,1.684l71.722.5a1.672,1.672,0,0,0,1.683-1.66l.069-9.861A7.233,7.233,0,0,0,2102.484,678.764Zm-30.335,4.906a5.971,5.971,0,1,1,6.013-5.929A5.971,5.971,0,0,1,2072.149,683.669Z" transform="translate(-2000.993 -668.315)" fill="#0ac4bf"/>
      </g>
      <g id="Grupo_61018" data-name="Grupo 61018" transform="translate(104.937 154.13)">
        <path id="Trazado_108379" data-name="Trazado 108379" d="M2357.7,1353.744H2337.7a.8.8,0,0,1-.8-.8v-19.994a.8.8,0,0,1,.8-.8H2357.7a.8.8,0,0,1,.8.8v19.994A.8.8,0,0,1,2357.7,1353.744Zm-19.2-1.6h18.4v-18.4h-18.4Z" transform="translate(-2336.904 -1329.536)" fill="#0ac4bf"/>
        <path id="Trazado_108380" data-name="Trazado 108380" d="M2355.087,1342.183l-.064,0a1.064,1.064,0,0,1-.941-.715,34.765,34.765,0,0,0-5.5-10.078,1.064,1.064,0,0,1,1.677-1.311,37.024,37.024,0,0,1,4.973,8.441,55.539,55.539,0,0,1,14.677-17.23,1.064,1.064,0,0,1,1.305,1.681,53.213,53.213,0,0,0-15.167,18.615A1.064,1.064,0,0,1,2355.087,1342.183Z" transform="translate(-2345.651 -1321.065)" fill="#bf3976"/>
      </g>
      <g id="Grupo_61019" data-name="Grupo 61019" transform="translate(15.627 124.512)">
        <path id="Rectángulo_7018" data-name="Rectángulo 7018" d="M.294,0H65.646a.294.294,0,0,1,.294.294V2a.294.294,0,0,1-.294.294H.293A.293.293,0,0,1,0,2V.294A.294.294,0,0,1,.294,0Z" transform="translate(0 6.562)" fill="#0ac4bf"/>
        <rect id="Rectángulo_7019" data-name="Rectángulo 7019" width="59.342" height="2.294" rx="0.278" transform="translate(0 13.052)" fill="#0ac4bf"/>
        <path id="Rectángulo_7020" data-name="Rectángulo 7020" d="M.139,0H20.118a.139.139,0,0,1,.139.139V2.156a.138.138,0,0,1-.138.138H.139A.139.139,0,0,1,0,2.155V.139A.139.139,0,0,1,.139,0Z" fill="#f5a556"/>
        <path id="Rectángulo_7021" data-name="Rectángulo 7021" d="M.164,0H28.179a.164.164,0,0,1,.164.164V2.13a.163.163,0,0,1-.163.163H.163A.163.163,0,0,1,0,2.13V.164A.164.164,0,0,1,.164,0Z" transform="translate(23.328)" fill="#f5a556"/>
      </g>
      <g id="Grupo_61020" data-name="Grupo 61020" transform="translate(58.968 83.239)">
        <rect id="Rectángulo_7022" data-name="Rectángulo 7022" width="40.538" height="2.294" rx="0.23" transform="translate(0 6.563)" fill="#0ac4bf"/>
        <path id="Rectángulo_7023" data-name="Rectángulo 7023" d="M.219,0H36.263a.219.219,0,0,1,.219.219V2.075a.219.219,0,0,1-.219.219H.218A.218.218,0,0,1,0,2.075V.219A.219.219,0,0,1,.219,0Z" transform="translate(0 13.052)" fill="#0ac4bf"/>
        <path id="Rectángulo_7024" data-name="Rectángulo 7024" d="M.108,0H12.344a.109.109,0,0,1,.109.109V2.185a.108.108,0,0,1-.108.108H.109A.109.109,0,0,1,0,2.185V.108A.108.108,0,0,1,.108,0Z" fill="#f5a556"/>
        <path id="Rectángulo_7025" data-name="Rectángulo 7025" d="M.128,0H17.3a.129.129,0,0,1,.129.129V2.165a.128.128,0,0,1-.128.128H.128A.128.128,0,0,1,0,2.165V.128A.128.128,0,0,1,.128,0Z" transform="translate(14.341)" fill="#f5a556"/>
      </g>
      <g id="Grupo_61021" data-name="Grupo 61021" transform="translate(58.968 46.184)">
        <rect id="Rectángulo_7026" data-name="Rectángulo 7026" width="40.538" height="2.294" rx="0.23" transform="translate(0 6.563)" fill="#0ac4bf"/>
        <path id="Rectángulo_7027" data-name="Rectángulo 7027" d="M.219,0H36.263a.219.219,0,0,1,.219.219V2.076a.218.218,0,0,1-.218.218H.218A.218.218,0,0,1,0,2.075V.219A.219.219,0,0,1,.219,0Z" transform="translate(0 13.052)" fill="#0ac4bf"/>
        <path id="Rectángulo_7028" data-name="Rectángulo 7028" d="M.109,0H12.344a.109.109,0,0,1,.109.109V2.185a.108.108,0,0,1-.108.108H.109A.109.109,0,0,1,0,2.185V.109A.109.109,0,0,1,.109,0Z" fill="#f5a556"/>
        <path id="Rectángulo_7029" data-name="Rectángulo 7029" d="M.128,0H17.3a.129.129,0,0,1,.129.129V2.166a.128.128,0,0,1-.128.128H.128A.128.128,0,0,1,0,2.165V.128A.128.128,0,0,1,.128,0Z" transform="translate(14.341)" fill="#f5a556"/>
      </g>
      <rect id="Rectángulo_7030" data-name="Rectángulo 7030" width="59.342" height="2.294" rx="0.278" transform="translate(15.627 163.579)" fill="#0ac4bf"/>
      <path id="Rectángulo_7031" data-name="Rectángulo 7031" d="M.278,0H59.063a.278.278,0,0,1,.278.278V2.015a.279.279,0,0,1-.279.279H.278A.278.278,0,0,1,0,2.015V.278A.278.278,0,0,1,.278,0Z" transform="translate(15.627 170.068)" fill="#0ac4bf"/>
      <path id="Rectángulo_7032" data-name="Rectángulo 7032" d="M.194,0H39.883a.195.195,0,0,1,.195.195V2.1a.194.194,0,0,1-.194.194H.195A.195.195,0,0,1,0,2.1V.194A.194.194,0,0,1,.194,0Z" transform="translate(15.627 157.016)" fill="#f5a556"/>
      <rect id="Rectángulo_7033" data-name="Rectángulo 7033" width="30.634" height="2.293" rx="0.17" transform="translate(59.211 157.016)" fill="#f5a556"/>
      <g id="Grupo_61022" data-name="Grupo 61022" transform="translate(105.51 120.297)">
        <path id="Trazado_108381" data-name="Trazado 108381" d="M2360.119,1207.527h-19.994a.8.8,0,0,1-.8-.8v-19.994a.8.8,0,0,1,.8-.8h19.994a.8.8,0,0,1,.8.8v19.994A.8.8,0,0,1,2360.119,1207.527Zm-19.2-1.6h18.4v-18.4h-18.4Z" transform="translate(-2339.327 -1184.012)" fill="#0ac4bf"/>
        <path id="Trazado_108382" data-name="Trazado 108382" d="M2357.014,1197.343l-.06,0a.986.986,0,0,1-.873-.662,32.2,32.2,0,0,0-5.1-9.334.985.985,0,1,1,1.552-1.214,34.311,34.311,0,0,1,4.606,7.818,51.432,51.432,0,0,1,13.594-15.958.986.986,0,1,1,1.209,1.557,49.273,49.273,0,0,0-14.048,17.241A.986.986,0,0,1,2357.014,1197.343Z" transform="translate(-2348.074 -1177.783)" fill="#bf3976"/>
      </g>
      <g id="Grupo_61023" data-name="Grupo 61023" transform="translate(105.223 81.492)">
        <path id="Trazado_108383" data-name="Trazado 108383" d="M2358.907,1043.182h-19.994a.8.8,0,0,1-.8-.8V1022.39a.8.8,0,0,1,.8-.8h19.994a.8.8,0,0,1,.8.8v19.994A.8.8,0,0,1,2358.907,1043.182Zm-19.2-1.6h18.4v-18.4h-18.4Z" transform="translate(-2338.115 -1019.667)" fill="#0ac4bf"/>
        <path id="Trazado_108384" data-name="Trazado 108384" d="M2355.8,1033l-.06,0a.986.986,0,0,1-.872-.662,32.188,32.188,0,0,0-5.1-9.334.986.986,0,0,1,1.553-1.214,34.32,34.32,0,0,1,4.606,7.818,51.43,51.43,0,0,1,13.594-15.958.985.985,0,1,1,1.208,1.557,49.288,49.288,0,0,0-14.048,17.241A.985.985,0,0,1,2355.8,1033Z" transform="translate(-2346.862 -1013.438)" fill="#bf3976"/>
      </g>
      <g id="Grupo_61024" data-name="Grupo 61024" transform="translate(104.937 44.471)">
        <path id="Trazado_108385" data-name="Trazado 108385" d="M2357.7,886.4H2337.7a.8.8,0,0,1-.8-.8V865.6a.8.8,0,0,1,.8-.8H2357.7a.8.8,0,0,1,.8.8V885.6A.8.8,0,0,1,2357.7,886.4Zm-19.2-1.6h18.4V866.4h-18.4Z" transform="translate(-2336.904 -862.882)" fill="#0ac4bf"/>
        <path id="Trazado_108386" data-name="Trazado 108386" d="M2354.59,876.212l-.059,0a.986.986,0,0,1-.873-.662,32.182,32.182,0,0,0-5.1-9.334.986.986,0,1,1,1.552-1.214,34.291,34.291,0,0,1,4.606,7.818,51.446,51.446,0,0,1,13.594-15.958.986.986,0,1,1,1.209,1.557,49.288,49.288,0,0,0-14.048,17.241A.985.985,0,0,1,2354.59,876.212Z" transform="translate(-2345.65 -856.653)" fill="#bf3976"/>
      </g>
    </g>
    <g id="Grupo_61030" data-name="Grupo 61030" transform="translate(1534.242 587.506)">
      <g id="Grupo_61028" data-name="Grupo 61028" transform="translate(0 0)">
        <g id="Grupo_61026" data-name="Grupo 61026" transform="translate(8.627 58)">
          <path id="Trazado_108387" data-name="Trazado 108387" d="M1839.994,979.73s-33.826,8.853-52.783,39.318l10.966-.807,3.823,8.12s15.411-27.567,42.221-33.684Z" transform="translate(-1787.211 -979.73)" fill="#0ac4bf"/>
          <path id="Trazado_108388" data-name="Trazado 108388" d="M1912.16,979.73s33.826,8.853,52.783,39.318l-10.966-.807-3.823,8.12s-15.411-27.567-42.221-33.684Z" transform="translate(-1879.428 -979.73)" fill="#0ac4bf"/>
        </g>
        <circle id="Elipse_5140" data-name="Elipse 5140" cx="36.334" cy="36.334" r="36.334" transform="translate(0 51.385) rotate(-45)" fill="#bf3976"/>
        <g id="Grupo_61027" data-name="Grupo 61027" transform="translate(18.783 18.783)">
          <path id="Trazado_108389" data-name="Trazado 108389" d="M1862.824,878.85a32.6,32.6,0,1,1,32.6-32.6A32.64,32.64,0,0,1,1862.824,878.85Zm0-64.208a31.606,31.606,0,1,0,31.607,31.606A31.641,31.641,0,0,0,1862.824,814.642Z" transform="translate(-1830.222 -813.646)" fill="#ffd977"/>
        </g>
      </g>
      <g id="Grupo_61029" data-name="Grupo 61029" transform="translate(30.055 33.939)">
        <path id="Trazado_108390" data-name="Trazado 108390" d="M1907.42,878.734h2.736V891.17h-2.736Z" transform="translate(-1900.464 -878.521)" fill="#ffd977"/>
        <path id="Trazado_108391" data-name="Trazado 108391" d="M1928.564,888.783l1.617-1.936a5.7,5.7,0,0,0,3.713,1.51c1.119,0,1.794-.444,1.794-1.208,0-.693-.427-1.048-2.505-1.581-2.505-.64-4.122-1.333-4.122-3.838,0-2.256,1.812-3.748,4.353-3.748a7.2,7.2,0,0,1,4.619,1.581l-1.421,2.061a5.834,5.834,0,0,0-3.233-1.226c-1.048,0-1.6.48-1.6,1.119,0,.817.533,1.084,2.682,1.634,2.523.657,3.944,1.563,3.944,3.766,0,2.47-1.883,3.855-4.566,3.855A7.915,7.915,0,0,1,1928.564,888.783Z" transform="translate(-1916.615 -877.946)" fill="#ffd977"/>
        <path id="Trazado_108392" data-name="Trazado 108392" d="M1978,884.262a6.611,6.611,0,1,1,6.591,6.431A6.431,6.431,0,0,1,1978,884.262Zm10.357,0a3.778,3.778,0,0,0-3.766-3.909,3.728,3.728,0,0,0-3.73,3.909,3.778,3.778,0,0,0,3.766,3.908A3.728,3.728,0,0,0,1988.359,884.262Z" transform="translate(-1954.38 -877.831)" fill="#ffd977"/>
        <path id="Trazado_108393" data-name="Trazado 108393" d="M1878.244,970.223l1.439-2.079a4.024,4.024,0,0,0,2.718,1.066c1.528,0,2.345-1.155,2.523-2.825a3.782,3.782,0,0,1-2.523.853c-2.7,0-4.442-1.492-4.442-4.051,0-2.505,1.937-4.353,4.744-4.353a4.5,4.5,0,0,1,3.589,1.35c.888.888,1.475,2.238,1.475,4.725,0,4.033-1.9,6.787-5.436,6.787A6.007,6.007,0,0,1,1878.244,970.223Zm6.734-7.142a1.935,1.935,0,0,0-2.185-1.9,1.878,1.878,0,0,0-2.114,1.919c0,1.1.817,1.865,2.168,1.865A1.885,1.885,0,0,0,1884.978,963.081Z" transform="translate(-1877.96 -939.708)" fill="#ffd977"/>
        <path id="Trazado_108394" data-name="Trazado 108394" d="M1927.623,965.267c0-3.607,2.238-6.432,5.543-6.432,3.287,0,5.507,2.789,5.507,6.432,0,3.606-2.221,6.431-5.543,6.431S1927.623,968.908,1927.623,965.267Zm8.243,0c0-2.256-1.1-3.962-2.736-3.962s-2.7,1.652-2.7,3.962c0,2.274,1.084,3.962,2.736,3.962S1935.866,967.558,1935.866,965.267Z" transform="translate(-1915.897 -939.708)" fill="#ffd977"/>
        <path id="Trazado_108395" data-name="Trazado 108395" d="M1982.553,965.267c0-3.607,2.239-6.432,5.543-6.432,3.287,0,5.508,2.789,5.508,6.432,0,3.606-2.221,6.431-5.543,6.431S1982.553,968.908,1982.553,965.267Zm8.243,0c0-2.256-1.1-3.962-2.736-3.962s-2.7,1.652-2.7,3.962c0,2.274,1.084,3.962,2.736,3.962S1990.8,967.558,1990.8,965.267Z" transform="translate(-1957.856 -939.708)" fill="#ffd977"/>
        <path id="Trazado_108396" data-name="Trazado 108396" d="M2037.587,962.134l-2.167.533-.569-2.239,3.571-1.066h1.865v12.525h-2.7Z" transform="translate(-1997.805 -940.111)" fill="#ffd977"/>
      </g>
    </g>
    <g id="Grupo_61034" data-name="Grupo 61034" transform="translate(1713.877 642.26)">
      <g id="Grupo_61033" data-name="Grupo 61033" transform="translate(0 0)">
        <path id="Trazado_108397" data-name="Trazado 108397" d="M2612,1473.426s.091,6.334.042,6.424.462.884.462.884l2,.358,1.824-.838s-.161-5.888.03-6.817S2612,1473.426,2612,1473.426Z" transform="translate(-2588.258 -1353.297)" fill="#f7c894"/>
        <path id="Trazado_108398" data-name="Trazado 108398" d="M2592.427,1501.945a5.194,5.194,0,0,1-4.271-.528s-7.668,2.874-7.434,5.059c0,0-.327.651,3,.51s8.485-.288,8.624-.365S2593.131,1506.9,2592.427,1501.945Z" transform="translate(-2564.357 -1374.989)" fill="#211718"/>
        <path id="Trazado_108399" data-name="Trazado 108399" d="M2711.219,1473.426s.091,6.334.042,6.424.462.884.462.884l2,.358,1.823-.838s-.161-5.888.03-6.817S2711.219,1473.426,2711.219,1473.426Z" transform="translate(-2664.048 -1353.297)" fill="#f7c894"/>
        <path id="Trazado_108400" data-name="Trazado 108400" d="M2691.643,1501.945a5.194,5.194,0,0,1-4.271-.528s-7.668,2.874-7.434,5.059c0,0-.326.651,3,.51s8.485-.288,8.623-.365S2692.346,1506.9,2691.643,1501.945Z" transform="translate(-2640.146 -1374.989)" fill="#211718"/>
        <path id="Trazado_108401" data-name="Trazado 108401" d="M2627.473,1197.271l1.715,66.269-5.185-.191-11.983-49.24-6.259,49.945-5.436-.514-2.577-65.4,6.991-7.462Z" transform="translate(-2577.369 -1137.626)" fill="#38302a"/>
        <g id="Grupo_61031" data-name="Grupo 61031" transform="translate(27.145 0.837)">
          <path id="Trazado_108402" data-name="Trazado 108402" d="M2627.928,1008.73s-.487-.9-.963-.6c-1.215.779-.184,2.018.55,2.339Z" transform="translate(-2626.405 -998.969)" fill="#e59757"/>
          <path id="Trazado_108403" data-name="Trazado 108403" d="M2630.851,976.127l.007,0c0-.089.009-.179.017-.269a6.965,6.965,0,1,1,13.012,4.034c-.791,1.564-1.482,2.9-2.186,4a9.944,9.944,0,0,0-1.512,6.13l.129,1.693c-4.469,1.881-6.22-.407-6.22-.407l.2-3.067a.773.773,0,0,0-.656-.813h-.007C2628.382,986.6,2630.634,978.508,2630.851,976.127Z" transform="translate(-2629.293 -969.527)" fill="#f7c894"/>
          <path id="Trazado_108404" data-name="Trazado 108404" d="M2661.848,1013.746a.648.648,0,1,1,.587.7A.648.648,0,0,1,2661.848,1013.746Z" transform="translate(-2653.477 -1002.855)" fill="#211718"/>
          <path id="Trazado_108405" data-name="Trazado 108405" d="M2637.991,1006.668a.648.648,0,1,1,.587.7A.648.648,0,0,1,2637.991,1006.668Z" transform="translate(-2635.254 -997.448)" fill="#211718"/>
          <path id="Trazado_108406" data-name="Trazado 108406" d="M2663.726,1007a.38.38,0,0,0,.376-.544,2.037,2.037,0,0,0-2.7-.9.38.38,0,0,0,.277.708,1.282,1.282,0,0,1,1.743.522A.381.381,0,0,0,2663.726,1007Z" transform="translate(-2652.951 -996.9)" fill="#211718"/>
          <path id="Trazado_108407" data-name="Trazado 108407" d="M2638.48,1000.386a.373.373,0,0,0,.2-.036.38.38,0,0,0,.177-.508,2.036,2.036,0,0,0-2.7-.9.38.38,0,1,0,.276.708,1.283,1.283,0,0,1,1.744.523A.379.379,0,0,0,2638.48,1000.386Z" transform="translate(-2633.666 -991.852)" fill="#211718"/>
          <path id="Trazado_108408" data-name="Trazado 108408" d="M2682.154,997.6l-2.309,4.521-1.238-.367-.205-6.122Z" transform="translate(-2666.124 -989.465)" fill="#211718"/>
          <path id="Trazado_108409" data-name="Trazado 108409" d="M2677.207,1019.021a1.033,1.033,0,0,1,.585-.44,1.745,1.745,0,0,1,1.888.35c.774.929-1.145,3.032-2.737,1.755C2676.943,1020.686,2676.5,1020.158,2677.207,1019.021Z" transform="translate(-2664.906 -1006.903)" fill="#f7c894"/>
          <path id="Trazado_108410" data-name="Trazado 108410" d="M2645.22,1014.419a1.3,1.3,0,0,0,1.181.072.113.113,0,0,0-.1-.2,1.058,1.058,0,0,1-1.24-.294.4.4,0,0,1-.134-.234c0-.077.1-.169.245-.294a3.318,3.318,0,0,0,1.125-1.958.113.113,0,1,0-.22-.049,3.077,3.077,0,0,1-1.055,1.839c-.174.156-.312.28-.32.451a.564.564,0,0,0,.194.4A1.526,1.526,0,0,0,2645.22,1014.419Z" transform="translate(-2640.38 -1001.491)" fill="#e59757"/>
          <path id="Trazado_108411" data-name="Trazado 108411" d="M2633.3,984.771s-1.06.609-1.689,4.8c0,0,.089-4.724.658-5.193S2633.3,984.771,2633.3,984.771Z" transform="translate(-2630.38 -980.762)" fill="#211718"/>
        </g>
        <path id="Trazado_108412" data-name="Trazado 108412" d="M2643.52,1059.96h-6.94l-2.69,11.634v22.319s6.372,3.087,14.761-.95l-2.446-26.118Z" transform="translate(-2604.977 -1037.77)" fill="#fff"/>
        <path id="Trazado_108413" data-name="Trazado 108413" d="M2674.676,1059.96s10.473,4.432,12.53,7.281,8.231,15.2,5.382,40.364h-5.639l-.139-2.612-10.447,1.029Z" transform="translate(-2636.133 -1037.77)" fill="#f5a556"/>
        <path id="Trazado_108414" data-name="Trazado 108414" d="M2605.979,1059.96s-8.313,3.887-10.371,6.736-1.764,38.3-1.764,38.3l10.447,1.029Z" transform="translate(-2574.376 -1037.77)" fill="#f5a556"/>
        <path id="Trazado_108415" data-name="Trazado 108415" d="M2712.23,1154.866h0a.073.073,0,0,0,.068-.077c-.013-.207-1.348-20.8-4.168-29.725a.071.071,0,0,0-.091-.047.073.073,0,0,0-.047.091c2.814,8.911,4.148,29.484,4.161,29.69A.073.073,0,0,0,2712.23,1154.866Z" transform="translate(-2661.584 -1087.462)" fill="#211718"/>
        <path id="Trazado_108416" data-name="Trazado 108416" d="M2647.316,1062.034l-1.22,2.077,2.542,29.383-3.922,6.332-2.911-6.49,2.82-29.4-.89-2.078,2.394-.89Z" transform="translate(-2611.023 -1038.538)" fill="#749377"/>
        <path id="Trazado_108417" data-name="Trazado 108417" d="M2652.222,1055.946l-.52-1.141-3.264,1.141-2.7-1.241-.457,1.241.575,2.137,2.463-1.6,2.4,1.749Z" transform="translate(-2613.679 -1033.756)" fill="#e9f1ec"/>
        <g id="Grupo_61032" data-name="Grupo 61032" transform="translate(42.474 75.745)">
          <path id="Trazado_108418" data-name="Trazado 108418" d="M2734.978,1291.783h-1.793v-3.219h-6.163v3.219h-1.793v-3.4a1.544,1.544,0,0,1,1.465-1.609h6.82a1.544,1.544,0,0,1,1.465,1.609Z" transform="translate(-2717.223 -1286.771)" fill="#749377"/>
          <path id="Rectángulo_7034" data-name="Rectángulo 7034" d="M.8,0H25.754a.8.8,0,0,1,.8.8V16.652a.8.8,0,0,1-.8.8H.8a.8.8,0,0,1-.8-.8V.8A.8.8,0,0,1,.8,0Z" transform="translate(0.081 4.208)" fill="#90af95"/>
          <path id="Trazado_108419" data-name="Trazado 108419" d="M2705.436,1329.321a.15.15,0,0,1-.045-.007l-13.962-4.408a.149.149,0,0,1,.09-.285l13.914,4.393,12.375-4.427a.149.149,0,1,1,.1.281l-12.422,4.443A.15.15,0,0,1,2705.436,1329.321Z" transform="translate(-2691.324 -1315.652)" fill="#211718"/>
          <rect id="Rectángulo_7035" data-name="Rectángulo 7035" width="1.589" height="2.879" transform="translate(13.342 12.007)" fill="#fff"/>
        </g>
        <path id="Trazado_108420" data-name="Trazado 108420" d="M2725.4,1261.742s-1.317,3.586-1.536,4.726-1.278,2.08-.7,2.422,1.833-1.5,1.833-1.5a5.753,5.753,0,0,1,.382,1.38c.1.727.452,1.4.989,1.366s.351-1.288.351-1.288.314,1.352.915,1.169c.486-.148.382-1.954.382-1.954a11.182,11.182,0,0,0,.438,1.443c.189.351.848.467.834-.7s-.023-1.13-.023-1.13a8.976,8.976,0,0,0,.548,1.366c.175.225.847.29.675-.679-.3-1.705-1.2-5.01-2.464-6.62Z" transform="translate(-2673.046 -1191.906)" fill="#f7c894"/>
        <path id="Trazado_108421" data-name="Trazado 108421" d="M2642.029,966.592c-.2-.2-.566-.368-.734-.138a.5.5,0,0,0-.06.332,3.058,3.058,0,0,0,.234.969,6.251,6.251,0,0,0-4.924-1.77c-1.8.027-3.593.421-5.394.333-.714-.035-1.57-.086-1.989.493a1.225,1.225,0,0,0,.068,1.4,2.157,2.157,0,0,0,1.253.76.972.972,0,0,0-1.221,1.379,1.955,1.955,0,0,0,1.63.7,55.073,55.073,0,0,0,5.886.167l-.856.691a.741.741,0,0,0-.245.279.554.554,0,0,0,.085.489,1.455,1.455,0,0,0,1.146.584,5.89,5.89,0,0,0,1.323-.143,10.523,10.523,0,0,1,1.941-.134.973.973,0,0,1,.394.067,1.25,1.25,0,0,1,.389.373,5.622,5.622,0,0,0,2.82,1.5c.321.1.746.16.925-.124a.745.745,0,0,0,.083-.376,8.7,8.7,0,0,0-1.084-4.486.489.489,0,0,0,.888.029c.274-.518-.376-.945-.742-1.157-.335-.194-.653-.236-.9-.561C2642.552,967.736,2642.512,967.087,2642.029,966.592Z" transform="translate(-2601.222 -965.984)" fill="#211718"/>
        <path id="Trazado_108422" data-name="Trazado 108422" d="M2518.367,1087.677a29.292,29.292,0,0,0-.005-3.951c-.172-1.058.448-2.211-.164-2.324s-1.113,1.889-1.113,1.889-1.291-1.758-1.606-2.359-1.151-1.532-1.608-1.335,1.257,2.976,1.257,2.976-1.673-2.2-2.134-2.108,1.257,3.2,1.257,3.2a18.075,18.075,0,0,0-1.967-2.509c-.3-.076-.407.3-.025,1.306a10.245,10.245,0,0,0,1.031,1.932,23.157,23.157,0,0,0-1.525-1.761c-.224-.14-.635-.169.088,1.259a16.565,16.565,0,0,0,4.4,5.257Z" transform="translate(-2511.444 -1052.749)" fill="#f7c894"/>
        <path id="Trazado_108423" data-name="Trazado 108423" d="M2546.987,1071.424s-5.383,2.436-7.031,6.3-3.92,10.736-6.573,11.488c-2.114.6-5.15-8.5-5.15-8.5l-4.93,1.343s1.718,17.239,11.244,17.287c7.376.038,12.019-10.56,12.019-10.56Z" transform="translate(-2520.502 -1046.527)" fill="#f5a556"/>
      </g>
      <path id="Trazado_108424" data-name="Trazado 108424" d="M2678.76,1061.831l-2.056,8.476,2.056.859-3.03,17.574-1.054-28.781Z" transform="translate(-2636.133 -1037.77)" fill="#e8984d"/>
      <path id="Trazado_108425" data-name="Trazado 108425" d="M2627.984,1061.831l2.056,8.476-2.056.859,3.03,17.574,1.054-28.781Z" transform="translate(-2600.466 -1037.77)" fill="#e8984d"/>
      <path id="Trazado_108426" data-name="Trazado 108426" d="M2642.214,1028.52l-3.893-.987a1.563,1.563,0,0,0,1.26,2.2A2.068,2.068,0,0,0,2642.214,1028.52Z" transform="translate(-2608.258 -1013)" fill="#fff"/>
    </g>
    <path id="Trazado_108427" data-name="Trazado 108427" d="M1804.394,1103.6s1.445,2.329,1.145,2.573-1.832-1.3-1.818-1.271,1.342,1.908,1.056,2.37-1.967-1.4-1.967-1.4,1.373,1.668,1.161,1.974-1.7-1.147-1.806-1.047,1.271,1.252,1.024,1.643-2.249-1.159-2.2-1.68a.668.668,0,0,1,.585-.58s.184-.863.655-.976c0,0,.656-1.013,1.153-.813C1803.387,1104.4,1803.55,1103.354,1804.394,1103.6Z" transform="translate(-254.871 -428.817)" fill="#f7c894"/>
    <path id="Trazado_108428" data-name="Trazado 108428" d="M2504.471,551.128v-3h-2.553a5.593,5.593,0,0,0-.541-1.1l1.691-2.039-2.306-1.912-1.606,1.937a5.612,5.612,0,0,0-1.038-.4v-2.423h-3v2.423a5.585,5.585,0,0,0-1.038.4l-1.606-1.937-2.306,1.912,1.691,2.039a5.607,5.607,0,0,0-.541,1.1h-2.553v3h2.325a5.59,5.59,0,0,0,.66,1.749l-1.583,1.908,2.306,1.912,1.427-1.721a5.6,5.6,0,0,0,1.217.495v2.113h3v-2.113a5.6,5.6,0,0,0,1.217-.495l1.427,1.721,2.306-1.912-1.583-1.908a5.591,5.591,0,0,0,.66-1.749Zm-7.85,1.859a2.944,2.944,0,1,1,2.944-2.944A2.944,2.944,0,0,1,2496.621,552.987Z" transform="translate(-780.247)" fill="#ffeab4"/>
  </g>
</svg>
