<svg xmlns="http://www.w3.org/2000/svg" xmlns:xlink="http://www.w3.org/1999/xlink" width="101.808" height="101.808" viewBox="0 0 101.808 101.808">
  <defs>
    <clipPath id="clip-path">
      <circle id="Elipse_5139" data-name="Elipse 5139" cx="39.066" cy="39.066" r="39.066" transform="translate(-609.221 1147.134) rotate(-67.871)" fill="none"/>
    </clipPath>
  </defs>
  <g id="Grupo_70251" data-name="Grupo 70251" transform="translate(-180 -1584.001)">
    <circle id="Elipse_5137" data-name="Elipse 5137" cx="44.052" cy="44.052" r="44.052" transform="matrix(0.099, -0.995, 0.995, 0.099, 182.725, 1674.402)" fill="#0ac4bf"/>
    <path id="Trazado_108087" data-name="Trazado 108087" d="M-510.686,1129.1a47.741,47.741,0,0,1-51.045,44.19,47.741,47.741,0,0,1-44.189-51.045,47.74,47.74,0,0,1,51.045-44.189,47.52,47.52,0,0,1,26.037,10.048" transform="translate(789.221 509.244)" fill="none" stroke="#0ac4bf" stroke-linecap="round" stroke-linejoin="round" stroke-width="0.914"/>
    <circle id="Elipse_5138" data-name="Elipse 5138" cx="39.066" cy="39.066" r="39.066" transform="translate(180 1656.378) rotate(-67.871)" fill="#fff"/>
    <g id="Grupo_60985" data-name="Grupo 60985" transform="translate(789.221 509.244)">
      <g id="Grupo_60984" data-name="Grupo 60984" clip-path="url(#clip-path)">
        <g id="Grupo_60996" data-name="Grupo 60996" transform="translate(-4966.424 231.047)">
          <path id="Trazado_108155" data-name="Trazado 108155" d="M4403.2,987.443c.44.712.655-.249,1.043-.146-.012.3-.467.36-.371.687.295.269.26-.417.581-.141-.075.459-.615.6-.772,1,.09.123,0,.245,0,.368a1.5,1.5,0,0,0-.023.187c0,.031,0,.063.006.094-.085.209-.258.429.059.6.239.125.368-.085.442-.217a2.973,2.973,0,0,1,1.074-.923,32.383,32.383,0,0,1-2.212,2.451c-.1.182-.008.269.155.325a.582.582,0,0,0,.273-.047,1.968,1.968,0,0,0,.876-.733c.2-.047.258-.353.524-.3.119.184-.243.237-.059.511l1.417-1.388.126.134-2.021,2.136c.084.154.22.141.361.108a.423.423,0,0,1,.384.121.7.7,0,0,1,.158.372c-.016.176-.283.3-.1.517.928-.165.445.375.338.763.5-.5,1.212-.539,1.691-1.037.3-.308.372.027.367.3-.088.06.051-.007-.048.033-.019.007-.011-.01.025-.056l.438-.242c.148.265-.232.323-.184.544.5.168.591-.428,1-.533l.051.578c-.088.06.051-.007-.048.033-.019.007-.01-.01.025-.055.316.114.417-.3.473-.3l-1.7,2.129-.137-.124.505-.676c-.536-.073.252-.455-.112-.52a.808.808,0,0,0-.771.435c-.229.622-.8.949-1.126,1.45.11.282.555-.4.479.209-.078.636.3.759.8.781a.427.427,0,0,1,.2.105.5.5,0,0,1,.125.307c-.058.611.465.724.835.967a2.6,2.6,0,0,1-.177,1.393.5.5,0,0,0-.13.57c.084.212-.133.519.212.633.043-.036.085-.061.123-.1a1.527,1.527,0,0,0,.2-1.376c-.375-.33-.032-.828-.281-1.188-.867-.41-.97-.7-.472-1.341.547.148.561.151.662-.4.036-.2.074-.17.223-.106.188.081.6-.26.518.3l-.016-.017c.625-.278.817-1.005,1.389-1.344.134-.08.237-.208.414-.187a.133.133,0,0,1,.2.013c-.152.579-.909.807-.847,1.544.02.24-.018.429.184.6.283.24.374-.184.614-.16.053.374-.453.441-.438.781.609.08.76.258.406.842-.308.507.367.433.331.8-.014.144.2-.171.3-.271a37.134,37.134,0,0,1,3.658-3.3c-.82.929-1.6,1.884-2.408,2.818a31.417,31.417,0,0,1-3.192,3.707c-.431.366-.729.714-1.5.553a2.451,2.451,0,0,1-1.468-.651,7.237,7.237,0,0,0-2.453-2.072.866.866,0,0,0-.871.056.781.781,0,0,1-.615.241.285.285,0,0,1-.1-.413c-.1.219-.1.6-.528.628a3.392,3.392,0,0,0-1.043.7c-.157.128-.329.315-.555.151-.2-.143-.047-.338-.022-.51s.169-.333.14-.529a.858.858,0,0,1,.258-.74c.164-.17.593-.021.536-.442a.645.645,0,0,0-.253.032c-.262.047-.712.1-.6-.233.229-.656-.184-1.349.126-1.854a25.2,25.2,0,0,0-.067,3.308,3.961,3.961,0,0,0,.01,2.228.582.582,0,0,1,.037.216,1.087,1.087,0,0,0-.208,1.442.918.918,0,0,1,.027.442.55.55,0,0,1-.132.175.743.743,0,0,0-.375.612c-.041.113-.15.28-.11.33.136.172.283-.087.441-.037a.343.343,0,0,1,.212.23c.067.194-.1.356-.074.533a.7.7,0,0,0,.165-.2,5.791,5.791,0,0,1,.458-.686.547.547,0,0,1,.169-.132c.582.024.454-.809,1-.827.243.033.376-.211.73-.343a7.955,7.955,0,0,1-1.736,2.195l-.018-.02c.363.117.578-.063.749-.357.065-.112.176-.245.312-.178.171.084.108.249.064.405-.308,1.112-1.26,1.685-2.005,2.435-.435.437-1.182.74-.816,1.6H4376.2V1004.2a8.924,8.924,0,0,0,2.315-.853c1.682-.658,3.3-1.465,4.978-2.142,1.311-.53,2.63-1.1,3.957-1.506,1.353-.416,2.686-.937,4.068-1.292a7.937,7.937,0,0,0,3.045-1.1c.319-.243.83-.124,1.267-.4.854-.546,1.841-.886,2.677-1.484.523-.375,1.141-.694,1.187-1.466a.181.181,0,0,1,.074-.134c.919-.434.744-.9.157-1.54-.146-.159-.1-.247-.285-.1-.075.058-.234.17-.24.077-.028-.4-.025-.767-.6-.573-.1-.939-1.038-.9-1.569-1.109-1.667-.664-2.609-2.033-3.587-3.346-.359-.483-1.168-.966-.705-1.836.018-.033.007-.09-.1-.132-.317-.127-.3-.153-.131-.368.146-.186.439-.294.393-.613-.382-.08-.273.39-.554.382-.607-.438-.538-1.182-.7-1.8-.156-.6-.741-1.295.243-1.966-.9.244-.73-.346-.9-.755a12.8,12.8,0,0,1-.824-2.868c-.023-.144-.162-.238.031-.391.219-.175.423-.307-.13-.381-.349-.046-.273-.658-.256-1.04,0-.1.128-.319-.045-.23-.726.374-.427-.333-.558-.524-.31-.451-.042-1.131-.609-1.53-.213-.15.316-.315.155-.589-.293.162-.392.183-.628-.23a17.2,17.2,0,0,1-1.435-3.349c-.206-.644-.415-1.222.5-1.6.4-.165.1-.732,0-1.14-.186-.82-.857-1.544-.517-2.472a.756.756,0,0,1,.212-.648,35.729,35.729,0,0,1,3.681-3.98,1.237,1.237,0,0,0,.763-.656.793.793,0,0,1,.144-.287,13.315,13.315,0,0,1,2.357-2.4.4.4,0,0,1,.5.257.556.556,0,0,1-.093.461,6.833,6.833,0,0,0-.756,1.122c-.2.468-.906.556-.887,1.188-.458.5-1.176.789-1.29,1.574a.708.708,0,0,1-.028.3.731.731,0,0,1,.226-.289c.186-.054.3.094.442.16.325.119.428-.239.664-.309l.784-.674a.2.2,0,0,1,.185.184l-.036.305a15.5,15.5,0,0,1-2.646,2.859c-.076.067.034-.039-.045.033,0-.012.017-.017.031-.029a20.644,20.644,0,0,0,2.067-2.071c.219-.267.431-.512.759-.133l0,0c.156.156.383.221.521.4a.192.192,0,0,1-.026.2,1.671,1.671,0,0,0-1.492,1.151c.7-.4.827.415,1.318.474-.15.477-.88.617-.792,1.258-.038.035-.05.07-.035.1s.028.049.042.049c.259.145.136.286,0,.43-.2.2-.392.411-.621.65a.916.916,0,0,0,.918-.122c.205-.174.152.072.177.169a3.665,3.665,0,0,1-.3.645c.277.39-.33.7-.112,1.1.368.025.473-.307.685-.476.264-.21.37-.141.384.171.135.373-.271.48-.365.741a1.39,1.39,0,0,0-.251.509c-.29.354-.647.144-.981.116-.437-.153-.637.085-.751.46a1.755,1.755,0,0,1-.128.236l.03-.033c.278-.3.531-.642,1.012-.39.146-.007.088.472.342.158.176-.219.47-.344.53-.655.021-.224.192-.367.293-.548a.75.75,0,0,1,.43-.276c.2.01.241-.233.466-.232a1.771,1.771,0,0,0,1.561-.8c.147-.229.218-.112.344-.065.249.248-.021.448-.062.669a.279.279,0,0,0,.087.265c.461.022.8.349,1.248.457.888.216,1.337-.363,1.826-.89.165.163.093.321.1.466-.007.035-.013.07-.02.1-.109.212-.325.367-.331.63,0,.09.012.18.021.269l0,.088.181.311a.267.267,0,0,1,0,.356,1.473,1.473,0,0,1-.769.816c.068.252.809-.275.425.359-.478.788.027,1.576-.142,2.347v.107c-.289.531-.33,1.18-.8,1.659.3-.054.619.295.857-.122a.208.208,0,0,1,.194-.012c.174.214,0,.383-.1.56a3.993,3.993,0,0,0-.64.481c-.337.549-.346.576.174.737.228.07.093.137.077.237a1.626,1.626,0,0,1-.56,1.056c-.177.147-.471.267-.421.6l-.056.037.034-.058c.521-.14.722-.7,1.38-1.061-.4.554-.55.955-.16,1.342.055-.1.105-.1.151.007.179.328.1.974.808.646.153.115.389.108.479.32.04.1-.026.245.138.28l-.021-.021c.114.179.219.368.471.375a.215.215,0,0,1,.21.327c-.4.7.068,1.812-1.057,2.193-.128.043,0,.553-.29.687.157.465.462-.552.574.127.162.133.1.374.256.5.158.056.26-.05.373-.125a.667.667,0,0,0,.252-.32,2.56,2.56,0,0,1,.931-1.029c.259-.162.508-.29.75.02.04.2-.125.305-.194.4.188.453.689-.483.828.233.182.4-.287.487-.37.76a1.06,1.06,0,0,0-.134.383c.036.113.066.373.173.273.684-.635,1.589-.286,2.359-.557a2.137,2.137,0,0,1,1.465-.1,10.615,10.615,0,0,0-3.015,1.477c-.456.075-.815.455-1.3.427a.753.753,0,0,0-.651.2c-.079.069-.138.173-.227.212-.29.124-.543.4-.908.24a.121.121,0,0,0,.1.07c.289-.038.589-.262.856.054a.517.517,0,0,1,.108.168.51.51,0,0,0,.143.225c.19.072.391-.158.572.021.136.35-.383.449-.3.779C4403.09,987.318,4403.118,987.382,4403.2,987.443Z" transform="translate(0 -76.819)" fill="#004745"/>
          <path id="Trazado_108156" data-name="Trazado 108156" d="M4534.057,1156.408c0-.106-.03-.232.015-.316a24.936,24.936,0,0,1,2.885-4.729,13.39,13.39,0,0,1,1.729-1.906c.482-.388.465-.409,1.269-.271-.051.28-.4.217-.555.58.78-.228,1.479-.413,2.162-.646.166-.057.247-.223.438-.014,1.663,1.806,3.558,3.406,4.892,5.506.167.264.379.5.7.912.124-.84,1.039-.9.849-1.652.078-.119.131-.237,0-.356,0-.08-.038-.192,0-.234.979-1.057.937-2.544,1.55-3.783s1.118-2.572,1.68-3.855c.946-2.163,2-4.282,2.759-6.521a42.43,42.43,0,0,0,1.7-5.255,6.377,6.377,0,0,0-.652-4.237c-.066-.134-.113-.278-.182-.451,1.359.558,2.11,1.708,3.027,2.693a44.328,44.328,0,0,0,3.222,3.1c.456.4.71.947,1.21,1.307.844.606,1.889.484,2.795.87,1.2.511,2.459.88,3.663,1.38,1.567.652,3.211,1.044,4.815,1.558s3.28.767,4.886,1.284c.57.183,1.19.324,1.784.5,0,4.625-.018,9.25.02,13.874,0,.624-.187.673-.714.673q-17.7-.023-35.4-.012c-.267-.282-.532-.1-.8,0h-.8c-.15-.562.392-.534.646-.736a1.829,1.829,0,0,1,1.082-.295c-.461-.246-.437-.518-.215-.808a35.925,35.925,0,0,0-4.708,1.839Z" transform="translate(-132.618 -222.483)" fill="#004745"/>
          <path id="Trazado_108157" data-name="Trazado 108157" d="M4436.034,881.675l-.171.185a2.215,2.215,0,0,0-.774.774,26.765,26.765,0,0,0-3.352,3.592,7.76,7.76,0,0,1-.825.747l-.509.115c.286-.6-.164-1.917-.7-1.913a1.268,1.268,0,0,0,.041-1.5c-.409-.93-.587-1.963-1.008-2.886-.291-.637-.013-1.146-.009-1.7a3.211,3.211,0,0,1,.373-1.633c.215.073.344-.041.451-.206a.379.379,0,0,1-.447.214c-.265.127-.289-.09-.235-.219a10.674,10.674,0,0,1,1.738-3.372c.592-.658,1.054-1.458,1.676-2.129a6.58,6.58,0,0,1,.715-.543,12.8,12.8,0,0,0,1.909-2.558c.161-.224.171-.554.476-.679.319.089.391-.069.346-.344a6.988,6.988,0,0,1,3.009-1.892c.232.143.364-.041.515-.16.577-.076,1-.829,1.653-.355.028-.022-.056.588-.038.607.128.127,0,.229-.021.346a2.225,2.225,0,0,0-.006.427c.332-.232.279-.519.32-.79a1.677,1.677,0,0,1,2.049-1.029l.065.079a.775.775,0,0,0,.485.1l.1-.023c.91-.127,1.418.613,1.85,1.123.357.422.394.2.588.026.889-.8.994-.795,1.818.174.02-.045.063-.1.053-.135-.125-.476-.118-.457.349-.684.254-.124.456-.36.711-.475a3.519,3.519,0,0,1,.763-.16c.123.193-.218.2-.117.388-.009,0,.047.042.084.03,1.042-.343,1.993-.972,3.206-.729a5.16,5.16,0,0,0,1.4-.082,2.532,2.532,0,0,1,2.181.52c.642.638,1.511.54,2.248.852.415.176.863.749,1.45.324.154.217.526.287.449.662,0,.013,0,.036.009.068a.308.308,0,0,0-.018-.076,11.654,11.654,0,0,1,1.838,1.34.734.734,0,0,1,0,.674c.06.166.2.154.327.129a2.142,2.142,0,0,1,1.163.281c.953.624,1.285,1.727,1.994,2.538.187.214-.166.687.335.792-.1.431-.527.319-.818.469.213.165.454.041.666.1l.111.005c.208.067.449.027.625.194l.052.1c.045.181-.088.438.225.506.364.08.382.318.257.608-.1.241-.114.289.221.3.218.007.069.438.092.678,0,.036.008.072.012.108a.57.57,0,0,0,.38.672.478.478,0,0,1,.118.176c.093.58.683,1.071.309,1.734a1.143,1.143,0,0,1-.365.964,3.7,3.7,0,0,0-1.2.854c-.291.228-.131.468-.035.71a1.852,1.852,0,0,1-.213,1.452,1.244,1.244,0,0,0-.04.509c.027.289-.3.448-.268.74a1.5,1.5,0,0,0,.147.442.546.546,0,0,1,.071.264c.247.9-.559.714-.97.934a1.216,1.216,0,0,0-.493,0c-.347-.15-.595.037-.436.322.171.307,0,.627.232.941.263.352-.292.442-.455.671-.168.092-.151.451-.47.327l-.894.256c.147-.725-1.194-.518-.854-1.364a.434.434,0,0,1,.161-.514l.174-.6a.226.226,0,0,0,0-.357c-.043-.081.037-.323-.175-.186a6.625,6.625,0,0,0-.706.628c-.021-.373.342-.483.253-.736.02-.228-.1-.437-.094-.664,0-.065,0-.129,0-.194s.01-.13.019-.195a1.7,1.7,0,0,1,.059-.189.388.388,0,0,0,0-.38l-.22-.525.057-.039c.021-.01.01.011-.034.063-.385-.036-.334-.611-.751-.607a.289.289,0,0,1-.059-.308c.243-.324-.024-.63-.034-.944a1.1,1.1,0,0,0-.326-.857.9.9,0,0,1-.112-.317.535.535,0,0,1,.041-.223.973.973,0,0,1,.528-.383.785.785,0,0,0,.2-.07,1.485,1.485,0,0,1,.262-.176,3.839,3.839,0,0,0,.515-.366l.076-.07a.457.457,0,0,0,.07-.478.434.434,0,0,1,.072-.155c-.012.013,0,.01-.013.021-.109.136-.018.268-.021.4-.128.333-.437.473-.706.656a.845.845,0,0,1-.947.137,1.408,1.408,0,0,1-.2-.121,1.27,1.27,0,0,1-.279-.206,2.437,2.437,0,0,1-.2-.54c-.432-.181-.321-.686-.572-.958-.118-.128-.138-.583-.54-.27-.117.092-.173.021-.018-.271.024-.046.059-.086.083-.132.009-.017,0-.043,0-.09-.317-.043-.727.224-.94-.232l.058-.039-.035.059c-.188.15-.525.508-.5-.029s-.09-.368-.408-.281a1.533,1.533,0,0,1-1.132,0c-.137-.143-.339-.177-.5-.286-.381-.13-.66-.852-1.18-.2a.236.236,0,0,1-.2-.045c-.241-.623-.536-.25-.8-.036a.623.623,0,0,1-.514.1c-.271.064-.542-.078-.812,0a1.537,1.537,0,0,1-.134.082c-.212.1-.3.561-.607.326s.074-.442.157-.659c.036-.093.144-.161.064-.28-.412-.028-.609.752-1.16.309-.053-.043.012.357-.223.417a1.658,1.658,0,0,1-.5-.331,1.979,1.979,0,0,0-.754.8l-.019.061a.275.275,0,0,1-.074.1l-.084.094-.042.048-.052.036-.055.032-.061.02a.372.372,0,0,0-.116.048c-.694-.478-.978.341-1.437.5-.24-.324.442-.844-.4-1.059-.35-.09.255-.456.442-.783a2.977,2.977,0,0,0-1.413.932.989.989,0,0,1-.86.264c-.515-.042-.524.3-.5.664.011.409-.05.575-.418.179-.1-.112-.539-.363-.39.211a.268.268,0,0,1-.15.325c-.476.24-.856.677-1.437.7l-.07,0a.281.281,0,0,0-.144.06l-.076.052c-.2.179-.438.319-.51.6,0,.029,0,.059,0,.088a5.525,5.525,0,0,1-1.763,1.615c-.141-.177.048-.221.081-.314.04-.114.425-.205.018-.362-.17-.065-.266-.227-.418.057a4.755,4.755,0,0,1-.627.758l-.1-.051a.6.6,0,0,1-.118-.727c.233-.217.62-.287.66-.684,0,0-.036-.07-.04-.066s-.049-.057-.053-.052a.623.623,0,0,0-.137-.06c-.057,0-.11-.01-.165-.016a.569.569,0,0,0-.494.21,9.21,9.21,0,0,1-1.935,1.488,1.017,1.017,0,0,0-.34.428.969.969,0,0,1-.173.145l-.105.035a1,1,0,0,1-.21-.012.3.3,0,0,0-.432.227.808.808,0,0,1-.093.2.594.594,0,0,0,.07-.125.977.977,0,0,1,.1-.178.488.488,0,0,1,.184-.107l.11,0a.85.85,0,0,1,.215.055A1.476,1.476,0,0,1,4436.034,881.675Z" transform="translate(-44.026 0)" fill="#004745"/>
          <path id="Trazado_108158" data-name="Trazado 108158" d="M4548.431,1022.631l.6-.719c-.078-.019-.128-.036-.177-.042-.24-.027-.272.63-.6.216-.453-.574.28-.407.424-.526.629-.516,1.337-.934,2-1.415a2.1,2.1,0,0,1,1.588-.336,1.489,1.489,0,0,0-1.128.788,5.369,5.369,0,0,1,3.552.319c-.507.4-1.151.308-1.455.83-.545-.357-.982.2-1.5.187a.743.743,0,0,0-.778.4.132.132,0,0,1-.187.006c-.111-.2-.034-.331.142-.432a.3.3,0,0,0,.118-.251.309.309,0,0,1-.119.252,5.722,5.722,0,0,1-.622.334l-.181.052a.637.637,0,0,0-.249.138c-.183.157-.31.387-.576.432C4548.988,1022.82,4548.656,1022.925,4548.431,1022.631Z" transform="translate(-144.43 -130.574)" fill="#004745"/>
          <path id="Trazado_108159" data-name="Trazado 108159" d="M4574.526,1087.751c.575-.15.965.038,1.061.535.038.2.142.205.27.134.1-.054.185-.125.284-.052.64.48.639.482,1.154.136.04.348-.23.477-.4.634-.376.353.283.329.187.567.21-.474.706.14.949-.248.063-.1.174-.215.305-.041a.154.154,0,0,1-.062.256c-.347.159-.435.348-.138.647.243.245.456.543.845.221.11-.092.233-.168.387-.277-.326,1.055-.326,1.055.67,1.116.088.236-.153.4-.136.619l.111.361c-.881.2-1.081.823-1.174,1.631-.046.4-.479.7-.96.841.762-.565.481-1.438.65-2.161a2.162,2.162,0,0,0-1.067-2.1,9.387,9.387,0,0,1-2.426-2.356,2.332,2.332,0,0,0-.506-.46l0-.073Z" transform="translate(-166.628 -187.616)" fill="#004745"/>
          <path id="Trazado_108160" data-name="Trazado 108160" d="M4672.293,1027.132c-.427-.4-.2-1.078-.657-1.485-.135-.12.222-.359.235-.342.241.311.5.174.792.1.143-.034.145.2.1.311a.955.955,0,0,1-.238.306c-.133.133-.307.285-.189.465.08.124.274-.2.431-.01.055-.1.1-.1.152.007v.164C4672.762,1026.875,4672.67,1027.19,4672.293,1027.132Z" transform="translate(-248.192 -135.208)" fill="#004745"/>
          <path id="Trazado_108161" data-name="Trazado 108161" d="M4555.865,1034.5l.152.006c-.548.4-.746,1.089-1.255,1.531-.425.369-.585.234-.623-.261l-.006-.106c.113-.379.583-.516.634-.938a1.966,1.966,0,0,1,.41-.361A.468.468,0,0,1,4555.865,1034.5Z" transform="translate(-149.494 -142.747)" fill="#004745"/>
          <path id="Trazado_108162" data-name="Trazado 108162" d="M4544.365,1094.756c.057-.5.466-.488.809-.532a2.76,2.76,0,0,1,.871.007c.16.031.454-.307.476.1.016.3-.247.411-.5.351-.46-.109-.889-.445-1.217.292-.156.35-.16-.41-.455-.239Z" transform="translate(-141.27 -193.035)" fill="#004745"/>
          <path id="Trazado_108163" data-name="Trazado 108163" d="M4563.893,1076.28l-.8.392c.537-.742-.312-.784-.405-1.185-.028-.122-.288-.192-.085-.368.155-.134.22.043.312.108.189.134.453.233.548.417.218.422.419.37.661,0,.159.383-.238.432-.251.662Z" transform="translate(-156.542 -177.022)" fill="#004745"/>
          <path id="Trazado_108164" data-name="Trazado 108164" d="M4601.429,1133.238a2.216,2.216,0,0,1-1.1-1.009c-.1-.171-.1-.275.038-.4.112-.1.313-.137.324-.015.05.589.874.765.741,1.432Z" transform="translate(-188.243 -224.632)" fill="#004745"/>
          <path id="Trazado_108165" data-name="Trazado 108165" d="M4559.118,1062.815c.219.456-.193.574-.351.815-.119.18-.452.252-.307.566.056.121.159.26-.018.32s-.3-.1-.337-.249a.767.767,0,0,1,.393-.933C4558.8,1063.233,4558.9,1062.982,4559.118,1062.815Z" transform="translate(-152.81 -166.725)" fill="#004745"/>
          <path id="Trazado_108166" data-name="Trazado 108166" d="M4558.869,1038.642c0,.557-.643.722-.448,1.292a.707.707,0,0,0-.68.388.57.57,0,0,1-.207-.088c-.18-.154.032-.213.094-.281C4558.036,1039.51,4558.455,1039.078,4558.869,1038.642Z" transform="translate(-152.293 -146.416)" fill="#004745"/>
          <path id="Trazado_108167" data-name="Trazado 108167" d="M4500.467,974.189c.067-.084.113-.19.194-.234.28-.151.337-.679.82-.486.1.041.207.08.085.2C4501.266,973.948,4501.108,974.52,4500.467,974.189Z" transform="translate(-104.405 -91.623)" fill="#004745"/>
          <path id="Trazado_108168" data-name="Trazado 108168" d="M4570.954,1081.769c.234.245.311-.481.695-.057.427.471.057.632-.124.912h.006c-.1-.343-.6-.438-.554-.878Z" transform="translate(-163.626 -182.488)" fill="#004745"/>
          <path id="Trazado_108169" data-name="Trazado 108169" d="M4551.63,1146.309c-.083-.61-.309.1-.476-.1a1.009,1.009,0,0,1,1.1-.7.311.311,0,0,1,.238.212.425.425,0,0,1-.033.219C4552.215,1146.136,4552.059,1146.531,4551.63,1146.309Z" transform="translate(-146.991 -236.202)" fill="#004745"/>
          <path id="Trazado_108170" data-name="Trazado 108170" d="M4516.078,991.35l-1.686,1.417.274.288,1.583-1.521Z" transform="translate(-116.104 -106.682)" fill="#004745"/>
          <path id="Trazado_108171" data-name="Trazado 108171" d="M4575.625,1123.2c.6-.354,1.17-.453,1.633-.765A1.484,1.484,0,0,1,4575.625,1123.2Z" transform="translate(-167.55 -216.814)" fill="#004745"/>
          <path id="Trazado_108172" data-name="Trazado 108172" d="M4667.993,1018.467c.3.179.741.138.538.622-.057.134-.1.455-.33.338C4667.81,1019.231,4667.967,1018.86,4667.993,1018.467Z" transform="translate(-245.112 -129.465)" fill="#004745"/>
          <path id="Trazado_108173" data-name="Trazado 108173" d="M4504.189,988.791c.293-.263.615-.119,1.022-.09-.382.444-.735.587-1.192.277C4504.038,988.881,4504.14,988.861,4504.189,988.791Z" transform="translate(-107.389 -104.401)" fill="#004745"/>
          <path id="Trazado_108174" data-name="Trazado 108174" d="M4584.231,1013.79c-.178.2.349.314.077.466-.209.116-.5-.066-.744.061a.145.145,0,0,1-.038-.237q.259-.238.521-.473A.2.2,0,0,1,4584.231,1013.79Z" transform="translate(-174.15 -125.381)" fill="#004745"/>
          <path id="Trazado_108175" data-name="Trazado 108175" d="M4517.145,972.6c.136.658-.2.869-.777.864.235-.266.669-.38.58-.864A.161.161,0,0,1,4517.145,972.6Z" transform="translate(-117.763 -90.899)" fill="#004745"/>
          <path id="Trazado_108176" data-name="Trazado 108176" d="M4507.812,950.122c-.424-.241-.456.367-.773.358l.024.018c.012-.592.207-.787.8-.8l-.028-.023c.09.1.243.19.251.294s-.141.2-.292.13Z" transform="translate(-109.925 -71.669)" fill="#004745"/>
          <path id="Trazado_108177" data-name="Trazado 108177" d="M4525,955.086c.09-.492.5-.687.93-.878l-.733.892Q4525.085,955.223,4525,955.086Z" transform="translate(-125.013 -75.475)" fill="#004745"/>
          <path id="Trazado_108178" data-name="Trazado 108178" d="M4533.5,974.979c.44-.424.675-.807,1.124-.948C4534.351,974.358,4534.229,974.837,4533.5,974.979Z" transform="translate(-132.158 -92.13)" fill="#004745"/>
          <path id="Trazado_108179" data-name="Trazado 108179" d="M4607.6,1139.817c.19-.117.417-.389.6-.187.2.218-.123.466-.11.733-.392-.047-.158-.527-.49-.554A.039.039,0,0,0,4607.6,1139.817Z" transform="translate(-194.416 -231.204)" fill="#004745"/>
          <path id="Trazado_108180" data-name="Trazado 108180" d="M4673.912,1043.524l.563-.838C4674.683,1043.244,4674.441,1043.476,4673.912,1043.524Z" transform="translate(-250.13 -149.813)" fill="#004745"/>
          <path id="Trazado_108181" data-name="Trazado 108181" d="M4570.48,1001.565c.178-.241.4.236.616-.043.093-.123.193-.413.469-.241a.211.211,0,0,1,.056.134,2.74,2.74,0,0,1-.6.354A.408.408,0,0,1,4570.48,1001.565Z" transform="translate(-163.228 -114.981)" fill="#004745"/>
          <path id="Trazado_108182" data-name="Trazado 108182" d="M4512.1,987.278l.805-.652.106.122-.761.726Z" transform="translate(-114.181 -102.713)" fill="#004745"/>
          <path id="Trazado_108183" data-name="Trazado 108183" d="M4550.913,989.608l-.883.769-.067-.048.787-.852Z" transform="translate(-145.99 -105.108)" fill="#004745"/>
          <path id="Trazado_108184" data-name="Trazado 108184" d="M4571.378,1051.2c.109-.387.526-.464.675-.912C4572.254,1051.029,4571.62,1050.96,4571.378,1051.2Z" transform="translate(-163.983 -156.199)" fill="#004745"/>
          <path id="Trazado_108185" data-name="Trazado 108185" d="M4518.525,956.882c-.344.312-.528.658-.93.728C4517.83,957.327,4517.973,956.928,4518.525,956.882Z" transform="translate(-118.795 -77.722)" fill="#004745"/>
          <path id="Trazado_108186" data-name="Trazado 108186" d="M4675.3,1034.212l.63-.482c.016.492-.441.607-.664.917C4675.048,1034.44,4675.331,1034.354,4675.3,1034.212Z" transform="translate(-251.197 -142.288)" fill="#004745"/>
          <path id="Trazado_108187" data-name="Trazado 108187" d="M4578.993,1019.838c.36-.136.645-.169.868.429C4579.542,1019.963,4579.178,1020.236,4578.993,1019.838Z" transform="translate(-170.381 -130.548)" fill="#004745"/>
          <path id="Trazado_108188" data-name="Trazado 108188" d="M4532.074,981.476c.132-.471.591-.276.873-.439-.267.207-.424.659-.9.417Z" transform="translate(-130.941 -98.017)" fill="#004745"/>
          <path id="Trazado_108189" data-name="Trazado 108189" d="M4684.272,1045.272c.178-.307.237-.7.727-.921C4684.789,1044.777,4684.648,1045.107,4684.272,1045.272Z" transform="translate(-258.834 -151.212)" fill="#004745"/>
          <path id="Trazado_108190" data-name="Trazado 108190" d="M4519.435,970.636h-.2c-.264-.164-.114-.33.047-.4a.4.4,0,0,1,.375.133C4519.712,970.467,4519.558,970.583,4519.435,970.636Z" transform="translate(-120.053 -88.936)" fill="#004745"/>
          <path id="Trazado_108191" data-name="Trazado 108191" d="M4559.392,1001.832c.108-.012.325-.132.295.013-.038.191-.139.473-.375.519-.157.031-.174-.139-.079-.272.06-.084.111-.174.166-.261l-.011-.065Z" transform="translate(-153.729 -115.433)" fill="#004745"/>
          <path id="Trazado_108192" data-name="Trazado 108192" d="M4607.788,1111.447c-.183-.257.023-.428.137-.619C4608.268,1111.12,4608.029,1111.283,4607.788,1111.447Z" transform="translate(-194.513 -207.064)" fill="#004745"/>
          <path id="Trazado_108193" data-name="Trazado 108193" d="M4537.927,955.221c-.083.509-.38.639-.629.918C4537.286,955.661,4537.621,955.561,4537.927,955.221Z" transform="translate(-135.349 -76.327)" fill="#004745"/>
          <path id="Trazado_108194" data-name="Trazado 108194" d="M4528.34,983.645c-.021.556-.328.456-.707.281.261-.106.452-.289.729-.259Z" transform="translate(-127.229 -100.208)" fill="#004745"/>
          <path id="Trazado_108195" data-name="Trazado 108195" d="M4569.29,996.645c-.166-.521.3-.361.579-.648-.065.536-.375.533-.6.628Z" transform="translate(-162.199 -110.586)" fill="#004745"/>
          <path id="Trazado_108196" data-name="Trazado 108196" d="M4500,989.609l-.17.187c-.281.179-.524-.06-.8-.141Z" transform="translate(-103.198 -105.219)" fill="#004745"/>
          <path id="Trazado_108197" data-name="Trazado 108197" d="M4522.477,959.7l.2.014-.479.479c-.071.082-.136.078-.2-.014C4522.021,959.883,4522.157,959.7,4522.477,959.7Z" transform="translate(-122.494 -80.091)" fill="#004745"/>
          <path id="Trazado_108198" data-name="Trazado 108198" d="M4526.263,979.4a.74.74,0,0,1,.287-.643c.267.135.131.257.026.369C4526.5,979.208,4526.407,979.276,4526.263,979.4Z" transform="translate(-126.078 -96.102)" fill="#004745"/>
          <path id="Trazado_108199" data-name="Trazado 108199" d="M4519.728,962.7l.2.014c-.1.279-.376.3-.628.452C4519.289,962.806,4519.462,962.707,4519.728,962.7Z" transform="translate(-120.224 -82.61)" fill="#004745"/>
          <path id="Trazado_108200" data-name="Trazado 108200" d="M4565.807,999.9c-.157.231-.313.462-.471.693l-.2-.212c.122-.289.251-.569.691-.462Z" transform="translate(-158.738 -113.864)" fill="#004745"/>
          <path id="Trazado_108201" data-name="Trazado 108201" d="M4553.7,1116.441c-.065.461-.252.588-.765.422C4553.342,1116.853,4553.4,1116.569,4553.7,1116.441Z" transform="translate(-148.485 -211.781)" fill="#004745"/>
          <path id="Trazado_108202" data-name="Trazado 108202" d="M4565.682,1046.273c-.07-.12-.171-.222-.15-.278a.36.36,0,0,1,.233-.182c.144-.033.183.092.142.2C4565.872,1046.1,4565.781,1046.159,4565.682,1046.273Z" transform="translate(-159.068 -152.436)" fill="#004745"/>
          <path id="Trazado_108203" data-name="Trazado 108203" d="M4587.209,1012.469l-.186-.184c.1-.112.143-.385.356-.173S4587.321,1012.374,4587.209,1012.469Z" transform="translate(-177.128 -124.06)" fill="#004745"/>
          <path id="Trazado_108204" data-name="Trazado 108204" d="M4566.127,1142.289l.011-.295.459-.321A.7.7,0,0,1,4566.127,1142.289Z" transform="translate(-159.571 -232.98)" fill="#004745"/>
          <path id="Trazado_108205" data-name="Trazado 108205" d="M4685.579,998.274c.012.184.375.261.16.507-.027.03-.151.013-.2-.022-.282-.187-.026-.33.051-.488Z" transform="translate(-259.787 -112.496)" fill="#004745"/>
          <path id="Trazado_108206" data-name="Trazado 108206" d="M4501.157,968.227c.168-.18.26-.384.494-.417a.767.767,0,0,1,.075.1C4501.581,968.065,4501.479,968.309,4501.157,968.227Z" transform="translate(-104.984 -86.904)" fill="#004745"/>
          <path id="Trazado_108207" data-name="Trazado 108207" d="M4689.168,1016.538c-.11-.328,0-.454.178-.557C4689.511,1016.226,4689.246,1016.325,4689.168,1016.538Z" transform="translate(-262.912 -127.376)" fill="#004745"/>
          <path id="Trazado_108208" data-name="Trazado 108208" d="M4573.65,1035.807l-.519.494C4573.148,1035.914,4573.292,1035.818,4573.65,1035.807Z" transform="translate(-165.456 -144.034)" fill="#004745"/>
          <path id="Trazado_108209" data-name="Trazado 108209" d="M4560.171,971.01c-.1.445-.193.58-.417.573C4559.707,971.326,4559.926,971.291,4560.171,971.01Z" transform="translate(-154.211 -89.592)" fill="#004745"/>
          <path id="Trazado_108210" data-name="Trazado 108210" d="M4608.31,971.447a.7.7,0,0,1,.375-.473C4608.8,971.261,4608.61,971.336,4608.31,971.447Z" transform="translate(-195.012 -89.562)" fill="#004745"/>
          <path id="Trazado_108211" data-name="Trazado 108211" d="M4560.288,998.914c-.147-.307-.005-.456.446-.62l-.453.621Z" transform="translate(-154.618 -112.516)" fill="#004745"/>
          <path id="Trazado_108212" data-name="Trazado 108212" d="M4509.267,952.333c.115.283,0,.447-.473.6.24-.279.368-.428.494-.579Z" transform="translate(-111.4 -73.9)" fill="#004745"/>
          <path id="Trazado_108213" data-name="Trazado 108213" d="M4601.73,1022.328c-.058.126-.125.234-.265.238-.051,0-.195-.007-.088-.118.081-.084.02-.274.189-.265C4601.624,1022.186,4601.676,1022.277,4601.73,1022.328Z" transform="translate(-189.155 -132.586)" fill="#004745"/>
          <path id="Trazado_108214" data-name="Trazado 108214" d="M4679.05,1030.355l-.152-.007c.035-.243.091-.465.473-.438Z" transform="translate(-254.319 -139.078)" fill="#004745"/>
          <path id="Trazado_108215" data-name="Trazado 108215" d="M4558.351,1144.674a.369.369,0,0,1,.011.135.848.848,0,0,0-.081.16l-.084.032-.154-.191C4558.1,1144.65,4558.227,1144.671,4558.351,1144.674Z" transform="translate(-152.778 -235.5)" fill="#004745"/>
          <path id="Trazado_108216" data-name="Trazado 108216" d="M4554.186,1034.278c-.018-.1.038-.139.122-.158a1.239,1.239,0,0,0,.506-.492c.085-.1.141-.269.322-.13l-.022-.021c.093.084.254.13.179.311l-.343.346C4554.757,1034.516,4554.507,1034.584,4554.186,1034.278Z" transform="translate(-149.535 -142.049)" fill="#004745"/>
          <path id="Trazado_108217" data-name="Trazado 108217" d="M4559.172,1146.422a.571.571,0,0,1,0,.153l.022-.023a.138.138,0,0,1-.181.038l.017-.053c-.005-.04-.013-.08-.021-.12l.027-.026C4559.093,1146.339,4559.139,1146.349,4559.172,1146.422Z" transform="translate(-153.588 -236.917)" fill="#004745"/>
        </g>
      </g>
    </g>
  </g>
</svg>
