<svg xmlns="http://www.w3.org/2000/svg" xmlns:xlink="http://www.w3.org/1999/xlink" width="101.808" height="101.808" viewBox="0 0 101.808 101.808">
  <defs>
    <clipPath id="clip-path">
      <circle id="Elipse_5139" data-name="Elipse 5139" cx="39.066" cy="39.066" r="39.066" transform="translate(-609.221 1147.134) rotate(-67.871)" fill="none"/>
    </clipPath>
  </defs>
  <g id="Grupo_70252" data-name="Grupo 70252" transform="translate(-596 -1584.001)">
    <circle id="Elipse_5137" data-name="Elipse 5137" cx="44.052" cy="44.052" r="44.052" transform="matrix(0.099, -0.995, 0.995, 0.099, 598.725, 1674.402)" fill="#339ce9"/>
    <path id="Trazado_108087" data-name="Trazado 108087" d="M-510.686,1129.1a47.741,47.741,0,0,1-51.045,44.19,47.741,47.741,0,0,1-44.189-51.045,47.74,47.74,0,0,1,51.045-44.189,47.52,47.52,0,0,1,26.037,10.048" transform="translate(1205.221 509.244)" fill="none" stroke="#339ce9" stroke-linecap="round" stroke-linejoin="round" stroke-width="0.914"/>
    <circle id="Elipse_5138" data-name="Elipse 5138" cx="39.066" cy="39.066" r="39.066" transform="translate(596 1656.378) rotate(-67.871)" fill="#fff"/>
    <g id="Grupo_60985" data-name="Grupo 60985" transform="translate(1205.221 509.244)">
      <g id="Grupo_60984" data-name="Grupo 60984" clip-path="url(#clip-path)">
        <g id="Grupo_60997" data-name="Grupo 60997" transform="translate(-5816.798 456.886)">
          <path id="Trazado_108218" data-name="Trazado 108218" d="M5223.3,693.654c.473-.809.942-1.619,1.417-2.425a2.334,2.334,0,0,1,1.435-1.049q9.237-2.857,18.458-5.769c.182-.057.359-.128.592-.212-.191-.451-.4-.874-.554-1.316q-1.115-3.206-2.2-6.423a1.169,1.169,0,0,0-.681-.775,3.944,3.944,0,0,1-1.979-2.22c-.667-1.547-1.373-3.078-2.1-4.6-.428-.9-.93-1.766-1.376-2.659a8.93,8.93,0,0,1-.522-1.277c-.36-1.142-.1-1.549,1.116-1.741a1.32,1.32,0,0,0-.361-1.189c-.185-.18-.195-.559-.248-.854-.244-1.357-.472-2.716-.713-4.073-.035-.195-.047-.452-.173-.561-.387-.333-.182-.71-.173-1.083a2.17,2.17,0,0,0-.1-.99,3.759,3.759,0,0,1,.057-1.688,4.964,4.964,0,0,1,.249-.841l-.325.021c-.009-.037-.037-.082-.024-.105a4.445,4.445,0,0,0,.235-2.23.84.84,0,0,1,.072-.356c.359-.7.705-1.41,1.107-2.087.284-.479.649-.91,1.007-1.4l-.236-.272c.355-.27.7-.536,1.054-.8a8.628,8.628,0,0,0,1.164-.892,19.694,19.694,0,0,1,11.318-6.07,21.753,21.753,0,0,1,11.258.685,16.811,16.811,0,0,1,4.628,2.533,3.229,3.229,0,0,0,1.11.345l.485.429c.159.237.279.423.406.6.27.385.562.756.812,1.154.5.8,1.006,1.6,1.464,2.419.24.432.377.92.579,1.374a.616.616,0,0,0,.179.209,5.292,5.292,0,0,0,.146.841c.1.3.316.528.174.908-.072.193.166.481.193.734.053.494.027,1,.095,1.488a1.957,1.957,0,0,0,.33.6c-.055.079-.192.186-.182.277.087.783.211,1.562.3,2.345a14.809,14.809,0,0,1,.1,1.521c0,.1-.184.207-.3.323.355.947-.122,1.727-.7,2.58.338-.06.614-.091.879-.16a1.552,1.552,0,0,1,2.105,1.055,8.385,8.385,0,0,1,.374,2.428,27.273,27.273,0,0,1-.961,6.828,3.3,3.3,0,0,1-2.735,2.35c-.467.113-.55.321-.651.752a2.128,2.128,0,0,0,.778,2.2c1.127,1.122,2.133,2.368,3.152,3.594a1.8,1.8,0,0,0,1.027.646q8.742,2.171,17.479,4.373a2.879,2.879,0,0,1,.318.12v23.764h-27.34c.083-.761.134-1.527.264-2.28a.934.934,0,0,0-.278-.924c-1.915-1.886-3.819-3.781-5.737-5.664a6.428,6.428,0,0,0-.776-.558c-.371,3.218-.728,6.322-1.086,9.425h-.346q.5-4.523,1.007-9.045c.074-.657-.822-1.432-1.485-1.369a24.729,24.729,0,0,1-2.809.1,2.06,2.06,0,0,0-1.784,1.292q-.93,4.51-1.852,9.022h-.346a3.9,3.9,0,0,1,.039-.455q.819-3.967,1.64-7.932a2.492,2.492,0,0,0,.029-.354c-1.918,1.479-3.838,2.932-5.726,4.426-1.41,1.115-2.69,2.341-2.789,4.316h-21Zm14.171-26.165c-.258-.611-.54-1.212-.761-1.836a1.748,1.748,0,0,1-.12-.987c.047-.165.477-.22.813-.356-.18-.21-.324-.541-.546-.607-.608-.18-.962.244-.7.934.373.974.875,1.9,1.323,2.842a3.023,3.023,0,0,0,.143.372,32.056,32.056,0,0,1,2.64,5.617,2.671,2.671,0,0,0,1.625,1.731,6.232,6.232,0,0,0-.672-1.222,11.608,11.608,0,0,1-.981-1.226c-.887-1.678-1.715-3.387-2.57-5.082C5237.625,667.6,5237.534,667.549,5237.468,667.489Zm27.9-5.453a19.632,19.632,0,0,0-6.515,1.483c1.323-.164,2.741-.4,4.168-.5,1.39-.1,2.823-.19,3.927,1.121.952-1.088,1.893-2.148,2.808-3.232.087-.1.042-.351.007-.521a9.127,9.127,0,0,1-.32-1.385c-.105-2.358-.084-4.725-.262-7.077a34.044,34.044,0,0,0-2.181-9.792,2.325,2.325,0,0,0-.658-.9,14.126,14.126,0,0,0-4.2-2.35,20.725,20.725,0,0,0-10.157-.931,20.208,20.208,0,0,0-10.4,4.433,8.423,8.423,0,0,0-3.041,4.029c-.246.826-.585,1.625-.828,2.451a19.832,19.832,0,0,0-.942,6.921,25.225,25.225,0,0,0,2.051,7.87,7.222,7.222,0,0,1,.405,1.6c.163,1.034.272,2.076.426,3.276a3.567,3.567,0,0,1,2.62-1.989,23.358,23.358,0,0,1,2.582-.567c.864-.144,1.741-.209,2.612-.309a21.293,21.293,0,0,0-6.876,1.009,5.375,5.375,0,0,1,.072-.765,2.508,2.508,0,0,1,2-1.791,12.857,12.857,0,0,1,4.574-.33,3.264,3.264,0,0,1,2.68,1.569.554.554,0,0,0,.451.178c.687-.073,1.371-.171,2.052-.286,1.317-.223,2.631-.463,3.937-.695a2.848,2.848,0,0,1,1.687-2.656,29.889,29.889,0,0,1,3.771-1.354,4.977,4.977,0,0,1,1.71-.117A1.95,1.95,0,0,1,5265.365,662.036Zm-20.4,4.311a8.784,8.784,0,0,0-4.188,1.256,2.181,2.181,0,0,0-.733,1.106,2.14,2.14,0,0,0,.074,1.22c1,2.944,2.652,5.626,3.475,8.647.3,1.09.7,2.154,1.082,3.218a15.651,15.651,0,0,0,3.121,5.4,37.227,37.227,0,0,0,5.888,4.886,5.02,5.02,0,0,0,1.993.849,9.374,9.374,0,0,0,8.094-2.238,15.331,15.331,0,0,0,4.94-7.7,56.014,56.014,0,0,0,1.2-6.147c.578-3.968,1.263-7.938.777-11.977a10.176,10.176,0,0,0-.646-3.592c-.629.947-1.248,1.82-1.8,2.732-.456.748-1.3,1.367-.88,2.461-.2-.513-.333-1.01-.477-1.5a1.89,1.89,0,0,0-1.794-1.534c-1.143-.05-2.29-.012-3.435-.012a3.5,3.5,0,0,1,2.528,1.285,4.843,4.843,0,0,0-3.511-.777,3.679,3.679,0,0,0-2.839,2.141,2.739,2.739,0,0,1,1.34-2.132,5.921,5.921,0,0,0-2.837,1.286c-.839.8-.563,1.931-.73,2.942l-.292-1.217a6.863,6.863,0,0,0-3.19.417c-.456.172-.669.381-.451.886a2.5,2.5,0,0,1,.092.671l-.063.019c-.1-.234-.205-.469-.292-.664l-1.245,2.855-.169-.076c.288-.706.6-1.4.858-2.121.392-1.082.312-1.345-.555-2.1a2.127,2.127,0,0,0-.606-.433c-.416-.153-.856-.237-1.36-.369l1.24,1.318c-.034.032-.07.063-.106.1-1.481-1.617-4.312-1.64-6.292,1A3.514,3.514,0,0,1,5244.96,666.347Zm21.8,37.113c0,.026.013-.062.026-.15.484-3.343.941-6.691,1.461-10.028.62-3.981,1.33-7.948,1.924-11.932.229-1.54.247-3.112.361-4.669l-.164-.028c-.555,4.562-1.385,9.023-4.558,12.507.133.2.281.317.282.437a15.557,15.557,0,0,1-.061,1.9,31.6,31.6,0,0,1-1.952,7.322c-.091.245-.2.483-.323.771l-1.53-.555Zm3.421-43.111a3.841,3.841,0,0,0,1.667-2.113c.071-.174.3-.3.328-.471.1-.543.33-1.106-.148-1.643l.481-.136a1.153,1.153,0,0,1-.044-.2c-.016-.547,0-1.1-.051-1.64a7.056,7.056,0,0,0-.227-.931,8.648,8.648,0,0,1-.181-.9c-.072-.608-.12-1.219-.177-1.829l-.176,0,.328-.343c-.122-.166-.276-.289-.311-.439-.126-.558-.2-1.129-.323-1.688a7.6,7.6,0,0,0-.287-.789,4.319,4.319,0,0,0-1.39-2.1l.179-.221-.461-.192.312-.353-.847-.1.319-.3-.474-.237.313-.256-.608-.16.344-.287-.492-.168.142-.28-.79-.525a49.643,49.643,0,0,1,2.289,17.019A5.436,5.436,0,0,0,5270.181,660.349Zm.911,10.882a3.052,3.052,0,0,0,2.924-2.554c.3-1.641.581-3.288.777-4.943a7.89,7.89,0,0,0-.227-3.482,1.216,1.216,0,0,0-1.191-.988,1.735,1.735,0,0,0-1.542.969,6.58,6.58,0,0,0-.79,3.313c.041,1.784.169,3.565.25,5.348a9.588,9.588,0,0,1-.058,1,1.925,1.925,0,0,0,1.632-.917,5.193,5.193,0,0,0,.684-1.625c.282-1.409.521-2.832.669-4.261a11.039,11.039,0,0,0-.111-2.4c-.035-.291-.343-.767-.657-.449a5.525,5.525,0,0,0-1.025,1.676c-.076.17.212.5.338.761a14.049,14.049,0,0,1,.772,1.595,2.878,2.878,0,0,1-.159,2.346,4.347,4.347,0,0,0-1.292-4.088c-.095,1.064-.786,1.972.092,2.947a1.139,1.139,0,0,1-.535,1.808,1.429,1.429,0,0,0-.218-2.2.417.417,0,0,1-.117-.351c.336-1.294.664-2.592,1.055-3.87a2.2,2.2,0,0,1,.637-.873.727.727,0,0,1,1.306.3,4.153,4.153,0,0,1,.231,1,16.93,16.93,0,0,1-.691,6.372c-.353,1.332-.964,2.46-2.627,2.386C5271.176,670.458,5271.137,670.817,5271.091,671.231Zm-32.219-5.236a6.292,6.292,0,0,0-.349-1.976,23.991,23.991,0,0,1-2.192-8.421,23.457,23.457,0,0,1,2.106-10.062c.07-.168.134-.339.24-.61-.567.653-1.037,1.193-1.505,1.735a.316.316,0,0,0-.085.137,3.911,3.911,0,0,1-.936,1.913c-.117.142-.305.359-.266.475a3.193,3.193,0,0,1-.185,1.822c-.037.168.083.368.114.556a1.231,1.231,0,0,1-.007.317,3.5,3.5,0,0,0-.088,1.083,9.247,9.247,0,0,1-.1,2.185c-.012.169-.091.407-.01.495a1.892,1.892,0,0,1,.323,1.444c0,.194.18.386.278.579a7.038,7.038,0,0,0,.433,2.59,22.012,22.012,0,0,1,.974,3.158,2.437,2.437,0,0,0,.228.745C5238.163,664.773,5238.519,665.371,5238.872,665.995Zm9,26.784c1.932.14,3.817.28,5.7.4.117.008.243-.106.364-.164-.071-.132-.109-.308-.218-.391-.64-.488-1.3-.945-1.944-1.43-.943-.712-1.875-1.437-2.848-2.185C5248.561,690.324,5248.2,691.594,5247.871,692.779Zm1.667-27.268a2.3,2.3,0,0,0-1.8-1.234,19.017,19.017,0,0,0-3.317-.056,9.587,9.587,0,0,0-2.431.6,1.434,1.434,0,0,0-.953,1.34A19.151,19.151,0,0,1,5249.539,665.511Zm15.38-3.816a1.834,1.834,0,0,0-1.613-.916,10.061,10.061,0,0,0-5.513,1.718,2.282,2.282,0,0,0-1.009,1.631A19.3,19.3,0,0,1,5264.918,661.695Zm-14.93,4.278,1.5,1.306a7.134,7.134,0,0,1,3.542-.723.488.488,0,0,0,.388-.207c.2-.443.346-.908.507-1.351ZM5246.011,700l-.953,3.925.1.054,1.972-1.841Zm-9.172-35.206a18.1,18.1,0,0,0,2.233,4.611c-.328-1.241-.786-2.44-1.118-3.672C5237.8,665.165,5237.506,664.945,5236.839,664.791Zm4.247,8.553-1.5-3.414C5239.331,670.27,5240.436,672.826,5241.085,673.344Zm29.7-11.606c.128-.574.224-1.007.344-1.546C5270.393,660.586,5270.321,661.025,5270.783,661.738Z" transform="translate(0 0)" fill="#003760"/>
          <path id="Trazado_108219" data-name="Trazado 108219" d="M5467.3,1161.98q.925-4.511,1.852-9.022a2.059,2.059,0,0,1,1.784-1.292,24.72,24.72,0,0,0,2.808-.1c.664-.063,1.56.711,1.485,1.369q-.509,4.522-1.007,9.045Z" transform="translate(-215.853 -454.944)" fill="#fff"/>
          <path id="Trazado_108220" data-name="Trazado 108220" d="M5530.3,1169.588c.357-3.1.715-6.208,1.086-9.426a6.514,6.514,0,0,1,.776.558c1.917,1.883,3.822,3.778,5.737,5.664a.932.932,0,0,1,.278.923c-.13.753-.18,1.52-.263,2.281Z" transform="translate(-271.585 -462.552)" fill="#fff"/>
          <path id="Trazado_108221" data-name="Trazado 108221" d="M5405.3,1174.836c.1-1.975,1.378-3.2,2.788-4.316,1.888-1.493,3.809-2.946,5.727-4.425a2.485,2.485,0,0,1-.029.354q-.817,3.966-1.64,7.932a3.694,3.694,0,0,0-.039.455Z" transform="translate(-161.005 -467.8)" fill="#fff"/>
          <path id="Trazado_108222" data-name="Trazado 108222" d="M5368.472,665.209a1.949,1.949,0,0,0-1.841-1.611,4.973,4.973,0,0,0-1.709.117,29.9,29.9,0,0,0-3.771,1.354,2.849,2.849,0,0,0-1.687,2.656c-1.306.231-2.62.472-3.937.695-.681.115-1.365.213-2.052.286a.554.554,0,0,1-.451-.178,3.265,3.265,0,0,0-2.68-1.569,12.853,12.853,0,0,0-4.573.33,2.508,2.508,0,0,0-2,1.791,5.438,5.438,0,0,0-.073.765,21.3,21.3,0,0,1,6.876-1.01c-.872.1-1.749.165-2.613.309a23.407,23.407,0,0,0-2.582.567,3.568,3.568,0,0,0-2.62,1.989c-.152-1.2-.263-2.242-.425-3.276a7.225,7.225,0,0,0-.406-1.6,25.224,25.224,0,0,1-2.05-7.87,19.832,19.832,0,0,1,.941-6.921c.243-.827.583-1.625.828-2.451a8.424,8.424,0,0,1,3.041-4.029,20.213,20.213,0,0,1,10.4-4.433,20.724,20.724,0,0,1,10.157.931,14.12,14.12,0,0,1,4.2,2.35,2.32,2.32,0,0,1,.658.9,34.044,34.044,0,0,1,2.182,9.792c.177,2.352.156,4.719.262,7.077a9.13,9.13,0,0,0,.32,1.385c.035.17.08.417-.008.521-.915,1.083-1.855,2.144-2.808,3.232-1.1-1.311-2.537-1.222-3.927-1.121-1.427.1-2.846.337-4.167.5A19.628,19.628,0,0,1,5368.472,665.209Z" transform="translate(-103.108 -3.173)" fill="#fff"/>
          <path id="Trazado_108223" data-name="Trazado 108223" d="M5372.9,850.225a3.517,3.517,0,0,0-1.793,2.093c1.979-2.642,4.81-2.619,6.292-1l.106-.1-1.24-1.318c.5.132.944.216,1.36.369a2.127,2.127,0,0,1,.606.433c.867.755.947,1.019.555,2.1-.259.716-.57,1.414-.858,2.121l.168.076,1.246-2.855.292.664.063-.019a2.476,2.476,0,0,0-.092-.671c-.219-.505,0-.714.451-.886a6.863,6.863,0,0,1,3.191-.417l.292,1.217c.167-1.01-.109-2.146.73-2.942a5.921,5.921,0,0,1,2.837-1.286,2.736,2.736,0,0,0-1.34,2.132,3.678,3.678,0,0,1,2.839-2.141,4.842,4.842,0,0,1,3.51.777,3.5,3.5,0,0,0-2.527-1.285c1.145,0,2.292-.038,3.435.012a1.89,1.89,0,0,1,1.794,1.534c.144.494.277.991.477,1.5-.421-1.093.425-1.713.88-2.461.556-.912,1.175-1.785,1.8-2.732a10.175,10.175,0,0,1,.646,3.592c.486,4.039-.2,8.009-.777,11.977a56.015,56.015,0,0,1-1.2,6.147,15.333,15.333,0,0,1-4.94,7.7,9.375,9.375,0,0,1-8.095,2.238,5.019,5.019,0,0,1-1.993-.849,37.253,37.253,0,0,1-5.888-4.886,15.649,15.649,0,0,1-3.12-5.4c-.385-1.064-.785-2.128-1.082-3.218-.822-3.021-2.473-5.7-3.475-8.647a2.144,2.144,0,0,1-.073-1.22,2.177,2.177,0,0,1,.733-1.106A8.786,8.786,0,0,1,5372.9,850.225Zm7.333,1.79-.188,0c0,.283.017.567,0,.848-.132,1.914-.275,3.827-.406,5.741a.653.653,0,0,1-.473.619,1.411,1.411,0,0,0-.334,2.528,6.838,6.838,0,0,0,1.29.65c-.1.015-.244.039-.388.058-2.482.339-2.75.818-3.226,3.023a3.3,3.3,0,0,0-.006.667l1.328-.172c.089.542.52.072,1,.23l-.355.1c1.273.057,2.564.108,3.854.173a9.634,9.634,0,0,0,3.853-.493c1.313-.479,2.65-.887,3.977-1.328.086-.029.168-.069.387-.159h-1.524c.412-.442.72-.765,1.339-.585.481.14.991.082.94-.678l.629.134.138-.115-.739-1.254a1.279,1.279,0,0,1,.667.382,5.665,5.665,0,0,1,.462.659l.451.648a12.266,12.266,0,0,0-4.592-5.721c.539.539,1.018,1.143,1.513,1.733s1.015,1.175,1.489,1.722l-3.576-.427a7.365,7.365,0,0,0,.4-1.2c.17-.99-.123-1.433-.982-1.637a4.59,4.59,0,0,1-2.4-1.451c.153.577.252,1.063.421,1.523a.627.627,0,0,0,.454.279c.53.063,1.076.024,1.595.131a.841.841,0,0,1,.524.559,1.991,1.991,0,0,1-.586,1.79c-.143.142-.468.091-.632.223a4.714,4.714,0,0,0-.833.866c-1.413,1.928-3.091,2.071-4.788.422a2.4,2.4,0,0,0-1.016-.6,1.679,1.679,0,0,1-1.311-1.228c-.086-.582.171-.938.962-1.229a.568.568,0,0,0,.438-.573c.083-1.148.251-2.293.291-3.442S5380.254,853.153,5380.23,852.016Zm11.83-2.7a3.691,3.691,0,0,0-3.833-.953,3.557,3.557,0,0,0-2.429,2.776,2.432,2.432,0,0,1,.895-.11,4.563,4.563,0,0,0,4.61-1.227A4.681,4.681,0,0,1,5392.06,849.316Zm-20.628,3.555a3.232,3.232,0,0,1,.834.106,4.416,4.416,0,0,0,4.342-.259,10.437,10.437,0,0,1,1.1-.526,3.419,3.419,0,0,0-3.23-1.518A3.61,3.61,0,0,0,5371.432,852.872Zm3.976,12.639c.433-1.04.824-2.1,1.31-3.114.478-1,1.053-1.947,1.585-2.918A10.85,10.85,0,0,0,5375.407,865.511Zm9.794-16.621c-.59.387-1.277,1.7-1.051,2.255a6.207,6.207,0,0,0,2.533,2.752c-.674-.784-1.363-1.552-2.056-2.317a.961.961,0,0,1-.186-1.116C5384.683,849.934,5384.947,849.414,5385.2,848.89Zm10.4,16.467a10.181,10.181,0,0,0,0-5Zm-20.491,4.136-1.553-4.294A9.309,9.309,0,0,0,5375.11,869.492Zm14.033-17.372a13.988,13.988,0,0,1-1.425.065c-.475-.024-.946-.134-1.57-.23A2.707,2.707,0,0,0,5389.144,852.121Zm-13.884,2.246a2.15,2.15,0,0,0,2.23-1.005Zm3.173,12.66a5.118,5.118,0,0,0-.95,3.318C5377.785,869.29,5378.1,868.2,5378.433,867.026Zm12.9-1.641-.182.12,1.66,2.53.171-.112Z" transform="translate(-127.938 -183.878)" fill="#fff"/>
          <path id="Trazado_108224" data-name="Trazado 108224" d="M5565.289,1005.293l-4.534-4.429,1.53.555c.121-.289.231-.526.323-.771a31.648,31.648,0,0,0,1.952-7.322,15.658,15.658,0,0,0,.061-1.9c0-.119-.148-.238-.282-.437,3.173-3.484,4-7.944,4.557-12.506l.165.028c-.115,1.557-.131,3.129-.361,4.669-.594,3.984-1.305,7.951-1.924,11.932-.52,3.338-.977,6.685-1.461,10.028C5565.3,1005.231,5565.284,1005.319,5565.289,1005.293Z" transform="translate(-298.53 -301.833)" fill="#fff"/>
          <path id="Trazado_108225" data-name="Trazado 108225" d="M5609.977,696.849a5.463,5.463,0,0,1-.286-1.277,49.607,49.607,0,0,0-2.289-17.019l.791.525-.142.281.492.168-.344.287.608.16-.313.256.475.237-.32.3.848.1-.312.353.461.192-.179.221a4.327,4.327,0,0,1,1.391,2.1,7.711,7.711,0,0,1,.286.789c.124.559.2,1.13.324,1.688.034.15.188.273.309.439l-.328.343.177,0c.057.61.1,1.221.177,1.829a8.525,8.525,0,0,0,.181.9,7.054,7.054,0,0,1,.226.931c.047.544.036,1.093.051,1.64a1.307,1.307,0,0,0,.043.2l-.48.136c.477.537.251,1.1.148,1.643-.033.171-.258.3-.329.471A3.839,3.839,0,0,1,5609.977,696.849Z" transform="translate(-339.796 -36.5)" fill="#fff"/>
          <path id="Trazado_108226" data-name="Trazado 108226" d="M5637.229,839.716c.045-.414.084-.772.128-1.172,1.663.074,2.274-1.054,2.627-2.386a16.92,16.92,0,0,0,.69-6.372,4.152,4.152,0,0,0-.23-1,.727.727,0,0,0-1.306-.3,2.191,2.191,0,0,0-.636.873c-.392,1.278-.72,2.575-1.056,3.87a.42.42,0,0,0,.117.351,1.43,1.43,0,0,1,.218,2.2,1.139,1.139,0,0,0,.534-1.808c-.878-.975-.187-1.884-.092-2.948a4.346,4.346,0,0,1,1.291,4.088,2.876,2.876,0,0,0,.159-2.346,14.128,14.128,0,0,0-.772-1.595c-.126-.257-.415-.59-.339-.761a5.535,5.535,0,0,1,1.025-1.676c.314-.317.623.158.657.449a10.948,10.948,0,0,1,.112,2.4c-.147,1.429-.387,2.852-.669,4.261a5.18,5.18,0,0,1-.684,1.625,1.924,1.924,0,0,1-1.631.917,9.722,9.722,0,0,0,.057-1c-.081-1.783-.209-3.565-.25-5.348a6.592,6.592,0,0,1,.791-3.312,1.734,1.734,0,0,1,1.542-.969,1.215,1.215,0,0,1,1.19.988,7.876,7.876,0,0,1,.227,3.482c-.2,1.655-.479,3.3-.777,4.943A3.05,3.05,0,0,1,5637.229,839.716Z" transform="translate(-366.137 -168.486)" fill="#fff"/>
          <path id="Trazado_108227" data-name="Trazado 108227" d="M5332.981,724.53c-.354-.624-.71-1.222-1.033-1.837a2.465,2.465,0,0,1-.228-.745,21.95,21.95,0,0,0-.973-3.158,7.027,7.027,0,0,1-.433-2.589c-.1-.193-.277-.385-.278-.579a1.9,1.9,0,0,0-.323-1.444c-.081-.088,0-.326.009-.5a9.221,9.221,0,0,0,.1-2.185,3.472,3.472,0,0,1,.089-1.083,1.276,1.276,0,0,0,.006-.317c-.031-.188-.151-.387-.114-.556a3.205,3.205,0,0,0,.185-1.822c-.04-.116.148-.333.265-.475a3.9,3.9,0,0,0,.937-1.913.312.312,0,0,1,.085-.137c.469-.542.939-1.082,1.506-1.735-.106.271-.169.442-.24.61a23.458,23.458,0,0,0-2.106,10.062,23.981,23.981,0,0,0,2.191,8.421A6.278,6.278,0,0,1,5332.981,724.53Z" transform="translate(-94.109 -58.536)" fill="#fff"/>
          <path id="Trazado_108228" data-name="Trazado 108228" d="M5436.321,1089.411l1.058-3.765c.973.748,1.905,1.474,2.848,2.185.642.485,1.305.942,1.945,1.43.109.083.147.258.218.391-.122.057-.248.171-.365.164C5440.138,1089.69,5438.252,1089.551,5436.321,1089.411Z" transform="translate(-188.45 -396.632)" fill="#fff"/>
          <path id="Trazado_108229" data-name="Trazado 108229" d="M5385.62,871.636a19.151,19.151,0,0,0-8.5.646,1.436,1.436,0,0,1,.953-1.34,9.593,9.593,0,0,1,2.431-.6,19,19,0,0,1,3.317.056A2.3,2.3,0,0,1,5385.62,871.636Z" transform="translate(-136.081 -206.125)" fill="#fff"/>
          <path id="Trazado_108230" data-name="Trazado 108230" d="M5521.714,841.8a19.3,19.3,0,0,0-8.136,2.433,2.279,2.279,0,0,1,1.009-1.631,10.059,10.059,0,0,1,5.513-1.718A1.835,1.835,0,0,1,5521.714,841.8Z" transform="translate(-256.795 -180.1)" fill="#fff"/>
          <path id="Trazado_108231" data-name="Trazado 108231" d="M5454.676,878.426l5.941-.975c-.162.443-.311.908-.508,1.351a.488.488,0,0,1-.388.207,7.134,7.134,0,0,0-3.542.724Z" transform="translate(-204.688 -212.454)" fill="#fff"/>
          <path id="Trazado_108232" data-name="Trazado 108232" d="M5412.892,1180.848c.421.8.767,1.459,1.123,2.138l-1.972,1.841-.1-.054C5412.244,1183.519,5412.548,1182.265,5412.892,1180.848Z" transform="translate(-166.881 -480.852)" fill="#fff"/>
          <path id="Trazado_108233" data-name="Trazado 108233" d="M5340.686,875.662c.667.154.962.374,1.115.939.333,1.232.791,2.431,1.119,3.672A18.138,18.138,0,0,1,5340.686,875.662Z" transform="translate(-103.847 -210.871)" fill="#fff"/>
          <path id="Trazado_108234" data-name="Trazado 108234" d="M5346.13,898.976c.066.059.159.106.2.18.856,1.695,1.684,3.4,2.571,5.082a11.6,11.6,0,0,0,.98,1.225,6.24,6.24,0,0,1,.672,1.222,2.668,2.668,0,0,1-1.625-1.731,32.053,32.053,0,0,0-2.639-5.617,3.1,3.1,0,0,1-.144-.372Z" transform="translate(-108.663 -231.486)" fill="#fff"/>
          <path id="Trazado_108235" data-name="Trazado 108235" d="M5335.414,869.692c-.447-.945-.951-1.868-1.322-2.842-.264-.69.09-1.114.7-.934.222.066.366.4.546.607-.336.136-.767.191-.814.356a1.756,1.756,0,0,0,.12.987c.221.624.5,1.225.761,1.836Z" transform="translate(-97.935 -202.213)" fill="#fff"/>
          <path id="Trazado_108236" data-name="Trazado 108236" d="M5365.71,923.623c-.649-.518-1.754-3.074-1.5-3.414Z" transform="translate(-124.626 -250.279)" fill="#fff"/>
          <path id="Trazado_108237" data-name="Trazado 108237" d="M5632.71,837.341c-.461-.714-.39-1.152.345-1.546Z" transform="translate(-361.928 -175.603)" fill="#fff"/>
          <path id="Trazado_108238" data-name="Trazado 108238" d="M5445.9,904.673c.025,1.138.1,2.278.06,3.413s-.208,2.293-.291,3.442a.568.568,0,0,1-.438.573c-.792.292-1.049.648-.962,1.229a1.679,1.679,0,0,0,1.31,1.228,2.4,2.4,0,0,1,1.016.6c1.7,1.648,3.376,1.505,4.789-.423a4.722,4.722,0,0,1,.833-.866c.164-.133.488-.082.631-.223a1.991,1.991,0,0,0,.586-1.79.842.842,0,0,0-.524-.559c-.518-.107-1.065-.068-1.595-.131a.626.626,0,0,1-.454-.279c-.169-.46-.269-.946-.422-1.523a4.592,4.592,0,0,0,2.4,1.451c.859.2,1.152.647.981,1.637a7.367,7.367,0,0,1-.4,1.2l3.576.427c-.474-.547-.99-1.128-1.489-1.723s-.974-1.194-1.512-1.733a12.265,12.265,0,0,1,4.591,5.721c-.149-.216-.3-.432-.45-.648a5.729,5.729,0,0,0-.462-.659,1.278,1.278,0,0,0-.667-.382l.739,1.254-.138.115-.63-.134c.052.761-.458.818-.939.678-.619-.18-.928.143-1.339.585h1.524c-.219.091-.3.131-.387.16-1.326.44-2.664.849-3.977,1.328a9.635,9.635,0,0,1-3.853.493c-1.291-.065-2.582-.117-3.854-.173l.355-.1c-.485-.158-.916.312-1-.23l-1.328.172a3.335,3.335,0,0,1,.005-.667c.477-2.2.744-2.684,3.226-3.023.144-.02.288-.043.388-.059a6.823,6.823,0,0,1-1.29-.65,1.412,1.412,0,0,1,.333-2.528.654.654,0,0,0,.474-.619c.129-1.914.273-3.827.405-5.741.02-.281,0-.565,0-.848Zm11.3,10.795a6.547,6.547,0,0,0-1.876-1.265,5.589,5.589,0,0,0-1.43-.083,2.853,2.853,0,0,0-2.5,1.335,2.937,2.937,0,0,1-2.459,1.262,3.386,3.386,0,0,1-1.983-.653,2.082,2.082,0,0,0-1.447-.589c-1.723.183-2.068.41-2.73,1.987a3.612,3.612,0,0,0-.131.416l.5.4.743-.424.126.607c.333-.089.646-.159.948-.258.364-.119.6-.609,1.089-.366.161.079.35.213.5.184.51-.1,1.009-.255,1.538-.4,0-.007.019.111.045.265h1.295l.359-.434.625.325a2.6,2.6,0,0,1,2.406-.511c.085-.234.15-.406.2-.547l1.333.173c.038-.284.063-.481.094-.719l.287.183c.57-.64,1.266.173,1.814-.244v-.592Zm-7.336,2.525c-.376.611-.958.456-1.506.431-.5-.024-.991-.066-1.486-.061s-.965.06-1.384.088c2.524.311,5.114.64,7.5-.783l-1.111-.071A1.844,1.844,0,0,1,5449.864,917.993Z" transform="translate(-193.611 -236.535)" fill="#003760"/>
          <path id="Trazado_108239" data-name="Trazado 108239" d="M5529.175,872.708a4.737,4.737,0,0,0-.758.485,4.562,4.562,0,0,1-4.609,1.227,2.428,2.428,0,0,0-.895.11,3.558,3.558,0,0,1,2.43-2.776A3.689,3.689,0,0,1,5529.175,872.708Zm-4.609.136c.822-.02.924-.131.844-.785a2.933,2.933,0,0,0-1.994,2.044l2.1.213Zm4.1-.276-1.45-.631c.038.634.071,1.174.106,1.766Z" transform="translate(-265.053 -207.269)" fill="#003760"/>
          <path id="Trazado_108240" data-name="Trazado 108240" d="M5398.384,895.042a3.609,3.609,0,0,1,3.049-2.2,3.418,3.418,0,0,1,3.229,1.518,10.517,10.517,0,0,0-1.1.526,4.415,4.415,0,0,1-4.342.259A3.243,3.243,0,0,0,5398.384,895.042Zm2.159-1.578-.134-.164-1.443,1.248.064.248,1.883.53.1-.153A1.43,1.43,0,0,1,5400.542,893.464Zm2.323-.221v1.7l1.27-.752Z" transform="translate(-154.889 -226.049)" fill="#003760"/>
          <path id="Trazado_108241" data-name="Trazado 108241" d="M5432.843,975.406a10.858,10.858,0,0,1,2.9-6.032c-.532.971-1.107,1.921-1.585,2.918C5433.667,973.306,5433.275,974.366,5432.843,975.406Z" transform="translate(-185.373 -293.773)" fill="#003760"/>
          <path id="Trazado_108242" data-name="Trazado 108242" d="M5509.35,877.574c-.254.524-.518,1.044-.759,1.574a.961.961,0,0,0,.186,1.116c.692.765,1.382,1.533,2.056,2.317a6.2,6.2,0,0,1-2.532-2.752C5508.073,879.274,5508.76,877.962,5509.35,877.574Z" transform="translate(-252.086 -212.562)" fill="#003760"/>
          <path id="Trazado_108243" data-name="Trazado 108243" d="M5607.9,982.016v-5A10.169,10.169,0,0,1,5607.9,982.016Z" transform="translate(-340.235 -300.537)" fill="#003760"/>
          <path id="Trazado_108244" data-name="Trazado 108244" d="M5418.36,1023.242a9.31,9.31,0,0,1-1.554-4.294Z" transform="translate(-171.186 -337.628)" fill="#003760"/>
          <path id="Trazado_108245" data-name="Trazado 108245" d="M5528.955,904.324a2.707,2.707,0,0,1-3-.165c.624.1,1.095.206,1.57.23A14,14,0,0,0,5528.955,904.324Z" transform="translate(-267.749 -236.081)" fill="#003760"/>
          <path id="Trazado_108246" data-name="Trazado 108246" d="M5431.558,917.344l2.23-1.005A2.15,2.15,0,0,1,5431.558,917.344Z" transform="translate(-184.237 -246.856)" fill="#003760"/>
          <path id="Trazado_108247" data-name="Trazado 108247" d="M5451.528,1034.8l-.95,3.318A5.119,5.119,0,0,1,5451.528,1034.8Z" transform="translate(-201.032 -351.649)" fill="#003760"/>
          <path id="Trazado_108248" data-name="Trazado 108248" d="M5569.536,1020.574l1.649,2.539-.172.112-1.66-2.53Z" transform="translate(-306.136 -339.066)" fill="#003760"/>
          <path id="Trazado_108249" data-name="Trazado 108249" d="M5460.949,987.878l-.653.051v.592c-.548.417-1.244-.4-1.813.244l-.287-.183c-.032.239-.058.436-.1.719l-1.332-.173c-.052.141-.116.314-.2.547a2.6,2.6,0,0,0-2.406.511l-.625-.325-.359.434h-1.295c-.026-.154-.046-.272-.045-.265-.528.141-1.027.3-1.537.4-.15.028-.338-.1-.5-.184-.49-.242-.726.248-1.089.366-.3.1-.615.168-.948.258l-.126-.607-.743.424-.5-.4a3.442,3.442,0,0,1,.131-.416c.662-1.576,1.008-1.8,2.729-1.987a2.084,2.084,0,0,1,1.448.589,3.381,3.381,0,0,0,1.983.653,2.934,2.934,0,0,0,2.458-1.262,2.855,2.855,0,0,1,2.5-1.335,5.587,5.587,0,0,1,1.429.083A6.567,6.567,0,0,1,5460.949,987.878Z" transform="translate(-197.359 -308.946)" fill="#fff"/>
          <path id="Trazado_108250" data-name="Trazado 108250" d="M5475.415,1017.1a1.845,1.845,0,0,0,2.008-.4l1.112.071c-2.382,1.423-4.972,1.094-7.5.783.42-.028.9-.083,1.385-.088s.99.037,1.485.061C5474.457,1017.559,5475.039,1017.713,5475.415,1017.1Z" transform="translate(-219.163 -335.645)" fill="#fff"/>
          <path id="Trazado_108251" data-name="Trazado 108251" d="M5528.416,876.432l.947,1.472-2.1-.213a2.931,2.931,0,0,1,1.994-2.044C5529.339,876.3,5529.238,876.411,5528.416,876.432Z" transform="translate(-268.903 -210.858)" fill="#fff"/>
          <path id="Trazado_108252" data-name="Trazado 108252" d="M5561.641,875.225l-1.344,1.136c-.035-.592-.067-1.132-.105-1.766Z" transform="translate(-298.031 -209.926)" fill="#fff"/>
          <path id="Trazado_108253" data-name="Trazado 108253" d="M5405,897.158a1.43,1.43,0,0,0,.472,1.709l-.1.153-1.883-.53-.064-.248,1.443-1.248Z" transform="translate(-159.352 -229.742)" fill="#fff"/>
          <path id="Trazado_108254" data-name="Trazado 108254" d="M5437.233,896.5l1.27.946-1.27.752Z" transform="translate(-189.257 -229.303)" fill="#fff"/>
        </g>
      </g>
    </g>
  </g>
</svg>
