<svg xmlns="http://www.w3.org/2000/svg" width="225.598" height="261.667" viewBox="0 0 225.598 261.667">
  <g id="Grupo_69112" data-name="Grupo 69112" transform="translate(-114.114 -84.394)">
    <path id="Trazado_115314" data-name="Trazado 115314" d="M226.256,336.082l-88.081,4.688-.8-14.94-18.867-2.175,12.831-111.243L125.391,100.59l6.253-.333V95.193h13.219l1.208-10.475L233.7,94.825l88.081-4.688.269,5.056h6.261v10.545l13.132,1.514L328.61,218.5l5.952,111.822-6.253.333v5.064H315.09l-1.208,10.475Z" transform="translate(-1.729 -0.127)" fill="#cfe1e6" style="mix-blend-mode: multiply;isolation: isolate"/>
    <rect id="Rectángulo_7073" data-name="Rectángulo 7073" width="193.896" height="237.75" transform="translate(141.356 84.394) rotate(6.58)" fill="#7ec2d9"/>
    <rect id="Rectángulo_7074" data-name="Rectángulo 7074" width="193.895" height="237.75" transform="translate(120.915 100.04) rotate(-3.047)" fill="#9bcee0"/>
    <g id="Grupo_69111" data-name="Grupo 69111" transform="translate(127.094 94.72)">
      <path id="Trazado_115315" data-name="Trazado 115315" d="M329.4,101.41V339.16H174.827l-39.319.138V101.41Z" transform="translate(-135.506 -101.41)" fill="#fff"/>
      <rect id="Rectángulo_7075" data-name="Rectángulo 7075" width="193.895" height="17.715" fill="#0ac4bf"/>
      <rect id="Rectángulo_7076" data-name="Rectángulo 7076" width="35.851" height="1.583" transform="translate(147.041 220.731)" fill="#a9cdd9"/>
      <rect id="Rectángulo_7077" data-name="Rectángulo 7077" width="35.851" height="1.583" transform="translate(92.856 220.731)" fill="#a9cdd9"/>
      <g id="Grupo_69101" data-name="Grupo 69101" transform="translate(7.848 101.289)">
        <rect id="Rectángulo_7078" data-name="Rectángulo 7078" width="21.089" height="13.439" transform="translate(117.403 29.592)" fill="#a9cdd9"/>
        <rect id="Rectángulo_7079" data-name="Rectángulo 7079" width="21.089" height="13.439" transform="translate(117.403 44.614)" fill="#a9cdd9"/>
        <rect id="Rectángulo_7080" data-name="Rectángulo 7080" width="16.2" height="13.439" transform="translate(0 44.614)" fill="#a9cdd9"/>
        <rect id="Rectángulo_7081" data-name="Rectángulo 7081" width="16.2" height="13.439" transform="translate(0 29.592)" fill="#a9cdd9"/>
        <rect id="Rectángulo_7082" data-name="Rectángulo 7082" width="16.2" height="13.439" transform="translate(0 14.57)" fill="#a9cdd9"/>
        <rect id="Rectángulo_7083" data-name="Rectángulo 7083" width="21.089" height="13.439" transform="translate(117.403 14.57)" fill="#a9cdd9"/>
        <rect id="Rectángulo_7084" data-name="Rectángulo 7084" width="14.215" height="13.439" transform="translate(140.075 29.592)" fill="#a9cdd9"/>
        <rect id="Rectángulo_7085" data-name="Rectángulo 7085" width="21.089" height="13.49" transform="translate(117.403 59.636)" fill="#a9cdd9"/>
        <rect id="Rectángulo_7086" data-name="Rectángulo 7086" width="98.037" height="13.49" transform="translate(17.783 59.636)" fill="#a9cdd9"/>
        <rect id="Rectángulo_7087" data-name="Rectángulo 7087" width="14.215" height="13.439" transform="translate(140.075 44.614)" fill="#a9cdd9"/>
        <rect id="Rectángulo_7088" data-name="Rectángulo 7088" width="16.2" height="13.49" transform="translate(0 59.636)" fill="#a9cdd9"/>
        <rect id="Rectángulo_7089" data-name="Rectángulo 7089" width="98.037" height="13.439" transform="translate(17.783 14.57)" fill="#a9cdd9"/>
        <rect id="Rectángulo_7090" data-name="Rectángulo 7090" width="98.037" height="13.439" transform="translate(17.783 29.592)" fill="#a9cdd9"/>
        <rect id="Rectángulo_7091" data-name="Rectángulo 7091" width="14.215" height="13.439" transform="translate(140.075 14.57)" fill="#a9cdd9"/>
        <rect id="Rectángulo_7092" data-name="Rectángulo 7092" width="14.215" height="13.49" transform="translate(140.075 59.636)" fill="#a9cdd9"/>
        <rect id="Rectángulo_7093" data-name="Rectángulo 7093" width="98.037" height="13.439" transform="translate(17.783 44.614)" fill="#a9cdd9"/>
        <rect id="Rectángulo_7094" data-name="Rectángulo 7094" width="20.902" height="13.49" transform="translate(155.872 59.636)" fill="#a9cdd9"/>
        <rect id="Rectángulo_7095" data-name="Rectángulo 7095" width="20.902" height="13.439" transform="translate(155.872 29.592)" fill="#a9cdd9"/>
        <rect id="Rectángulo_7096" data-name="Rectángulo 7096" width="20.902" height="13.439" transform="translate(155.872 44.614)" fill="#a9cdd9"/>
        <rect id="Rectángulo_7097" data-name="Rectángulo 7097" width="20.902" height="13.439" transform="translate(155.872 14.57)" fill="#a9cdd9"/>
        <rect id="Rectángulo_7098" data-name="Rectángulo 7098" width="98.037" height="12.988" transform="translate(17.783)" fill="#79a8b8"/>
        <rect id="Rectángulo_7099" data-name="Rectángulo 7099" width="20.902" height="12.988" transform="translate(155.872)" fill="#79a8b8"/>
        <rect id="Rectángulo_7100" data-name="Rectángulo 7100" width="16.2" height="12.988" fill="#79a8b8"/>
        <rect id="Rectángulo_7101" data-name="Rectángulo 7101" width="14.215" height="12.988" transform="translate(140.075)" fill="#79a8b8"/>
        <rect id="Rectángulo_7102" data-name="Rectángulo 7102" width="21.089" height="12.988" transform="translate(117.403)" fill="#79a8b8"/>
      </g>
      <g id="Grupo_69102" data-name="Grupo 69102" transform="translate(125.252 189.307)">
        <rect id="Rectángulo_7103" data-name="Rectángulo 7103" width="20.902" height="9.125" transform="translate(38.469)" fill="#0ac4bf"/>
        <rect id="Rectángulo_7104" data-name="Rectángulo 7104" width="14.215" height="9.125" transform="translate(22.672)" fill="#0ac4bf"/>
        <rect id="Rectángulo_7105" data-name="Rectángulo 7105" width="21.089" height="9.125" fill="#0ac4bf"/>
      </g>
      <g id="Grupo_69105" data-name="Grupo 69105" transform="translate(8.181 26.799)">
        <rect id="Rectángulo_7106" data-name="Rectángulo 7106" width="30.696" height="3.166" transform="translate(4.726 5.959)" fill="#a9cdd9"/>
        <rect id="Rectángulo_7107" data-name="Rectángulo 7107" width="30.696" height="3.166" transform="translate(89.102)" fill="#a9cdd9"/>
        <rect id="Rectángulo_7108" data-name="Rectángulo 7108" width="30.696" height="3.166" transform="translate(142.541)" fill="#a9cdd9"/>
        <rect id="Rectángulo_7109" data-name="Rectángulo 7109" width="15.564" height="3.166" transform="translate(123.347)" fill="#a9cdd9"/>
        <rect id="Rectángulo_7110" data-name="Rectángulo 7110" width="62.441" height="3.166" transform="translate(89.102 5.959)" fill="#a9cdd9"/>
        <rect id="Rectángulo_7111" data-name="Rectángulo 7111" width="12.505" height="3.166" transform="translate(109.43 22.924)" fill="#a9cdd9"/>
        <rect id="Rectángulo_7112" data-name="Rectángulo 7112" width="3.166" height="3.166" transform="translate(126.553 22.924)" fill="#a9cdd9"/>
        <rect id="Rectángulo_7113" data-name="Rectángulo 7113" width="3.166" height="3.166" transform="translate(131.169 22.924)" fill="#a9cdd9"/>
        <rect id="Rectángulo_7114" data-name="Rectángulo 7114" width="3.166" height="3.166" transform="translate(135.785 22.924)" fill="#a9cdd9"/>
        <rect id="Rectángulo_7115" data-name="Rectángulo 7115" width="3.166" height="3.166" transform="translate(126.553 28.884)" fill="#a9cdd9"/>
        <rect id="Rectángulo_7116" data-name="Rectángulo 7116" width="3.166" height="3.166" transform="translate(131.169 28.884)" fill="#a9cdd9"/>
        <rect id="Rectángulo_7117" data-name="Rectángulo 7117" width="3.166" height="3.166" transform="translate(135.785 28.884)" fill="#a9cdd9"/>
        <rect id="Rectángulo_7118" data-name="Rectángulo 7118" width="3.166" height="3.166" transform="translate(140.379 28.884)" fill="#a9cdd9"/>
        <rect id="Rectángulo_7119" data-name="Rectángulo 7119" width="3.166" height="3.166" transform="translate(144.995 28.884)" fill="#a9cdd9"/>
        <rect id="Rectángulo_7120" data-name="Rectángulo 7120" width="3.166" height="3.166" transform="translate(149.611 28.884)" fill="#a9cdd9"/>
        <rect id="Rectángulo_7121" data-name="Rectángulo 7121" width="3.166" height="3.166" transform="translate(154.205 28.884)" fill="#a9cdd9"/>
        <rect id="Rectángulo_7122" data-name="Rectángulo 7122" width="3.166" height="3.166" transform="translate(158.821 28.884)" fill="#a9cdd9"/>
        <rect id="Rectángulo_7123" data-name="Rectángulo 7123" width="3.166" height="3.166" transform="translate(163.437 28.884)" fill="#a9cdd9"/>
        <rect id="Rectángulo_7124" data-name="Rectángulo 7124" width="19.73" height="3.166" transform="translate(102.173 28.884)" fill="#a9cdd9"/>
        <rect id="Rectángulo_7125" data-name="Rectángulo 7125" width="46.232" height="3.166" transform="translate(126.553 34.843)" fill="#a9cdd9"/>
        <rect id="Rectángulo_7126" data-name="Rectángulo 7126" width="11.312" height="3.166" transform="translate(110.624 34.843)" fill="#a9cdd9"/>
        <rect id="Rectángulo_7127" data-name="Rectángulo 7127" width="46.232" height="3.166" transform="translate(126.553 40.802)" fill="#a9cdd9"/>
        <rect id="Rectángulo_7128" data-name="Rectángulo 7128" width="17.603" height="3.166" transform="translate(104.332 40.802)" fill="#a9cdd9"/>
        <g id="Grupo_69103" data-name="Grupo 69103" transform="translate(41.403 162.508)">
          <rect id="Rectángulo_7129" data-name="Rectángulo 7129" width="46.232" height="3.166" transform="translate(16.545)" fill="#a9cdd9"/>
          <rect id="Rectángulo_7130" data-name="Rectángulo 7130" width="11.312" height="3.166" transform="translate(0.052)" fill="#a9cdd9"/>
          <rect id="Rectángulo_7131" data-name="Rectángulo 7131" width="33.066" height="3.166" transform="translate(22.221 5.959)" fill="#a9cdd9"/>
          <rect id="Rectángulo_7132" data-name="Rectángulo 7132" width="17.603" height="3.166" transform="translate(0 5.959)" fill="#a9cdd9"/>
          <rect id="Rectángulo_7133" data-name="Rectángulo 7133" width="8.802" height="3.166" transform="translate(59.651 5.959)" fill="#a9cdd9"/>
        </g>
        <rect id="Rectángulo_7134" data-name="Rectángulo 7134" width="70.903" height="1.583" transform="translate(0 42.385)" fill="#a9cdd9"/>
        <g id="Grupo_69104" data-name="Grupo 69104" transform="translate(0.19 28.229)">
          <path id="Trazado_115316" data-name="Trazado 115316" d="M150.169,201.895V196.77h-.87v-1.523h.87v-.285c0-1.835,1.427-2.868,3.479-2.868a4.457,4.457,0,0,1,1.958.408l-.394,1.563a3.254,3.254,0,0,0-1.509-.34c-1.087,0-1.468.558-1.468,1.291v.231h4.037v6.647h-2.066V196.77h-1.958v5.125Z" transform="translate(-149.299 -192.094)" fill="#bf3976"/>
          <path id="Trazado_115317" data-name="Trazado 115317" d="M168.264,203.678a5.034,5.034,0,0,1-1.848.3,3.224,3.224,0,0,1-3.52-3.4,3.466,3.466,0,0,1,3.806-3.534,4.807,4.807,0,0,1,1.577.258l-.326,1.536a2.83,2.83,0,0,0-1.155-.2,1.863,1.863,0,0,0,.041,3.724,3.193,3.193,0,0,0,1.182-.2Z" transform="translate(-154.645 -194.041)" fill="#bf3976"/>
          <path id="Trazado_115318" data-name="Trazado 115318" d="M173.623,192.341h2.066v3.792h.027a2.494,2.494,0,0,1,.816-.68,2.323,2.323,0,0,1,1.073-.258c1.319,0,2.324.91,2.324,2.908v3.888h-2.066v-3.657c0-.87-.3-1.468-1.073-1.468a1.1,1.1,0,0,0-1.033.72,1.31,1.31,0,0,0-.069.462v3.942h-2.066Z" transform="translate(-158.863 -192.191)" fill="#bf3976"/>
          <path id="Trazado_115319" data-name="Trazado 115319" d="M190.244,203.841l-.123-.666h-.041a2.394,2.394,0,0,1-1.9.816,2.038,2.038,0,0,1-2.148-2.039c0-1.726,1.55-2.555,3.9-2.542v-.095c0-.354-.19-.857-1.209-.857a3.741,3.741,0,0,0-1.836.5l-.38-1.332a5.486,5.486,0,0,1,2.583-.584,2.585,2.585,0,0,1,2.922,2.868v2.311a10.3,10.3,0,0,0,.1,1.618ZM190,200.7c-1.087-.013-1.93.245-1.93,1.047a.742.742,0,0,0,.815.788,1.129,1.129,0,0,0,1.074-.761,1.476,1.476,0,0,0,.041-.354Z" transform="translate(-163.741 -194.041)" fill="#bf3976"/>
          <path id="Trazado_115320" data-name="Trazado 115320" d="M205.02,194.155v1.9H206.5v1.523H205.02v2.406c0,.8.191,1.169.816,1.169a3.418,3.418,0,0,0,.611-.054l.014,1.563a4.056,4.056,0,0,1-1.346.177,2.147,2.147,0,0,1-1.549-.571A2.753,2.753,0,0,1,203,200.3V197.58h-.884v-1.523H203v-1.441Z" transform="translate(-170.064 -192.904)" fill="#bf3976"/>
          <path id="Trazado_115321" data-name="Trazado 115321" d="M212.549,199.4c.067.857.91,1.265,1.876,1.265a5.841,5.841,0,0,0,1.835-.272l.272,1.4a6.563,6.563,0,0,1-2.406.408c-2.256,0-3.547-1.305-3.547-3.385a3.329,3.329,0,0,1,3.357-3.547c2.148,0,2.964,1.672,2.964,3.316a4.871,4.871,0,0,1-.069.816Zm2.433-1.414a1.2,1.2,0,0,0-1.169-1.345,1.356,1.356,0,0,0-1.278,1.345Zm1.142-5.464-1.658,2.066h-1.427l1.169-2.066Z" transform="translate(-173.393 -192.261)" fill="#bf3976"/>
          <path id="Trazado_115322" data-name="Trazado 115322" d="M227.772,203.678a5.036,5.036,0,0,1-1.848.3,3.224,3.224,0,0,1-3.521-3.4,3.467,3.467,0,0,1,3.806-3.534,4.8,4.8,0,0,1,1.577.258l-.326,1.536a2.83,2.83,0,0,0-1.155-.2,1.863,1.863,0,0,0,.041,3.724,3.194,3.194,0,0,0,1.183-.2Z" transform="translate(-178.042 -194.041)" fill="#bf3976"/>
          <path id="Trazado_115323" data-name="Trazado 115323" d="M233.1,199.315c0-.829-.027-1.536-.054-2.121h1.794l.095.911h.041a2.434,2.434,0,0,1,2.052-1.06c1.359,0,2.379.9,2.379,2.854v3.942h-2.066v-3.684c0-.856-.3-1.441-1.046-1.441a1.1,1.1,0,0,0-1.047.775,1.411,1.411,0,0,0-.082.516v3.833H233.1Z" transform="translate(-182.225 -194.041)" fill="#bf3976"/>
          <path id="Trazado_115324" data-name="Trazado 115324" d="M248.355,193.567a1.037,1.037,0,0,1-1.115,1.033,1.041,1.041,0,1,1,.013-2.08A1.036,1.036,0,0,1,248.355,193.567Zm-2.134,8.5v-6.647h2.066v6.647Z" transform="translate(-187.385 -192.261)" fill="#bf3976"/>
          <path id="Trazado_115325" data-name="Trazado 115325" d="M257.135,203.678a5.034,5.034,0,0,1-1.848.3,3.224,3.224,0,0,1-3.52-3.4,3.466,3.466,0,0,1,3.806-3.534,4.8,4.8,0,0,1,1.577.258l-.326,1.536a2.83,2.83,0,0,0-1.155-.2,1.863,1.863,0,0,0,.041,3.724,3.193,3.193,0,0,0,1.182-.2Z" transform="translate(-189.587 -194.041)" fill="#bf3976"/>
          <path id="Trazado_115326" data-name="Trazado 115326" d="M266.08,203.841l-.123-.666h-.041a2.394,2.394,0,0,1-1.9.816,2.038,2.038,0,0,1-2.148-2.039c0-1.726,1.55-2.555,3.9-2.542v-.095c0-.354-.191-.857-1.209-.857a3.741,3.741,0,0,0-1.836.5l-.38-1.332a5.486,5.486,0,0,1,2.583-.584,2.585,2.585,0,0,1,2.922,2.868v2.311a10.3,10.3,0,0,0,.1,1.618Zm-.245-3.14c-1.087-.013-1.93.245-1.93,1.047a.742.742,0,0,0,.815.788,1.129,1.129,0,0,0,1.074-.761,1.478,1.478,0,0,0,.041-.354Z" transform="translate(-193.558 -194.041)" fill="#bf3976"/>
        </g>
      </g>
      <g id="Grupo_69108" data-name="Grupo 69108" transform="translate(12.907 79.935)">
        <rect id="Rectángulo_7135" data-name="Rectángulo 7135" width="3.166" height="3.166" transform="translate(0 1.428)" fill="#0ac4bf"/>
        <rect id="Rectángulo_7136" data-name="Rectángulo 7136" width="3.166" height="3.166" transform="translate(4.616 1.428)" fill="#0ac4bf"/>
        <rect id="Rectángulo_7137" data-name="Rectángulo 7137" width="3.166" height="3.166" transform="translate(9.232 1.428)" fill="#0ac4bf"/>
        <rect id="Rectángulo_7138" data-name="Rectángulo 7138" width="3.166" height="3.166" transform="translate(13.826 1.428)" fill="#0ac4bf"/>
        <rect id="Rectángulo_7139" data-name="Rectángulo 7139" width="3.166" height="3.166" transform="translate(22.943 1.428)" fill="#0ac4bf"/>
        <rect id="Rectángulo_7140" data-name="Rectángulo 7140" width="3.166" height="3.166" transform="translate(27.559 1.428)" fill="#0ac4bf"/>
        <rect id="Rectángulo_7141" data-name="Rectángulo 7141" width="3.166" height="3.166" transform="translate(36.654 1.428)" fill="#0ac4bf"/>
        <rect id="Rectángulo_7142" data-name="Rectángulo 7142" width="3.166" height="3.166" transform="translate(41.27 1.428)" fill="#0ac4bf"/>
        <g id="Grupo_69106" data-name="Grupo 69106" transform="translate(18.94)">
          <path id="Trazado_115327" data-name="Trazado 115327" d="M189.377,233.138h.664l-1.391,6.021h-.664Z" transform="translate(-187.986 -233.138)" fill="#0ac4bf"/>
        </g>
        <g id="Grupo_69107" data-name="Grupo 69107" transform="translate(32.662)">
          <path id="Trazado_115328" data-name="Trazado 115328" d="M211.99,233.138h.664l-1.391,6.021H210.6Z" transform="translate(-210.599 -233.138)" fill="#0ac4bf"/>
        </g>
      </g>
      <g id="Grupo_69109" data-name="Grupo 69109" transform="translate(32.374 106.2)">
        <rect id="Rectángulo_7143" data-name="Rectángulo 7143" width="14.507" height="3.166" fill="#a9cdd9"/>
        <rect id="Rectángulo_7144" data-name="Rectángulo 7144" width="13.453" height="3.166" transform="translate(96.695)" fill="#a9cdd9"/>
        <rect id="Rectángulo_7145" data-name="Rectángulo 7145" width="8.252" height="3.166" transform="translate(118.53)" fill="#a9cdd9"/>
        <rect id="Rectángulo_7146" data-name="Rectángulo 7146" width="13.473" height="3.166" transform="translate(135.061)" fill="#a9cdd9"/>
        <rect id="Rectángulo_7147" data-name="Rectángulo 7147" width="36.005" height="3.166" transform="translate(23.998)" fill="#a9cdd9"/>
        <rect id="Rectángulo_7148" data-name="Rectángulo 7148" width="47.598" height="3.166" transform="translate(0 14.796)" fill="#79a8b8"/>
        <rect id="Rectángulo_7149" data-name="Rectángulo 7149" width="31.252" height="3.166" transform="translate(0 30.069)" fill="#79a8b8"/>
        <rect id="Rectángulo_7150" data-name="Rectángulo 7150" width="15.626" height="3.166" transform="translate(39.785 30.069)" fill="#79a8b8"/>
        <rect id="Rectángulo_7151" data-name="Rectángulo 7151" width="27.637" height="3.166" transform="translate(23.799 59.93)" fill="#79a8b8"/>
        <rect id="Rectángulo_7152" data-name="Rectángulo 7152" width="17.518" height="3.166" transform="translate(0 59.93)" fill="#79a8b8"/>
        <rect id="Rectángulo_7153" data-name="Rectángulo 7153" width="66.472" height="3.166" transform="translate(0 44.84)" fill="#79a8b8"/>
      </g>
      <g id="Grupo_69110" data-name="Grupo 69110" transform="translate(14.366 106.2)">
        <rect id="Rectángulo_7154" data-name="Rectángulo 7154" width="3.166" height="3.166" fill="#a9cdd9"/>
        <rect id="Rectángulo_7155" data-name="Rectángulo 7155" width="3.166" height="3.166" transform="translate(0 14.796)" fill="#79a8b8"/>
        <rect id="Rectángulo_7156" data-name="Rectángulo 7156" width="3.166" height="3.166" transform="translate(0 30.069)" fill="#79a8b8"/>
        <rect id="Rectángulo_7157" data-name="Rectángulo 7157" width="3.166" height="3.166" transform="translate(0 44.84)" fill="#79a8b8"/>
        <rect id="Rectángulo_7158" data-name="Rectángulo 7158" width="3.166" height="3.166" transform="translate(0 59.93)" fill="#79a8b8"/>
      </g>
    </g>
  </g>
</svg>
