<svg xmlns="http://www.w3.org/2000/svg" xmlns:xlink="http://www.w3.org/1999/xlink" width="101.808" height="101.809" viewBox="0 0 101.808 101.809">
  <defs>
    <clipPath id="clip-path">
      <circle id="Elipse_5139" data-name="Elipse 5139" cx="39.066" cy="39.066" r="39.066" transform="translate(-609.221 1147.134) rotate(-67.871)" fill="none"/>
    </clipPath>
  </defs>
  <g id="Grupo_70250" data-name="Grupo 70250" transform="translate(-1012 -1372)">
    <circle id="Elipse_5137" data-name="Elipse 5137" cx="44.052" cy="44.052" r="44.052" transform="matrix(0.099, -0.995, 0.995, 0.099, 1014.725, 1462.401)" fill="#339ce9"/>
    <path id="Trazado_108087" data-name="Trazado 108087" d="M-510.686,1129.1a47.741,47.741,0,0,1-51.045,44.19,47.741,47.741,0,0,1-44.189-51.045,47.74,47.74,0,0,1,51.045-44.189,47.52,47.52,0,0,1,26.037,10.048" transform="translate(1621.221 297.244)" fill="none" stroke="#339ce9" stroke-linecap="round" stroke-linejoin="round" stroke-width="0.914"/>
    <circle id="Elipse_5138" data-name="Elipse 5138" cx="39.066" cy="39.066" r="39.066" transform="translate(1012 1444.377) rotate(-67.871)" fill="#fff"/>
    <g id="Grupo_60985" data-name="Grupo 60985" transform="translate(1621.221 297.244)">
      <g id="Grupo_60984" data-name="Grupo 60984" clip-path="url(#clip-path)">
        <g id="Grupo_60994" data-name="Grupo 60994" transform="translate(-1785.8 -220.585)">
          <path id="Trazado_108092" data-name="Trazado 108092" d="M1193.81,1376.579a202.525,202.525,0,0,1,21.762-9.807c.368-.134.737-.265,1.113-.375.34-.1.379-.266.241-.581a6.251,6.251,0,0,0-1.464-2.134,11.975,11.975,0,0,1-3.959-7.395.552.552,0,0,0-.291-.395,1.611,1.611,0,0,1-1.158-1.313c-.295-1.29-.552-2.589-.872-3.873-.184-.739-.476-1.449-.689-2.182a31.384,31.384,0,0,1-.925-3.442,4.484,4.484,0,0,1,.217-2.025,1.584,1.584,0,0,1,1.877-1.215l-.707-2.8c-.288.033-.585-.225-.461-.509.159-.363-.087-.65-.09-.966-.012-1.229.036-2.458.038-3.687,0-.444-.062-.888-.093-1.278l-.3.349.458-2.368-.1-.039-.355.493a7.43,7.43,0,0,1,.667-3.589l-.822.446.373-.953-.245.094a4.25,4.25,0,0,1,1.032-3.247,1.938,1.938,0,0,1-.046-.513,3.943,3.943,0,0,1,1.529-2.081c.364-.289.754-.545,1.183-.853l-.421-.073c.714-1.472,4.838-2.936,7.441-2.625l-.017-.328h.96l-.293-.445c1.982-.333,3.9-.742,5.891-.214.525.139,1.151-.161,1.726-.138a13.917,13.917,0,0,1,2.659.3,20.761,20.761,0,0,1,2.477.909c.126-.051.3-.2.427-.163a10.214,10.214,0,0,1,4.373,2.157c.471.432.744,1.13,1.265,1.441s1.248.182,1.831.4c.8.293,1.542.727,2.362,1.126l-.37.477a1.061,1.061,0,0,0,.09.115,5.173,5.173,0,0,1,.979.987c.458.817.711,1.761,1.234,2.526a4.246,4.246,0,0,1,.411,1.567c.32,1.2.474,2.438.721,3.657.118.583.326,1.148.432,1.732a3.738,3.738,0,0,1,.116,1.544c-.379,1.41.019,2.91-.621,4.269l-.209-.114-.211.654c.059.011.079.022.091.016,1.642-.793,3.06-.046,3.176,1.806a7.588,7.588,0,0,1-.355,3.077,36.085,36.085,0,0,0-1.721,6.873c-.034.2-.083.4-.136.6a1.734,1.734,0,0,1-1.943,1.47c-.3-.007-.59-.057-.926-.092-.04.664-.051,1.313-.123,1.955-.11,1-.277,2-.382,3a.921.921,0,0,0,.2.666,29.133,29.133,0,0,1,4.708,5.961.974.974,0,0,0,.446.384q7.078,2.933,14.164,5.845v12.777h-30.6a13.1,13.1,0,0,1,.775-1.72c2.229-3.532,4.435-7.082,6.759-10.552a19.218,19.218,0,0,0,3.177-7.565,7.351,7.351,0,0,0-.076-3.334c-.31.526-.591,1.073-.935,1.576a43.287,43.287,0,0,1-5.7,6.6,15.021,15.021,0,0,1-3.391,2.543c-1.728.917-3.424,1.9-5.146,2.825-.919.5-1.863.946-2.911,1.475.511-.051.9-.072,1.286-.132a.711.711,0,0,1,.868.458c1.237,2.466,2.515,4.912,3.776,7.366a4.188,4.188,0,0,1,.173.462H1218.8a3.528,3.528,0,0,1,.11-.594c.841-2.289,1.7-4.573,2.531-6.864a.865.865,0,0,1,.8-.632,20.006,20.006,0,0,0,2-.509c-3.562-1.662-5.085-4.764-6.5-8.135-.039.249-.062.331-.064.413-.054,2.7-.177,5.4-.138,8.105.039,2.74.238,5.477.367,8.215h-24.1Zm17.32-25.345a8.659,8.659,0,0,1-.862-1.276,5.787,5.787,0,0,1-.1-3.992,2.09,2.09,0,0,0-.8-2.372c-.5-.379-.975-.228-.965.395a6.624,6.624,0,0,0,.352,2.28,23.809,23.809,0,0,1,1.668,6.06,1.628,1.628,0,0,0,.906,1.385c-.074-.9-.139-1.69-.2-2.481q-.325-2.391-.651-4.783l-.2.02a13.782,13.782,0,0,0,.031,2.42A14.821,14.821,0,0,0,1211.13,1351.234Zm-.66-8.8c.064.928.056,1.922.213,2.89a76.668,76.668,0,0,1,1.1,10,10.637,10.637,0,0,0,1.952,5.806,19.472,19.472,0,0,0,4.291,4.127,11.544,11.544,0,0,0,12.08,1.821,30.621,30.621,0,0,0,8.8-5.866,10.791,10.791,0,0,0,3.863-7.522,34.908,34.908,0,0,0-.281-9.577c-.222-1.108-.3-2.244-.456-3.475-.806.235-1.564.476-2.333.674a1.992,1.992,0,0,0-1.489,1.2.616.616,0,0,1-.8.431,1.448,1.448,0,0,1-.094-.248,2.327,2.327,0,0,0-2.156-2.017,17.23,17.23,0,0,0-6.444.31,4.144,4.144,0,0,0-1.4.945,9.434,9.434,0,0,0-.833.844,2.064,2.064,0,0,0-3.013-.033.518.518,0,0,1-.911-.157,2.539,2.539,0,0,0-2.018-1.508,18.049,18.049,0,0,0-5.685.037c-1.333.2-2.319.737-2.319,2.237-.529.2-.75-.072-.9-.451C1211.44,1342.432,1211.2,1342.052,1210.47,1342.434Zm31.312-3.294a5.872,5.872,0,0,0-.7-1.025,7.789,7.789,0,0,0-1.413-1.086.846.846,0,0,1-.481-.883,27.886,27.886,0,0,0-.758-7.936,1.875,1.875,0,0,0-1.54-1.508,12.867,12.867,0,0,0-6.476.086c-2.019.518-4,1.191-6.006,1.752a2.241,2.241,0,0,1-1.122-.06,23.619,23.619,0,0,0-3.32-.948c-2.312-.264-4.648-.319-6.972-.483a.672.672,0,0,0-.806.537,23.009,23.009,0,0,0-1.313,7.289c-.038,1.885.031,3.772.053,5.7.128-.028.357-.087.588-.126a15.753,15.753,0,0,1,2.479-.394c2.234-.02,4.473.013,6.7.124,1.057.052,2.208.094,2.71,1.089.934,0,1.752.018,2.568-.014a.8.8,0,0,0,.562-.29,2,2,0,0,1,1.359-.9,34.19,34.19,0,0,1,8.079-.526,19.947,19.947,0,0,0,2.606.25A25.476,25.476,0,0,0,1241.783,1339.14Zm.84,17.651-.134-.041c-.044.1-.083.2-.134.287a15.026,15.026,0,0,1-1.521,2.646,28.129,28.129,0,0,1-10.4,7.675,11.681,11.681,0,0,1-12.637-1.82c-.219-.179-.461-.331-.691-.5a.54.54,0,0,0,.032.377c.541,1.248,1.078,2.5,1.628,3.742a15.672,15.672,0,0,0,2.615,4.148,6.564,6.564,0,0,0,2.83,2.033,1.341,1.341,0,0,0,.933-.058q3.4-1.761,6.766-3.6a12.667,12.667,0,0,0,2.191-1.438,39.024,39.024,0,0,0,6.871-7.637,7.072,7.072,0,0,0,.951-2.172C1242.234,1359.245,1242.4,1358.01,1242.623,1356.791Zm.631-3.363c1.611.393,2.216.019,2.547-1.516.039-.182.082-.364.112-.547a24.036,24.036,0,0,1,1.525-6.043,6.7,6.7,0,0,0,.449-1.781,3.831,3.831,0,0,0-.316-2.612,1.588,1.588,0,0,0-2.836.009,19.478,19.478,0,0,0-.92,2.445,6.543,6.543,0,0,0-.535,1.866C1243.22,1347.964,1243.253,1350.683,1243.253,1353.428Zm-33.3-9.974c-.061-.264-.114-.516-.177-.765-.132-.523-.48-.691-.934-.4a1.36,1.36,0,0,0-.594.639,5.1,5.1,0,0,0-.323,2,28.463,28.463,0,0,0,.9,3.445c.256.894.576,1.77.805,2.67.3,1.173.515,2.367.806,3.543.111.449.329.873.951.892-.03-.417-.05-.807-.093-1.194a.393.393,0,0,0-.143-.277,2.225,2.225,0,0,1-1.032-1.766,33.427,33.427,0,0,0-1.759-6,4.5,4.5,0,0,1-.28-1.965c.094-1.324.68-1.566,1.771-.84A.394.394,0,0,0,1209.95,1343.455Z" fill="#003760"/>
          <path id="Trazado_108093" data-name="Trazado 108093" d="M1291.959,1475.729a4.205,4.205,0,0,0-.173-.462c-1.261-2.454-2.539-4.9-3.776-7.366a.711.711,0,0,0-.868-.458c-.385.06-.775.082-1.286.132,1.047-.529,1.992-.979,2.911-1.476,1.722-.93,3.418-1.908,5.146-2.825a15.015,15.015,0,0,0,3.391-2.543,43.286,43.286,0,0,0,5.7-6.6c.344-.5.625-1.05.935-1.576a7.35,7.35,0,0,1,.076,3.334,19.214,19.214,0,0,1-3.177,7.565c-2.324,3.469-4.53,7.019-6.759,10.552a13.123,13.123,0,0,0-.776,1.72Z" transform="translate(-61.723 -91.305)" fill="#fff"/>
          <path id="Trazado_108094" data-name="Trazado 108094" d="M1266.2,1488.832c-.129-2.739-.328-5.476-.367-8.215-.039-2.7.084-5.4.138-8.105,0-.082.025-.164.064-.413,1.416,3.371,2.939,6.473,6.5,8.135a20.006,20.006,0,0,1-2,.509.865.865,0,0,0-.8.632c-.834,2.292-1.691,4.575-2.531,6.864a3.5,3.5,0,0,0-.11.594Z" transform="translate(-48.29 -104.407)" fill="#fff"/>
          <path id="Trazado_108095" data-name="Trazado 108095" d="M1244.383,1391.516c.732-.382.97,0,1.162.47.154.379.375.649.9.451,0-1.5.986-2.041,2.319-2.237a18.046,18.046,0,0,1,5.685-.037,2.539,2.539,0,0,1,2.018,1.508.518.518,0,0,0,.911.157,2.064,2.064,0,0,1,3.013.033,9.448,9.448,0,0,1,.833-.844,4.144,4.144,0,0,1,1.4-.945,17.227,17.227,0,0,1,6.444-.31,2.327,2.327,0,0,1,2.156,2.017,1.45,1.45,0,0,0,.094.248.616.616,0,0,0,.8-.431,1.991,1.991,0,0,1,1.489-1.2c.769-.2,1.527-.439,2.333-.674.157,1.231.234,2.368.456,3.476a34.912,34.912,0,0,1,.281,9.577,10.791,10.791,0,0,1-3.863,7.522,30.62,30.62,0,0,1-8.8,5.866,11.544,11.544,0,0,1-12.081-1.821,19.475,19.475,0,0,1-4.291-4.127,10.637,10.637,0,0,1-1.952-5.806,76.736,76.736,0,0,0-1.1-10C1244.439,1393.438,1244.447,1392.443,1244.383,1391.516Zm11.16,10.094a1.066,1.066,0,0,1,.035-1.738,2.584,2.584,0,0,1,.676-.491.926.926,0,0,0,.552-.768c.269-1.428.586-2.848.833-4.28.145-.843.193-1.7.285-2.555-.486,2.04-.891,4.083-1.275,6.131a1.735,1.735,0,0,1-.975,1.448,1.555,1.555,0,0,0-.465.4,1.29,1.29,0,0,0-.389,1.372,1.59,1.59,0,0,0,1.195,1.052c-.154-.185-.315-.38-.472-.571a8.052,8.052,0,0,1,1.5.7,2.732,2.732,0,0,0,3.835-.072,3.14,3.14,0,0,1,.721-.359c.411-.188.826-.37,1.24-.554l-.066-.172a1.622,1.622,0,0,0-.2-.06,2.008,2.008,0,0,0-1.784.733,2.616,2.616,0,0,1-1.682.893,2.7,2.7,0,0,1-2.062-.816A1.188,1.188,0,0,0,1255.543,1401.61Zm-.148-8.5c-1.487-1.8-5.731-1.627-6.765.362.588-.493,1.071-.279,1.589-.119a5.35,5.35,0,0,0,3.619-.111C1254.348,1393.04,1254.82,1392.713,1255.395,1393.108Zm7.755-.279c.534-.442,1.011-.141,1.51.038a5.349,5.349,0,0,0,3.619-.005c.521-.177,1.019-.458,1.574-.045C1268.727,1390.974,1264.434,1390.982,1263.15,1392.829Zm-9.8,14.9c.106-.018.213-.033.318-.055a8.965,8.965,0,0,1,3.772-.147,8.034,8.034,0,0,0,3.693-.082,12.407,12.407,0,0,1,2.6-.232,10.328,10.328,0,0,1,1.583.2,1.686,1.686,0,0,0-.733-.368,7.222,7.222,0,0,0-3.7.02,6.029,6.029,0,0,1-3.081.106A6.294,6.294,0,0,0,1253.353,1407.733Zm9.211-5.7a1.476,1.476,0,0,0,1.219-1.237,1.355,1.355,0,0,0-.811-1.351,3.313,3.313,0,0,0-.9-.434.972.972,0,0,1-.733-.739c-.122-.4-.306-.774-.463-1.16a4.971,4.971,0,0,0,.255,1.5,1.215,1.215,0,0,0,.508.557c.426.26.919.416,1.326.7a.9.9,0,0,1,.205,1.448C1262.971,1401.584,1262.741,1401.827,1262.564,1402.036Zm-7.349-9.615c-1.049-1.359-5.433-1.543-6.542-.141A7.2,7.2,0,0,1,1255.215,1392.421Zm14.829-.6c-1.57-1.38-5.737-1.193-6.621.219A7.17,7.17,0,0,1,1270.044,1391.826Zm-2.074,13.589a15.9,15.9,0,0,0-3.641-5.291Zm-16.986-.094,3.633-5.285A16.633,16.633,0,0,0,1250.984,1405.321Zm16.39-10.584-3.421-1.235A4.961,4.961,0,0,0,1267.374,1394.737Zm-12.9-.853-3.123,1.276A4.206,4.206,0,0,0,1254.469,1393.884Z" transform="translate(-33.913 -49.082)" fill="#fff"/>
          <path id="Trazado_108096" data-name="Trazado 108096" d="M1276.494,1359.351a25.515,25.515,0,0,1-3.2.641,19.948,19.948,0,0,1-2.606-.25,34.185,34.185,0,0,0-8.079.526,1.994,1.994,0,0,0-1.359.9.8.8,0,0,1-.562.29c-.816.032-1.634.013-2.568.013-.5-.995-1.653-1.036-2.71-1.089-2.232-.111-4.47-.145-6.7-.125a15.781,15.781,0,0,0-2.479.394c-.232.04-.46.1-.588.126-.022-1.925-.091-3.812-.053-5.7a23,23,0,0,1,1.313-7.289.672.672,0,0,1,.806-.537c2.325.164,4.66.22,6.972.483a23.632,23.632,0,0,1,3.32.948,2.239,2.239,0,0,0,1.122.06c2.008-.561,3.987-1.234,6.006-1.752a12.867,12.867,0,0,1,6.476-.086,1.874,1.874,0,0,1,1.54,1.508,27.894,27.894,0,0,1,.758,7.936.846.846,0,0,0,.481.883,7.782,7.782,0,0,1,1.413,1.087A5.874,5.874,0,0,1,1276.494,1359.351Zm-13.634-.462c1.186-.251,2.248-.532,3.328-.692,2.183-.323,4.355-.457,6.313,1.177a5.624,5.624,0,0,0-.106-.737,3.28,3.28,0,0,0-2.446-2.307,6.878,6.878,0,0,0-4.648.33A4.908,4.908,0,0,0,1262.86,1358.889Zm-15.159.632a19.927,19.927,0,0,1,2.187-.931,9.46,9.46,0,0,1,4.431.065c.87.158,1.728.377,2.74.6-.3-.4-.5-.717-.749-.985a5.617,5.617,0,0,0-4-1.723,5.544,5.544,0,0,0-2.784.455A3.046,3.046,0,0,0,1247.7,1359.521Z" transform="translate(-34.712 -20.21)" fill="#fff"/>
          <path id="Trazado_108097" data-name="Trazado 108097" d="M1290,1438.929c-.226,1.219-.389,2.454-.7,3.651a7.07,7.07,0,0,1-.951,2.172,39.024,39.024,0,0,1-6.87,7.637,12.69,12.69,0,0,1-2.191,1.438q-3.36,1.841-6.766,3.6a1.342,1.342,0,0,1-.933.058,6.562,6.562,0,0,1-2.829-2.033,15.674,15.674,0,0,1-2.615-4.149c-.551-1.244-1.087-2.494-1.628-3.742a.539.539,0,0,1-.033-.377c.231.165.472.317.692.5a11.68,11.68,0,0,0,12.637,1.82,28.126,28.126,0,0,0,10.4-7.675,15.025,15.025,0,0,0,1.521-2.646c.051-.092.09-.191.134-.287Z" transform="translate(-47.381 -82.138)" fill="#fff"/>
          <path id="Trazado_108098" data-name="Trazado 108098" d="M1343.878,1401.593c0-2.745-.033-5.464.025-8.18a6.543,6.543,0,0,1,.535-1.866,19.473,19.473,0,0,1,.92-2.445,1.588,1.588,0,0,1,2.835-.009,3.832,3.832,0,0,1,.316,2.612,6.7,6.7,0,0,1-.449,1.781,24.03,24.03,0,0,0-1.525,6.043c-.03.184-.073.365-.112.547C1346.095,1401.611,1345.49,1401.986,1343.878,1401.593Zm.643-1.389a.664.664,0,0,0,.156.041c1,.014,1.562-.569,1.772-1.848a25.606,25.606,0,0,1,1.648-6.078,3.406,3.406,0,0,0,.156-2.3c-.3-1.091-1.089-1.313-1.91-.526a3.023,3.023,0,0,0-.657.828c-.576,1.208-1.118,2.432-1.643,3.663a.612.612,0,0,0,.156.5,1.357,1.357,0,0,1,.276,1.686c-.125.261-.292.5-.464.794a1.7,1.7,0,0,0,.655-2.416c-.1-.184-.247-.437-.193-.6.26-.784.582-1.547.936-2.459a5.993,5.993,0,0,1-.011,5.783,5.911,5.911,0,0,0,.924-1.72,5.632,5.632,0,0,0-.5-3.963.784.784,0,0,1-.064-.607,6.839,6.839,0,0,1,1-1.265.909.909,0,0,1,.788-.225.956.956,0,0,1,.434.748,6.72,6.72,0,0,1-.322,2.069,19.871,19.871,0,0,0-1.5,5.82A2.035,2.035,0,0,1,1344.521,1400.2Z" transform="translate(-100.625 -48.164)" fill="#fff"/>
          <path id="Trazado_108099" data-name="Trazado 108099" d="M1240.843,1406.171c.065.79.13,1.58.2,2.48a1.628,1.628,0,0,1-.906-1.385,23.8,23.8,0,0,0-1.668-6.06,6.622,6.622,0,0,1-.352-2.28c-.01-.623.463-.774.965-.395a2.09,2.09,0,0,1,.8,2.372,5.787,5.787,0,0,0,.1,3.992,8.659,8.659,0,0,0,.862,1.276Z" transform="translate(-29.713 -54.938)" fill="#fff"/>
          <path id="Trazado_108100" data-name="Trazado 108100" d="M1238.629,1395.871a.39.39,0,0,1-.1-.016c-1.091-.726-1.677-.484-1.771.84a4.492,4.492,0,0,0,.28,1.965,33.445,33.445,0,0,1,1.759,6,2.225,2.225,0,0,0,1.032,1.766.394.394,0,0,1,.143.277c.042.387.062.777.093,1.194-.622-.018-.84-.442-.951-.891-.291-1.176-.508-2.369-.806-3.543-.229-.9-.55-1.777-.805-2.67a28.515,28.515,0,0,1-.9-3.445,5.1,5.1,0,0,1,.323-2,1.359,1.359,0,0,1,.594-.638c.454-.293.8-.126.934.4C1238.515,1395.355,1238.568,1395.606,1238.629,1395.871Z" transform="translate(-28.679 -52.416)" fill="#fff"/>
          <path id="Trazado_108101" data-name="Trazado 108101" d="M1244.565,1412.4a14.838,14.838,0,0,1-.823-2.345,13.78,13.78,0,0,1-.031-2.42l.2-.02q.326,2.392.651,4.783Z" transform="translate(-33.434 -61.169)" fill="#fff"/>
          <path id="Trazado_108102" data-name="Trazado 108102" d="M1264.039,1397.724c-.574-.4-1.047-.068-1.557.132a5.35,5.35,0,0,1-3.619.111c-.518-.16-1-.374-1.589.119C1258.308,1396.1,1262.552,1395.922,1264.039,1397.724Zm-3.962.209v-1.183l-1.649.621.044.226Zm2.153-1.035v.8l.926-.427Z" transform="translate(-42.557 -53.697)" fill="#003760"/>
          <path id="Trazado_108103" data-name="Trazado 108103" d="M1301.35,1396.587c1.284-1.847,5.577-1.855,6.7-.012-.555-.413-1.053-.133-1.574.045a5.35,5.35,0,0,1-3.619.005C1302.362,1396.446,1301.884,1396.145,1301.35,1396.587Zm2.233-.012v-1.05l-1.258.491,0,.156Zm2.153-.024,1.184-.363v-.172l-1.185-.486Z" transform="translate(-72.113 -52.84)" fill="#003760"/>
          <path id="Trazado_108104" data-name="Trazado 108104" d="M1271.611,1442.8a6.293,6.293,0,0,1,4.452-.555,6.032,6.032,0,0,0,3.081-.106,7.219,7.219,0,0,1,3.7-.02,1.69,1.69,0,0,1,.733.368,10.345,10.345,0,0,0-1.584-.2,12.408,12.408,0,0,0-2.6.232,8.035,8.035,0,0,1-3.693.082,8.966,8.966,0,0,0-3.772.147C1271.824,1442.768,1271.717,1442.783,1271.611,1442.8Z" transform="translate(-52.171 -84.15)" fill="#003760"/>
          <path id="Trazado_108105" data-name="Trazado 108105" d="M1276.634,1406.05l.477.574a1.59,1.59,0,0,1-1.195-1.051,1.29,1.29,0,0,1,.389-1.372,1.554,1.554,0,0,1,.465-.4,1.735,1.735,0,0,0,.975-1.448c.384-2.047.789-4.091,1.275-6.131-.092.853-.14,1.712-.285,2.555-.247,1.432-.564,2.852-.833,4.28a.927.927,0,0,1-.552.768,2.572,2.572,0,0,0-.676.491,1.065,1.065,0,0,0-.035,1.738Z" transform="translate(-55.01 -53.528)" fill="#003760"/>
          <path id="Trazado_108106" data-name="Trazado 108106" d="M1278.251,1424.965a1.188,1.188,0,0,1,1.5.29,2.7,2.7,0,0,0,2.062.816,2.616,2.616,0,0,0,1.682-.893,2.008,2.008,0,0,1,1.784-.733,1.548,1.548,0,0,1,.2.06l.066.172c-.413.184-.828.366-1.24.554a3.146,3.146,0,0,0-.721.359,2.732,2.732,0,0,1-3.835.072,8.133,8.133,0,0,0-1.505-.7S1278.251,1424.965,1278.251,1424.965Z" transform="translate(-56.621 -72.437)" fill="#003760"/>
          <path id="Trazado_108107" data-name="Trazado 108107" d="M1296.132,1417.348c.177-.209.408-.452.6-.72a.9.9,0,0,0-.205-1.448c-.407-.284-.9-.439-1.326-.7a1.215,1.215,0,0,1-.508-.557,4.968,4.968,0,0,1-.255-1.5c.157.386.34.763.463,1.16a.971.971,0,0,0,.733.739,3.317,3.317,0,0,1,.9.434,1.355,1.355,0,0,1,.811,1.351A1.475,1.475,0,0,1,1296.132,1417.348Z" transform="translate(-67.481 -64.394)" fill="#003760"/>
          <path id="Trazado_108108" data-name="Trazado 108108" d="M1263.948,1395.919a7.2,7.2,0,0,0-6.542-.14C1258.515,1394.376,1262.9,1394.56,1263.948,1395.919Z" transform="translate(-42.646 -52.58)" fill="#003760"/>
          <path id="Trazado_108109" data-name="Trazado 108109" d="M1308.8,1394.451a7.17,7.17,0,0,0-6.622.219C1303.062,1393.259,1307.229,1393.072,1308.8,1394.451Z" transform="translate(-72.668 -51.707)" fill="#003760"/>
          <path id="Trazado_108110" data-name="Trazado 108110" d="M1308.568,1426.851l-3.641-5.291A15.9,15.9,0,0,1,1308.568,1426.851Z" transform="translate(-74.512 -70.518)" fill="#003760"/>
          <path id="Trazado_108111" data-name="Trazado 108111" d="M1264.42,1426.576a16.635,16.635,0,0,1,3.633-5.285Z" transform="translate(-47.349 -70.337)" fill="#003760"/>
          <path id="Trazado_108112" data-name="Trazado 108112" d="M1307.208,1402.694a4.962,4.962,0,0,1-3.421-1.235Z" transform="translate(-73.747 -57.039)" fill="#003760"/>
          <path id="Trazado_108113" data-name="Trazado 108113" d="M1268.643,1402.619a4.206,4.206,0,0,1-3.123,1.276Z" transform="translate(-48.087 -57.817)" fill="#003760"/>
          <path id="Trazado_108114" data-name="Trazado 108114" d="M1298.046,1378.3a4.908,4.908,0,0,1,2.441-2.228,6.878,6.878,0,0,1,4.648-.33,3.281,3.281,0,0,1,2.446,2.307,5.621,5.621,0,0,1,.106.737c-1.958-1.635-4.13-1.5-6.313-1.177C1300.294,1377.767,1299.232,1378.049,1298.046,1378.3Z" transform="translate(-69.898 -39.621)" fill="#003760"/>
          <path id="Trazado_108115" data-name="Trazado 108115" d="M1252.03,1379.866a3.046,3.046,0,0,1,1.823-2.519,5.543,5.543,0,0,1,2.784-.455,5.617,5.617,0,0,1,4,1.723c.249.268.446.583.749.985-1.011-.224-1.87-.443-2.739-.6a9.457,9.457,0,0,0-4.431-.065A19.926,19.926,0,0,0,1252.03,1379.866Z" transform="translate(-39.041 -40.556)" fill="#003760"/>
          <path id="Trazado_108116" data-name="Trazado 108116" d="M1344.81,1401.823a2.035,2.035,0,0,0,1.634-2.075,19.868,19.868,0,0,1,1.5-5.82,6.715,6.715,0,0,0,.322-2.068.956.956,0,0,0-.434-.749.909.909,0,0,0-.788.225,6.842,6.842,0,0,0-1,1.264.784.784,0,0,0,.064.607,5.631,5.631,0,0,1,.5,3.963,5.914,5.914,0,0,1-.924,1.72,5.993,5.993,0,0,0,.011-5.783c-.354.912-.676,1.675-.936,2.459-.054.162.091.415.193.6a1.7,1.7,0,0,1-.655,2.416c.173-.292.34-.533.464-.794a1.357,1.357,0,0,0-.276-1.686.612.612,0,0,1-.155-.5c.525-1.231,1.067-2.455,1.643-3.663a3.025,3.025,0,0,1,.657-.828c.822-.787,1.608-.565,1.91.526a3.405,3.405,0,0,1-.156,2.3,25.605,25.605,0,0,0-1.647,6.078c-.211,1.28-.771,1.862-1.772,1.848A.671.671,0,0,1,1344.81,1401.823Z" transform="translate(-100.913 -49.784)" fill="#003760"/>
          <path id="Trazado_108117" data-name="Trazado 108117" d="M1262.425,1398.488l-1.6-.336-.044-.226,1.649-.621Z" transform="translate(-44.905 -54.253)" fill="#fff"/>
          <path id="Trazado_108118" data-name="Trazado 108118" d="M1272.319,1397.755l.926.374-.926.427Z" transform="translate(-52.646 -54.555)" fill="#fff"/>
          <path id="Trazado_108119" data-name="Trazado 108119" d="M1305.568,1397.242l-1.254-.4,0-.156,1.258-.491Z" transform="translate(-74.098 -53.507)" fill="#fff"/>
          <path id="Trazado_108120" data-name="Trazado 108120" d="M1314.666,1397.224V1396.2l1.185.486,0,.172Z" transform="translate(-81.042 -53.514)" fill="#fff"/>
        </g>
      </g>
    </g>
  </g>
</svg>
