<svg xmlns="http://www.w3.org/2000/svg" xmlns:xlink="http://www.w3.org/1999/xlink" width="1124" height="426.5" viewBox="0 0 1124 426.5">
  <defs>
    <clipPath id="clip-path">
      <rect width="1124" height="276" fill="none"/>
    </clipPath>
  </defs>
  <g id="Grupo_70561" data-name="Grupo 70561" transform="translate(-180 -1980)">
    <rect id="Rectángulo_8686" data-name="Rectángulo 8686" width="1124" height="65" transform="translate(180 1980)" fill="#bf3976" opacity="0.25"/>
    <rect id="Rectángulo_8688" data-name="Rectángulo 8688" width="1124" height="53" transform="translate(180 2078)" fill="#0ac4bf" opacity="0.25"/>
    <g id="Rectángulo_8687" data-name="Rectángulo 8687" transform="translate(180 2045)" fill="none" stroke="#707070" stroke-width="1">
      <rect width="1124" height="33" stroke="none"/>
      <rect x="0.5" y="0.5" width="1123" height="32" fill="none"/>
    </g>
    <path id="Trazado_117317" data-name="Trazado 117317" d="M64.408,11.685a3.522,3.522,0,0,1-1.186,2.529,4.165,4.165,0,0,1-2.82.923,3.745,3.745,0,0,1-3.011-1.289,5.284,5.284,0,0,1-1.1-3.538V9.7A5.966,5.966,0,0,1,56.8,7.173a3.791,3.791,0,0,1,1.446-1.678,4.518,4.518,0,0,1,4.959.338,3.785,3.785,0,0,1,1.217,2.591H62.371a2.079,2.079,0,0,0-.537-1.4,1.987,1.987,0,0,0-1.4-.434,1.742,1.742,0,0,0-1.535.735,4.118,4.118,0,0,0-.523,2.28v.752a4.408,4.408,0,0,0,.489,2.358,1.71,1.71,0,0,0,1.542.745,2.025,2.025,0,0,0,1.418-.434,1.961,1.961,0,0,0,.537-1.343Zm7.335-1H67.806v2.666h4.621V15H65.755V5.047h6.658V6.708H67.806V9.08h3.938ZM81.724,15H79.673L75.681,8.451V15H73.63V5.047h2.051l4,6.563V5.047h2.044Zm9.283-8.292H87.958V15H85.907V6.708H82.9V5.047h8.107Zm4.854,4.648H94.227V15H92.176V5.047h3.7a4.181,4.181,0,0,1,2.721.786,2.713,2.713,0,0,1,.957,2.222,3.062,3.062,0,0,1-.441,1.7,3.007,3.007,0,0,1-1.336,1.083L99.928,14.9V15h-2.2ZM94.227,9.7h1.654a1.694,1.694,0,0,0,1.2-.393A1.4,1.4,0,0,0,97.5,8.219a1.5,1.5,0,0,0-.4-1.107,1.662,1.662,0,0,0-1.227-.4H94.227Zm15.06.554a6.008,6.008,0,0,1-.52,2.577,3.913,3.913,0,0,1-1.487,1.709,4.393,4.393,0,0,1-4.426.007,3.951,3.951,0,0,1-1.5-1.7,5.836,5.836,0,0,1-.54-2.54V9.812a5.977,5.977,0,0,1,.53-2.587,3.945,3.945,0,0,1,1.5-1.716,4.387,4.387,0,0,1,4.423,0,3.945,3.945,0,0,1,1.5,1.716,5.96,5.96,0,0,1,.53,2.581ZM107.208,9.8a4.188,4.188,0,0,0-.561-2.379,1.98,1.98,0,0,0-3.192-.01,4.141,4.141,0,0,0-.567,2.355v.485a4.241,4.241,0,0,0,.561,2.365,1.963,1.963,0,0,0,3.2.031,4.216,4.216,0,0,0,.561-2.362Zm7.055,5.2V5.047h3.063a4.651,4.651,0,0,1,2.348.591A4.123,4.123,0,0,1,121.29,7.32a5.187,5.187,0,0,1,.581,2.478v.458a5.2,5.2,0,0,1-.571,2.468,4.088,4.088,0,0,1-1.61,1.675,4.686,4.686,0,0,1-2.345.6Zm2.051-8.292v6.645h.991a2.227,2.227,0,0,0,1.839-.786,3.552,3.552,0,0,0,.649-2.249V9.791a3.609,3.609,0,0,0-.629-2.3,2.219,2.219,0,0,0-1.839-.783Zm13.036,3.979h-3.937v2.666h4.621V15h-6.672V5.047h6.658V6.708h-4.607V9.08h3.938Zm11.361.246h-3.937V15h-2.051V5.047h6.48V6.708h-4.43v2.57h3.938Zm9.857-.684a6.008,6.008,0,0,1-.52,2.577,3.913,3.913,0,0,1-1.487,1.709,4.393,4.393,0,0,1-4.426.007,3.951,3.951,0,0,1-1.5-1.7,5.837,5.837,0,0,1-.54-2.54V9.812a5.977,5.977,0,0,1,.53-2.587,3.945,3.945,0,0,1,1.5-1.716,4.387,4.387,0,0,1,4.423,0,3.945,3.945,0,0,1,1.5,1.716,5.96,5.96,0,0,1,.53,2.581ZM148.49,9.8a4.188,4.188,0,0,0-.561-2.379,1.98,1.98,0,0,0-3.192-.01,4.141,4.141,0,0,0-.567,2.355v.485a4.241,4.241,0,0,0,.561,2.365,1.963,1.963,0,0,0,3.2.031,4.216,4.216,0,0,0,.561-2.362Zm7.253,1.559h-1.634V15h-2.051V5.047h3.7a4.181,4.181,0,0,1,2.721.786,2.713,2.713,0,0,1,.957,2.222,3.062,3.062,0,0,1-.441,1.7,3.007,3.007,0,0,1-1.336,1.083l2.153,4.067V15h-2.2ZM154.109,9.7h1.654a1.694,1.694,0,0,0,1.2-.393,1.4,1.4,0,0,0,.424-1.083,1.5,1.5,0,0,0-.4-1.107,1.662,1.662,0,0,0-1.227-.4h-1.647Zm9.563-4.648,2.557,7.219,2.543-7.219h2.693V15h-2.058V12.279l.205-4.7L166.927,15h-1.408l-2.68-7.41.205,4.689V15h-2.051V5.047Zm15.2,7.9h-3.6L174.6,15h-2.181l3.705-9.953h1.9L181.747,15h-2.181Zm-3.042-1.661h2.488l-1.251-3.726Zm14.656.4a3.522,3.522,0,0,1-1.186,2.529,4.165,4.165,0,0,1-2.82.923,3.745,3.745,0,0,1-3.011-1.289,5.284,5.284,0,0,1-1.1-3.538V9.7a5.966,5.966,0,0,1,.506-2.529,3.791,3.791,0,0,1,1.446-1.678,4.518,4.518,0,0,1,4.959.338A3.785,3.785,0,0,1,190.5,8.424h-2.051a2.079,2.079,0,0,0-.537-1.4,1.987,1.987,0,0,0-1.4-.434,1.742,1.742,0,0,0-1.535.735,4.118,4.118,0,0,0-.523,2.28v.752a4.408,4.408,0,0,0,.489,2.358,1.71,1.71,0,0,0,1.542.745,2.025,2.025,0,0,0,1.418-.434,1.961,1.961,0,0,0,.537-1.343ZM194.018,15h-2.051V5.047h2.051Zm10.076-4.751a6.008,6.008,0,0,1-.52,2.577,3.913,3.913,0,0,1-1.487,1.709,4.393,4.393,0,0,1-4.426.007,3.951,3.951,0,0,1-1.5-1.7,5.837,5.837,0,0,1-.54-2.54V9.812a5.977,5.977,0,0,1,.53-2.587,3.945,3.945,0,0,1,1.5-1.716,4.387,4.387,0,0,1,4.423,0,3.945,3.945,0,0,1,1.5,1.716,5.96,5.96,0,0,1,.53,2.581ZM202.016,9.8a4.188,4.188,0,0,0-.561-2.379,1.98,1.98,0,0,0-3.192-.01,4.141,4.141,0,0,0-.567,2.355v.485a4.241,4.241,0,0,0,.561,2.365,1.963,1.963,0,0,0,3.2.031,4.216,4.216,0,0,0,.561-2.362Zm-1.764-7.417h2.153L200.512,4.5h-1.606ZM213.678,15h-2.051l-3.992-6.549V15h-2.051V5.047h2.051l4,6.563V5.047h2.044Zm11.266-4.313h-3.937v2.666h4.621V15h-6.672V5.047h6.658V6.708h-4.607V9.08h3.938ZM234.924,15h-2.051l-3.992-6.549V15H226.83V5.047h2.051l4,6.563V5.047h2.044Zm5.277,0V5.047h3.063a4.651,4.651,0,0,1,2.348.591,4.123,4.123,0,0,1,1.617,1.682A5.187,5.187,0,0,1,247.81,9.8v.458a5.2,5.2,0,0,1-.571,2.468,4.088,4.088,0,0,1-1.61,1.675,4.686,4.686,0,0,1-2.345.6Zm2.051-8.292v6.645h.991a2.227,2.227,0,0,0,1.839-.786,3.552,3.552,0,0,0,.649-2.249V9.791a3.609,3.609,0,0,0-.629-2.3,2.219,2.219,0,0,0-1.839-.783ZM251.48,15H249.43V5.047h2.051Zm7.062-2.611a1.052,1.052,0,0,0-.41-.892,5.38,5.38,0,0,0-1.477-.656,10.467,10.467,0,0,1-1.688-.68,2.759,2.759,0,0,1-1.7-2.468,2.4,2.4,0,0,1,.455-1.439,2.965,2.965,0,0,1,1.306-.988,4.914,4.914,0,0,1,1.911-.355,4.473,4.473,0,0,1,1.9.386,3.026,3.026,0,0,1,1.3,1.09,2.853,2.853,0,0,1,.461,1.6h-2.051a1.342,1.342,0,0,0-.431-1.063,1.77,1.77,0,0,0-1.21-.379,1.891,1.891,0,0,0-1.169.318,1,1,0,0,0-.417.837.96.96,0,0,0,.489.813,5.522,5.522,0,0,0,1.439.615,6.217,6.217,0,0,1,2.55,1.306,2.6,2.6,0,0,1,.8,1.941,2.4,2.4,0,0,1-.978,2.027,4.279,4.279,0,0,1-2.632.735,5.082,5.082,0,0,1-2.092-.42,3.31,3.31,0,0,1-1.439-1.152,2.95,2.95,0,0,1-.5-1.7h2.058q0,1.647,1.969,1.647a1.915,1.915,0,0,0,1.142-.3A.967.967,0,0,0,258.542,12.389Zm9.434-1.7h-3.937v2.666h4.621V15h-6.672V5.047h6.658V6.708h-4.607V9.08h3.938ZM277.956,15h-2.051l-3.992-6.549V15h-2.051V5.047h2.051l4,6.563V5.047h2.044ZM276.507,2.477a1.913,1.913,0,0,1-.451,1.3,1.4,1.4,0,0,1-1.1.523,1.669,1.669,0,0,1-.461-.058,3.1,3.1,0,0,1-.557-.25,3,3,0,0,0-.513-.236,1.253,1.253,0,0,0-.342-.044.548.548,0,0,0-.407.171.664.664,0,0,0-.167.485l-1.148-.068A1.942,1.942,0,0,1,271.807,3a1.381,1.381,0,0,1,1.1-.533,1.412,1.412,0,0,1,.386.051,4.254,4.254,0,0,1,.591.25,3.843,3.843,0,0,0,.567.239,1.3,1.3,0,0,0,.328.041.577.577,0,0,0,.414-.167.637.637,0,0,0,.174-.482Zm11.416,7.772a6.009,6.009,0,0,1-.52,2.577,3.912,3.912,0,0,1-1.487,1.709,4.393,4.393,0,0,1-4.426.007,3.951,3.951,0,0,1-1.5-1.7,5.836,5.836,0,0,1-.54-2.54V9.812a5.977,5.977,0,0,1,.53-2.587,3.944,3.944,0,0,1,1.5-1.716,4.387,4.387,0,0,1,4.423,0,3.944,3.944,0,0,1,1.5,1.716,5.96,5.96,0,0,1,.53,2.581ZM285.845,9.8a4.189,4.189,0,0,0-.561-2.379,1.98,1.98,0,0,0-3.192-.01,4.141,4.141,0,0,0-.567,2.355v.485a4.241,4.241,0,0,0,.561,2.365,1.963,1.963,0,0,0,3.2.031,4.216,4.216,0,0,0,.561-2.362Zm14.868,1.887a3.522,3.522,0,0,1-1.186,2.529,4.165,4.165,0,0,1-2.82.923,3.745,3.745,0,0,1-3.011-1.289,5.284,5.284,0,0,1-1.1-3.538V9.7a5.966,5.966,0,0,1,.506-2.529,3.791,3.791,0,0,1,1.446-1.678,4.518,4.518,0,0,1,4.959.338,3.785,3.785,0,0,1,1.217,2.591h-2.051a2.079,2.079,0,0,0-.537-1.4,1.987,1.987,0,0,0-1.4-.434,1.742,1.742,0,0,0-1.535.735,4.119,4.119,0,0,0-.523,2.28v.752a4.408,4.408,0,0,0,.489,2.358,1.71,1.71,0,0,0,1.542.745,2.025,2.025,0,0,0,1.418-.434,1.961,1.961,0,0,0,.537-1.343Zm9.522-1.436a6.009,6.009,0,0,1-.52,2.577,3.912,3.912,0,0,1-1.487,1.709,4.393,4.393,0,0,1-4.426.007,3.951,3.951,0,0,1-1.5-1.7,5.836,5.836,0,0,1-.54-2.54V9.812a5.977,5.977,0,0,1,.53-2.587,3.944,3.944,0,0,1,1.5-1.716,4.387,4.387,0,0,1,4.423,0,3.944,3.944,0,0,1,1.5,1.716,5.96,5.96,0,0,1,.53,2.581ZM308.157,9.8a4.189,4.189,0,0,0-.561-2.379,1.98,1.98,0,0,0-3.192-.01,4.141,4.141,0,0,0-.567,2.355v.485a4.241,4.241,0,0,0,.561,2.365,1.963,1.963,0,0,0,3.2.031,4.216,4.216,0,0,0,.561-2.362ZM319.819,15h-2.051l-3.992-6.549V15h-2.051V5.047h2.051l4,6.563V5.047h2.044Zm7.779-4.067h-3.937V15H321.61V5.047h6.48V6.708h-4.43v2.57H327.6Zm7.67-.246h-3.937v2.666h4.621V15H329.28V5.047h6.658V6.708h-4.607V9.08h3.938Zm9.7,1a3.522,3.522,0,0,1-1.186,2.529,4.165,4.165,0,0,1-2.82.923,3.745,3.745,0,0,1-3.011-1.289,5.284,5.284,0,0,1-1.1-3.538V9.7a5.966,5.966,0,0,1,.506-2.529,3.791,3.791,0,0,1,1.446-1.678,4.518,4.518,0,0,1,4.959.338,3.785,3.785,0,0,1,1.217,2.591h-2.051a2.079,2.079,0,0,0-.537-1.4,1.987,1.987,0,0,0-1.4-.434,1.742,1.742,0,0,0-1.535.735,4.119,4.119,0,0,0-.523,2.28v.752a4.408,4.408,0,0,0,.489,2.358,1.71,1.71,0,0,0,1.542.745,2.025,2.025,0,0,0,1.418-.434,1.961,1.961,0,0,0,.537-1.343Zm9.16,0a3.522,3.522,0,0,1-1.186,2.529,4.165,4.165,0,0,1-2.82.923,3.745,3.745,0,0,1-3.011-1.289,5.284,5.284,0,0,1-1.1-3.538V9.7a5.966,5.966,0,0,1,.506-2.529,3.791,3.791,0,0,1,1.446-1.678,4.518,4.518,0,0,1,4.959.338,3.785,3.785,0,0,1,1.217,2.591h-2.051a2.079,2.079,0,0,0-.537-1.4,1.987,1.987,0,0,0-1.4-.434,1.742,1.742,0,0,0-1.535.735,4.119,4.119,0,0,0-.523,2.28v.752a4.408,4.408,0,0,0,.489,2.358,1.71,1.71,0,0,0,1.542.745,2.025,2.025,0,0,0,1.418-.434,1.961,1.961,0,0,0,.537-1.343ZM357.656,15h-2.051V5.047h2.051Zm10.076-4.751a6.009,6.009,0,0,1-.52,2.577,3.912,3.912,0,0,1-1.487,1.709,4.393,4.393,0,0,1-4.426.007,3.951,3.951,0,0,1-1.5-1.7,5.836,5.836,0,0,1-.54-2.54V9.812a5.977,5.977,0,0,1,.53-2.587,3.944,3.944,0,0,1,1.5-1.716,4.387,4.387,0,0,1,4.423,0,3.944,3.944,0,0,1,1.5,1.716,5.96,5.96,0,0,1,.53,2.581ZM365.654,9.8a4.189,4.189,0,0,0-.561-2.379,1.98,1.98,0,0,0-3.192-.01,4.141,4.141,0,0,0-.567,2.355v.485a4.241,4.241,0,0,0,.561,2.365,1.963,1.963,0,0,0,3.2.031,4.216,4.216,0,0,0,.561-2.362Zm-1.764-7.417h2.153L364.15,4.5h-1.606ZM377.316,15h-2.051l-3.992-6.549V15h-2.051V5.047h2.051l4,6.563V5.047h2.044Zm8.709-5.469L388.1,5.047h2.242l-3.268,6.344V15h-2.085V11.391l-3.268-6.344h2.249Zm11.389-4.484,2.557,7.219,2.543-7.219h2.693V15h-2.058V12.279l.205-4.7L400.668,15H399.26l-2.68-7.41.205,4.689V15h-2.051V5.047Zm17.76,5.2a6.009,6.009,0,0,1-.52,2.577,3.912,3.912,0,0,1-1.487,1.709,4.393,4.393,0,0,1-4.426.007,3.951,3.951,0,0,1-1.5-1.7,5.836,5.836,0,0,1-.54-2.54V9.812a5.977,5.977,0,0,1,.53-2.587,3.944,3.944,0,0,1,1.5-1.716,4.387,4.387,0,0,1,4.423,0,3.944,3.944,0,0,1,1.5,1.716,5.96,5.96,0,0,1,.53,2.581ZM413.1,9.8a4.189,4.189,0,0,0-.561-2.379,1.98,1.98,0,0,0-3.192-.01,4.141,4.141,0,0,0-.567,2.355v.485a4.241,4.241,0,0,0,.561,2.365,1.963,1.963,0,0,0,3.2.031,4.216,4.216,0,0,0,.561-2.362Zm3.568,5.2V5.047h3.063a4.651,4.651,0,0,1,2.348.591,4.123,4.123,0,0,1,1.617,1.682,5.187,5.187,0,0,1,.581,2.478v.458a5.2,5.2,0,0,1-.571,2.468,4.088,4.088,0,0,1-1.61,1.675,4.686,4.686,0,0,1-2.345.6Zm2.051-8.292v6.645h.991a2.227,2.227,0,0,0,1.839-.786,3.553,3.553,0,0,0,.649-2.249V9.791a3.609,3.609,0,0,0-.629-2.3,2.219,2.219,0,0,0-1.839-.783Zm12.667,6.241h-3.6L427.1,15h-2.181l3.705-9.953h1.9L434.253,15h-2.181Zm-3.042-1.661h2.488l-1.251-3.726ZM127.3,34.933h-3.937V39h-2.051V29.047h6.48v1.661h-4.43v2.57H127.3Zm9.857-.684a6.008,6.008,0,0,1-.52,2.577,3.913,3.913,0,0,1-1.487,1.709,4.393,4.393,0,0,1-4.426.007,3.951,3.951,0,0,1-1.5-1.7,5.837,5.837,0,0,1-.54-2.54v-.492a5.977,5.977,0,0,1,.53-2.587,3.945,3.945,0,0,1,1.5-1.716,4.387,4.387,0,0,1,4.423,0,3.945,3.945,0,0,1,1.5,1.716,5.96,5.96,0,0,1,.53,2.581Zm-2.078-.451a4.188,4.188,0,0,0-.561-2.379,1.98,1.98,0,0,0-3.192-.01,4.141,4.141,0,0,0-.567,2.355v.485a4.241,4.241,0,0,0,.561,2.365,1.963,1.963,0,0,0,3.2.031,4.216,4.216,0,0,0,.561-2.362Zm7.253,1.559H140.7V39h-2.051V29.047h3.7a4.181,4.181,0,0,1,2.721.786,2.713,2.713,0,0,1,.957,2.222,3.062,3.062,0,0,1-.441,1.7,3.007,3.007,0,0,1-1.336,1.083L146.4,38.9V39h-2.2ZM140.7,33.7h1.654a1.694,1.694,0,0,0,1.2-.393,1.4,1.4,0,0,0,.424-1.083,1.5,1.5,0,0,0-.4-1.107,1.662,1.662,0,0,0-1.227-.4H140.7Zm9.563-4.648,2.557,7.219,2.543-7.219h2.693V39H156V36.279l.205-4.7L153.515,39h-1.408l-2.68-7.41.205,4.689V39h-2.051V29.047Zm15.2,7.9h-3.6L161.185,39H159l3.705-9.953h1.9L168.335,39h-2.181Zm-3.042-1.661h2.488l-1.251-3.726Zm13.515-4.58h-3.049V39h-2.051V30.708h-3.008V29.047h8.107Zm9.153,3.541a6.008,6.008,0,0,1-.52,2.577,3.913,3.913,0,0,1-1.487,1.709,4.393,4.393,0,0,1-4.426.007,3.951,3.951,0,0,1-1.5-1.7,5.837,5.837,0,0,1-.54-2.54v-.492a5.977,5.977,0,0,1,.53-2.587,3.945,3.945,0,0,1,1.5-1.716,4.387,4.387,0,0,1,4.423,0,3.945,3.945,0,0,1,1.5,1.716,5.96,5.96,0,0,1,.53,2.581Zm-2.078-.451a4.188,4.188,0,0,0-.561-2.379,1.98,1.98,0,0,0-3.192-.01,4.141,4.141,0,0,0-.567,2.355v.485a4.241,4.241,0,0,0,.561,2.365,1.963,1.963,0,0,0,3.2.031,4.216,4.216,0,0,0,.561-2.362Zm7.055,5.2V29.047h3.063a4.651,4.651,0,0,1,2.348.591,4.123,4.123,0,0,1,1.617,1.682,5.187,5.187,0,0,1,.581,2.478v.458a5.2,5.2,0,0,1-.571,2.468,4.088,4.088,0,0,1-1.61,1.675,4.686,4.686,0,0,1-2.345.6Zm2.051-8.292v6.645h.991a2.227,2.227,0,0,0,1.839-.786,3.552,3.552,0,0,0,.649-2.249v-.526a3.609,3.609,0,0,0-.629-2.3,2.219,2.219,0,0,0-1.839-.783Zm13.036,3.979h-3.937v2.666h4.621V39h-6.672V29.047h6.658v1.661h-4.607V33.08h3.938Zm10.992,2.263h-3.6L211.866,39h-2.181l3.705-9.953h1.9L219.017,39h-2.181ZM213.1,35.288h2.488l-1.251-3.726Zm14.26-6.241V35.6a3.356,3.356,0,0,1-1.022,2.584,3.94,3.94,0,0,1-2.792.95,3.984,3.984,0,0,1-2.769-.923,3.3,3.3,0,0,1-1.046-2.536V29.047h2.051v6.569a1.9,1.9,0,0,0,.468,1.425,1.8,1.8,0,0,0,1.3.448q1.729,0,1.757-1.818V29.047ZM229.045,39V29.047h3.063a4.651,4.651,0,0,1,2.348.591,4.123,4.123,0,0,1,1.617,1.682,5.187,5.187,0,0,1,.581,2.478v.458a5.2,5.2,0,0,1-.571,2.468,4.088,4.088,0,0,1-1.61,1.675,4.686,4.686,0,0,1-2.345.6Zm2.051-8.292v6.645h.991a2.227,2.227,0,0,0,1.839-.786,3.552,3.552,0,0,0,.649-2.249v-.526a3.609,3.609,0,0,0-.629-2.3,2.219,2.219,0,0,0-1.839-.783ZM240.324,39h-2.051V29.047h2.051Zm9.393-8.292h-3.049V39h-2.051V30.708h-3.008V29.047h8.107Zm9.153,3.541a6.009,6.009,0,0,1-.52,2.577,3.912,3.912,0,0,1-1.487,1.709,4.393,4.393,0,0,1-4.426.007,3.951,3.951,0,0,1-1.5-1.7,5.837,5.837,0,0,1-.54-2.54v-.492a5.977,5.977,0,0,1,.53-2.587,3.945,3.945,0,0,1,1.5-1.716,4.387,4.387,0,0,1,4.423,0,3.944,3.944,0,0,1,1.5,1.716,5.96,5.96,0,0,1,.53,2.581Zm-2.078-.451a4.189,4.189,0,0,0-.561-2.379,1.98,1.98,0,0,0-3.192-.01,4.141,4.141,0,0,0-.567,2.355v.485a4.241,4.241,0,0,0,.561,2.365,1.963,1.963,0,0,0,3.2.031,4.216,4.216,0,0,0,.561-2.362Zm7.253,1.559h-1.634V39H260.36V29.047h3.7a4.181,4.181,0,0,1,2.721.786,2.713,2.713,0,0,1,.957,2.222,3.062,3.062,0,0,1-.441,1.7,3.007,3.007,0,0,1-1.336,1.083l2.153,4.067V39h-2.2ZM262.411,33.7h1.654a1.694,1.694,0,0,0,1.2-.393,1.4,1.4,0,0,0,.424-1.083,1.5,1.5,0,0,0-.4-1.107,1.662,1.662,0,0,0-1.227-.4h-1.647Zm9.064,5.3h-2.051V29.047h2.051ZM279,36.949h-3.6L274.716,39h-2.181l3.705-9.953h1.9L281.866,39h-2.181Zm-3.042-1.661h2.488l-1.251-3.726Zm16.317-.6h-3.937v2.666h4.621V39h-6.672V29.047h6.658v1.661h-4.607V33.08h3.938ZM302.251,39H300.2l-3.992-6.549V39h-2.051V29.047h2.051l4,6.563V29.047h2.044Zm7.328-3.507V39h-2.051V29.047h3.883a4.492,4.492,0,0,1,1.972.41,3.022,3.022,0,0,1,1.309,1.166,3.25,3.25,0,0,1,.458,1.719,2.858,2.858,0,0,1-1,2.307,4.171,4.171,0,0,1-2.772.844Zm0-1.661h1.832a1.8,1.8,0,0,0,1.241-.383,1.392,1.392,0,0,0,.427-1.094,1.642,1.642,0,0,0-.431-1.183,1.609,1.609,0,0,0-1.189-.465h-1.88Zm10.664,1.524h-1.634V39h-2.051V29.047h3.7a4.181,4.181,0,0,1,2.721.786,2.713,2.713,0,0,1,.957,2.222,3.062,3.062,0,0,1-.441,1.7,3.007,3.007,0,0,1-1.336,1.083l2.153,4.067V39h-2.2ZM318.609,33.7h1.654a1.694,1.694,0,0,0,1.2-.393,1.4,1.4,0,0,0,.424-1.083,1.5,1.5,0,0,0-.4-1.107,1.662,1.662,0,0,0-1.227-.4h-1.647Zm15.06.554a6.009,6.009,0,0,1-.52,2.577,3.912,3.912,0,0,1-1.487,1.709,4.393,4.393,0,0,1-4.426.007,3.951,3.951,0,0,1-1.5-1.7,5.836,5.836,0,0,1-.54-2.54v-.492a5.977,5.977,0,0,1,.53-2.587,3.944,3.944,0,0,1,1.5-1.716,4.387,4.387,0,0,1,4.423,0,3.944,3.944,0,0,1,1.5,1.716,5.96,5.96,0,0,1,.53,2.581Zm-2.078-.451a4.189,4.189,0,0,0-.561-2.379,1.98,1.98,0,0,0-3.192-.01,4.141,4.141,0,0,0-.567,2.355v.485a4.241,4.241,0,0,0,.561,2.365,1.963,1.963,0,0,0,3.2.031,4.216,4.216,0,0,0,.561-2.362Zm11.382,1.887a3.522,3.522,0,0,1-1.186,2.529,4.165,4.165,0,0,1-2.82.923,3.745,3.745,0,0,1-3.011-1.289,5.284,5.284,0,0,1-1.1-3.538V33.7a5.966,5.966,0,0,1,.506-2.529,3.791,3.791,0,0,1,1.446-1.678,4.518,4.518,0,0,1,4.959.338,3.785,3.785,0,0,1,1.217,2.591h-2.051a2.079,2.079,0,0,0-.537-1.4,1.987,1.987,0,0,0-1.4-.434,1.742,1.742,0,0,0-1.535.735,4.119,4.119,0,0,0-.523,2.28v.752a4.408,4.408,0,0,0,.489,2.358,1.71,1.71,0,0,0,1.542.745,2.025,2.025,0,0,0,1.418-.434,1.961,1.961,0,0,0,.537-1.343Zm7.335-1H346.37v2.666h4.621V39h-6.672V29.047h6.658v1.661H346.37V33.08h3.938Zm7.048,1.7a1.052,1.052,0,0,0-.41-.892,5.38,5.38,0,0,0-1.477-.656,10.467,10.467,0,0,1-1.688-.68,2.759,2.759,0,0,1-1.7-2.468,2.4,2.4,0,0,1,.455-1.439,2.965,2.965,0,0,1,1.306-.988,4.914,4.914,0,0,1,1.911-.355,4.473,4.473,0,0,1,1.9.386,3.026,3.026,0,0,1,1.3,1.09,2.853,2.853,0,0,1,.461,1.6h-2.051a1.342,1.342,0,0,0-.431-1.063,1.77,1.77,0,0,0-1.21-.379,1.891,1.891,0,0,0-1.169.318,1,1,0,0,0-.417.837.96.96,0,0,0,.489.813,5.522,5.522,0,0,0,1.439.615,6.217,6.217,0,0,1,2.55,1.306,2.6,2.6,0,0,1,.8,1.941,2.4,2.4,0,0,1-.978,2.027,4.279,4.279,0,0,1-2.632.735,5.082,5.082,0,0,1-2.092-.42,3.31,3.31,0,0,1-1.439-1.152,2.95,2.95,0,0,1-.5-1.7h2.058q0,1.647,1.969,1.647a1.915,1.915,0,0,0,1.142-.3A.967.967,0,0,0,357.355,36.389Zm11.621-2.14a6.009,6.009,0,0,1-.52,2.577,3.912,3.912,0,0,1-1.487,1.709,4.393,4.393,0,0,1-4.426.007,3.951,3.951,0,0,1-1.5-1.7,5.836,5.836,0,0,1-.54-2.54v-.492a5.977,5.977,0,0,1,.53-2.587,3.944,3.944,0,0,1,1.5-1.716,4.387,4.387,0,0,1,4.423,0,3.944,3.944,0,0,1,1.5,1.716,5.96,5.96,0,0,1,.53,2.581ZM366.9,33.8a4.189,4.189,0,0,0-.561-2.379,1.98,1.98,0,0,0-3.192-.01,4.141,4.141,0,0,0-.567,2.355v.485a4.241,4.241,0,0,0,.561,2.365,1.963,1.963,0,0,0,3.2.031,4.216,4.216,0,0,0,.561-2.362Z" transform="translate(497 1991)" fill="#12263f"/>
    <path id="Trazado_117315" data-name="Trazado 117315" d="M7.978,9.514H4.6V13H2.845V4.469H8.4V5.893H4.6V8.1H7.978ZM14.552,9.3H11.177v2.285h3.961V13H9.419V4.469h5.707V5.893H11.177V7.926h3.375Zm8.314.855a3.019,3.019,0,0,1-1.017,2.168,3.57,3.57,0,0,1-2.417.791,3.21,3.21,0,0,1-2.581-1.1,4.529,4.529,0,0,1-.94-3.032V8.459a5.114,5.114,0,0,1,.434-2.168,3.249,3.249,0,0,1,1.239-1.438,3.471,3.471,0,0,1,1.872-.5,3.478,3.478,0,0,1,2.379.791,3.244,3.244,0,0,1,1.043,2.221H21.12a1.782,1.782,0,0,0-.46-1.2,1.7,1.7,0,0,0-1.2-.372,1.494,1.494,0,0,0-1.315.63,3.53,3.53,0,0,0-.448,1.954v.645a3.778,3.778,0,0,0,.419,2.021,1.466,1.466,0,0,0,1.321.639,1.735,1.735,0,0,0,1.216-.372,1.681,1.681,0,0,0,.46-1.151ZM30.964,13H29.206V9.344H25.778V13H24.021V4.469h1.758V7.926h3.428V4.469h1.758Zm6.457-1.758H34.339L33.753,13H31.884L35.06,4.469h1.629L39.882,13H38.013ZM34.813,9.818h2.133L35.874,6.625Z" transform="translate(189 2101)" fill="#12263f"/>
    <path id="Trazado_117314" data-name="Trazado 117314" d="M12.607,4.469,14.8,10.656l2.18-6.187h2.309V13H17.523V10.668L17.7,6.643,15.4,13H14.189l-2.3-6.352.176,4.02V13H10.311V4.469ZM27.83,8.928a5.15,5.15,0,0,1-.445,2.209A3.354,3.354,0,0,1,26.11,12.6a3.766,3.766,0,0,1-3.794.006,3.387,3.387,0,0,1-1.289-1.456,5,5,0,0,1-.463-2.177V8.553a5.123,5.123,0,0,1,.454-2.218A3.381,3.381,0,0,1,22.3,4.864a3.76,3.76,0,0,1,3.791,0,3.381,3.381,0,0,1,1.283,1.471,5.109,5.109,0,0,1,.454,2.212Zm-1.781-.387a3.59,3.59,0,0,0-.48-2.039,1.7,1.7,0,0,0-2.736-.009,3.549,3.549,0,0,0-.486,2.019v.416a3.635,3.635,0,0,0,.48,2.027,1.682,1.682,0,0,0,2.742.026,3.614,3.614,0,0,0,.48-2.024ZM24.537,2.184h1.846L24.76,4H23.383ZM29.107,13V4.469h2.625a3.986,3.986,0,0,1,2.013.507,3.534,3.534,0,0,1,1.386,1.441,4.446,4.446,0,0,1,.5,2.124v.393a4.458,4.458,0,0,1-.489,2.115,3.5,3.5,0,0,1-1.38,1.436A4.016,4.016,0,0,1,31.75,13Zm1.758-7.107v5.7h.85a1.909,1.909,0,0,0,1.576-.674,3.045,3.045,0,0,0,.557-1.928V8.535a3.093,3.093,0,0,0-.539-1.972,1.9,1.9,0,0,0-1.576-.671Zm12.5-1.424v5.619a2.877,2.877,0,0,1-.876,2.215,3.377,3.377,0,0,1-2.394.814,3.415,3.415,0,0,1-2.373-.791,2.828,2.828,0,0,1-.9-2.174V4.469h1.758V10.1a1.626,1.626,0,0,0,.4,1.222,1.541,1.541,0,0,0,1.11.384q1.482,0,1.506-1.559V4.469Zm3.2,7.119h3.732V13H44.8V4.469h1.758Zm11.373-2.66a5.15,5.15,0,0,1-.445,2.209A3.354,3.354,0,0,1,56.216,12.6a3.766,3.766,0,0,1-3.794.006,3.387,3.387,0,0,1-1.289-1.456,5,5,0,0,1-.463-2.177V8.553a5.123,5.123,0,0,1,.454-2.218,3.381,3.381,0,0,1,1.283-1.471,3.76,3.76,0,0,1,3.791,0,3.381,3.381,0,0,1,1.283,1.471,5.109,5.109,0,0,1,.454,2.212Zm-1.781-.387a3.59,3.59,0,0,0-.48-2.039,1.7,1.7,0,0,0-2.736-.009,3.549,3.549,0,0,0-.486,2.019v.416a3.635,3.635,0,0,0,.48,2.027,1.682,1.682,0,0,0,2.742.026,3.614,3.614,0,0,0,.48-2.024Z" transform="translate(277 2101)" fill="#12263f"/>
    <path id="Trazado_117313" data-name="Trazado 117313" d="M25.795,8.928a5.15,5.15,0,0,1-.445,2.209A3.354,3.354,0,0,1,24.075,12.6a3.766,3.766,0,0,1-3.794.006,3.387,3.387,0,0,1-1.289-1.456,5,5,0,0,1-.463-2.177V8.553a5.123,5.123,0,0,1,.454-2.218,3.381,3.381,0,0,1,1.283-1.471,3.76,3.76,0,0,1,3.791,0,3.381,3.381,0,0,1,1.283,1.471,5.109,5.109,0,0,1,.454,2.212Zm-1.781-.387a3.59,3.59,0,0,0-.48-2.039A1.7,1.7,0,0,0,20.8,6.493a3.549,3.549,0,0,0-.486,2.019v.416a3.635,3.635,0,0,0,.48,2.027,1.682,1.682,0,0,0,2.742.026,3.614,3.614,0,0,0,.48-2.024ZM28.83,9.994V13H27.072V4.469H30.4a3.85,3.85,0,0,1,1.69.352,2.591,2.591,0,0,1,1.122,1,2.786,2.786,0,0,1,.393,1.474,2.45,2.45,0,0,1-.858,1.978,3.575,3.575,0,0,1-2.376.724Zm0-1.424H30.4a1.544,1.544,0,0,0,1.063-.328A1.193,1.193,0,0,0,31.83,7.3a1.407,1.407,0,0,0-.369-1.014,1.379,1.379,0,0,0-1.02-.4H28.83ZM39.945,9.3H36.57v2.285h3.961V13H34.813V4.469H40.52V5.893H36.57V7.926h3.375Zm4.775.574h-1.4V13H41.563V4.469h3.17a3.583,3.583,0,0,1,2.332.674,2.326,2.326,0,0,1,.82,1.9A2.625,2.625,0,0,1,47.507,8.5a2.578,2.578,0,0,1-1.146.929l1.846,3.486V13H46.32Zm-1.4-1.424h1.418a1.452,1.452,0,0,0,1.025-.337,1.2,1.2,0,0,0,.363-.929,1.289,1.289,0,0,0-.343-.949,1.424,1.424,0,0,0-1.052-.346H43.32Zm10.717,2.789H50.955L50.369,13H48.5l3.176-8.531H53.3L56.5,13H54.629ZM51.43,9.818h2.133L52.49,6.625Zm9.023.059h-1.4V13H57.295V4.469h3.17a3.583,3.583,0,0,1,2.332.674,2.326,2.326,0,0,1,.82,1.9A2.625,2.625,0,0,1,63.239,8.5a2.578,2.578,0,0,1-1.146.929l1.846,3.486V13H62.053Zm-1.4-1.424h1.418A1.452,1.452,0,0,0,61.5,8.116a1.2,1.2,0,0,0,.363-.929,1.289,1.289,0,0,0-.343-.949,1.424,1.424,0,0,0-1.052-.346H59.053ZM66.822,13H65.064V4.469h1.758Zm8.637-4.072a5.15,5.15,0,0,1-.445,2.209A3.354,3.354,0,0,1,73.739,12.6a3.766,3.766,0,0,1-3.794.006,3.387,3.387,0,0,1-1.289-1.456,5,5,0,0,1-.463-2.177V8.553a5.123,5.123,0,0,1,.454-2.218,3.381,3.381,0,0,1,1.283-1.471,3.76,3.76,0,0,1,3.791,0A3.381,3.381,0,0,1,75,6.335a5.109,5.109,0,0,1,.454,2.212Zm-1.781-.387A3.59,3.59,0,0,0,73.2,6.5a1.7,1.7,0,0,0-2.736-.009,3.549,3.549,0,0,0-.486,2.019v.416a3.635,3.635,0,0,0,.48,2.027,1.682,1.682,0,0,0,2.742.026,3.614,3.614,0,0,0,.48-2.024Z" transform="translate(431 2101)" fill="#12263f"/>
    <path id="Trazado_117312" data-name="Trazado 117312" d="M9.716,9.994V13H7.958V4.469h3.328a3.85,3.85,0,0,1,1.69.352,2.591,2.591,0,0,1,1.122,1,2.786,2.786,0,0,1,.393,1.474,2.45,2.45,0,0,1-.858,1.978,3.575,3.575,0,0,1-2.376.724Zm0-1.424h1.57a1.544,1.544,0,0,0,1.063-.328,1.193,1.193,0,0,0,.366-.937,1.407,1.407,0,0,0-.369-1.014,1.379,1.379,0,0,0-1.02-.4H9.716Zm9.141,1.307h-1.4V13H15.7V4.469h3.17a3.583,3.583,0,0,1,2.332.674,2.326,2.326,0,0,1,.82,1.9A2.625,2.625,0,0,1,21.643,8.5a2.578,2.578,0,0,1-1.146.929l1.846,3.486V13H20.456Zm-1.4-1.424h1.418A1.452,1.452,0,0,0,19.9,8.116a1.2,1.2,0,0,0,.363-.929,1.289,1.289,0,0,0-.343-.949,1.424,1.424,0,0,0-1.052-.346H17.456Zm12.908.475a5.15,5.15,0,0,1-.445,2.209A3.354,3.354,0,0,1,28.645,12.6a3.766,3.766,0,0,1-3.794.006,3.387,3.387,0,0,1-1.289-1.456A5,5,0,0,1,23.1,8.975V8.553a5.123,5.123,0,0,1,.454-2.218,3.381,3.381,0,0,1,1.283-1.471,3.76,3.76,0,0,1,3.791,0A3.381,3.381,0,0,1,29.91,6.335a5.109,5.109,0,0,1,.454,2.212Zm-1.781-.387A3.59,3.59,0,0,0,28.1,6.5a1.7,1.7,0,0,0-2.736-.009,3.549,3.549,0,0,0-.486,2.019v.416a3.635,3.635,0,0,0,.48,2.027,1.682,1.682,0,0,0,2.742.026,3.614,3.614,0,0,0,.48-2.024ZM31.642,13V4.469h2.625a3.986,3.986,0,0,1,2.013.507,3.534,3.534,0,0,1,1.386,1.441,4.446,4.446,0,0,1,.5,2.124v.393a4.458,4.458,0,0,1-.489,2.115,3.5,3.5,0,0,1-1.38,1.436,4.016,4.016,0,0,1-2.01.516ZM33.4,5.893v5.7h.85a1.909,1.909,0,0,0,1.576-.674,3.045,3.045,0,0,0,.557-1.928V8.535a3.093,3.093,0,0,0-.539-1.972,1.9,1.9,0,0,0-1.576-.671ZM45.9,4.469v5.619a2.877,2.877,0,0,1-.876,2.215,3.377,3.377,0,0,1-2.394.814,3.415,3.415,0,0,1-2.373-.791,2.828,2.828,0,0,1-.9-2.174V4.469h1.758V10.1a1.626,1.626,0,0,0,.4,1.222,1.541,1.541,0,0,0,1.11.384q1.482,0,1.506-1.559V4.469Zm8.139,5.689a3.019,3.019,0,0,1-1.017,2.168,3.57,3.57,0,0,1-2.417.791,3.21,3.21,0,0,1-2.581-1.1,4.529,4.529,0,0,1-.94-3.032V8.459a5.114,5.114,0,0,1,.434-2.168,3.249,3.249,0,0,1,1.239-1.438A3.873,3.873,0,0,1,53,5.143a3.244,3.244,0,0,1,1.043,2.221H52.29a1.782,1.782,0,0,0-.46-1.2,1.7,1.7,0,0,0-1.2-.372,1.494,1.494,0,0,0-1.315.63,3.53,3.53,0,0,0-.448,1.954v.645a3.778,3.778,0,0,0,.419,2.021,1.466,1.466,0,0,0,1.321.639,1.735,1.735,0,0,0,1.216-.372,1.681,1.681,0,0,0,.46-1.151Zm7.406-4.266H58.829V13H57.071V5.893H54.493V4.469h6.949Zm7.846,3.035a5.15,5.15,0,0,1-.445,2.209A3.354,3.354,0,0,1,67.568,12.6a3.766,3.766,0,0,1-3.794.006,3.387,3.387,0,0,1-1.289-1.456,5,5,0,0,1-.463-2.177V8.553a5.123,5.123,0,0,1,.454-2.218A3.381,3.381,0,0,1,63.76,4.864a3.76,3.76,0,0,1,3.791,0,3.381,3.381,0,0,1,1.283,1.471,5.109,5.109,0,0,1,.454,2.212Zm-1.781-.387a3.59,3.59,0,0,0-.48-2.039,1.7,1.7,0,0,0-2.736-.009A3.549,3.549,0,0,0,63.8,8.512v.416a3.635,3.635,0,0,0,.48,2.027,1.682,1.682,0,0,0,2.742.026,3.614,3.614,0,0,0,.48-2.024Z" transform="translate(567 2101)" fill="#12263f"/>
    <path id="Trazado_117311" data-name="Trazado 117311" d="M13.857,10.158a3.019,3.019,0,0,1-1.017,2.168,3.57,3.57,0,0,1-2.417.791,3.21,3.21,0,0,1-2.581-1.1A4.529,4.529,0,0,1,6.9,8.98V8.459a5.114,5.114,0,0,1,.434-2.168A3.249,3.249,0,0,1,8.575,4.853a3.471,3.471,0,0,1,1.872-.5,3.478,3.478,0,0,1,2.379.791,3.244,3.244,0,0,1,1.043,2.221H12.111a1.782,1.782,0,0,0-.46-1.2,1.7,1.7,0,0,0-1.2-.372,1.494,1.494,0,0,0-1.315.63,3.53,3.53,0,0,0-.448,1.954v.645A3.778,3.778,0,0,0,9.1,11.043a1.466,1.466,0,0,0,1.321.639,1.735,1.735,0,0,0,1.216-.372,1.681,1.681,0,0,0,.46-1.151Zm8.162-1.23a5.15,5.15,0,0,1-.445,2.209A3.354,3.354,0,0,1,20.3,12.6a3.766,3.766,0,0,1-3.794.006,3.387,3.387,0,0,1-1.289-1.456,5,5,0,0,1-.463-2.177V8.553a5.123,5.123,0,0,1,.454-2.218,3.381,3.381,0,0,1,1.283-1.471,3.76,3.76,0,0,1,3.791,0,3.381,3.381,0,0,1,1.283,1.471,5.109,5.109,0,0,1,.454,2.212Zm-1.781-.387a3.59,3.59,0,0,0-.48-2.039,1.7,1.7,0,0,0-2.736-.009,3.549,3.549,0,0,0-.486,2.019v.416a3.635,3.635,0,0,0,.48,2.027,1.682,1.682,0,0,0,2.742.026,3.614,3.614,0,0,0,.48-2.024Zm4.816,3.047h3.732V13H23.3V4.469h1.758Zm11.373-2.66a5.15,5.15,0,0,1-.445,2.209A3.354,3.354,0,0,1,34.708,12.6a3.766,3.766,0,0,1-3.794.006,3.387,3.387,0,0,1-1.289-1.456,5,5,0,0,1-.463-2.177V8.553a5.123,5.123,0,0,1,.454-2.218A3.381,3.381,0,0,1,30.9,4.864a3.76,3.76,0,0,1,3.791,0,3.381,3.381,0,0,1,1.283,1.471,5.109,5.109,0,0,1,.454,2.212Zm-1.781-.387a3.59,3.59,0,0,0-.48-2.039,1.7,1.7,0,0,0-2.736-.009,3.549,3.549,0,0,0-.486,2.019v.416a3.635,3.635,0,0,0,.48,2.027,1.682,1.682,0,0,0,2.742.026,3.614,3.614,0,0,0,.48-2.024Zm6.217,1.336h-1.4V13H37.705V4.469h3.17a3.583,3.583,0,0,1,2.332.674,2.326,2.326,0,0,1,.82,1.9A2.625,2.625,0,0,1,43.649,8.5a2.578,2.578,0,0,1-1.146.929l1.846,3.486V13H42.463Zm-1.4-1.424h1.418a1.452,1.452,0,0,0,1.025-.337,1.2,1.2,0,0,0,.363-.929,1.289,1.289,0,0,0-.343-.949,1.424,1.424,0,0,0-1.052-.346H39.463Z" transform="translate(658 2101)" fill="#12263f"/>
    <path id="Trazado_117310" data-name="Trazado 117310" d="M22.962,8.928a5.15,5.15,0,0,1-.445,2.209A3.354,3.354,0,0,1,21.242,12.6a3.766,3.766,0,0,1-3.794.006,3.387,3.387,0,0,1-1.289-1.456A5,5,0,0,1,15.7,8.975V8.553a5.123,5.123,0,0,1,.454-2.218,3.381,3.381,0,0,1,1.283-1.471,3.76,3.76,0,0,1,3.791,0,3.381,3.381,0,0,1,1.283,1.471,5.109,5.109,0,0,1,.454,2.212Zm-1.781-.387A3.59,3.59,0,0,0,20.7,6.5a1.7,1.7,0,0,0-2.736-.009,3.549,3.549,0,0,0-.486,2.019v.416a3.635,3.635,0,0,0,.48,2.027,1.682,1.682,0,0,0,2.742.026,3.614,3.614,0,0,0,.48-2.024ZM26,9.994V13H24.239V4.469h3.328a3.85,3.85,0,0,1,1.69.352,2.591,2.591,0,0,1,1.122,1,2.786,2.786,0,0,1,.393,1.474,2.45,2.45,0,0,1-.858,1.978,3.575,3.575,0,0,1-2.376.724ZM26,8.57h1.57a1.544,1.544,0,0,0,1.063-.328A1.193,1.193,0,0,0,29,7.3a1.407,1.407,0,0,0-.369-1.014,1.379,1.379,0,0,0-1.02-.4H26ZM37.112,9.3H33.737v2.285H37.7V13H31.979V4.469h5.707V5.893H33.737V7.926h3.375Zm4.775.574h-1.4V13H38.729V4.469H41.9a3.583,3.583,0,0,1,2.332.674,2.326,2.326,0,0,1,.82,1.9A2.625,2.625,0,0,1,44.674,8.5a2.578,2.578,0,0,1-1.146.929l1.846,3.486V13H43.487Zm-1.4-1.424h1.418a1.452,1.452,0,0,0,1.025-.337,1.2,1.2,0,0,0,.363-.929,1.289,1.289,0,0,0-.343-.949A1.424,1.424,0,0,0,41.9,5.893H40.487ZM51.2,11.242H48.122L47.536,13H45.667l3.176-8.531h1.629L53.665,13H51.8ZM48.6,9.818h2.133L49.657,6.625Zm12.563.34a3.019,3.019,0,0,1-1.017,2.168,3.57,3.57,0,0,1-2.417.791,3.21,3.21,0,0,1-2.581-1.1A4.529,4.529,0,0,1,54.2,8.98V8.459a5.114,5.114,0,0,1,.434-2.168,3.249,3.249,0,0,1,1.239-1.438,3.873,3.873,0,0,1,4.251.29,3.244,3.244,0,0,1,1.043,2.221H59.413a1.782,1.782,0,0,0-.46-1.2,1.7,1.7,0,0,0-1.2-.372,1.494,1.494,0,0,0-1.315.63,3.53,3.53,0,0,0-.448,1.954v.645a3.778,3.778,0,0,0,.419,2.021,1.466,1.466,0,0,0,1.321.639,1.735,1.735,0,0,0,1.216-.372,1.681,1.681,0,0,0,.46-1.151ZM64.183,13H62.425V4.469h1.758Zm8.637-4.072a5.15,5.15,0,0,1-.445,2.209A3.354,3.354,0,0,1,71.1,12.6a3.766,3.766,0,0,1-3.794.006,3.387,3.387,0,0,1-1.289-1.456,5,5,0,0,1-.463-2.177V8.553a5.123,5.123,0,0,1,.454-2.218,3.381,3.381,0,0,1,1.283-1.471,3.76,3.76,0,0,1,3.791,0,3.381,3.381,0,0,1,1.283,1.471,5.109,5.109,0,0,1,.454,2.212Zm-1.781-.387a3.59,3.59,0,0,0-.48-2.039,1.7,1.7,0,0,0-2.736-.009,3.549,3.549,0,0,0-.486,2.019v.416a3.635,3.635,0,0,0,.48,2.027,1.682,1.682,0,0,0,2.742.026,3.614,3.614,0,0,0,.48-2.024ZM69.526,2.184h1.846L69.749,4H68.372ZM81.034,13H79.276L75.854,7.387V13H74.1V4.469h1.758l3.428,5.625V4.469h1.752Z" transform="translate(738 2101)" fill="#12263f"/>
    <path id="Trazado_117307" data-name="Trazado 117307" d="M6.712,13V4.469H9.337a3.986,3.986,0,0,1,2.013.507,3.534,3.534,0,0,1,1.386,1.441,4.446,4.446,0,0,1,.5,2.124v.393a4.458,4.458,0,0,1-.489,2.115,3.5,3.5,0,0,1-1.38,1.436A4.016,4.016,0,0,1,9.354,13ZM8.47,5.893v5.7h.85a1.909,1.909,0,0,0,1.576-.674,3.045,3.045,0,0,0,.557-1.928V8.535a3.093,3.093,0,0,0-.539-1.972,1.9,1.9,0,0,0-1.576-.671ZM19.644,9.3H16.269v2.285h3.961V13H14.511V4.469h5.707V5.893H16.269V7.926h3.375Zm6.75.211H23.019V13H21.261V4.469h5.555V5.893h-3.8V8.1h3.375ZM32.968,9.3H29.593v2.285h3.961V13H27.835V4.469h5.707V5.893H29.593V7.926h3.375Zm8.314.855a3.019,3.019,0,0,1-1.017,2.168,3.57,3.57,0,0,1-2.417.791,3.21,3.21,0,0,1-2.581-1.1,4.529,4.529,0,0,1-.94-3.032V8.459a5.114,5.114,0,0,1,.434-2.168A3.249,3.249,0,0,1,36,4.853a3.873,3.873,0,0,1,4.251.29,3.244,3.244,0,0,1,1.043,2.221H39.536a1.782,1.782,0,0,0-.46-1.2,1.7,1.7,0,0,0-1.2-.372,1.494,1.494,0,0,0-1.315.63,3.53,3.53,0,0,0-.448,1.954v.645a3.778,3.778,0,0,0,.419,2.021,1.466,1.466,0,0,0,1.321.639,1.735,1.735,0,0,0,1.216-.372,1.681,1.681,0,0,0,.46-1.151Zm7.406-4.266H46.075V13H44.317V5.893H41.739V4.469h6.949Zm7.846,3.035a5.15,5.15,0,0,1-.445,2.209A3.354,3.354,0,0,1,54.814,12.6a3.766,3.766,0,0,1-3.794.006,3.387,3.387,0,0,1-1.289-1.456,5,5,0,0,1-.463-2.177V8.553a5.123,5.123,0,0,1,.454-2.218,3.381,3.381,0,0,1,1.283-1.471,3.76,3.76,0,0,1,3.791,0A3.381,3.381,0,0,1,56.08,6.335a5.109,5.109,0,0,1,.454,2.212Zm-1.781-.387a3.59,3.59,0,0,0-.48-2.039,1.7,1.7,0,0,0-2.736-.009,3.549,3.549,0,0,0-.486,2.019v.416a3.635,3.635,0,0,0,.48,2.027,1.682,1.682,0,0,0,2.742.026,3.614,3.614,0,0,0,.48-2.024Z" transform="translate(1047 2101)" fill="#12263f"/>
    <path id="Trazado_117306" data-name="Trazado 117306" d="M25.1,8.928a5.15,5.15,0,0,1-.445,2.209A3.354,3.354,0,0,1,23.384,12.6a3.766,3.766,0,0,1-3.794.006A3.387,3.387,0,0,1,18.3,11.151a5,5,0,0,1-.463-2.177V8.553a5.123,5.123,0,0,1,.454-2.218,3.381,3.381,0,0,1,1.283-1.471,3.76,3.76,0,0,1,3.791,0,3.381,3.381,0,0,1,1.283,1.471A5.109,5.109,0,0,1,25.1,8.547Zm-1.781-.387a3.59,3.59,0,0,0-.48-2.039,1.7,1.7,0,0,0-2.736-.009,3.549,3.549,0,0,0-.486,2.019v.416a3.635,3.635,0,0,0,.48,2.027,1.682,1.682,0,0,0,2.742.026,3.614,3.614,0,0,0,.48-2.024ZM26.381,13V4.469h2.988a3.924,3.924,0,0,1,2.355.595,2.034,2.034,0,0,1,.8,1.743,1.927,1.927,0,0,1-.322,1.1,1.861,1.861,0,0,1-.9.7,1.8,1.8,0,0,1,1.034.662,1.957,1.957,0,0,1,.378,1.219,2.251,2.251,0,0,1-.785,1.863A3.535,3.535,0,0,1,29.7,13Zm1.758-3.715v2.3h1.506a1.453,1.453,0,0,0,.97-.3,1.015,1.015,0,0,0,.349-.817A1.071,1.071,0,0,0,29.75,9.285Zm0-1.242h1.3q1.33-.023,1.33-1.061a.98.98,0,0,0-.337-.835,1.772,1.772,0,0,0-1.063-.255h-1.23Zm10.324,2.719A.9.9,0,0,0,38.111,10a4.611,4.611,0,0,0-1.266-.562A8.972,8.972,0,0,1,35.4,8.852a2.365,2.365,0,0,1-1.453-2.115,2.06,2.06,0,0,1,.39-1.233,2.542,2.542,0,0,1,1.119-.847,4.212,4.212,0,0,1,1.638-.3,3.834,3.834,0,0,1,1.629.331,2.594,2.594,0,0,1,1.11.935,2.445,2.445,0,0,1,.4,1.371H38.469a1.15,1.15,0,0,0-.369-.911,1.517,1.517,0,0,0-1.037-.325,1.621,1.621,0,0,0-1,.272.859.859,0,0,0-.357.718.823.823,0,0,0,.419.7,4.733,4.733,0,0,0,1.233.527,5.329,5.329,0,0,1,2.186,1.119,2.229,2.229,0,0,1,.686,1.664,2.053,2.053,0,0,1-.838,1.737,3.668,3.668,0,0,1-2.256.63,4.356,4.356,0,0,1-1.793-.36,2.837,2.837,0,0,1-1.233-.987,2.528,2.528,0,0,1-.425-1.453h1.764q0,1.412,1.688,1.412a1.642,1.642,0,0,0,.979-.255A.829.829,0,0,0,38.463,10.762ZM46.549,9.3H43.174v2.285h3.961V13H41.416V4.469h5.707V5.893H43.174V7.926h3.375Zm4.775.574h-1.4V13H48.166V4.469h3.17a3.583,3.583,0,0,1,2.332.674,2.326,2.326,0,0,1,.82,1.9A2.625,2.625,0,0,1,54.11,8.5a2.578,2.578,0,0,1-1.146.929l1.846,3.486V13H52.924Zm-1.4-1.424h1.418a1.452,1.452,0,0,0,1.025-.337,1.2,1.2,0,0,0,.363-.929,1.289,1.289,0,0,0-.343-.949,1.424,1.424,0,0,0-1.052-.346H49.924Zm8.941,2.432L60.8,4.469h1.957L59.785,13H57.951L54.992,4.469h1.951Zm9.07.357H64.854L64.268,13H62.4l3.176-8.531H67.2L70.4,13H68.527ZM65.328,9.818h2.133L66.389,6.625Zm12.563.34a3.019,3.019,0,0,1-1.017,2.168,3.57,3.57,0,0,1-2.417.791,3.21,3.21,0,0,1-2.581-1.1,4.529,4.529,0,0,1-.94-3.032V8.459a5.114,5.114,0,0,1,.434-2.168,3.249,3.249,0,0,1,1.239-1.438,3.873,3.873,0,0,1,4.251.29A3.244,3.244,0,0,1,77.9,7.363H76.145a1.782,1.782,0,0,0-.46-1.2,1.7,1.7,0,0,0-1.2-.372,1.494,1.494,0,0,0-1.315.63,3.53,3.53,0,0,0-.448,1.954v.645a3.778,3.778,0,0,0,.419,2.021,1.466,1.466,0,0,0,1.321.639,1.735,1.735,0,0,0,1.216-.372,1.681,1.681,0,0,0,.46-1.151ZM80.914,13H79.156V4.469h1.758Zm8.637-4.072a5.15,5.15,0,0,1-.445,2.209A3.354,3.354,0,0,1,87.831,12.6a3.766,3.766,0,0,1-3.794.006,3.387,3.387,0,0,1-1.289-1.456,5,5,0,0,1-.463-2.177V8.553a5.123,5.123,0,0,1,.454-2.218,3.381,3.381,0,0,1,1.283-1.471,3.76,3.76,0,0,1,3.791,0A3.381,3.381,0,0,1,89.1,6.335a5.109,5.109,0,0,1,.454,2.212ZM87.77,8.541a3.59,3.59,0,0,0-.48-2.039,1.7,1.7,0,0,0-2.736-.009,3.549,3.549,0,0,0-.486,2.019v.416a3.635,3.635,0,0,0,.48,2.027,1.682,1.682,0,0,0,2.742.026,3.614,3.614,0,0,0,.48-2.024Zm10,4.459H96.008L92.586,7.387V13H90.828V4.469h1.758l3.428,5.625V4.469h1.752Zm6.668-3.7h-3.375v2.285h3.961V13H99.3V4.469h5.707V5.893h-3.949V7.926h3.375Zm6.041,1.459a.9.9,0,0,0-.352-.765,4.611,4.611,0,0,0-1.266-.562,8.972,8.972,0,0,1-1.447-.583,2.365,2.365,0,0,1-1.453-2.115,2.06,2.06,0,0,1,.39-1.233,2.542,2.542,0,0,1,1.119-.847,4.212,4.212,0,0,1,1.638-.3,3.834,3.834,0,0,1,1.629.331,2.594,2.594,0,0,1,1.11.935,2.445,2.445,0,0,1,.4,1.371H110.48a1.15,1.15,0,0,0-.369-.911,1.517,1.517,0,0,0-1.037-.325,1.621,1.621,0,0,0-1,.272.859.859,0,0,0-.357.718.823.823,0,0,0,.419.7,4.733,4.733,0,0,0,1.233.527,5.329,5.329,0,0,1,2.186,1.119,2.229,2.229,0,0,1,.686,1.664,2.053,2.053,0,0,1-.838,1.737,3.668,3.668,0,0,1-2.256.63,4.356,4.356,0,0,1-1.793-.36,2.837,2.837,0,0,1-1.233-.987,2.528,2.528,0,0,1-.425-1.453h1.764q0,1.412,1.688,1.412a1.642,1.642,0,0,0,.979-.255A.829.829,0,0,0,110.475,10.762Z" transform="translate(1144 2101)" fill="#12263f"/>
    <path id="Trazado_117309" data-name="Trazado 117309" d="M14.385,4.469v5.619a2.877,2.877,0,0,1-.876,2.215,3.377,3.377,0,0,1-2.394.814,3.415,3.415,0,0,1-2.373-.791,2.828,2.828,0,0,1-.9-2.174V4.469H9.6V10.1a1.626,1.626,0,0,0,.4,1.222,1.541,1.541,0,0,0,1.11.384q1.482,0,1.506-1.559V4.469ZM22.764,13H21.006L17.584,7.387V13H15.826V4.469h1.758l3.428,5.625V4.469h1.752Zm3.4,0H24.41V4.469h1.758ZM27.8,13V4.469h2.625a3.986,3.986,0,0,1,2.013.507A3.534,3.534,0,0,1,33.82,6.417a4.446,4.446,0,0,1,.5,2.124v.393a4.458,4.458,0,0,1-.489,2.115,3.5,3.5,0,0,1-1.38,1.436,4.016,4.016,0,0,1-2.01.516Zm1.758-7.107v5.7h.85a1.909,1.909,0,0,0,1.576-.674,3.045,3.045,0,0,0,.557-1.928V8.535A3.093,3.093,0,0,0,32,6.563a1.9,1.9,0,0,0-1.576-.671Zm10.857,5.35H37.33L36.744,13H34.875l3.176-8.531H39.68L42.873,13H41ZM37.8,9.818h2.133L38.865,6.625ZM43.67,13V4.469h2.625a3.986,3.986,0,0,1,2.013.507,3.534,3.534,0,0,1,1.386,1.441,4.446,4.446,0,0,1,.5,2.124v.393a4.458,4.458,0,0,1-.489,2.115,3.5,3.5,0,0,1-1.38,1.436,4.016,4.016,0,0,1-2.01.516Zm1.758-7.107v5.7h.85a1.909,1.909,0,0,0,1.576-.674,3.045,3.045,0,0,0,.557-1.928V8.535a3.093,3.093,0,0,0-.539-1.972,1.9,1.9,0,0,0-1.576-.671ZM56.6,9.3H53.227v2.285h3.961V13H51.469V4.469h5.707V5.893H53.227V7.926H56.6Zm6.041,1.459A.9.9,0,0,0,62.291,10a4.611,4.611,0,0,0-1.266-.562,8.972,8.972,0,0,1-1.447-.583,2.365,2.365,0,0,1-1.453-2.115,2.06,2.06,0,0,1,.39-1.233,2.542,2.542,0,0,1,1.119-.847,4.212,4.212,0,0,1,1.638-.3,3.834,3.834,0,0,1,1.629.331,2.594,2.594,0,0,1,1.11.935,2.445,2.445,0,0,1,.4,1.371H62.648a1.15,1.15,0,0,0-.369-.911,1.517,1.517,0,0,0-1.037-.325,1.621,1.621,0,0,0-1,.272.859.859,0,0,0-.357.718.823.823,0,0,0,.419.7,4.733,4.733,0,0,0,1.233.527,5.329,5.329,0,0,1,2.186,1.119,2.229,2.229,0,0,1,.686,1.664,2.053,2.053,0,0,1-.838,1.737,3.668,3.668,0,0,1-2.256.63,4.356,4.356,0,0,1-1.793-.36,2.837,2.837,0,0,1-1.233-.987,2.528,2.528,0,0,1-.425-1.453h1.764q0,1.412,1.688,1.412a1.642,1.642,0,0,0,.979-.255A.829.829,0,0,0,62.643,10.762ZM7.693,24.877h-1.4V28H4.535V19.469h3.17a3.583,3.583,0,0,1,2.332.674,2.326,2.326,0,0,1,.82,1.9,2.625,2.625,0,0,1-.378,1.456,2.578,2.578,0,0,1-1.146.929l1.846,3.486V28H9.293Zm-1.4-1.424H7.711a1.452,1.452,0,0,0,1.025-.337,1.2,1.2,0,0,0,.363-.929,1.289,1.289,0,0,0-.343-.949,1.424,1.424,0,0,0-1.052-.346H6.293Zm11.033.85H13.951v2.285h3.961V28H12.193V19.469H17.9v1.424H13.951v2.033h3.375Zm4.77,1.582,1.934-6.416h1.957L23.016,28H21.182l-2.959-8.531h1.951ZM28.658,28H26.9V19.469h1.758Zm6.053-2.238A.9.9,0,0,0,34.359,25a4.611,4.611,0,0,0-1.266-.562,8.972,8.972,0,0,1-1.447-.583,2.365,2.365,0,0,1-1.453-2.115,2.06,2.06,0,0,1,.39-1.233,2.542,2.542,0,0,1,1.119-.847,4.212,4.212,0,0,1,1.638-.3,3.834,3.834,0,0,1,1.629.331,2.594,2.594,0,0,1,1.11.935,2.445,2.445,0,0,1,.4,1.371H34.717a1.15,1.15,0,0,0-.369-.911,1.517,1.517,0,0,0-1.037-.325,1.621,1.621,0,0,0-1,.272.859.859,0,0,0-.357.718.823.823,0,0,0,.419.7,4.733,4.733,0,0,0,1.233.527,5.329,5.329,0,0,1,2.186,1.119,2.229,2.229,0,0,1,.686,1.664,2.053,2.053,0,0,1-.838,1.737,3.668,3.668,0,0,1-2.256.63,4.356,4.356,0,0,1-1.793-.36,2.837,2.837,0,0,1-1.233-.987,2.528,2.528,0,0,1-.425-1.453h1.764q0,1.412,1.688,1.412a1.642,1.642,0,0,0,.979-.255A.829.829,0,0,0,34.711,25.762Zm7.77.48H39.4L38.813,28H36.943l3.176-8.531h1.629L44.941,28H43.072Zm-2.607-1.424h2.133l-1.072-3.193ZM45.738,28V19.469h2.625a3.986,3.986,0,0,1,2.013.507,3.534,3.534,0,0,1,1.386,1.441,4.446,4.446,0,0,1,.5,2.124v.393a4.458,4.458,0,0,1-.489,2.115,3.5,3.5,0,0,1-1.38,1.436,4.016,4.016,0,0,1-2.01.516ZM47.5,20.893v5.7h.85a1.909,1.909,0,0,0,1.576-.674,3.045,3.045,0,0,0,.557-1.928v-.451a3.093,3.093,0,0,0-.539-1.972,1.9,1.9,0,0,0-1.576-.671Zm10.857,5.35H55.271L54.686,28H52.816l3.176-8.531h1.629L60.814,28H58.945Zm-2.607-1.424h2.133l-1.072-3.193Zm10.289.943A.9.9,0,0,0,65.684,25a4.611,4.611,0,0,0-1.266-.562,8.972,8.972,0,0,1-1.447-.583,2.365,2.365,0,0,1-1.453-2.115,2.06,2.06,0,0,1,.39-1.233,2.542,2.542,0,0,1,1.119-.847,4.212,4.212,0,0,1,1.638-.3,3.834,3.834,0,0,1,1.629.331,2.594,2.594,0,0,1,1.11.935,2.445,2.445,0,0,1,.4,1.371H66.041a1.15,1.15,0,0,0-.369-.911,1.517,1.517,0,0,0-1.037-.325,1.621,1.621,0,0,0-1,.272.859.859,0,0,0-.357.718.823.823,0,0,0,.419.7,4.733,4.733,0,0,0,1.233.527,5.329,5.329,0,0,1,2.186,1.119A2.229,2.229,0,0,1,67.8,25.75a2.053,2.053,0,0,1-.838,1.737,3.668,3.668,0,0,1-2.256.63,4.356,4.356,0,0,1-1.793-.36,2.837,2.837,0,0,1-1.233-.987,2.528,2.528,0,0,1-.425-1.453h1.764q0,1.412,1.688,1.412a1.642,1.642,0,0,0,.979-.255A.829.829,0,0,0,66.035,25.762Z" transform="translate(872 2091)" fill="#12263f"/>
    <path id="Trazado_117308" data-name="Trazado 117308" d="M9.512,4.469v5.619A2.877,2.877,0,0,1,8.636,12.3a3.377,3.377,0,0,1-2.394.814,3.415,3.415,0,0,1-2.373-.791,2.828,2.828,0,0,1-.9-2.174V4.469H4.73V10.1a1.626,1.626,0,0,0,.4,1.222,1.541,1.541,0,0,0,1.11.384q1.482,0,1.506-1.559V4.469ZM17.891,13H16.133L12.711,7.387V13H10.953V4.469h1.758l3.428,5.625V4.469h1.752Zm3.4,0H19.537V4.469h1.758Zm1.629,0V4.469h2.625a3.986,3.986,0,0,1,2.013.507,3.534,3.534,0,0,1,1.386,1.441,4.446,4.446,0,0,1,.5,2.124v.393a4.458,4.458,0,0,1-.489,2.115,3.5,3.5,0,0,1-1.38,1.436,4.016,4.016,0,0,1-2.01.516Zm1.758-7.107v5.7h.85a1.909,1.909,0,0,0,1.576-.674,3.045,3.045,0,0,0,.557-1.928V8.535a3.093,3.093,0,0,0-.539-1.972,1.9,1.9,0,0,0-1.576-.671Zm10.857,5.35H32.457L31.871,13H30l3.176-8.531h1.629L38,13H36.131ZM32.932,9.818h2.133L33.992,6.625ZM38.8,13V4.469h2.625a3.986,3.986,0,0,1,2.013.507A3.534,3.534,0,0,1,44.82,6.417a4.446,4.446,0,0,1,.5,2.124v.393a4.458,4.458,0,0,1-.489,2.115,3.5,3.5,0,0,1-1.38,1.436,4.016,4.016,0,0,1-2.01.516Zm1.758-7.107v5.7h.85a1.909,1.909,0,0,0,1.576-.674,3.045,3.045,0,0,0,.557-1.928V8.535A3.093,3.093,0,0,0,43,6.563a1.9,1.9,0,0,0-1.576-.671ZM51.729,9.3H48.354v2.285h3.961V13H46.6V4.469H52.3V5.893H48.354V7.926h3.375Zm6.041,1.459A.9.9,0,0,0,57.418,10a4.611,4.611,0,0,0-1.266-.562,8.972,8.972,0,0,1-1.447-.583,2.365,2.365,0,0,1-1.453-2.115,2.06,2.06,0,0,1,.39-1.233,2.542,2.542,0,0,1,1.119-.847,4.212,4.212,0,0,1,1.638-.3,3.834,3.834,0,0,1,1.629.331,2.594,2.594,0,0,1,1.11.935,2.445,2.445,0,0,1,.4,1.371H57.775a1.15,1.15,0,0,0-.369-.911,1.517,1.517,0,0,0-1.037-.325,1.621,1.621,0,0,0-1,.272.859.859,0,0,0-.357.718.823.823,0,0,0,.419.7,4.733,4.733,0,0,0,1.233.527,5.329,5.329,0,0,1,2.186,1.119,2.229,2.229,0,0,1,.686,1.664,2.053,2.053,0,0,1-.838,1.737,3.668,3.668,0,0,1-2.256.63,4.356,4.356,0,0,1-1.793-.36,2.837,2.837,0,0,1-1.233-.987,2.528,2.528,0,0,1-.425-1.453h1.764q0,1.412,1.688,1.412a1.642,1.642,0,0,0,.979-.255A.829.829,0,0,0,57.77,10.762ZM70.648,13H68.891L65.469,7.387V13H63.711V4.469h1.758L68.9,10.094V4.469h1.752Zm8.543-4.072a5.15,5.15,0,0,1-.445,2.209A3.354,3.354,0,0,1,77.472,12.6a3.766,3.766,0,0,1-3.794.006,3.387,3.387,0,0,1-1.289-1.456,5,5,0,0,1-.463-2.177V8.553a5.123,5.123,0,0,1,.454-2.218,3.381,3.381,0,0,1,1.283-1.471,3.76,3.76,0,0,1,3.791,0,3.381,3.381,0,0,1,1.283,1.471,5.109,5.109,0,0,1,.454,2.212ZM77.41,8.541A3.59,3.59,0,0,0,76.93,6.5a1.7,1.7,0,0,0-2.736-.009,3.549,3.549,0,0,0-.486,2.019v.416a3.635,3.635,0,0,0,.48,2.027,1.682,1.682,0,0,0,2.742.026,3.614,3.614,0,0,0,.48-2.024ZM12.576,25.158a3.019,3.019,0,0,1-1.017,2.168,3.57,3.57,0,0,1-2.417.791,3.21,3.21,0,0,1-2.581-1.1,4.529,4.529,0,0,1-.94-3.032v-.521a5.114,5.114,0,0,1,.434-2.168,3.249,3.249,0,0,1,1.239-1.438,3.471,3.471,0,0,1,1.872-.5,3.478,3.478,0,0,1,2.379.791,3.244,3.244,0,0,1,1.043,2.221H10.83a1.782,1.782,0,0,0-.46-1.2,1.7,1.7,0,0,0-1.2-.372,1.494,1.494,0,0,0-1.315.63A3.53,3.53,0,0,0,7.4,23.377v.645a3.778,3.778,0,0,0,.419,2.021,1.466,1.466,0,0,0,1.321.639,1.735,1.735,0,0,0,1.216-.372,1.681,1.681,0,0,0,.46-1.151Zm8.162-1.23a5.15,5.15,0,0,1-.445,2.209A3.354,3.354,0,0,1,19.019,27.6a3.766,3.766,0,0,1-3.794.006,3.387,3.387,0,0,1-1.289-1.456,5,5,0,0,1-.463-2.177v-.422a5.123,5.123,0,0,1,.454-2.218,3.381,3.381,0,0,1,1.283-1.471,3.76,3.76,0,0,1,3.791,0,3.381,3.381,0,0,1,1.283,1.471,5.109,5.109,0,0,1,.454,2.212Zm-1.781-.387a3.59,3.59,0,0,0-.48-2.039,1.7,1.7,0,0,0-2.736-.009,3.549,3.549,0,0,0-.486,2.019v.416a3.635,3.635,0,0,0,.48,2.027,1.682,1.682,0,0,0,2.742.026,3.614,3.614,0,0,0,.48-2.024Zm10,4.459H27.2l-3.422-5.613V28H22.016V19.469h1.758L27.2,25.094V19.469h1.752Zm6.668-3.486H32.246V28H30.488V19.469h5.555v1.424h-3.8v2.2h3.375Zm8.449-.586a5.15,5.15,0,0,1-.445,2.209A3.354,3.354,0,0,1,42.351,27.6a3.766,3.766,0,0,1-3.794.006,3.387,3.387,0,0,1-1.289-1.456,5,5,0,0,1-.463-2.177v-.422a5.123,5.123,0,0,1,.454-2.218,3.381,3.381,0,0,1,1.283-1.471,3.76,3.76,0,0,1,3.791,0,3.381,3.381,0,0,1,1.283,1.471,5.109,5.109,0,0,1,.454,2.212Zm-1.781-.387a3.59,3.59,0,0,0-.48-2.039,1.7,1.7,0,0,0-2.736-.009,3.549,3.549,0,0,0-.486,2.019v.416a3.635,3.635,0,0,0,.48,2.027,1.682,1.682,0,0,0,2.742.026,3.614,3.614,0,0,0,.48-2.024Zm6.217,1.336h-1.4V28H45.348V19.469h3.17a3.583,3.583,0,0,1,2.332.674,2.326,2.326,0,0,1,.82,1.9,2.625,2.625,0,0,1-.378,1.456,2.578,2.578,0,0,1-1.146.929l1.846,3.486V28H50.105Zm-1.4-1.424h1.418a1.452,1.452,0,0,0,1.025-.337,1.2,1.2,0,0,0,.363-.929,1.289,1.289,0,0,0-.343-.949,1.424,1.424,0,0,0-1.052-.346H47.105Zm8.2-3.984,2.191,6.188,2.18-6.187h2.309V28H60.219V25.668l.176-4.025L58.092,28H56.885l-2.3-6.352.176,4.02V28H53.006V19.469ZM68.65,24.3H65.275v2.285h3.961V28H63.518V19.469h5.707v1.424H65.275v2.033H68.65Zm6.041,1.459A.9.9,0,0,0,74.34,25a4.611,4.611,0,0,0-1.266-.562,8.972,8.972,0,0,1-1.447-.583,2.365,2.365,0,0,1-1.453-2.115,2.06,2.06,0,0,1,.39-1.233,2.542,2.542,0,0,1,1.119-.847,4.212,4.212,0,0,1,1.638-.3,3.834,3.834,0,0,1,1.629.331,2.594,2.594,0,0,1,1.11.935,2.445,2.445,0,0,1,.4,1.371H74.7a1.15,1.15,0,0,0-.369-.911,1.517,1.517,0,0,0-1.037-.325,1.621,1.621,0,0,0-1,.272.859.859,0,0,0-.357.718.823.823,0,0,0,.419.7,4.733,4.733,0,0,0,1.233.527,5.329,5.329,0,0,1,2.186,1.119,2.229,2.229,0,0,1,.686,1.664,2.053,2.053,0,0,1-.838,1.737,3.668,3.668,0,0,1-2.256.63,4.356,4.356,0,0,1-1.793-.36,2.837,2.837,0,0,1-1.233-.987,2.528,2.528,0,0,1-.425-1.453h1.764q0,1.412,1.688,1.412a1.642,1.642,0,0,0,.979-.255A.829.829,0,0,0,74.691,25.762Z" transform="translate(954 2091)" fill="#12263f"/>
    <path id="Trazado_117316" data-name="Trazado 117316" d="M12.4,17H10.059V5.625H12.4Zm4.1-8.453.07.977A2.951,2.951,0,0,1,19,8.391a2.453,2.453,0,0,1,2,.789,3.682,3.682,0,0,1,.672,2.359V17H19.418V11.594a1.465,1.465,0,0,0-.312-1.043,1.4,1.4,0,0,0-1.039-.324,1.553,1.553,0,0,0-1.43.813V17H14.379V8.547Zm11.461,6.117a.727.727,0,0,0-.41-.652,4.659,4.659,0,0,0-1.316-.426q-3.016-.633-3.016-2.562a2.323,2.323,0,0,1,.934-1.879A3.766,3.766,0,0,1,26.6,8.391a4.053,4.053,0,0,1,2.574.758,2.388,2.388,0,0,1,.965,1.969H27.879a1.092,1.092,0,0,0-.312-.8A1.322,1.322,0,0,0,26.59,10a1.351,1.351,0,0,0-.883.258.814.814,0,0,0-.312.656.7.7,0,0,0,.355.605,3.657,3.657,0,0,0,1.2.4,9.8,9.8,0,0,1,1.422.379A2.336,2.336,0,0,1,30.16,14.57a2.2,2.2,0,0,1-.992,1.871,4.28,4.28,0,0,1-2.562.715,4.47,4.47,0,0,1-1.887-.379,3.166,3.166,0,0,1-1.293-1.039,2.414,2.414,0,0,1-.469-1.426H25.1a1.179,1.179,0,0,0,.445.922,1.766,1.766,0,0,0,1.109.32,1.635,1.635,0,0,0,.98-.246A.766.766,0,0,0,27.965,14.664Zm11.258-1.812a5.07,5.07,0,0,1-.887,3.129,2.843,2.843,0,0,1-2.395,1.176,2.633,2.633,0,0,1-2.07-.891V20.25H31.613V8.547h2.094l.078.828a2.654,2.654,0,0,1,2.141-.984,2.862,2.862,0,0,1,2.43,1.156,5.207,5.207,0,0,1,.867,3.188Zm-2.258-.164a3.327,3.327,0,0,0-.418-1.82,1.361,1.361,0,0,0-1.215-.641,1.479,1.479,0,0,0-1.461.813V14.5a1.5,1.5,0,0,0,1.477.836Q36.965,15.336,36.965,12.688Zm7.547,4.469a4.15,4.15,0,0,1-3.027-1.141,4.054,4.054,0,0,1-1.168-3.039v-.219a5.106,5.106,0,0,1,.492-2.277A3.612,3.612,0,0,1,42.2,8.934a3.914,3.914,0,0,1,2.059-.543,3.508,3.508,0,0,1,2.73,1.094,4.444,4.444,0,0,1,1,3.1v.922H42.605a2.1,2.1,0,0,0,.66,1.328,2,2,0,0,0,1.395.5,2.437,2.437,0,0,0,2.039-.945l1.109,1.242a3.389,3.389,0,0,1-1.375,1.121A4.511,4.511,0,0,1,44.512,17.156Zm-.258-6.945a1.411,1.411,0,0,0-1.09.455,2.357,2.357,0,0,0-.535,1.3H45.77v-.181a1.681,1.681,0,0,0-.406-1.165A1.456,1.456,0,0,0,44.254,10.211Zm8.531,5.125a1.481,1.481,0,0,0,1.016-.344,1.2,1.2,0,0,0,.406-.914h2.117a2.9,2.9,0,0,1-.469,1.574,3.093,3.093,0,0,1-1.262,1.109,3.949,3.949,0,0,1-1.77.395A3.67,3.67,0,0,1,49.965,16a4.56,4.56,0,0,1-1.047-3.184v-.148a4.508,4.508,0,0,1,1.039-3.117,3.627,3.627,0,0,1,2.852-1.164,3.555,3.555,0,0,1,2.543.9,3.2,3.2,0,0,1,.973,2.4H54.207a1.551,1.551,0,0,0-.406-1.072,1.51,1.51,0,0,0-2.223.163,3.333,3.333,0,0,0-.4,1.866v.235a3.375,3.375,0,0,0,.4,1.878A1.377,1.377,0,0,0,52.785,15.336Zm7.531-8.867V8.547h1.445V10.2H60.316v4.219a1.007,1.007,0,0,0,.18.672.9.9,0,0,0,.688.2,3.6,3.6,0,0,0,.664-.055v1.711a4.648,4.648,0,0,1-1.367.2,2.156,2.156,0,0,1-2.422-2.4V10.2H56.824V8.547h1.234V6.469ZM62.434,12.7a5.013,5.013,0,0,1,.484-2.242A3.546,3.546,0,0,1,64.313,8.93a4.069,4.069,0,0,1,2.113-.539,3.849,3.849,0,0,1,2.793,1.047,4.2,4.2,0,0,1,1.207,2.844l.016.578a4.418,4.418,0,0,1-1.086,3.121,4.209,4.209,0,0,1-5.832,0,4.5,4.5,0,0,1-1.09-3.187Zm2.258.16a3.16,3.16,0,0,0,.453,1.843,1.628,1.628,0,0,0,2.578.008,3.457,3.457,0,0,0,.461-2.015,3.128,3.128,0,0,0-.461-1.831,1.5,1.5,0,0,0-1.3-.649,1.474,1.474,0,0,0-1.281.646A3.516,3.516,0,0,0,64.691,12.856Zm11.891-2.192a6.134,6.134,0,0,0-.812-.062,1.654,1.654,0,0,0-1.68.867V17H71.832V8.547h2.133l.063,1.008A2.092,2.092,0,0,1,75.91,8.391a2.366,2.366,0,0,1,.7.1Zm5.781,7.313h-1.68L84.871,5.625h1.68ZM96.512,17a2.507,2.507,0,0,1-.227-.758,2.732,2.732,0,0,1-2.133.914,3,3,0,0,1-2.059-.719,2.312,2.312,0,0,1-.816-1.812,2.389,2.389,0,0,1,1-2.062,4.915,4.915,0,0,1,2.879-.727h1.039v-.484a1.393,1.393,0,0,0-.3-.937,1.183,1.183,0,0,0-.949-.352,1.345,1.345,0,0,0-.895.273.929.929,0,0,0-.324.75H91.465a2.268,2.268,0,0,1,.453-1.359,3,3,0,0,1,1.281-.98,4.669,4.669,0,0,1,1.859-.355,3.689,3.689,0,0,1,2.48.785,2.747,2.747,0,0,1,.918,2.207v3.664a4.041,4.041,0,0,0,.336,1.82V17Zm-1.867-1.57a1.945,1.945,0,0,0,.922-.223,1.462,1.462,0,0,0,.625-.6V13.156h-.844q-1.7,0-1.8,1.172l-.008.133a.9.9,0,0,0,.3.7A1.153,1.153,0,0,0,94.645,15.43Zm10.609.711a2.831,2.831,0,0,1-2.312,1.016,2.67,2.67,0,0,1-2.074-.781,3.335,3.335,0,0,1-.73-2.289V8.547h2.258v5.467q0,1.322,1.2,1.322a1.63,1.63,0,0,0,1.578-.8V8.547h2.266V17h-2.125Zm3.539-3.43a5.094,5.094,0,0,1,.887-3.148,2.877,2.877,0,0,1,2.426-1.172,2.589,2.589,0,0,1,2.039.922V5h2.266V17h-2.039l-.109-.9a2.657,2.657,0,0,1-2.172,1.055A2.869,2.869,0,0,1,109.7,15.98,5.258,5.258,0,0,1,108.793,12.711Zm2.258.168a3.337,3.337,0,0,0,.414,1.823,1.349,1.349,0,0,0,1.2.634,1.511,1.511,0,0,0,1.477-.884V11.111a1.489,1.489,0,0,0-1.461-.884Q111.051,10.227,111.051,12.879ZM120.543,17h-2.266V8.547h2.266Zm-2.4-10.641a1.112,1.112,0,0,1,.34-.836,1.465,1.465,0,0,1,1.848,0,1.105,1.105,0,0,1,.344.836,1.108,1.108,0,0,1-.348.844,1.448,1.448,0,0,1-1.836,0A1.108,1.108,0,0,1,118.145,6.359Zm6.961.109V8.547h1.445V10.2h-1.445v4.219a1.007,1.007,0,0,0,.18.672.9.9,0,0,0,.688.2,3.6,3.6,0,0,0,.664-.055v1.711a4.648,4.648,0,0,1-1.367.2,2.156,2.156,0,0,1-2.422-2.4V10.2h-1.234V8.547h1.234V6.469Zm2.117,6.227a5.013,5.013,0,0,1,.484-2.242A3.546,3.546,0,0,1,129.1,8.93a4.069,4.069,0,0,1,2.113-.539,3.849,3.849,0,0,1,2.793,1.047,4.2,4.2,0,0,1,1.207,2.844l.016.578a4.418,4.418,0,0,1-1.086,3.121,4.209,4.209,0,0,1-5.832,0,4.5,4.5,0,0,1-1.09-3.187Zm2.258.16a3.16,3.16,0,0,0,.453,1.843,1.628,1.628,0,0,0,2.578.008,3.457,3.457,0,0,0,.461-2.015,3.128,3.128,0,0,0-.461-1.831,1.5,1.5,0,0,0-1.3-.649,1.474,1.474,0,0,0-1.281.646A3.516,3.516,0,0,0,129.48,12.856Zm11.891-2.192a6.134,6.134,0,0,0-.812-.062,1.654,1.654,0,0,0-1.68.867V17h-2.258V8.547h2.133l.063,1.008A2.092,2.092,0,0,1,140.7,8.391a2.366,2.366,0,0,1,.7.1Zm1.2,5.227a1.137,1.137,0,0,1,.363-.875,1.412,1.412,0,0,1,1.828,0,1.137,1.137,0,0,1,.363.875,1.121,1.121,0,0,1-.359.863,1.435,1.435,0,0,1-1.836,0A1.121,1.121,0,0,1,142.566,15.891Zm0-6.4a1.137,1.137,0,0,1,.363-.875,1.412,1.412,0,0,1,1.828,0,1.137,1.137,0,0,1,.363.875,1.121,1.121,0,0,1-.359.863,1.435,1.435,0,0,1-1.836,0A1.121,1.121,0,0,1,142.566,9.492Z" transform="translate(180 2052)" fill="#12263f"/>
    <line id="Línea_760" data-name="Línea 760" y2="325.464" transform="translate(239.5 2078)" fill="none" stroke="#707070" stroke-width="1"/>
    <line id="Línea_761" data-name="Línea 761" y2="326" transform="translate(388 2078)" fill="none" stroke="#707070" stroke-width="1"/>
    <line id="Línea_762" data-name="Línea 762" y2="326" transform="translate(558 2078)" fill="none" stroke="#707070" stroke-width="1"/>
    <line id="Línea_763" data-name="Línea 763" y2="326" transform="translate(652 2078)" fill="none" stroke="#707070" stroke-width="1"/>
    <line id="Línea_764" data-name="Línea 764" y2="326" transform="translate(714 2078)" fill="none" stroke="#707070" stroke-width="1"/>
    <line id="Línea_765" data-name="Línea 765" y2="325.464" transform="translate(862.5 2078)" fill="none" stroke="#707070" stroke-width="1"/>
    <line id="Línea_766" data-name="Línea 766" y2="325.464" transform="translate(947.5 2078)" fill="none" stroke="#707070" stroke-width="1"/>
    <line id="Línea_767" data-name="Línea 767" y2="326" transform="translate(1043 2078)" fill="none" stroke="#707070" stroke-width="1"/>
    <line id="Línea_768" data-name="Línea 768" y2="326" transform="translate(1116 2078)" fill="none" stroke="#707070" stroke-width="1"/>
    <g id="Rectángulo_8689" data-name="Rectángulo 8689" transform="translate(180 1980)" fill="none" stroke="#8f2b58" stroke-width="2">
      <rect width="1124" height="424" stroke="none"/>
      <rect x="1" y="1" width="1122" height="422" fill="none"/>
    </g>
    <g id="Cuadrícula_de_repetición_1" data-name="Cuadrícula de repetición 1" transform="translate(180 2130.5)" clip-path="url(#clip-path)">
      <g transform="translate(-180 -2785.5)">
        <line id="Línea_769" data-name="Línea 769" x2="1124" transform="translate(180 2786)" fill="none" stroke="#707070" stroke-width="1"/>
      </g>
      <g transform="translate(-180 -2764.5)">
        <line id="Línea_769-2" data-name="Línea 769" x2="1124" transform="translate(180 2786)" fill="none" stroke="#707070" stroke-width="1"/>
      </g>
      <g transform="translate(-180 -2743.5)">
        <line id="Línea_769-3" data-name="Línea 769" x2="1124" transform="translate(180 2786)" fill="none" stroke="#707070" stroke-width="1"/>
      </g>
      <g transform="translate(-180 -2722.5)">
        <line id="Línea_769-4" data-name="Línea 769" x2="1124" transform="translate(180 2786)" fill="none" stroke="#707070" stroke-width="1"/>
      </g>
      <g transform="translate(-180 -2701.5)">
        <line id="Línea_769-5" data-name="Línea 769" x2="1124" transform="translate(180 2786)" fill="none" stroke="#707070" stroke-width="1"/>
      </g>
      <g transform="translate(-180 -2680.5)">
        <line id="Línea_769-6" data-name="Línea 769" x2="1124" transform="translate(180 2786)" fill="none" stroke="#707070" stroke-width="1"/>
      </g>
      <g transform="translate(-180 -2659.5)">
        <line id="Línea_769-7" data-name="Línea 769" x2="1124" transform="translate(180 2786)" fill="none" stroke="#707070" stroke-width="1"/>
      </g>
      <g transform="translate(-180 -2638.5)">
        <line id="Línea_769-8" data-name="Línea 769" x2="1124" transform="translate(180 2786)" fill="none" stroke="#707070" stroke-width="1"/>
      </g>
      <g transform="translate(-180 -2617.5)">
        <line id="Línea_769-9" data-name="Línea 769" x2="1124" transform="translate(180 2786)" fill="none" stroke="#707070" stroke-width="1"/>
      </g>
      <g transform="translate(-180 -2596.5)">
        <line id="Línea_769-10" data-name="Línea 769" x2="1124" transform="translate(180 2786)" fill="none" stroke="#707070" stroke-width="1"/>
      </g>
      <g transform="translate(-180 -2575.5)">
        <line id="Línea_769-11" data-name="Línea 769" x2="1124" transform="translate(180 2786)" fill="none" stroke="#707070" stroke-width="1"/>
      </g>
      <g transform="translate(-180 -2554.5)">
        <line id="Línea_769-12" data-name="Línea 769" x2="1124" transform="translate(180 2786)" fill="none" stroke="#707070" stroke-width="1"/>
      </g>
      <g transform="translate(-180 -2533.5)">
        <line id="Línea_769-13" data-name="Línea 769" x2="1124" transform="translate(180 2786)" fill="none" stroke="#707070" stroke-width="1"/>
      </g>
      <g transform="translate(-180 -2512.5)">
        <line id="Línea_769-14" data-name="Línea 769" x2="1124" transform="translate(180 2786)" fill="none" stroke="#707070" stroke-width="1"/>
      </g>
    </g>
  </g>
</svg>
