<svg xmlns="http://www.w3.org/2000/svg" width="292" height="86.336" viewBox="0 0 292 86.336">
  <g id="Grupo_70256" data-name="Grupo 70256" transform="translate(-1012 -1538.664)">
    <g id="Grupo_61403" data-name="Grupo 61403" transform="translate(1903.003 1558.12)">
      <path id="Trazado_109145" data-name="Trazado 109145" d="M-655.589,343.911c-.084-.253,1.012-13.914,1.012-13.914l10.288-1.94.422-6.178,16.591.612s-1.075,8.1-.822,8.18,7.421,2.171,7.336,2.224.632,12.449.632,12.449l-36.05.568Z" transform="translate(-108.99 -284.368)" fill="#0ac4bf"/>
      <rect id="Rect치ngulo_7060" data-name="Rect치ngulo 7060" width="23.211" height="20.049" transform="translate(-729.119 12.847)" fill="#339ce9"/>
      <path id="Trazado_109146" data-name="Trazado 109146" d="M-766.9,162.853l5.06.675s2.277,1.221,2.361,1.833,3.12,2.973,3.12,3.564.59,3.289.59,3.963a35.744,35.744,0,0,1-1.434,4.49l-2.864,3.061s-1.184,2.147-1.563,2.99-.079,1.96-.97,1.96-6.247.4-6.247.4a6.637,6.637,0,0,1-1.342-.843,19.143,19.143,0,0,0-2.277-2.783,30.118,30.118,0,0,1-3.542-4.216c-.169-.422-.422-5.313-.422-5.566s2.614-5.566,2.614-5.566,3.542-3.542,3.795-3.542S-766.9,162.853-766.9,162.853Z" transform="translate(-8.807 -151.882)" fill="#ffce00"/>
      <path id="Trazado_109147" data-name="Trazado 109147" d="M-603.116,7.176l5.06.675s4.792,1.337,4.876,1.949.605,2.858.605,3.448,2.81,5.048,2.81,5.722a11.559,11.559,0,0,1-.522,2.277l-2.893,4.364s.38,2.7,0,3.542-4.745.559-5.635.559-4.547,3.046-4.547,3.046-2.873-3.235-3.042-3.488-4.8.2-5.053.2-.654-4.062-.822-4.484-2.973-4.37-2.973-4.623,3.38-9.74,3.38-9.74,5.384-3.024,5.637-3.024S-603.116,7.176-603.116,7.176Z" transform="translate(-143.085 -22.187)" fill="#ffce00"/>
      <g id="Grupo_61402" data-name="Grupo 61402" transform="translate(-787.003 -19.456)">
        <path id="Trazado_109148" data-name="Trazado 109148" d="M-578.989,49.9a8.019,8.019,0,0,0,8.011-8.011,8.019,8.019,0,0,0-8.011-8.011A8.019,8.019,0,0,0-587,41.891,8.019,8.019,0,0,0-578.989,49.9Zm0-13.352a5.346,5.346,0,0,1,5.341,5.341,5.346,5.346,0,0,1-5.341,5.341,5.346,5.346,0,0,1-5.341-5.341A5.346,5.346,0,0,1-578.989,36.55Z" transform="translate(620.38 -24.978)"/>
        <path id="Trazado_109149" data-name="Trazado 109149" d="M-711.191,10.808a36.37,36.37,0,0,0-22.572-23.356l.983-2.469-4.026.805a6.9,6.9,0,0,1-6.831-2.61l-1.975-2.634-1.975,2.634a6.9,6.9,0,0,1-6.831,2.61l-4.026-.805.983,2.467a35.935,35.935,0,0,0-22.5,23.11,12.086,12.086,0,0,0-6.942,9.356,11.962,11.962,0,0,0,5.453,11.7,2.626,2.626,0,0,1,1.123,2.226v2.337a5.33,5.33,0,0,0,4.708,5.277,36.482,36.482,0,0,0,9.979,10V60.21h-16.022v2.67h72.1V60.21h-18.692V53.075A36.087,36.087,0,0,0-714.8,40.182h7.912v-2.67h-2.67v-2.67h5.341V10.808Zm4.3,10.681h-5.341V13.479h5.341Zm-13.352,10.681V24.16h5.341v8.011Zm-8.011-8.011h5.341v8.011h-5.341Zm0-2.67V13.479h5.341V21.49Zm8.011,0V13.479h5.341V21.49ZM-754.409-11.5a9.588,9.588,0,0,0,8.8-3.509,9.587,9.587,0,0,0,8.8,3.509,9.472,9.472,0,0,0,3.441,8.946A9.536,9.536,0,0,0-737,6.214a9.481,9.481,0,0,0-8.617,3.708,9.59,9.59,0,0,0-7.482-3.6,9.267,9.267,0,0,0-1.315.092,9.471,9.471,0,0,0-3.457-8.959,9.475,9.475,0,0,0,3.458-8.959Zm-25.6,40.867a9.308,9.308,0,0,1-4.242-9.11,9.382,9.382,0,0,1,8.171-8.05,9.967,9.967,0,0,1,1.106-.061,9.239,9.239,0,0,1,6.213,2.374,9.355,9.355,0,0,1,3.123,6.972,9.311,9.311,0,0,1-4.3,7.86,5.21,5.21,0,0,0-2.361,4.156h-1.351V25.25a4,4,0,0,0,2.67-3.76,4.01,4.01,0,0,0-4.005-4.006,4.01,4.01,0,0,0-4.005,4.006,4,4,0,0,0,2.67,3.76v8.257h-1.355a5.2,5.2,0,0,0-2.334-4.142Zm3.689-7.875a1.337,1.337,0,0,1,1.335-1.335,1.337,1.337,0,0,1,1.335,1.335,1.337,1.337,0,0,1-1.335,1.335A1.337,1.337,0,0,1-776.321,21.49Zm-1.335,14.687h5.341a2.673,2.673,0,0,1-2.67,2.67A2.673,2.673,0,0,1-777.656,36.177Zm38.72,2.67v6.115l-5.341-1.068V60.21h-5.341V41.224l-2.67.534V38.847Zm-13.352,5.634V60.21h-10.681V46.618Zm10.681,15.728V47.152l10.681,2.136V60.21ZM-728.255,50V47.1l-8.011-1.6v-9.32h-2.67v-2.67h-2.67v2.67h-2.67V30.836h-2.67v5.341h-2.67v-2.67h-2.67v2.67h-2.67v6.115l-10.681,2.136v3.75a33.824,33.824,0,0,1-7.066-7.193,5.333,5.333,0,0,0,3.06-4.809V33.784a2.605,2.605,0,0,1,1.151-2.188,11.967,11.967,0,0,0,5.525-10.106,12.032,12.032,0,0,0-4.014-8.963,12.072,12.072,0,0,0-9.4-2.975c-.146.016-.287.047-.431.068A33.268,33.268,0,0,1-756.974-9.895,6.812,6.812,0,0,1-760.294-4.1l-2.6,1.561,2.6,1.561a6.828,6.828,0,0,1,2.837,8.429l-.988,2.483,4.026-.805a6.9,6.9,0,0,1,6.831,2.61l1.975,2.634,2.1-2.8a6.836,6.836,0,0,1,6.588-2.654l3.752.612-.8-2.152a6.861,6.861,0,0,1,2.9-8.271l2.748-1.649-2.6-1.561a6.814,6.814,0,0,1-3.318-5.788,33.708,33.708,0,0,1,20.26,20.7h-16.937V34.841h5.341v2.67h-2.67v2.67h10.3A33.423,33.423,0,0,1-728.255,50Zm16.022-12.485h-10.681v-2.67h10.681Zm0-5.341V24.16h5.341v8.011Z" transform="translate(787.003 19.456)"/>
        <path id="Trazado_109150" data-name="Trazado 109150" d="M-307,457.88h2.67v2.67H-307Z" transform="translate(387.111 -378.214)"/>
        <path id="Trazado_109151" data-name="Trazado 109151" d="M-787,457.88h2.67v2.67H-787Z" transform="translate(787 -378.214)"/>
        <path id="Trazado_109152" data-name="Trazado 109152" d="M-499,425.88h5.341v2.67H-499Z" transform="translate(547.067 -351.555)"/>
        <path id="Trazado_109153" data-name="Trazado 109153" d="M-627,393.88h5.341v2.67H-627Z" transform="translate(653.704 -324.896)"/>
        <path id="Trazado_109154" data-name="Trazado 109154" d="M-627,425.88h5.341v2.67H-627Z" transform="translate(653.704 -351.555)"/>
        <path id="Trazado_109155" data-name="Trazado 109155" d="M-595,201.88h18.692v2.67H-595Z" transform="translate(627.045 -164.94)"/>
        <path id="Trazado_109156" data-name="Trazado 109156" d="M-499,233.88h2.67v2.67H-499Z" transform="translate(547.067 -191.599)"/>
        <path id="Trazado_109157" data-name="Trazado 109157" d="M-563,233.88h2.67v2.67H-563Z" transform="translate(600.385 -191.599)"/>
        <path id="Trazado_109158" data-name="Trazado 109158" d="M-595,233.88h2.67v2.67H-595Z" transform="translate(627.045 -191.599)"/>
        <path id="Trazado_109159" data-name="Trazado 109159" d="M-531,233.88h2.67v2.67H-531Z" transform="translate(573.726 -191.599)"/>
      </g>
    </g>
    <rect id="Rect치ngulo_7270" data-name="Rect치ngulo 7270" width="292" height="86" transform="translate(1012 1539)" fill="none"/>
  </g>
</svg>
