<svg xmlns="http://www.w3.org/2000/svg" width="396" height="86" viewBox="0 0 396 86">
  <g id="Grupo_70255" data-name="Grupo 70255" transform="translate(-596 -1539)">
    <g id="group_1_" data-name="group (1)" transform="translate(752 1545.172)">
      <path id="Trazado_109101" data-name="Trazado 109101" d="M350.518,320H320.3V306.65a7.165,7.165,0,0,1,7.165-7.166h15.89a7.166,7.166,0,0,1,7.166,7.166Zm0,0" transform="translate(-267.748 -249.933)" fill="#bf3976"/>
      <path id="Trazado_109102" data-name="Trazado 109102" d="M401,276.724a2.443,2.443,0,0,1-2.442-2.442V267.43h4.884v6.852A2.442,2.442,0,0,1,401,276.724Zm0,0" transform="translate(-333.169 -223.137)" fill="#e39f6e"/>
      <path id="Trazado_109103" data-name="Trazado 109103" d="M329.748,107.3H355.59l.682-3.325a13.886,13.886,0,1,0-27.206,0Zm0,0" transform="translate(-274.837 -72.56)" fill="#ba6f3c"/>
      <path id="Trazado_109104" data-name="Trazado 109104" d="M467.475,200.374a3.288,3.288,0,1,1-3.288-3.288A3.289,3.289,0,0,1,467.475,200.374Zm0,0" transform="translate(-385.281 -164.334)" fill="#e39f6e"/>
      <path id="Trazado_109105" data-name="Trazado 109105" d="M332.475,200.374a3.288,3.288,0,0,1-6.577,0,3.178,3.178,0,0,1,.1-.8,3.288,3.288,0,0,1,6.389.055,3.251,3.251,0,0,1,.087.75Zm0,0" transform="translate(-272.43 -164.334)" fill="#e39f6e"/>
      <path id="Trazado_109106" data-name="Trazado 109106" d="M332.9,199.625a6.334,6.334,0,0,1-6.389-.056,3.288,3.288,0,0,1,6.389.056Zm0,0" transform="translate(-272.943 -164.334)" fill="#d88852"/>
      <path id="Trazado_109107" data-name="Trazado 109107" d="M350.359,161.07l1.128,9.024.427,3.423a8.863,8.863,0,0,0,17.589,0l1.555-12.447Zm0,0" transform="translate(-292.878 -134.227)" fill="#f8c298"/>
      <path id="Trazado_109108" data-name="Trazado 109108" d="M355.626,160.7a6.359,6.359,0,0,1-4.55,6.088l-1.209-9.674h4.647a6.318,6.318,0,0,1,1.111,3.586Zm0,0" transform="translate(-292.467 -130.916)" fill="#e39f6e"/>
      <path id="Trazado_109109" data-name="Trazado 109109" d="M338.574,150.75s2.207,2.189,8.148,2.346a.666.666,0,0,0,.684-.668v-.882s2.16,1.418,6.738,1.549a.666.666,0,0,0,.684-.668v-.5s1.78,1.087,7.116,1.173a.668.668,0,0,0,.677-.668v-3.244a.769.769,0,0,0-.769-.769H340.9a2.332,2.332,0,0,0-2.331,2.331Zm0,0" transform="translate(-283.026 -123.651)" fill="#ba6f3c"/>
      <path id="Trazado_109110" data-name="Trazado 109110" d="M37.721,320H7.5V306.65a7.166,7.166,0,0,1,7.166-7.166h15.89a7.165,7.165,0,0,1,7.165,7.166Zm0,0" transform="translate(-6.269 -249.933)" fill="#0ac4bf"/>
      <path id="Trazado_109111" data-name="Trazado 109111" d="M88.2,276.724a2.443,2.443,0,0,1-2.442-2.442V267.43h4.885v6.852A2.443,2.443,0,0,1,88.2,276.724Zm0,0" transform="translate(-71.691 -223.137)" fill="#e39f6e"/>
      <path id="Trazado_109112" data-name="Trazado 109112" d="M16.954,107.3H42.8l.681-3.325a13.885,13.885,0,1,0-27.205,0Zm0,0" transform="translate(-13.362 -72.56)" fill="#ba6f3c"/>
      <path id="Trazado_109113" data-name="Trazado 109113" d="M154.682,200.374a3.288,3.288,0,0,1-6.577,0,3.178,3.178,0,0,1,.1-.8,3.287,3.287,0,0,1,6.389.057,3.237,3.237,0,0,1,.087.748Zm0,0" transform="translate(-123.806 -164.334)" fill="#e39f6e"/>
      <path id="Trazado_109114" data-name="Trazado 109114" d="M155.107,199.626a6.338,6.338,0,0,1-6.389-.057,3.287,3.287,0,0,1,6.389.057Zm0,0" transform="translate(-124.319 -164.334)" fill="#d88852"/>
      <path id="Trazado_109115" data-name="Trazado 109115" d="M19.682,200.374a3.288,3.288,0,1,1-3.288-3.288A3.289,3.289,0,0,1,19.682,200.374Zm0,0" transform="translate(-10.955 -164.334)" fill="#e39f6e"/>
      <path id="Trazado_109116" data-name="Trazado 109116" d="M37.566,161.07l1.555,12.447a8.863,8.863,0,0,0,17.589,0l.432-3.453,1.123-8.994Zm0,0" transform="translate(-31.403 -134.227)" fill="#f8c298"/>
      <path id="Trazado_109117" data-name="Trazado 109117" d="M130.516,161.07a6.343,6.343,0,0,0,3.722,8.993l1.123-8.993Zm0,0" transform="translate(-108.498 -134.227)" fill="#e39f6e"/>
      <path id="Trazado_109118" data-name="Trazado 109118" d="M25.777,150.75s2.207,2.189,8.148,2.346a.667.667,0,0,0,.684-.668v-.882s2.16,1.418,6.738,1.549a.666.666,0,0,0,.684-.668v-.5s1.78,1.087,7.116,1.173a.668.668,0,0,0,.677-.668v-3.244a.769.769,0,0,0-.769-.769H28.108a2.332,2.332,0,0,0-2.331,2.331Zm0,0" transform="translate(-21.548 -123.651)" fill="#ba6f3c"/>
      <path id="Trazado_109119" data-name="Trazado 109119" d="M174.506,314.453h-39.8V296.867a9.436,9.436,0,0,1,9.436-9.436H165.07a9.436,9.436,0,0,1,9.436,9.436Zm0,0" transform="translate(-112.606 -239.856)" fill="#339ce9"/>
      <path id="Trazado_109120" data-name="Trazado 109120" d="M181.559,292.046v4.084h2.479l-1.4,4.812,4.337,5.811V287.43Zm0,0" transform="translate(-151.772 -239.856)" fill="#5f9eeb"/>
      <path id="Trazado_109121" data-name="Trazado 109121" d="M305.589,292.046v4.084h-2.479l1.4,4.812-4.337,5.811V287.43Zm0,0" transform="translate(-250.924 -239.856)" fill="#5f9eeb"/>
      <path id="Trazado_109122" data-name="Trazado 109122" d="M214.582,287.43h14.042v27.023H214.582Zm0,0" transform="translate(-179.377 -239.856)" fill="#bce0fb"/>
      <path id="Trazado_109123" data-name="Trazado 109123" d="M312.824,296.866v17.587h-3.215V296.866a9.437,9.437,0,0,0-9.437-9.436h3.217A9.436,9.436,0,0,1,312.824,296.866Zm0,0" transform="translate(-250.924 -239.855)" fill="#7fb7ea"/>
      <path id="Trazado_109124" data-name="Trazado 109124" d="M240.99,257.454a3.216,3.216,0,0,1-3.217-3.217v-9.023h6.432v9.023A3.216,3.216,0,0,1,240.99,257.454Zm0,0" transform="translate(-198.763 -204.566)" fill="#f8c298"/>
      <path id="Trazado_109125" data-name="Trazado 109125" d="M147.157,34.332H181.19l.9-4.378a18.286,18.286,0,1,0-35.827,0Zm0,0" transform="translate(-121.947 -6.266)" fill="#ffcf64"/>
      <path id="Trazado_109126" data-name="Trazado 109126" d="M328.536,156.9a4.33,4.33,0,1,1-4.33-4.33A4.331,4.331,0,0,1,328.536,156.9Zm0,0" transform="translate(-267.395 -127.125)" fill="#f8c298"/>
      <path id="Trazado_109127" data-name="Trazado 109127" d="M150.751,156.9a4.331,4.331,0,1,1-4.331-4.33A4.331,4.331,0,0,1,150.751,156.9Zm0,0" transform="translate(-118.778 -127.125)" fill="#f8c298"/>
      <path id="Trazado_109128" data-name="Trazado 109128" d="M178.422,109.1l1.337,10.705a11.672,11.672,0,0,0,23.163,0L204.26,109.1a5.362,5.362,0,0,0-5.321-6.027h-15.2a5.362,5.362,0,0,0-5.321,6.027Zm0,0" transform="translate(-149.114 -85.743)" fill="#ffd6c0"/>
      <path id="Trazado_109129" data-name="Trazado 109129" d="M167.539,91.9v5.8a1.008,1.008,0,0,0,1.017,1.009c2.641-.022,9.019-.483,13.826-4.111,4.807,3.627,11.185,4.088,13.826,4.111a1.008,1.008,0,0,0,1.017-1.009V91.9Zm0,0" transform="translate(-140.052 -76.404)" fill="#ffcf64"/>
      <path id="Trazado_109130" data-name="Trazado 109130" d="M75.6,48.321H71.5V47.59a10.121,10.121,0,0,0,6.178-7.2,4.515,4.515,0,0,0,4.66-7.278l.3-1.45A14.961,14.961,0,0,0,80.188,19.92a1.231,1.231,0,1,0-2.011,1.419,12.521,12.521,0,0,1,2.051,9.828l-.107.522a4.507,4.507,0,0,0-1.216-.168l-.069,0,.122-.975a1.23,1.23,0,0,0-.495-2.339c-4.242-.122-5.883-.913-6.031-.989a1.191,1.191,0,0,0-1.232-.041,1.222,1.222,0,0,0-.626,1.012,12.563,12.563,0,0,1-5.519-1.323A1.231,1.231,0,0,0,63.149,27.9v.3q-.528-.028-1.034-.08a5.565,5.565,0,0,0-1.2-2.08l.43-2.1a19.558,19.558,0,0,0,.254-6.329,12.686,12.686,0,0,1,13.048.352,1.231,1.231,0,0,0,1.329-2.071,15.157,15.157,0,0,0-14.862-.809A19.537,19.537,0,0,0,42.227.5,19.319,19.319,0,0,0,30.441,4.455,1.23,1.23,0,0,0,31.93,6.414,17.059,17.059,0,0,1,58.935,23.441l-.228,1.112a5.522,5.522,0,0,0-1.9-.334q-.27,0-.536.026l.09-.724a2.237,2.237,0,0,0,2.039-2.23V18.427a1.23,1.23,0,0,0-2.461,0v2.64c-2.562-.046-8.468-.536-12.871-3.86a1.231,1.231,0,0,0-1.482,0c-4.4,3.324-10.31,3.814-12.872,3.86v-2.64a1.23,1.23,0,1,0-2.461,0v2.865a2.24,2.24,0,0,0,1.829,2.2s0,.008,0,.013l.092.738q-.266-.025-.536-.025a5.537,5.537,0,0,0-1.9.333l-.228-1.111A16.856,16.856,0,0,1,28.431,9.987a1.23,1.23,0,1,0-1.989-1.448,19.487,19.487,0,0,0-3.128,6.582A15.12,15.12,0,0,0,1.7,31.662l.3,1.45a4.514,4.514,0,0,0,4.66,7.277,10.122,10.122,0,0,0,6.179,7.2v.732H8.4a8.4,8.4,0,0,0-8.4,8.4V70.072a1.23,1.23,0,1,0,2.461,0V56.717A5.941,5.941,0,0,1,8.4,50.782H12.84v.362a3.673,3.673,0,0,0,7.346,0v-.362h2.7A10.61,10.61,0,0,0,20.87,57.01V74.6a1.23,1.23,0,1,0,2.461,0V57.01A8.215,8.215,0,0,1,31.537,48.8h.326l-2.874,2.448a1.229,1.229,0,0,0-.433.936v4.084a1.23,1.23,0,0,0,1.23,1.23h.84l-.941,3.239a1.231,1.231,0,0,0,.2,1.079l4.093,5.484V74.6a1.23,1.23,0,0,0,2.461,0V48.8h1.343v.866a4.447,4.447,0,0,0,8.894,0V48.8h1.344V74.6a1.23,1.23,0,0,0,2.461,0V67.306l4.092-5.484a1.229,1.229,0,0,0,.2-1.079L53.825,57.5h.841a1.231,1.231,0,0,0,1.23-1.23V52.19a1.231,1.231,0,0,0-.433-.937l-2.87-2.445a8.214,8.214,0,0,1,8.076,8.2v4.614a1.23,1.23,0,1,0,2.461,0V57.01a10.609,10.609,0,0,0-2.015-6.228h3.043v.362a3.673,3.673,0,0,0,7.346,0v-.362h4.1a5.942,5.942,0,0,1,5.934,5.935V70.072a1.23,1.23,0,1,0,2.461,0V56.717a8.4,8.4,0,0,0-8.4-8.4Zm3.3-14.34a2.058,2.058,0,1,1-.866,3.923l.485-3.887a2.1,2.1,0,0,1,.381-.037ZM63.657,30.675h.051a1.907,1.907,0,0,0,1.669-.983,18.573,18.573,0,0,0,5.7.982,1.923,1.923,0,0,0,1.381-.537,1.977,1.977,0,0,0,.2-.224,20.055,20.055,0,0,0,3.82.649L75.4,39.137a7.632,7.632,0,0,1-15.147,0l-.574-4.6A5.571,5.571,0,0,0,62.31,30.6q.66.054,1.346.073Zm-8.95,5.2q.08-.3.144-.615a2.043,2.043,0,0,1,.116-.235,5.549,5.549,0,0,0,1.843.314c.165,0,.329-.009.49-.023l.324,2.588A2.057,2.057,0,0,1,54.7,36.04c0-.055,0-.11.008-.164Zm2.1-9.2a3.1,3.1,0,0,1,0,6.2,3.068,3.068,0,0,1-1.562-.424l.706-5.654a3.088,3.088,0,0,1,.856-.122ZM42.33,19.7A24.865,24.865,0,0,0,53.9,23.423L52.587,33.907a10.441,10.441,0,0,1-20.721,0L30.559,23.439A25,25,0,0,0,42.33,19.7ZM27.045,35.308a5.512,5.512,0,0,0,2.349-.253,2.058,2.058,0,0,1-2.674,2.851ZM28.5,26.8l.707,5.657a3.061,3.061,0,0,1-1.562.423A3.1,3.1,0,1,1,28.5,26.8ZM6.707,20.626a12.67,12.67,0,0,1,16.128-2.969,19.619,19.619,0,0,0,.272,6.278l.43,2.1A5.578,5.578,0,0,0,22.5,27.675a6.6,6.6,0,0,1-1.382-.456,1.191,1.191,0,0,0-1.232-.041,1.222,1.222,0,0,0-.626,1.012,12.579,12.579,0,0,1-5.52-1.323A1.231,1.231,0,0,0,11.831,27.9v.3a14.662,14.662,0,0,1-5.489-1.21,1.23,1.23,0,0,0-1.128,2.184l.294,2.356H5.439a4.506,4.506,0,0,0-1.216.167l-.107-.522A12.6,12.6,0,0,1,6.707,20.626ZM3.381,36.04a2.06,2.06,0,0,1,2.058-2.058,2.1,2.1,0,0,1,.381.035l.486,3.888A2.057,2.057,0,0,1,3.381,36.04Zm5.559,3.1-1.131-9.05a20.812,20.812,0,0,0,4.53.588h.051a1.907,1.907,0,0,0,1.669-.983,18.569,18.569,0,0,0,5.7.982,1.922,1.922,0,0,0,1.381-.537,1.959,1.959,0,0,0,.2-.223c.223.065.475.13.756.194a5.564,5.564,0,0,0,2.576,4.367l-.582,4.662a7.632,7.632,0,0,1-15.147,0Zm7.573,13.219A1.213,1.213,0,0,1,15.3,51.144V48.209a10.1,10.1,0,0,0,1.212.076,9.972,9.972,0,0,0,1.212-.076v2.936A1.213,1.213,0,0,1,16.513,52.356Zm15.708,8.485,1.227-4.224a1.23,1.23,0,0,0-1.182-1.574H31.018V52.758l2.957-2.519V63.191Zm-.684-14.5a10.605,10.605,0,0,0-6.259,2.037,8.54,8.54,0,0,0-.991-.06h-4.1v-.732a10.12,10.12,0,0,0,6.179-7.2,4.489,4.489,0,0,0,4.648-1.4A12.974,12.974,0,0,0,37.78,44.72v1.624Zm10.69,5.313a1.989,1.989,0,0,1-1.986-1.986V45.358a12.691,12.691,0,0,0,3.972,0v4.313A1.989,1.989,0,0,1,42.227,51.657Zm11.208,3.386H52.186A1.231,1.231,0,0,0,51,56.617l1.227,4.224-1.754,2.35V50.239l2.957,2.519Zm6.279-6.721a8.532,8.532,0,0,0-.991.06,10.6,10.6,0,0,0-6.259-2.037h-5.79V44.719A12.969,12.969,0,0,0,53.4,39.055a4.5,4.5,0,0,0,4.582,1.333,10.12,10.12,0,0,0,6.178,7.2v.732Zm8.117,4.035a1.213,1.213,0,0,1-1.212-1.212V48.209a10.094,10.094,0,0,0,1.212.076,9.979,9.979,0,0,0,1.212-.076v2.936A1.214,1.214,0,0,1,67.831,52.356Zm0,0" transform="translate(0 0)"/>
      <path id="Trazado_109131" data-name="Trazado 109131" d="M376.518,206.566l.015.521a1.23,1.23,0,0,0,1.229,1.2h.034a1.231,1.231,0,0,0,1.2-1.264l-.014-.521a1.231,1.231,0,1,0-2.46.067Zm0,0" transform="translate(-314.744 -171.201)"/>
      <path id="Trazado_109132" data-name="Trazado 109132" d="M436.526,208.283h.034a1.231,1.231,0,0,0,1.2-1.264l-.014-.521a1.231,1.231,0,1,0-2.46.067l.014.521A1.231,1.231,0,0,0,436.526,208.283Zm0,0" transform="translate(-363.868 -171.201)"/>
      <path id="Trazado_109133" data-name="Trazado 109133" d="M388.316,229.455a4.846,4.846,0,0,0,7.855,0,1.231,1.231,0,0,0-1.994-1.443,2.384,2.384,0,0,1-3.868,0,1.23,1.23,0,0,0-1.993,1.443Zm0,0" transform="translate(-324.411 -189.761)"/>
      <path id="Trazado_109134" data-name="Trazado 109134" d="M462.656,348.883a1.23,1.23,0,0,0-1.23,1.23V361.3a1.23,1.23,0,1,0,2.461,0V350.113A1.23,1.23,0,0,0,462.656,348.883Zm0,0" transform="translate(-385.723 -291.227)"/>
      <path id="Trazado_109135" data-name="Trazado 109135" d="M66.2,207.019l-.015-.521a1.23,1.23,0,1,0-2.46.067l.014.521a1.231,1.231,0,0,0,1.229,1.2H65A1.231,1.231,0,0,0,66.2,207.019Zm0,0" transform="translate(-53.269 -171.201)"/>
      <path id="Trazado_109136" data-name="Trazado 109136" d="M123.73,208.283h.034a1.23,1.23,0,0,0,1.2-1.264l-.014-.521a1.231,1.231,0,1,0-2.46.067l.015.521A1.23,1.23,0,0,0,123.73,208.283Zm0,0" transform="translate(-102.39 -171.201)"/>
      <path id="Trazado_109137" data-name="Trazado 109137" d="M83.373,229.455a1.231,1.231,0,0,0-1.994-1.443,2.384,2.384,0,0,1-3.868,0,1.23,1.23,0,1,0-1.993,1.443,4.846,4.846,0,0,0,7.855,0Zm0,0" transform="translate(-62.933 -189.761)"/>
      <path id="Trazado_109138" data-name="Trazado 109138" d="M36.8,348.883a1.23,1.23,0,0,0-1.23,1.23V361.3a1.23,1.23,0,1,0,2.461,0V350.113A1.23,1.23,0,0,0,36.8,348.883Zm0,0" transform="translate(-29.738 -291.227)"/>
      <path id="Trazado_109139" data-name="Trazado 109139" d="M371.023,397.57a1.23,1.23,0,0,0-1.23,1.23v7.723a1.23,1.23,0,1,0,2.461,0V398.8A1.23,1.23,0,0,0,371.023,397.57Zm0,0" transform="translate(-309.123 -331.926)"/>
      <path id="Trazado_109140" data-name="Trazado 109140" d="M212.375,168.921h.034a1.231,1.231,0,0,0,1.2-1.264l-.019-.686a1.231,1.231,0,0,0-2.46.067l.019.686A1.231,1.231,0,0,0,212.375,168.921Zm0,0" transform="translate(-176.488 -138.159)"/>
      <path id="Trazado_109141" data-name="Trazado 109141" d="M289.762,168.921h.035a1.23,1.23,0,0,0,1.2-1.264l-.019-.686a1.231,1.231,0,0,0-2.46.067l.019.686A1.23,1.23,0,0,0,289.762,168.921Zm0,0" transform="translate(-241.178 -138.159)"/>
      <path id="Trazado_109142" data-name="Trazado 109142" d="M231.445,199.445a6.014,6.014,0,0,0,4.856-2.482,1.231,1.231,0,0,0-1.994-1.443,3.53,3.53,0,0,1-5.725,0,1.23,1.23,0,0,0-1.993,1.443A6.013,6.013,0,0,0,231.445,199.445Zm0,0" transform="translate(-189.218 -162.599)"/>
      <path id="Trazado_109143" data-name="Trazado 109143" d="M175.289,385.328a1.23,1.23,0,0,0-1.23,1.23v9.731a1.23,1.23,0,0,0,2.461,0v-9.731A1.23,1.23,0,0,0,175.289,385.328Zm0,0" transform="translate(-145.502 -321.692)"/>
      <path id="Trazado_109144" data-name="Trazado 109144" d="M324.171,385.328a1.23,1.23,0,0,0-1.23,1.23v9.731a1.23,1.23,0,0,0,2.461,0v-9.731A1.23,1.23,0,0,0,324.171,385.328Zm0,0" transform="translate(-269.958 -321.692)"/>
    </g>
    <rect id="Rectángulo_7271" data-name="Rectángulo 7271" width="396" height="86" transform="translate(596 1539)" fill="none"/>
  </g>
</svg>
