<svg xmlns="http://www.w3.org/2000/svg" width="54.001" height="54" viewBox="0 0 54.001 54">
  <g id="Grupo_70051" data-name="Grupo 70051" transform="translate(-1261 -1074)">
    <g id="Fill_out_line" data-name="Fill out line" transform="translate(1245 1057.994)">
      <path id="Trazado_115301" data-name="Trazado 115301" d="M149.6,44.637a2.766,2.766,0,0,1-2.763,2.763H130.763a2.761,2.761,0,0,1-2.644-3.564,2.727,2.727,0,0,1,.345-.732,7.95,7.95,0,0,0,1.335-4.412V33a9,9,0,0,1,18,0v5.691a7.956,7.956,0,0,0,1.336,4.413,2.775,2.775,0,0,1,.464,1.533Z" transform="translate(-99.4 -7.095)" fill="#2f4054"/>
      <path id="Trazado_115302" data-name="Trazado 115302" d="M100.572,192.181,94.206,194v7.2h-23.4V194l-6.236-1.782,1.335-4.177A10.843,10.843,0,0,1,76.233,180.5h.183a4.5,4.5,0,0,0,4.5-4.5h3.6a4.5,4.5,0,0,0,4.5,4.5,10.843,10.843,0,0,1,10.4,7.767Z" transform="translate(-43.106 -141.995)" fill="#8acce7"/>
      <path id="Trazado_115303" data-name="Trazado 115303" d="M59.868,329.142a2.7,2.7,0,0,1-2.7,2.7H50.66a4.5,4.5,0,0,1-4.3-5.823l1.872-5.859,6.236,1.782v4.5h2.7a2.7,2.7,0,0,1,2.7,2.7Z" transform="translate(-26.767 -269.936)" fill="#f4ceaf"/>
      <path id="Trazado_115304" data-name="Trazado 115304" d="M275.007,331.549H266.7a2.7,2.7,0,0,1,0-5.4h4.5v-4.5l6.365-1.819,1.743,5.9a4.5,4.5,0,0,1-4.3,5.823Z" transform="translate(-220.099 -269.644)" fill="#f4ceaf"/>
      <path id="Trazado_115305" data-name="Trazado 115305" d="M192.016,180.139l-.543.815a5.044,5.044,0,0,1-8.395,0l-.458-.686a4.5,4.5,0,0,0,1.747-1.086l.087-.089A4.487,4.487,0,0,0,185.686,176h3.6a4.478,4.478,0,0,0,1.121,2.97c.064.073.129.143.2.212A4.512,4.512,0,0,0,192.016,180.139Z" transform="translate(-147.875 -141.995)" fill="#f4ceaf"/>
      <path id="Trazado_115306" data-name="Trazado 115306" d="M143.2,101.4h-5.4a1.8,1.8,0,0,1-1.8-1.8V97.8a1.8,1.8,0,0,1,1.8-1.8h0a1.8,1.8,0,0,1,1.8,1.8Z" transform="translate(-106.5 -70.995)" fill="#f2c194"/>
      <path id="Trazado_115307" data-name="Trazado 115307" d="M267.6,101.4H264l1.8-3.6a1.8,1.8,0,0,1,1.8-1.8h0a1.8,1.8,0,0,1,1.8,1.8v1.8A1.8,1.8,0,0,1,267.6,101.4Z" transform="translate(-220.099 -70.995)" fill="#f2c194"/>
      <path id="Trazado_115308" data-name="Trazado 115308" d="M204.872,178.97a8.1,8.1,0,0,1-5.952.123A4.487,4.487,0,0,0,200.152,176h3.6A4.478,4.478,0,0,0,204.872,178.97Z" transform="translate(-162.341 -141.995)" fill="#f2c194"/>
      <path id="Trazado_115309" data-name="Trazado 115309" d="M180.6,66.235v3.158a6.3,6.3,0,0,1-12.6,0V66.235a1.341,1.341,0,0,1,1.342-1.342,2.835,2.835,0,0,0,2.765-2.2,2.25,2.25,0,0,1,4.385,0,2.835,2.835,0,0,0,2.765,2.2,1.342,1.342,0,0,1,1.342,1.342Z" transform="translate(-134.9 -39.888)" fill="#f4ceaf"/>
      <path id="Trazado_115310" data-name="Trazado 115310" d="M211.9,243.6v11.7H201.1v-8.1H190.3l-.489,1.469A1.8,1.8,0,0,1,188.1,249.9h-2.3a1.8,1.8,0,0,1-1.8-1.8v-4.5a3.6,3.6,0,0,1,3.6-3.6h20.7a3.6,3.6,0,0,1,3.6,3.6Z" transform="translate(-149.1 -198.795)" fill="#c4d4e0"/>
      <rect id="Rectángulo_7068" data-name="Rectángulo 7068" width="8" height="3" rx="1.5" transform="translate(49 38.005)" fill="#ad7d4d"/>
      <rect id="Rectángulo_7069" data-name="Rectángulo 7069" width="8" height="3" rx="1.5" transform="translate(49 32.006)" fill="#ad7d4d"/>
      <rect id="Rectángulo_7070" data-name="Rectángulo 7070" width="4" height="3" transform="translate(51 35.006)" fill="#008051"/>
      <circle id="Elipse_5236" data-name="Elipse 5236" cx="1.5" cy="1.5" r="1.5" transform="translate(56 47.005)" fill="#a6b2bc"/>
      <rect id="Rectángulo_7071" data-name="Rectángulo 7071" width="3" height="6" rx="1.5" transform="translate(63 44.005)" fill="#a6b2bc"/>
      <rect id="Rectángulo_7072" data-name="Rectángulo 7072" width="32" height="6" rx="3" transform="translate(33 56.006)" fill="#a6b2bc"/>
      <path id="Trazado_115311" data-name="Trazado 115311" d="M191.443,378.35a3.184,3.184,0,0,1,.8,3.15h-10.8a3.179,3.179,0,0,0-.8-3.15,3.181,3.181,0,0,1,0-4.5,3.18,3.18,0,0,0,0-4.5,3.164,3.164,0,0,1-.8-1.35h10.8a3.164,3.164,0,0,0,.8,1.35,3.18,3.18,0,0,1,0,4.5A3.18,3.18,0,0,0,191.443,378.35Z" transform="translate(-145.292 -312.394)" fill="#349966"/>
      <ellipse id="Elipse_5237" data-name="Elipse 5237" cx="0.5" cy="1" rx="0.5" ry="1" transform="translate(36 27.006)"/>
      <circle id="Elipse_5238" data-name="Elipse 5238" cx="1" cy="1" r="1" transform="translate(41 27.006)"/>
      <path id="Trazado_115312" data-name="Trazado 115312" d="M362.7,285.4a2.7,2.7,0,1,0-2.7-2.7,2.7,2.7,0,0,0,2.7,2.7Zm0-3.6a.9.9,0,1,1-.9.9A.9.9,0,0,1,362.7,281.8Z" transform="translate(-305.299 -234.295)"/>
      <path id="Trazado_115313" data-name="Trazado 115313" d="M66.4,59.206v-1.8a1.8,1.8,0,0,0-1.8-1.8h-.9v-4.5h1.8a1.8,1.8,0,0,0,1.8-1.8v-4.5a1.8,1.8,0,0,0-1.8-1.8H63.7a1.8,1.8,0,0,0-.361.036A4.507,4.507,0,0,0,59.2,40.305H57.355A2.251,2.251,0,0,0,55.6,37.651V35.76a2.25,2.25,0,0,0-.45-4.455h-4.5a2.235,2.235,0,0,0-1.347.452c0-.053,0-.107,0-.16v-.981a2.694,2.694,0,0,0,.9-2.01v-1.8a2.7,2.7,0,0,0-.969-2.071,9.9,9.9,0,0,0-19.662,0,2.7,2.7,0,0,0-.969,2.07v1.8a2.694,2.694,0,0,0,.9,2.01V31.6a7.032,7.032,0,0,1-1.185,3.913,3.662,3.662,0,0,0-.388,3.3,11.706,11.706,0,0,0-5.985,6.96L18.732,55.818a5.353,5.353,0,0,0,.066,3.388H16v1.8h3.87a5.341,5.341,0,0,0,4.023,1.8H30.4a3.581,3.581,0,0,0,2.161-.723,1.8,1.8,0,0,0,1.065.683,4.107,4.107,0,0,0-.109.939,4.056,4.056,0,0,0,1.2,2.886,2.282,2.282,0,0,1,.575,2.259.9.9,0,0,0,.863,1.154h10.8a.9.9,0,0,0,.863-.644,4.084,4.084,0,0,0-1.03-4.042,2.28,2.28,0,0,1-.484-2.514H64.6a1.8,1.8,0,0,0,1.8-1.8H70v-1.8Zm-.9-14.4v4.5H63.7v-4.5Zm-3.6,0v10.8h-9v-7.2a.9.9,0,0,0-.9-.9H42.449l.505-1.515-1.708-.569-1.39,4.169a.9.9,0,0,1-.854.615H36.7a.9.9,0,0,1-.9-.9v-4.5a2.7,2.7,0,0,1,2.7-2.7H59.2a2.7,2.7,0,0,1,2.7,2.7Zm-15.6,10.8a2.242,2.242,0,0,1-.092-.253.9.9,0,0,0-.864-.647H38.5v-2.7H39a2.7,2.7,0,0,0,2.562-1.846l.285-.854H51.1v6.3Zm-14.1-27v.9h-.9a.9.9,0,0,1-.9-.9v-1.8a.9.9,0,0,1,1.8,0,.9.9,0,0,0,1.8,0v-.457a.443.443,0,0,1,.443-.443,3.721,3.721,0,0,0,3.642-2.9,1.35,1.35,0,0,1,2.631,0,3.721,3.721,0,0,0,3.642,2.9.443.443,0,0,1,.443.443v.457a.9.9,0,0,0,1.8,0,.9.9,0,1,1,1.8,0v1.8a.9.9,0,0,1-.9.9h-.9v-.9H44.8v.9a5.4,5.4,0,1,1-10.8,0v-.9Zm5.859,7.973a7.13,7.13,0,0,0,2.665,0,5.415,5.415,0,0,0,1.992,2.066,4.143,4.143,0,0,1-6.637-.008,5.415,5.415,0,0,0,1.98-2.061Zm10.387,3.727H43.662a5.971,5.971,0,0,0,.685-.847l.1-.151a5.371,5.371,0,0,0,1.023.1h.183a9.911,9.911,0,0,1,2.752.389.51.51,0,0,0,0,.061,2.253,2.253,0,0,0,.045.45Zm2.2,0a.45.45,0,1,1,0-.9h4.5a.45.45,0,0,1,0,.9Zm1.35-2.7v-1.8h1.8v1.8Zm-1.35-4.5h4.5a.45.45,0,0,1,0,.9h-4.5a.45.45,0,1,1,0-.9Zm-1.663,3.4a1.857,1.857,0,0,1,.313,1.034h.9v.109a2.242,2.242,0,0,0-1.014.5,11.7,11.7,0,0,0-3.533-.545h-.183a3.611,3.611,0,0,1-2.988-1.594,7.231,7.231,0,0,0,3.89-4.706H47.5V31.6a8.827,8.827,0,0,0,1.487,4.912ZM39.4,17.8a8.137,8.137,0,0,1,7.9,6.309,2.686,2.686,0,0,0-1.453.558,2.234,2.234,0,0,0-1.489-.567,1.929,1.929,0,0,1-1.888-1.5,3.15,3.15,0,0,0-6.139,0,1.929,1.929,0,0,1-1.888,1.5,2.234,2.234,0,0,0-1.489.567,2.686,2.686,0,0,0-1.453-.558A8.137,8.137,0,0,1,39.4,17.8ZM29.5,37.542a1.858,1.858,0,0,1,.313-1.034A8.826,8.826,0,0,0,31.3,31.6v-.292h1.128A7.231,7.231,0,0,0,36.3,36a3.611,3.611,0,0,1-2.993,1.6h-.183a11.8,11.8,0,0,0-3.528.539A1.862,1.862,0,0,1,29.5,37.542Zm3.627,1.863h.183a5.371,5.371,0,0,0,1.04-.1l.1.154a5.946,5.946,0,0,0,1.568,1.594A4.5,4.5,0,0,0,34,44.805v4.5a2.7,2.7,0,0,0,2.7,2.7v2.7H34.548a.9.9,0,0,0-.9.935,1.8,1.8,0,0,0-1.088.688,3.581,3.581,0,0,0-2.161-.723H28.6v-6.3H26.8v1.507l-4.2-1.2,1.053-3.293A9.91,9.91,0,0,1,33.127,39.405ZM30.4,61.006H23.893a3.6,3.6,0,0,1-3.444-4.649l1.607-5.027L26.8,52.684v2.921H22.3v1.8h8.1a1.8,1.8,0,1,1,0,3.6Zm3.6,0v-3.6h.539q.084.1.175.186a2.281,2.281,0,0,1,0,3.227c-.06.06-.118.123-.174.186Zm1.986,4.314a2.281,2.281,0,0,1,0-3.227,4.081,4.081,0,0,0,.175-5.586h1.376a4.091,4.091,0,0,0,.776,1.086,2.281,2.281,0,0,1,0,3.227,4.08,4.08,0,0,0,0,5.773,2.282,2.282,0,0,1,.668,1.614h-1.8a4.08,4.08,0,0,0-1.2-2.887Zm10.2,2.886h-5.4a4.08,4.08,0,0,0-1.195-2.886,2.281,2.281,0,0,1,0-3.227,4.079,4.079,0,0,0,.174-5.586h4.976a4.093,4.093,0,0,0,.777,1.086,2.281,2.281,0,0,1,0,3.227,4.08,4.08,0,0,0,0,5.773A2.267,2.267,0,0,1,46.183,68.206Zm18.418-7.2H47.566a4.089,4.089,0,0,0,0-3.6H64.6Z"/>
    </g>
    <rect id="Rectángulo_7226" data-name="Rectángulo 7226" width="54" height="54" transform="translate(1261 1074)" fill="none"/>
  </g>
</svg>
