<svg xmlns="http://www.w3.org/2000/svg" width="292" height="86" viewBox="0 0 292 86">
  <g id="Grupo_70254" data-name="Grupo 70254" transform="translate(-284 -1539)">
    <g id="innovation" transform="translate(386 1540)">
      <path id="Trazado_109073" data-name="Trazado 109073" d="M60.918,29.623c0,7.09-2.861,16.792-7.549,25.09-2.822,5-8.976,11.411-8.976,17.139H32V3C47.971,3,60.918,14.532,60.918,29.623Z" transform="translate(11.311 0.377)" fill="#dbe6fd"/>
      <path id="Trazado_109074" data-name="Trazado 109074" d="M32,20H44.393V36.525H32Z" transform="translate(11.311 6.787)" fill="#339ce9"/>
      <path id="Trazado_109075" data-name="Trazado 109075" d="M11,29.623c0,7.09,2.861,16.792,7.549,25.09,2.822,5,8.976,11.411,8.976,17.139H39.918V3C23.947,3,11,14.532,11,29.623Z" transform="translate(3.393 0.377)" fill="#fccc38"/>
      <path id="Trazado_109076" data-name="Trazado 109076" d="M47.215,58.483H24.51a2.754,2.754,0,0,1-2.754-2.754v-.1a2.6,2.6,0,0,1,2.754-2.561h22.7a2.6,2.6,0,0,1,2.754,2.561v.1A2.754,2.754,0,0,1,47.215,58.483Z" transform="translate(7.449 19.255)" fill="#5358a1"/>
      <rect id="Rect치ngulo_7055" data-name="Rect치ngulo 7055" width="28.918" height="5.605" rx="2" transform="translate(28.852 77.738)" fill="#5358a1"/>
      <path id="Trazado_109077" data-name="Trazado 109077" d="M34.93,12.157l-.6,2.875a16.367,16.367,0,0,0-2.621.706l-1.974-2.2A19.23,19.23,0,0,0,25.689,15.9l.913,2.779A16.613,16.613,0,0,0,24.679,20.6L21.9,19.688a19.228,19.228,0,0,0-2.364,4.043l2.2,1.974a16.358,16.358,0,0,0-.706,2.621l-2.875.6a17.633,17.633,0,0,0,0,4.7l2.875.6a16.356,16.356,0,0,0,.706,2.621l-2.2,1.974A19.232,19.232,0,0,0,21.9,42.869l2.779-.913A16.613,16.613,0,0,0,26.6,43.879l-.913,2.779a19.229,19.229,0,0,0,4.043,2.364l1.974-2.2a16.37,16.37,0,0,0,2.621.706l.6,2.875a19.382,19.382,0,0,0,2.348.157V12a19.38,19.38,0,0,0-2.348.157Z" transform="translate(6.033 3.771)" fill="#bf3976"/>
      <path id="Trazado_109078" data-name="Trazado 109078" d="M35.016,40.033a11.016,11.016,0,1,1,0-22.033" transform="translate(8.295 6.033)" fill="#f7edd3"/>
      <circle id="Elipse_5231" data-name="Elipse 5231" cx="2.754" cy="2.754" r="2.754" transform="translate(48.82 11.639)" fill="#0ac4bf"/>
      <circle id="Elipse_5232" data-name="Elipse 5232" cx="2.754" cy="2.754" r="2.754" transform="translate(59.836 18.525)" fill="#0ac4bf"/>
      <circle id="Elipse_5233" data-name="Elipse 5233" cx="2.754" cy="2.754" r="2.754" transform="translate(66.721 36.426)" fill="#0ac4bf"/>
      <circle id="Elipse_5234" data-name="Elipse 5234" cx="2.754" cy="2.754" r="2.754" transform="translate(51.574 52.951)" fill="#0ac4bf"/>
      <path id="Trazado_109079" data-name="Trazado 109079" d="M43.27,51.45l-2.56-1.014A23.321,23.321,0,0,1,42,47.746l2.411,1.331A20.614,20.614,0,0,0,43.27,51.45Z" transform="translate(14.596 17.249)"/>
      <path id="Trazado_109080" data-name="Trazado 109080" d="M45.045,48.086l-2.312-1.5c.516-.8,1.056-1.59,1.6-2.367L46.592,45.8c-.524.753-1.046,1.517-1.546,2.289Z" transform="translate(15.358 15.92)"/>
      <path id="Trazado_109081" data-name="Trazado 109081" d="M47.323,44.749l-2.262-1.571c.543-.783,1.06-1.545,1.525-2.282l2.33,1.466C48.432,43.134,47.891,43.932,47.323,44.749Z" transform="translate(16.236 14.666)"/>
      <path id="Trazado_109082" data-name="Trazado 109082" d="M49.575,41.159l-2.429-1.3q.645-1.208,1.238-2.449L50.869,38.6q-.618,1.3-1.294,2.562Z" transform="translate(17.022 13.352)"/>
      <path id="Trazado_109083" data-name="Trazado 109083" d="M51.4,37.369l-2.535-1.079c.36-.846.7-1.7,1.021-2.55l2.578.968Q51.964,36.043,51.4,37.369Z" transform="translate(17.671 11.968)"/>
      <path id="Trazado_109084" data-name="Trazado 109084" d="M54.667,25.1l-2.745-.231c.071-.839.107-1.655.107-2.423V22.19l2.754-.022v.274C54.783,23.289,54.744,24.182,54.667,25.1Z" transform="translate(18.823 7.605)"/>
      <path id="Trazado_109085" data-name="Trazado 109085" d="M52,21.149a23.8,23.8,0,0,0-.459-2.61l2.681-.627a26.687,26.687,0,0,1,.512,2.911Z" transform="translate(18.68 6)"/>
      <path id="Trazado_109086" data-name="Trazado 109086" d="M51.282,17.521a24.056,24.056,0,0,0-1.027-2.445l2.476-1.2A26.527,26.527,0,0,1,53.876,16.6Z" transform="translate(18.194 4.476)"/>
      <path id="Trazado_109087" data-name="Trazado 109087" d="M49.738,14.128a25.073,25.073,0,0,0-1.54-2.165l2.157-1.713a27.811,27.811,0,0,1,1.711,2.407Z" transform="translate(17.419 3.111)"/>
      <path id="Trazado_109088" data-name="Trazado 109088" d="M47.456,11.121a26.031,26.031,0,0,0-1.963-1.8L47.248,7.2A28.84,28.84,0,0,1,49.419,9.19Z" transform="translate(16.399 1.96)"/>
      <path id="Trazado_109089" data-name="Trazado 109089" d="M44.566,8.62c-.732-.492-1.5-.957-2.288-1.382l1.31-2.423c.865.468,1.711.979,2.515,1.52Z" transform="translate(15.187 1.061)"/>
      <path id="Trazado_109090" data-name="Trazado 109090" d="M41.213,6.707c-.808-.343-1.651-.655-2.509-.927l.834-2.625c.939.3,1.866.64,2.753,1.018Z" transform="translate(13.839 0.436)"/>
      <path id="Trazado_109091" data-name="Trazado 109091" d="M37.547,5.431c-.865-.192-1.754-.347-2.642-.461l.352-2.733c.97.126,1.941.3,2.885.5Z" transform="translate(12.407 0.089)"/>
      <path id="Trazado_109092" data-name="Trazado 109092" d="M66.459,35.036a4.124,4.124,0,0,0-3.877,2.754H54.066V32.282h5.508A1.377,1.377,0,0,0,60.951,30.9V25.143a4.131,4.131,0,1,0-2.754,0v4.385H54.066V26.774A1.377,1.377,0,0,0,52.689,25.4H49.934V18.258a4.131,4.131,0,1,0-2.754,0V25.4H41.672V3.412A1.377,1.377,0,0,0,40.3,2.035c-16.988,0-30.3,12.3-30.3,28,0,7.458,2.961,17.333,7.727,25.769.856,1.514,1.973,3.106,3.155,4.793,2.5,3.563,5.281,7.57,5.584,11.057a3.914,3.914,0,0,0-1.654,3.268,4.09,4.09,0,0,0,.911,2.557,4.246,4.246,0,0,0-1.264,3.048,4.136,4.136,0,0,0,4.131,4.131H52a4.157,4.157,0,0,0,4.131-4.228,4.113,4.113,0,0,0-1.267-2.966,4.251,4.251,0,0,0,.915-2.639,3.949,3.949,0,0,0-4.131-3.937H41.672V44.675h2.754v4.131A1.377,1.377,0,0,0,45.8,50.183h4.131v1.631a4.131,4.131,0,1,0,2.754,0V48.806a1.377,1.377,0,0,0-1.377-1.377H47.18V44.675h5.508A1.377,1.377,0,0,0,54.066,43.3V40.544h8.516a4.124,4.124,0,1,0,3.877-5.508ZM59.574,19.888A1.377,1.377,0,1,1,58.2,21.265,1.377,1.377,0,0,1,59.574,19.888ZM23.137,59.015c-1.143-1.63-2.222-3.168-3.012-4.567-4.477-7.925-7.371-17.508-7.371-24.413,0-13.733,11.384-24.58,26.164-25.216v9.62c-.366.027-.739.061-1.138.109A1.377,1.377,0,0,0,36.6,15.631l-.42,2q-.518.123-1.034.278l-1.372-1.53a1.375,1.375,0,0,0-1.565-.348,20.718,20.718,0,0,0-4.332,2.53,1.377,1.377,0,0,0-.479,1.529l.632,1.926c-.26.245-.514.5-.759.758l-1.924-.632a1.385,1.385,0,0,0-1.529.479,20.667,20.667,0,0,0-2.532,4.334,1.376,1.376,0,0,0,.348,1.565l1.531,1.372q-.154.51-.276,1.023l-2.142.428a1.377,1.377,0,0,0-1.107,1.35v4.7a1.377,1.377,0,0,0,1.107,1.35l2.142.428q.122.512.276,1.023l-1.532,1.372a1.378,1.378,0,0,0-.348,1.565,20.676,20.676,0,0,0,2.532,4.334,1.384,1.384,0,0,0,1.529.479l1.924-.632c.246.26.5.514.759.758L27.4,49.984a1.378,1.378,0,0,0,.479,1.529,20.674,20.674,0,0,0,4.334,2.532,1.379,1.379,0,0,0,1.565-.348l1.372-1.53q.515.155,1.034.278L36.6,54.44a1.376,1.376,0,0,0,1.181,1.084c.4.049.773.082,1.138.109V70.888H29.16C28.6,66.83,25.723,62.7,23.137,59.015ZM27.9,35.036A12.408,12.408,0,0,0,38.918,47.348v4.736L38.69,51a1.378,1.378,0,0,0-1.1-1.073,14.93,14.93,0,0,1-2.4-.647,1.4,1.4,0,0,0-.466-.081,1.376,1.376,0,0,0-1.025.459L32.4,51.1a17.847,17.847,0,0,1-2.073-1.217l.6-1.819a1.379,1.379,0,0,0-.419-1.482,15.089,15.089,0,0,1-1.762-1.762,1.384,1.384,0,0,0-1.48-.417l-1.819.6a17.9,17.9,0,0,1-1.218-2.074l1.446-1.3a1.38,1.38,0,0,0,.377-1.491,14.978,14.978,0,0,1-.647-2.4,1.377,1.377,0,0,0-1.086-1.105l-1.925-.385V33.818l1.925-.385A1.377,1.377,0,0,0,25.4,32.328a15.03,15.03,0,0,1,.647-2.4,1.378,1.378,0,0,0-.378-1.491l-1.444-1.294a18.078,18.078,0,0,1,1.217-2.074l1.819.6a1.385,1.385,0,0,0,1.48-.417,15.4,15.4,0,0,1,1.764-1.766,1.376,1.376,0,0,0,.417-1.478l-.6-1.819A17.949,17.949,0,0,1,32.4,18.97l1.3,1.444a1.382,1.382,0,0,0,1.491.378,14.893,14.893,0,0,1,2.4-.647,1.376,1.376,0,0,0,1.1-1.072l.228-1.084v4.734A12.408,12.408,0,0,0,27.9,35.036Zm11.016-9.529V44.565a9.627,9.627,0,0,1,0-19.059ZM52,81.9H28.59a1.4,1.4,0,0,1-1.377-1.474,1.378,1.378,0,0,1,1.377-1.377H52a1.4,1.4,0,0,1,1.377,1.474A1.378,1.378,0,0,1,52,81.9Zm-.352-8.262a1.261,1.261,0,0,1,1.377,1.28A1.378,1.378,0,0,1,51.648,76.3H28.942a1.4,1.4,0,0,1-1.377-1.474,1.244,1.244,0,0,1,1.377-1.183Zm-.336-19.327a1.377,1.377,0,1,1-1.377,1.377A1.377,1.377,0,0,1,51.311,54.314ZM48.557,13A1.377,1.377,0,1,1,47.18,14.38,1.377,1.377,0,0,1,48.557,13Zm2.754,28.918H41.672V28.151h9.639Zm15.148-1.377a1.377,1.377,0,1,1,1.377-1.377A1.377,1.377,0,0,1,66.459,40.544Z" transform="translate(3.016 0.013)"/>
      <g id="Grupo_61401" data-name="Grupo 61401" transform="translate(2 2)">
        <path id="Trazado_109093" data-name="Trazado 109093" d="M4,56H6.754v2.754H4Z" transform="translate(-1.246 18.361)" fill="#fccc38"/>
        <path id="Trazado_109094" data-name="Trazado 109094" d="M4,60H6.754v2.754H4Z" transform="translate(-1.246 19.869)" fill="#fccc38"/>
        <path id="Trazado_109095" data-name="Trazado 109095" d="M6,58H8.754v2.754H6Z" transform="translate(-0.492 19.115)" fill="#fccc38"/>
        <path id="Trazado_109096" data-name="Trazado 109096" d="M2,58H4.754v2.754H2Z" transform="translate(-2 19.115)" fill="#fccc38"/>
        <path id="Trazado_109097" data-name="Trazado 109097" d="M59,2h2.754V4.754H59Z" transform="translate(19.492 -2)" fill="#fccc38"/>
        <path id="Trazado_109098" data-name="Trazado 109098" d="M59,6h2.754V8.754H59Z" transform="translate(19.492 -0.492)" fill="#fccc38"/>
        <path id="Trazado_109099" data-name="Trazado 109099" d="M61,4h2.754V6.754H61Z" transform="translate(20.246 -1.246)" fill="#fccc38"/>
        <path id="Trazado_109100" data-name="Trazado 109100" d="M57,4h2.754V6.754H57Z" transform="translate(18.738 -1.246)" fill="#fccc38"/>
      </g>
    </g>
    <rect id="Rect치ngulo_7269" data-name="Rect치ngulo 7269" width="292" height="86" transform="translate(284 1539)" fill="none"/>
  </g>
</svg>
